<svg xmlns="http://www.w3.org/2000/svg" version="1.1" xmlns:xlink="http://www.w3.org/1999/xlink" xmlns:svgjs="http://svgjs.com/svgjs" width="41" height="41"><svg width="41" height="41" viewBox="0 0 41 41" fill="none" xmlns="http://www.w3.org/2000/svg">
<circle cx="20.5" cy="20.5" r="20.5" fill="black"></circle>
<path d="M20.4612 1C9.71334 1 1 9.6894 1 20.4077C1 31.126 9.71334 39.8154 20.4612 39.8154C31.209 39.8154 39.9223 31.126 39.9223 20.4077C39.9223 9.6894 31.209 1 20.4612 1ZM20.4612 36.2086C11.8268 36.2086 4.8279 29.1346 4.8279 20.4077C4.8279 11.6808 11.8276 4.60682 20.4612 4.60682C29.0955 4.60682 36.0944 11.6808 36.0944 20.4077C36.0944 29.1346 29.0955 36.2086 20.4612 36.2086Z" fill="white"></path>
<path d="M36.0433 19.1763L30.3781 19.1898L27.5535 24.2724L20.5058 7.09155L14.1654 21.2051L4.84705 21.1852C4.88456 21.9626 4.97874 22.7248 5.1232 23.4687L15.6404 23.491L20.4101 12.8749L27.243 29.5314L31.723 21.4701L36.0569 21.4598C36.0793 21.1118 36.0952 20.7614 36.0952 20.4078C36.0944 19.9928 36.0745 19.5833 36.0433 19.1763Z" fill="#47EBD8"></path>
</svg><style>@media (prefers-color-scheme: light) { :root { filter: none; } }
</style></svg>