<!--
 * Copyright (c) 2026, WSO2 LLC. (https://www.wso2.com).
 *
 * WSO2 LLC. licenses this file to you under the Apache License,
 * Version 2.0 (the "License"); you may not use this file except
 * in compliance with the License.
 * You may obtain a copy of the License at
 *
 *     http://www.apache.org/licenses/LICENSE-2.0
 *
 * Unless required by applicable law or agreed to in writing,
 * software distributed under the License is distributed on an
 * "AS IS" BASIS, WITHOUT WARRANTIES OR CONDITIONS OF ANY
 * KIND, either express or implied. See the License for the
 * specific language governing permissions and limitations
 * under the License.
 -->
 
 <svg width="360" height="91" viewBox="0 0 360 91" fill="none" xmlns="http://www.w3.org/2000/svg">
  <g clip-path="url(#clip0_226_133)">
    <g transform="translate(26, 65.5) scale(0.12) translate(-159, -159)">
      <path d="M156.3 0.0469616C158.678 0.0501132 161.055 0.0265956 163.433 0.00130732C177.536 -0.0579257 191.012 1.89443 204.507 6.11264C205.34 6.3694 206.173 6.62617 207.031 6.89071C230.936 14.4778 251.277 27.1728 269.445 44.3626C270.266 45.1309 271.087 45.8992 271.933 46.6908C282.236 56.6258 290.397 67.9223 297.445 80.3626C297.772 80.9376 298.099 81.5125 298.436 82.1048C307.737 98.7289 313.921 117.488 316.445 136.363C316.582 137.356 316.582 137.356 316.721 138.37C321.984 180.033 310.527 222.036 285.221 255.387C276.746 266.273 267.503 276.065 256.445 284.363C255.412 285.161 254.379 285.958 253.316 286.781C220.487 311.615 177.943 321.845 137.246 316.491C104.507 311.51 74.8589 297.739 50.4445 275.363C49.9059 274.869 49.3672 274.376 48.8122 273.868C28.4099 254.913 14.4749 231.083 6.25703 204.55C6.01888 203.793 5.78072 203.036 5.53535 202.256C1.31544 188.013 -0.114155 173.96 0.00703019 159.175C0.0104039 158.37 0.0137776 157.565 0.0172536 156.735C0.278916 113.453 17.5856 74.7206 47.8781 43.9061C61.1105 30.8676 76.5773 21.0066 93.4445 13.3626C94.0576 13.0844 94.6707 12.8061 95.3024 12.5194C102.726 9.21518 110.234 6.71206 118.07 4.61264C118.809 4.41388 119.548 4.21512 120.309 4.01034C132.283 0.961631 143.997 0.0130336 156.3 0.0469616ZM122.445 23.3626C121.34 23.6602 121.34 23.6602 120.214 23.9637C97.6124 30.1614 78.3633 42.3701 61.4445 58.3626C60.6337 59.109 59.8229 59.8554 58.9875 60.6244C40.6232 78.121 29.0813 101.102 22.4445 125.363C22.2539 126.036 22.0633 126.708 21.8669 127.402C16.2556 148.199 17.3752 174.873 23.4445 195.363C23.6588 196.093 23.8731 196.823 24.0939 197.576C29.8898 216.659 39.5151 234.191 52.4445 249.363C53.245 250.31 54.0455 251.258 54.8703 252.234C78.1987 278.811 112.256 295.476 147.445 298.363C185.123 300.296 221.922 289.601 250.359 264.199C251.39 263.256 252.418 262.311 253.445 261.363C254.21 260.663 254.21 260.663 254.99 259.95C280.332 236.536 296.826 202.48 298.569 167.886C299.773 126.895 286.402 90.5801 258.445 60.3626C235.578 36.7436 201.549 19.6731 168.343 19.1244C152.629 18.8946 137.672 18.9959 122.445 23.3626Z" fill="black"/>
      <path d="M151.445 81.3624C155.924 85.7619 157.011 90.8339 158.545 96.7206C158.827 97.7617 159.109 98.8029 159.399 99.8756C160.326 103.31 161.235 106.748 162.144 110.187C162.785 112.574 163.427 114.961 164.07 117.348C165.759 123.626 167.433 129.908 169.104 136.19C171.141 143.836 173.192 151.478 175.243 159.119C176.838 165.062 178.429 171.005 180.013 176.95C180.449 178.585 180.449 178.585 180.895 180.253C181.44 182.295 181.983 184.337 182.524 186.379C182.764 187.275 183.004 188.17 183.25 189.093C183.562 190.265 183.562 190.265 183.88 191.459C184.403 193.424 184.403 193.424 185.445 195.362C185.787 194.475 186.13 193.587 186.483 192.672C187.762 189.365 189.055 186.064 190.352 182.765C190.91 181.339 191.465 179.911 192.016 178.482C192.811 176.422 193.618 174.369 194.429 172.316C194.671 171.68 194.913 171.044 195.162 170.39C196.969 165.87 199.016 162.577 203.445 160.362C205.046 160.247 206.653 160.193 208.258 160.17C209.26 160.154 210.261 160.137 211.293 160.121C215.881 160.076 220.468 160.035 225.056 160.012C227.475 159.996 229.894 159.969 232.312 159.93C235.8 159.876 239.285 159.854 242.773 159.839C243.851 159.816 244.93 159.794 246.041 159.77C254.427 159.794 254.427 159.794 258.127 162.753C260.498 165.423 261.249 166.362 261.132 169.862C261.136 170.595 261.14 171.327 261.144 172.081C260.048 175.658 258.397 177.07 255.445 179.362C252.138 180.048 248.915 179.946 245.55 179.851C244.129 179.84 244.129 179.84 242.679 179.829C239.663 179.801 236.648 179.739 233.632 179.675C231.583 179.65 229.535 179.627 227.486 179.607C222.471 179.552 217.458 179.465 212.445 179.362C212.33 180.056 212.215 180.749 212.097 181.464C211.363 184.728 210.253 187.641 209.003 190.745C208.76 191.353 208.517 191.961 208.266 192.588C207.476 194.556 206.68 196.522 205.882 198.487C205.335 199.841 204.788 201.194 204.242 202.547C203.154 205.237 202.062 207.925 200.968 210.612C199.634 213.889 198.321 217.174 197.011 220.46C196.323 222.157 195.635 223.854 194.945 225.55C194.644 226.314 194.343 227.078 194.032 227.865C192.451 231.693 191.214 234.431 187.445 236.362C180.589 237.124 180.589 237.124 176.942 234.696C174.051 231.995 173.403 230.316 172.383 226.529C172.055 225.346 171.727 224.163 171.389 222.944C171.049 221.648 170.71 220.351 170.371 219.054C170.003 217.701 169.633 216.349 169.262 214.997C168.276 211.389 167.312 207.776 166.353 204.16C165.362 200.44 164.351 196.724 163.342 193.008C161.752 187.146 160.174 181.28 158.604 175.412C156.779 168.588 154.921 161.774 153.042 154.964C152.346 152.43 151.65 149.895 150.954 147.361C150.534 145.83 150.113 144.299 149.69 142.768C149.122 140.701 148.559 138.631 147.999 136.562C147.543 134.888 147.543 134.888 147.077 133.182C146.445 130.362 146.445 130.362 146.445 126.362C145.785 126.362 145.125 126.362 144.445 126.362C144.333 127.326 144.221 128.291 144.106 129.284C143.449 133.857 142.177 138.199 140.863 142.62C140.607 143.486 140.352 144.352 140.089 145.245C139.549 147.066 139.007 148.886 138.462 150.706C137.634 153.482 136.823 156.264 136.013 159.046C135.485 160.821 134.956 162.596 134.425 164.37C134.187 165.197 133.948 166.025 133.702 166.877C132.306 171.465 130.858 174.841 127.445 178.362C124.726 179.722 122.558 179.512 119.514 179.539C118.269 179.552 117.024 179.565 115.741 179.578C114.375 179.587 113.01 179.594 111.644 179.601C110.957 179.605 110.27 179.609 109.562 179.613C105.926 179.634 102.289 179.648 98.652 179.658C94.8992 179.669 91.147 179.703 87.3943 179.743C84.5058 179.769 81.6174 179.777 78.7287 179.781C77.3457 179.786 75.9626 179.797 74.5796 179.816C72.6412 179.84 70.7024 179.837 68.7639 179.832C67.1108 179.841 67.1108 179.841 65.4243 179.85C61.7507 179.249 60.0943 177.924 57.4448 175.362C56.2209 172.915 56.4284 171.629 56.6948 168.925C56.7618 168.142 56.8288 167.36 56.8979 166.554C57.5491 163.944 58.3398 163.001 60.4448 161.362C63.4484 160.361 65.4222 160.241 68.5588 160.249C69.5996 160.249 70.6405 160.249 71.7129 160.249C72.8348 160.254 73.9568 160.259 75.1127 160.265C76.2627 160.266 77.4126 160.268 78.5974 160.269C82.2757 160.275 85.954 160.287 89.6323 160.3C92.1238 160.305 94.6153 160.31 97.1069 160.314C103.22 160.325 109.332 160.341 115.445 160.362C115.571 159.349 115.697 158.336 115.827 157.292C116.414 153.56 117.266 150.117 118.331 146.497C118.52 145.85 118.708 145.204 118.903 144.538C119.522 142.423 120.149 140.311 120.777 138.198C121.214 136.718 121.652 135.238 122.089 133.758C123.004 130.665 123.924 127.574 124.845 124.484C126.023 120.532 127.186 116.575 128.345 112.618C129.242 109.563 130.15 106.511 131.061 103.46C131.494 102.003 131.923 100.545 132.348 99.0853C132.945 97.0432 133.556 95.006 134.171 92.9694C134.514 91.8113 134.857 90.6533 135.211 89.4602C136.531 86.1457 137.991 83.9413 140.445 81.3624C144.191 80.1136 147.734 80.0091 151.445 81.3624Z" fill="#FF7300"/>
  </g>
  <defs>
    <clipPath id="clip0_226_133">
      <rect width="360" height="91" fill="black"/>
    </clipPath>
  </defs>
  </svg>
