<svg width="360" height="91" viewBox="0 0 360 91" fill="none" xmlns="http://www.w3.org/2000/svg">
  <g clip-path="url(#clip0_226_133)">
  <path d="M44.9369 65.4635L38.0476 65.4786L34.6126 71.141L26.0422 52L18.3318 67.7238L7 67.7016C7.04562 68.5677 7.16015 69.4169 7.33583 70.2456L20.1254 70.2705L25.9258 58.4432L34.2351 77L39.6831 68.019L44.9534 68.0075C44.9806 67.6198 45 67.2294 45 66.8355C44.999 66.3731 44.9748 65.9169 44.9369 65.4635Z" fill="#FF7300"/>
  <path d="M25.88 88.384C22.5093 88.384 19.3733 87.8293 16.472 86.72C13.6133 85.568 11.1173 83.968 8.984 81.92C6.89333 79.8293 5.25067 77.4187 4.056 74.688C2.904 71.9147 2.328 68.8853 2.328 65.6C2.328 62.3147 2.904 59.3067 4.056 56.576C5.25067 53.8027 6.89333 51.392 8.984 49.344C11.1173 47.2533 13.6133 45.6533 16.472 44.544C19.3307 43.392 22.4667 42.816 25.88 42.816C29.2507 42.816 32.3653 43.392 35.224 44.544C38.0827 45.6533 40.5573 47.232 42.648 49.28C44.7813 51.328 46.424 53.7387 47.576 56.512C48.7707 59.2853 49.368 62.3147 49.368 65.6C49.368 68.8853 48.7707 71.9147 47.576 74.688C46.424 77.4613 44.7813 79.872 42.648 81.92C40.5573 83.968 38.0827 85.568 35.224 86.72C32.3653 87.8293 29.2507 88.384 25.88 88.384ZM25.88 84.16C28.568 84.16 31.0427 83.712 33.304 82.816C35.608 81.8773 37.592 80.576 39.256 78.912C40.9627 77.2053 42.2853 75.2427 43.224 73.024C44.1627 70.7627 44.632 68.288 44.632 65.6C44.632 62.912 44.1627 60.4587 43.224 58.24C42.2853 55.9787 40.9627 54.016 39.256 52.352C37.592 50.6453 35.608 49.344 33.304 48.448C31.0427 47.5093 28.568 47.04 25.88 47.04C23.192 47.04 20.696 47.5093 18.392 48.448C16.088 49.344 14.0827 50.6453 12.376 52.352C10.712 54.016 9.38933 55.9787 8.408 58.24C7.46933 60.4587 7 62.912 7 65.6C7 68.2453 7.46933 70.6987 8.408 72.96C9.38933 75.2213 10.712 77.2053 12.376 78.912C14.0827 80.576 16.088 81.8773 18.392 82.816C20.696 83.712 23.192 84.16 25.88 84.16ZM52.1505 88L70.5185 63.168V66.816L53.2385 43.2H58.6785L73.2065 62.912L71.0945 62.976L85.6225 43.2H90.7425L73.6545 66.496V63.168L91.9585 88H86.4545L70.9665 66.944H72.9505L57.5905 88H52.1505ZM109.109 88V71.36L110.197 74.304L91.189 43.2H96.245L112.949 70.528H110.261L126.965 43.2H131.701L112.693 74.304L113.781 71.36V88H109.109ZM156.757 88.384C153.343 88.384 150.186 87.8293 147.285 86.72C144.426 85.568 141.93 83.968 139.797 81.92C137.706 79.872 136.063 77.4613 134.869 74.688C133.717 71.9147 133.141 68.8853 133.141 65.6C133.141 62.3147 133.717 59.2853 134.869 56.512C136.063 53.7387 137.727 51.328 139.861 49.28C141.994 47.232 144.49 45.6533 147.349 44.544C150.25 43.392 153.407 42.816 156.821 42.816C160.234 42.816 163.349 43.3493 166.165 44.416C169.023 45.4827 171.455 47.104 173.461 49.28L170.517 52.288C168.639 50.4107 166.57 49.0667 164.309 48.256C162.047 47.4453 159.615 47.04 157.013 47.04C154.239 47.04 151.679 47.5093 149.333 48.448C147.029 49.344 145.002 50.6453 143.253 52.352C141.546 54.016 140.202 55.9787 139.22 58.24C138.282 60.4587 137.812 62.912 137.812 65.6C137.812 68.2453 138.282 70.6987 139.22 72.96C140.202 75.2213 141.546 77.2053 143.253 78.912C145.002 80.576 147.029 81.8773 149.333 82.816C151.679 83.712 154.218 84.16 156.949 84.16C159.509 84.16 161.919 83.776 164.181 83.008C166.485 82.24 168.597 80.9387 170.517 79.104L173.205 82.688C171.071 84.5653 168.575 85.9947 165.717 86.976C162.858 87.9147 159.871 88.384 156.757 88.384ZM168.661 82.112V65.6H173.205V82.688L168.661 82.112ZM190.833 63.232H214.513V67.264H190.833V63.232ZM191.345 83.904H218.289V88H186.609V43.2H217.329V47.296H191.345V83.904ZM229.421 88V43.2H233.325L264.237 82.112H262.189V43.2H266.861V88H262.957L232.109 49.088H234.157V88H229.421ZM316.282 88.384C310.564 88.384 306.063 86.7413 302.778 83.456C299.492 80.1707 297.85 75.3067 297.85 68.864V43.2H302.586V68.672C302.586 73.9627 303.78 77.8667 306.17 80.384C308.559 82.9013 311.93 84.16 316.282 84.16C320.676 84.16 324.068 82.9013 326.458 80.384C328.847 77.8667 330.042 73.9627 330.042 68.672V43.2H334.65V68.864C334.65 75.3067 333.007 80.1707 329.722 83.456C326.479 86.7413 321.999 88.384 316.282 88.384ZM348.921 88V43.2H353.657V88H348.921Z" fill="white"/>
  <path d="M343.241 18.2308C344.708 18.2308 345.898 17.0413 345.898 15.574C345.898 14.1067 344.708 12.9172 343.241 12.9172C341.774 12.9172 340.584 14.1067 340.584 15.574C340.584 17.0413 341.774 18.2308 343.241 18.2308Z" fill="#00D8FF"/>
  <path fill-rule="evenodd" clip-rule="evenodd" d="M343.241 10.1721C346.808 10.1721 350.122 10.684 352.621 11.5441C355.631 12.5805 357.482 14.1514 357.482 15.5739C357.482 17.0562 355.52 18.7251 352.287 19.7962C349.843 20.6059 346.627 21.0287 343.241 21.0287C339.769 21.0287 336.482 20.6319 334.01 19.7873C330.883 18.7185 329 17.028 329 15.5739C329 14.163 330.767 12.6042 333.735 11.5694C336.243 10.695 339.639 10.1721 343.241 10.1721H343.241Z" stroke="#00D8FF" stroke-width="1.66272"/>
  <path fill-rule="evenodd" clip-rule="evenodd" d="M338.539 12.8887C340.321 9.79863 342.42 7.18374 344.413 5.44902C346.815 3.35895 349.1 2.54042 350.332 3.25097C351.616 3.99149 352.082 6.52456 351.395 9.86001C350.876 12.3818 349.635 15.3789 347.943 18.3122C346.209 21.3196 344.223 23.9693 342.257 25.6879C339.769 27.8628 337.363 28.6499 336.104 27.9234C334.882 27.2191 334.414 24.909 335 21.8208C335.496 19.2116 336.739 16.0089 338.538 12.8886L338.539 12.8887Z" stroke="#00D8FF" stroke-width="1.66272"/>
  <path fill-rule="evenodd" clip-rule="evenodd" d="M338.543 18.3201C336.756 15.2336 335.539 12.1087 335.031 9.51543C334.42 6.39087 334.852 4.0019 336.083 3.28928C337.366 2.54659 339.793 3.40812 342.34 5.66925C344.265 7.37876 346.242 9.95028 347.939 12.8808C349.678 15.8853 350.982 18.9292 351.489 21.4909C352.131 24.7327 351.611 27.2096 350.353 27.9381C349.132 28.645 346.897 27.8966 344.515 25.8463C342.502 24.114 340.348 21.4373 338.543 18.32V18.3201Z" stroke="#00D8FF" stroke-width="1.66272"/>
    <g transform="translate(26, 65.5) scale(0.12) translate(-159, -159)">
      <path d="M156.3 0.0469616C158.678 0.0501132 161.055 0.0265956 163.433 0.00130732C177.536 -0.0579257 191.012 1.89443 204.507 6.11264C205.34 6.3694 206.173 6.62617 207.031 6.89071C230.936 14.4778 251.277 27.1728 269.445 44.3626C270.266 45.1309 271.087 45.8992 271.933 46.6908C282.236 56.6258 290.397 67.9223 297.445 80.3626C297.772 80.9376 298.099 81.5125 298.436 82.1048C307.737 98.7289 313.921 117.488 316.445 136.363C316.582 137.356 316.582 137.356 316.721 138.37C321.984 180.033 310.527 222.036 285.221 255.387C276.746 266.273 267.503 276.065 256.445 284.363C255.412 285.161 254.379 285.958 253.316 286.781C220.487 311.615 177.943 321.845 137.246 316.491C104.507 311.51 74.8589 297.739 50.4445 275.363C49.9059 274.869 49.3672 274.376 48.8122 273.868C28.4099 254.913 14.4749 231.083 6.25703 204.55C6.01888 203.793 5.78072 203.036 5.53535 202.256C1.31544 188.013 -0.114155 173.96 0.00703019 159.175C0.0104039 158.37 0.0137776 157.565 0.0172536 156.735C0.278916 113.453 17.5856 74.7206 47.8781 43.9061C61.1105 30.8676 76.5773 21.0066 93.4445 13.3626C94.0576 13.0844 94.6707 12.8061 95.3024 12.5194C102.726 9.21518 110.234 6.71206 118.07 4.61264C118.809 4.41388 119.548 4.21512 120.309 4.01034C132.283 0.961631 143.997 0.0130336 156.3 0.0469616ZM122.445 23.3626C121.34 23.6602 121.34 23.6602 120.214 23.9637C97.6124 30.1614 78.3633 42.3701 61.4445 58.3626C60.6337 59.109 59.8229 59.8554 58.9875 60.6244C40.6232 78.121 29.0813 101.102 22.4445 125.363C22.2539 126.036 22.0633 126.708 21.8669 127.402C16.2556 148.199 17.3752 174.873 23.4445 195.363C23.6588 196.093 23.8731 196.823 24.0939 197.576C29.8898 216.659 39.5151 234.191 52.4445 249.363C53.245 250.31 54.0455 251.258 54.8703 252.234C78.1987 278.811 112.256 295.476 147.445 298.363C185.123 300.296 221.922 289.601 250.359 264.199C251.39 263.256 252.418 262.311 253.445 261.363C254.21 260.663 254.21 260.663 254.99 259.95C280.332 236.536 296.826 202.48 298.569 167.886C299.773 126.895 286.402 90.5801 258.445 60.3626C235.578 36.7436 201.549 19.6731 168.343 19.1244C152.629 18.8946 137.672 18.9959 122.445 23.3626Z" fill="black"/>
      <path d="M151.445 81.3624C155.924 85.7619 157.011 90.8339 158.545 96.7206C158.827 97.7617 159.109 98.8029 159.399 99.8756C160.326 103.31 161.235 106.748 162.144 110.187C162.785 112.574 163.427 114.961 164.07 117.348C165.759 123.626 167.433 129.908 169.104 136.19C171.141 143.836 173.192 151.478 175.243 159.119C176.838 165.062 178.429 171.005 180.013 176.95C180.449 178.585 180.449 178.585 180.895 180.253C181.44 182.295 181.983 184.337 182.524 186.379C182.764 187.275 183.004 188.17 183.25 189.093C183.562 190.265 183.562 190.265 183.88 191.459C184.403 193.424 184.403 193.424 185.445 195.362C185.787 194.475 186.13 193.587 186.483 192.672C187.762 189.365 189.055 186.064 190.352 182.765C190.91 181.339 191.465 179.911 192.016 178.482C192.811 176.422 193.618 174.369 194.429 172.316C194.671 171.68 194.913 171.044 195.162 170.39C196.969 165.87 199.016 162.577 203.445 160.362C205.046 160.247 206.653 160.193 208.258 160.17C209.26 160.154 210.261 160.137 211.293 160.121C215.881 160.076 220.468 160.035 225.056 160.012C227.475 159.996 229.894 159.969 232.312 159.93C235.8 159.876 239.285 159.854 242.773 159.839C243.851 159.816 244.93 159.794 246.041 159.77C254.427 159.794 254.427 159.794 258.127 162.753C260.498 165.423 261.249 166.362 261.132 169.862C261.136 170.595 261.14 171.327 261.144 172.081C260.048 175.658 258.397 177.07 255.445 179.362C252.138 180.048 248.915 179.946 245.55 179.851C244.129 179.84 244.129 179.84 242.679 179.829C239.663 179.801 236.648 179.739 233.632 179.675C231.583 179.65 229.535 179.627 227.486 179.607C222.471 179.552 217.458 179.465 212.445 179.362C212.33 180.056 212.215 180.749 212.097 181.464C211.363 184.728 210.253 187.641 209.003 190.745C208.76 191.353 208.517 191.961 208.266 192.588C207.476 194.556 206.68 196.522 205.882 198.487C205.335 199.841 204.788 201.194 204.242 202.547C203.154 205.237 202.062 207.925 200.968 210.612C199.634 213.889 198.321 217.174 197.011 220.46C196.323 222.157 195.635 223.854 194.945 225.55C194.644 226.314 194.343 227.078 194.032 227.865C192.451 231.693 191.214 234.431 187.445 236.362C180.589 237.124 180.589 237.124 176.942 234.696C174.051 231.995 173.403 230.316 172.383 226.529C172.055 225.346 171.727 224.163 171.389 222.944C171.049 221.648 170.71 220.351 170.371 219.054C170.003 217.701 169.633 216.349 169.262 214.997C168.276 211.389 167.312 207.776 166.353 204.16C165.362 200.44 164.351 196.724 163.342 193.008C161.752 187.146 160.174 181.28 158.604 175.412C156.779 168.588 154.921 161.774 153.042 154.964C152.346 152.43 151.65 149.895 150.954 147.361C150.534 145.83 150.113 144.299 149.69 142.768C149.122 140.701 148.559 138.631 147.999 136.562C147.543 134.888 147.543 134.888 147.077 133.182C146.445 130.362 146.445 130.362 146.445 126.362C145.785 126.362 145.125 126.362 144.445 126.362C144.333 127.326 144.221 128.291 144.106 129.284C143.449 133.857 142.177 138.199 140.863 142.62C140.607 143.486 140.352 144.352 140.089 145.245C139.549 147.066 139.007 148.886 138.462 150.706C137.634 153.482 136.823 156.264 136.013 159.046C135.485 160.821 134.956 162.596 134.425 164.37C134.187 165.197 133.948 166.025 133.702 166.877C132.306 171.465 130.858 174.841 127.445 178.362C124.726 179.722 122.558 179.512 119.514 179.539C118.269 179.552 117.024 179.565 115.741 179.578C114.375 179.587 113.01 179.594 111.644 179.601C110.957 179.605 110.27 179.609 109.562 179.613C105.926 179.634 102.289 179.648 98.652 179.658C94.8992 179.669 91.147 179.703 87.3943 179.743C84.5058 179.769 81.6174 179.777 78.7287 179.781C77.3457 179.786 75.9626 179.797 74.5796 179.816C72.6412 179.84 70.7024 179.837 68.7639 179.832C67.1108 179.841 67.1108 179.841 65.4243 179.85C61.7507 179.249 60.0943 177.924 57.4448 175.362C56.2209 172.915 56.4284 171.629 56.6948 168.925C56.7618 168.142 56.8288 167.36 56.8979 166.554C57.5491 163.944 58.3398 163.001 60.4448 161.362C63.4484 160.361 65.4222 160.241 68.5588 160.249C69.5996 160.249 70.6405 160.249 71.7129 160.249C72.8348 160.254 73.9568 160.259 75.1127 160.265C76.2627 160.266 77.4126 160.268 78.5974 160.269C82.2757 160.275 85.954 160.287 89.6323 160.3C92.1238 160.305 94.6153 160.31 97.1069 160.314C103.22 160.325 109.332 160.341 115.445 160.362C115.571 159.349 115.697 158.336 115.827 157.292C116.414 153.56 117.266 150.117 118.331 146.497C118.52 145.85 118.708 145.204 118.903 144.538C119.522 142.423 120.149 140.311 120.777 138.198C121.214 136.718 121.652 135.238 122.089 133.758C123.004 130.665 123.924 127.574 124.845 124.484C126.023 120.532 127.186 116.575 128.345 112.618C129.242 109.563 130.15 106.511 131.061 103.46C131.494 102.003 131.923 100.545 132.348 99.0853C132.945 97.0432 133.556 95.006 134.171 92.9694C134.514 91.8113 134.857 90.6533 135.211 89.4602C136.531 86.1457 137.991 83.9413 140.445 81.3624C144.191 80.1136 147.734 80.0091 151.445 81.3624Z" fill="#FF7300"/>
  </g>
  <defs>
  <clipPath id="clip0_226_133">
  <rect width="360" height="91" fill="white"/>
  </clipPath>
  </defs>
  </svg>
