<svg width="679" height="134" viewBox="0 0 679 134" fill="none" xmlns="http://www.w3.org/2000/svg">
<circle cx="61" cy="67" r="57.5" stroke="white" stroke-width="7"/>
<path d="M25.5 71.5H47L56.5 41.5L71 93.5L79.5 71.5H96.5" stroke="white" stroke-width="7" stroke-linecap="round" stroke-linejoin="round"/>
<path d="M226.811 63.8182C226.811 72.1456 225.233 79.2301 222.076 85.0717C218.944 90.9134 214.668 95.3754 209.249 98.4577C203.855 101.515 197.789 103.044 191.053 103.044C184.267 103.044 178.176 101.503 172.782 98.4205C167.388 95.3381 163.125 90.8761 159.993 85.0344C156.861 79.1928 155.295 72.1207 155.295 63.8182C155.295 55.4908 156.861 48.4062 159.993 42.5646C163.125 36.723 167.388 32.2734 172.782 29.2159C178.176 26.1335 184.267 24.5923 191.053 24.5923C197.789 24.5923 203.855 26.1335 209.249 29.2159C214.668 32.2734 218.944 36.723 222.076 42.5646C225.233 48.4062 226.811 55.4908 226.811 63.8182ZM210.442 63.8182C210.442 58.424 209.634 53.875 208.018 50.1712C206.428 46.4673 204.178 43.6584 201.27 41.7443C198.361 39.8303 194.956 38.8732 191.053 38.8732C187.15 38.8732 183.745 39.8303 180.836 41.7443C177.928 43.6584 175.666 46.4673 174.05 50.1712C172.459 53.875 171.664 58.424 171.664 63.8182C171.664 69.2124 172.459 73.7614 174.05 77.4652C175.666 81.169 177.928 83.978 180.836 85.892C183.745 87.8061 187.15 88.7631 191.053 88.7631C194.956 88.7631 198.361 87.8061 201.27 85.892C204.178 83.978 206.428 81.169 208.018 77.4652C209.634 73.7614 210.442 69.2124 210.442 63.8182ZM251.747 44.7273L262.262 64.7504L273.038 44.7273H289.332L272.739 73.3636L289.779 102H273.56L262.262 82.2006L251.15 102H234.744L251.747 73.3636L235.34 44.7273H251.747ZM308.572 123.477C306.559 123.477 304.669 123.316 302.904 122.993C301.164 122.694 299.723 122.309 298.579 121.837L302.159 109.979C304.023 110.551 305.701 110.862 307.192 110.912C308.709 110.961 310.014 110.613 311.108 109.868C312.226 109.122 313.133 107.854 313.829 106.064L314.762 103.641L294.217 44.7273H310.921L322.778 86.7869H323.375L335.344 44.7273H352.16L329.9 108.19C328.831 111.272 327.377 113.957 325.538 116.244C323.723 118.555 321.424 120.333 318.639 121.576C315.855 122.843 312.5 123.477 308.572 123.477ZM384.246 124.67C379.1 124.67 374.688 123.962 371.009 122.545C367.355 121.153 364.446 119.251 362.284 116.84C360.121 114.429 358.717 111.719 358.07 108.712L372.761 106.735C373.209 107.879 373.917 108.948 374.887 109.942C375.856 110.936 377.136 111.732 378.727 112.328C380.343 112.95 382.307 113.261 384.619 113.261C388.074 113.261 390.92 112.415 393.157 110.725C395.419 109.06 396.551 106.263 396.551 102.336V91.858H395.879C395.183 93.4489 394.139 94.9528 392.747 96.3697C391.355 97.7866 389.565 98.9425 387.378 99.8374C385.19 100.732 382.58 101.18 379.548 101.18C375.247 101.18 371.332 100.185 367.802 98.1967C364.297 96.1832 361.501 93.1133 359.413 88.9869C357.35 84.8356 356.318 79.5906 356.318 73.2518C356.318 66.7638 357.374 61.3448 359.487 56.9947C361.6 52.6445 364.409 49.3881 367.914 47.2255C371.444 45.0629 375.309 43.9815 379.51 43.9815C382.717 43.9815 385.402 44.5284 387.564 45.6222C389.727 46.6911 391.467 48.0334 392.785 49.6491C394.127 51.2401 395.158 52.8061 395.879 54.3473H396.476V44.7273H412.248V102.559C412.248 107.431 411.055 111.508 408.669 114.789C406.282 118.071 402.976 120.532 398.75 122.172C394.549 123.838 389.715 124.67 384.246 124.67ZM384.581 89.2479C387.142 89.2479 389.304 88.614 391.069 87.3462C392.859 86.0536 394.226 84.2141 395.171 81.8278C396.14 79.4165 396.625 76.533 396.625 73.1772C396.625 69.8214 396.153 66.913 395.208 64.4521C394.264 61.9663 392.896 60.0398 391.107 58.6726C389.317 57.3054 387.142 56.6218 384.581 56.6218C381.971 56.6218 379.771 57.3303 377.982 58.7472C376.192 60.1392 374.837 62.0781 373.917 64.5639C372.998 67.0497 372.538 69.9208 372.538 73.1772C372.538 76.4833 372.998 79.342 373.917 81.7532C374.862 84.1396 376.217 85.9915 377.982 87.3089C379.771 88.6016 381.971 89.2479 384.581 89.2479ZM450.989 103.119C445.098 103.119 440.027 101.925 435.776 99.5391C431.551 97.1278 428.294 93.7223 426.007 89.3224C423.72 84.8977 422.577 79.6651 422.577 73.6246C422.577 67.7333 423.72 62.5629 426.007 58.1133C428.294 53.6637 431.513 50.196 435.665 47.7102C439.841 45.2244 444.738 43.9815 450.356 43.9815C454.134 43.9815 457.651 44.5906 460.908 45.8086C464.189 47.0018 467.048 48.804 469.484 51.2152C471.945 53.6264 473.859 56.6591 475.226 60.3132C476.593 63.9425 477.277 68.1932 477.277 73.0653V77.4279H428.916V67.5842H462.325C462.325 65.2972 461.828 63.2713 460.833 61.5064C459.839 59.7415 458.459 58.3619 456.694 57.3675C454.954 56.3484 452.928 55.8388 450.617 55.8388C448.205 55.8388 446.068 56.3981 444.203 57.5167C442.364 58.6104 440.922 60.0895 439.878 61.9538C438.834 63.7933 438.299 65.8441 438.275 68.1062V77.4652C438.275 80.299 438.797 82.7475 439.841 84.8107C440.91 86.8739 442.413 88.4648 444.352 89.5835C446.291 90.7021 448.591 91.2614 451.25 91.2614C453.015 91.2614 454.631 91.0128 456.098 90.5156C457.564 90.0185 458.82 89.2727 459.864 88.2784C460.908 87.2841 461.703 86.0661 462.25 84.6243L476.941 85.5938C476.195 89.1236 474.667 92.206 472.355 94.8409C470.068 97.451 467.11 99.4893 463.481 100.956C459.876 102.398 455.712 103.119 450.989 103.119ZM503.527 68.8892V102H487.642V44.7273H502.781V54.832H503.452C504.72 51.5011 506.845 48.8661 509.828 46.9272C512.811 44.9634 516.428 43.9815 520.679 43.9815C524.656 43.9815 528.124 44.8516 531.082 46.5916C534.04 48.3317 536.339 50.8175 537.98 54.049C539.62 57.2557 540.441 61.0838 540.441 65.5334V102H524.557V68.3672C524.581 64.8622 523.687 62.1278 521.872 60.1641C520.057 58.1754 517.559 57.1811 514.377 57.1811C512.239 57.1811 510.35 57.641 508.71 58.5607C507.094 59.4805 505.826 60.8228 504.906 62.5877C504.011 64.3278 503.552 66.4283 503.527 68.8892ZM630.284 25.6364H639.531V76.1974C639.531 81.4176 638.3 86.0785 635.839 90.18C633.403 94.2567 629.96 97.4759 625.511 99.8374C621.061 102.174 615.841 103.342 609.85 103.342C603.86 103.342 598.639 102.174 594.19 99.8374C589.74 97.4759 586.285 94.2567 583.824 90.18C581.388 86.0785 580.17 81.4176 580.17 76.1974V25.6364H589.417V75.4517C589.417 79.1804 590.237 82.4989 591.878 85.4073C593.519 88.2908 595.855 90.5653 598.888 92.2308C601.946 93.8714 605.6 94.6918 609.85 94.6918C614.101 94.6918 617.755 93.8714 620.813 92.2308C623.87 90.5653 626.207 88.2908 627.823 85.4073C629.463 82.4989 630.284 79.1804 630.284 75.4517V25.6364ZM667.244 25.6364V102H657.997V25.6364H667.244Z" fill="white"/>
</svg>
