<svg width="16" height="16" viewBox="0 0 16 16" fill="none" xmlns="http://www.w3.org/2000/svg">
<path fill-rule="evenodd" clip-rule="evenodd" d="M14.891 0.739218C14.8651 0.503584 14.6737 0.312899 14.4289 0.295776L14.3387 0.297543C14.103 0.323505 13.9123 0.514818 13.8952 0.75968L13.6749 3.90066C12.3734 2.10019 10.281 0.999979 8 0.999979C4.13401 0.999979 1 4.13399 1 7.99998C1 11.866 4.13401 15 8 15C9.82168 15 11.5348 14.3005 12.8274 13.0691C13.4675 12.4593 13.9881 11.7336 14.3588 10.9304C14.4745 10.6797 14.3651 10.3826 14.1144 10.2669C13.8637 10.1512 13.5666 10.2606 13.4509 10.5113C13.1332 11.1996 12.6868 11.822 12.1377 12.3451C11.0292 13.401 9.56228 14 8 14C4.68629 14 2 11.3137 2 7.99998C2 4.68627 4.68629 1.99998 8 1.99998C9.93493 1.99998 11.7106 2.92285 12.8289 4.43789L9.89974 4.233L9.80952 4.23475C9.57388 4.26066 9.38315 4.45193 9.36598 4.69679C9.34665 4.97225 9.5543 5.21123 9.82976 5.23055L14.5618 5.56249L14.8928 0.829437L14.891 0.739218Z" fill="#40404B"/>
</svg>
