<svg width="16" height="16" viewBox="0 0 16 16" fill="none" xmlns="http://www.w3.org/2000/svg">
<path fill-rule="evenodd" clip-rule="evenodd" d="M8 0.5C6.40168 0.5 4.98139 1.4117 3.98462 2.86346L2.3 1.6L2.22327 1.55252C2.01127 1.44644 1.74728 1.50363 1.6 1.7C1.43431 1.92091 1.47909 2.23431 1.7 2.4L3.47276 3.72957C2.92289 4.81588 2.57886 6.10867 2.51198 7.5H1L0.910124 7.50806C0.676875 7.55039 0.5 7.75454 0.5 8C0.5 8.27614 0.723858 8.5 1 8.5H2.51198C2.57902 9.89469 2.92455 11.1904 3.47674 12.2783L1.18765 14.1096L1.1225 14.172C0.966814 14.3508 0.956228 14.6207 1.10957 14.8123C1.28207 15.028 1.59672 15.0629 1.81235 14.8904L3.99175 13.1469C4.98816 14.5926 6.40549 15.5 8 15.5C9.59451 15.5 11.0118 14.5926 12.0082 13.1469L14.1877 14.8904C14.4033 15.0629 14.7179 15.028 14.8904 14.8123C15.0438 14.6207 15.0332 14.3508 14.8775 14.172L14.8123 14.1096L12.5233 12.2783C13.0754 11.1904 13.421 9.89468 13.488 8.5H15L15.0899 8.49194C15.3231 8.44961 15.5 8.24546 15.5 8C15.5 7.72386 15.2761 7.5 15 7.5H13.488C13.4211 6.10867 13.0771 4.81588 12.5272 3.72957L14.3 2.4C14.5209 2.23431 14.5657 1.92091 14.4 1.7C14.2527 1.50363 13.9887 1.44644 13.7767 1.55252L13.7 1.6L12.0154 2.86346C11.0186 1.4117 9.59832 0.5 8 0.5ZM12.5 8C12.5 7.11163 12.376 6.26773 12.1528 5.5H3.84724C3.624 6.26773 3.5 7.11163 3.5 8C3.5 11.619 5.55785 14.5 8 14.5C10.4422 14.5 12.5 11.619 12.5 8ZM11.7877 4.5C10.9798 2.68951 9.56923 1.5 8 1.5C6.43077 1.5 5.02021 2.68951 4.21233 4.5H11.7877Z" fill="#40404B"/>
</svg>
