<svg width="16" height="16" viewBox="0 0 16 16" fill="none" xmlns="http://www.w3.org/2000/svg">
<path fill-rule="evenodd" clip-rule="evenodd" d="M4.31066 1.14645C4.1154 0.951184 3.79882 0.951184 3.60355 1.14645L0.25 4.5L0.603487 4.85349L0.60362 4.85362L3.60355 7.85355L3.6728 7.91141C3.86767 8.0464 4.13709 8.02712 4.31066 7.85355L4.36852 7.78431C4.50351 7.58944 4.48423 7.32001 4.31066 7.14645L2.16413 5H10.9571L11.047 4.99194C11.2802 4.94961 11.4571 4.74546 11.4571 4.5C11.4571 4.22386 11.2332 4 10.9571 4H2.16413L4.31066 1.85355L4.36852 1.78431C4.50351 1.58944 4.48423 1.32001 4.31066 1.14645ZM11.5936 8.14645C11.7888 7.95118 12.1054 7.95118 12.3007 8.14645L15.2462 11.092C15.2922 11.1247 15.3324 11.1649 15.3651 11.2109L15.6542 11.5L15.3651 11.7891C15.3324 11.8351 15.2922 11.8753 15.2462 11.908L12.3007 14.8536L12.2314 14.9114C12.0365 15.0464 11.7671 15.0271 11.5936 14.8536L11.5357 14.7843C11.4007 14.5894 11.42 14.32 11.5936 14.1464L13.7401 12H4.95711C4.68096 12 4.45711 11.7761 4.45711 11.5C4.45711 11.2545 4.63398 11.0504 4.86723 11.0081L4.95711 11H13.7401L11.5936 8.85355L11.5357 8.78431C11.4007 8.58944 11.42 8.32001 11.5936 8.14645Z" fill="#40404B"/>
</svg>
