<svg width="16" height="16" viewBox="0 0 16 16" fill="none" xmlns="http://www.w3.org/2000/svg">
<path fill-rule="evenodd" clip-rule="evenodd" d="M8 2C5.06329 2 2.73418 4.58228 3.03797 7.51899C1.36709 7.46835 0 8.73418 0 10.4557C0 12.0759 1.31646 13.3924 2.93671 13.3924H13.0633C14.6835 13.3924 16 12.0759 16 10.4557C16 8.73418 14.6329 7.46835 12.962 7.51899C13.2658 4.58228 10.9873 2 8 2ZM6.22785 9.13924C5.77215 9.64557 5.06329 8.93671 5.51899 8.43038L7.64557 6.3038C7.8481 6.10127 8.1519 6.10127 8.35443 6.3038L10.5316 8.43038C10.9873 8.93671 10.2785 9.64557 9.77215 9.13924L8.50633 7.87342V11.2152C8.50633 11.8734 7.49367 11.8734 7.49367 11.2152V7.87342L6.22785 9.13924Z" fill="#40404B"/>
</svg>
