<svg width="16" height="16" viewBox="0 0 16 16" fill="none" xmlns="http://www.w3.org/2000/svg">
<path fill-rule="evenodd" clip-rule="evenodd" d="M12 16C12.2761 16 12.5 15.7761 12.5 15.5V13.5C12.5 13.4833 12.4992 13.4668 12.4976 13.4505C13.6399 13.2198 14.5 12.2103 14.5 11C14.5 9.78967 13.6399 8.78022 12.4976 8.54952C12.4992 8.53323 12.5 8.51671 12.5 8.5V0.5C12.5 0.223858 12.2761 0 12 0C11.7239 0 11.5 0.223858 11.5 0.5V8.5C11.5 8.51671 11.5008 8.53323 11.5024 8.54952C10.3601 8.78022 9.5 9.78967 9.5 11C9.5 12.2103 10.3601 13.2198 11.5024 13.4505C11.5008 13.4668 11.5 13.4833 11.5 13.5V15.5C11.5 15.7761 11.7239 16 12 16ZM12 12.5C12.8284 12.5 13.5 11.8284 13.5 11C13.5 10.1716 12.8284 9.5 12 9.5C11.1716 9.5 10.5 10.1716 10.5 11C10.5 11.8284 11.1716 12.5 12 12.5ZM3.50242 2.54952C2.36009 2.78022 1.5 3.78967 1.5 5C1.5 6.21033 2.36009 7.21978 3.50242 7.45048C3.50082 7.46677 3.5 7.48329 3.5 7.5V15.5C3.5 15.7761 3.72386 16 4 16C4.27614 16 4.5 15.7761 4.5 15.5V7.5C4.5 7.48329 4.49918 7.46677 4.49758 7.45048C5.6399 7.21978 6.5 6.21033 6.5 5C6.5 3.78967 5.6399 2.78022 4.49758 2.54952C4.49918 2.53323 4.5 2.51671 4.5 2.5V0.5C4.5 0.223858 4.27614 0 4 0C3.72386 0 3.5 0.223858 3.5 0.5V2.5C3.5 2.51671 3.50082 2.53323 3.50242 2.54952ZM4 3.5C4.82843 3.5 5.5 4.17157 5.5 5C5.5 5.82843 4.82843 6.5 4 6.5C3.17157 6.5 2.5 5.82843 2.5 5C2.5 4.17157 3.17157 3.5 4 3.5Z" fill="#40404B"/>
</svg>
