<svg width="16" height="16" viewBox="0 0 16 16" fill="none" xmlns="http://www.w3.org/2000/svg">
<path fill-rule="evenodd" clip-rule="evenodd" d="M10.5681 1.25232C10.7073 1.01379 11.0134 0.933221 11.2519 1.07236C11.464 1.19604 11.5512 1.45169 11.4702 1.67449L11.4319 1.75619L3.43189 14.7562C3.29275 14.9947 2.98659 15.0753 2.74806 14.9361C2.53604 14.8125 2.44882 14.5568 2.52978 14.334L2.56811 14.2523L10.5681 1.25232ZM14.5681 1.25232C14.7073 1.01379 15.0134 0.933221 15.2519 1.07236C15.464 1.19604 15.5512 1.45169 15.4702 1.67449L15.4319 1.75619L7.43189 14.7562C7.29275 14.9947 6.98659 15.0753 6.74806 14.9361C6.53604 14.8125 6.44882 14.5568 6.52978 14.334L6.56811 14.2523L14.5681 1.25232ZM2 5.25C2 5.66421 1.66421 6 1.25 6C0.835786 6 0.5 5.66421 0.5 5.25C0.5 4.83579 0.835786 4.5 1.25 4.5C1.66421 4.5 2 4.83579 2 5.25ZM2 10.75C2 11.1642 1.66421 11.5 1.25 11.5C0.835786 11.5 0.5 11.1642 0.5 10.75C0.5 10.3358 0.835786 10 1.25 10C1.66421 10 2 10.3358 2 10.75Z" fill="#40404B"/>
</svg>
