<svg width="16" height="16" viewBox="0 0 16 16" fill="none" xmlns="http://www.w3.org/2000/svg">
<path fill-rule="evenodd" clip-rule="evenodd" d="M12.5 0.501808C13.6046 0.501808 14.5 1.39724 14.5 2.50181V13.5039C14.5 14.6084 13.6046 15.5039 12.5 15.5039H3.5C2.39543 15.5039 1.5 14.6084 1.5 13.5039V2.50181C1.5 1.39724 2.39543 0.501808 3.5 0.501808H12.5ZM12.5 1.50181H3.5C2.98716 1.50181 2.56449 1.88785 2.50673 2.38519L2.5 2.50181V13.5039C2.5 14.0167 2.88604 14.4394 3.38338 14.4971L3.5 14.5039H12.5C13.0128 14.5039 13.4355 14.1178 13.4933 13.6205L13.5 13.5039V2.50181C13.5 1.98897 13.114 1.5663 12.6166 1.50854L12.5 1.50181ZM5 4.00181C4.72386 4.00181 4.5 4.22567 4.5 4.50181C4.5 4.77795 4.72386 5.00181 5 5.00181H11C11.2761 5.00181 11.5 4.77795 11.5 4.50181C11.5 4.22567 11.2761 4.00181 11 4.00181H5ZM6.5 8.03289C6.5 7.75675 6.72386 7.53289 7 7.53289H11C11.2761 7.53289 11.5 7.75675 11.5 8.03289C11.5 8.30903 11.2761 8.53289 11 8.53289H7C6.72386 8.53289 6.5 8.30903 6.5 8.03289ZM5 7.53289C4.72386 7.53289 4.5 7.75675 4.5 8.03289C4.5 8.30903 4.72386 8.53289 5 8.53289C5.27614 8.53289 5.5 8.30903 5.5 8.03289C5.5 7.75675 5.27614 7.53289 5 7.53289ZM6.5 11.5204C6.5 11.2442 6.72386 11.0204 7 11.0204H11C11.2761 11.0204 11.5 11.2442 11.5 11.5204C11.5 11.7965 11.2761 12.0204 11 12.0204H7C6.72386 12.0204 6.5 11.7965 6.5 11.5204ZM5 11.0204C4.72386 11.0204 4.5 11.2442 4.5 11.5204C4.5 11.7965 4.72386 12.0204 5 12.0204C5.27614 12.0204 5.5 11.7965 5.5 11.5204C5.5 11.2442 5.27614 11.0204 5 11.0204Z" fill="#40404B"/>
</svg>
