<svg width="16" height="16" viewBox="0 0 16 16" fill="none" xmlns="http://www.w3.org/2000/svg">
<path fill-rule="evenodd" clip-rule="evenodd" d="M0.00517845 3.80796C0.104873 1.96428 1.63144 0.5 3.5 0.5H12.5L12.692 0.505179C14.5357 0.604874 16 2.13144 16 4V14.1L15.9921 14.2688C15.9448 14.7713 15.6879 15.2341 15.28 15.54L15.1445 15.6324L15.0038 15.7109C14.3612 16.0324 14.2948 15.9373 13.9735 15.4774C13.9132 15.3911 13.8438 15.2918 13.76 15.18L11.75 12.5H3.5L3.30796 12.4948C1.46428 12.3951 0 10.8686 0 9V4L0.00517845 3.80796ZM12.5 1.5H3.5L3.33562 1.50532C2.03154 1.58996 1 2.67452 1 4V9L1.00532 9.16438C1.08996 10.4685 2.17452 11.5 3.5 11.5H12.25L14.56 14.58L14.6328 14.6643C14.6582 14.6899 14.6755 14.7134 14.6862 14.735L14.6188 14.7817C14.3325 14.9587 14.7845 14.9328 14.6862 14.735L14.7165 14.7139L14.7841 14.6538C14.9129 14.5209 15 14.3158 15 14.1V4L14.9947 3.83562C14.91 2.53154 13.8255 1.5 12.5 1.5ZM6 6.5C6 7.05228 5.55228 7.5 5 7.5C4.44772 7.5 4 7.05228 4 6.5C4 5.94772 4.44772 5.5 5 5.5C5.55228 5.5 6 5.94772 6 6.5ZM11 7.5C11.5523 7.5 12 7.05228 12 6.5C12 5.94772 11.5523 5.5 11 5.5C10.4477 5.5 10 5.94772 10 6.5C10 7.05228 10.4477 7.5 11 7.5Z" fill="#40404B"/>
</svg>
