<svg width="16" height="16" viewBox="0 0 16 16" fill="none" xmlns="http://www.w3.org/2000/svg">
<g clip-path="url(#clip0_1_3907)">
<path fill-rule="evenodd" clip-rule="evenodd" d="M5.81877 3.18282C6.37731 4.19153 6.01238 5.46203 5.00368 6.02057C3.99497 6.57911 2.72447 6.21418 2.16593 5.20547C1.60739 4.19677 1.97232 2.92627 2.98102 2.36773C3.98973 1.80919 5.26023 2.17412 5.81877 3.18282ZM5.90603 6.61794C7.07411 5.698 7.43721 4.04133 6.69361 2.69841C5.86754 1.20654 3.98847 0.666812 2.49661 1.49289C1.00474 2.31896 0.465015 4.19802 1.29109 5.68989C2.03471 7.03284 3.63159 7.60424 5.0312 7.10237L7.54359 11.6397L9.28862 14.7911L9.53083 15.2286L9.96825 14.9863L14.0201 12.7427C14.2617 12.609 14.3491 12.3047 14.2154 12.0631C14.0816 11.8215 13.7773 11.7341 13.5357 11.8679L9.92125 13.8693L8.66064 11.5927L10.9245 10.3391C11.1661 10.2054 11.2535 9.90109 11.1197 9.65951C10.9859 9.41793 10.6816 9.33053 10.4401 9.4643L8.17622 10.7178L5.90603 6.61794Z" fill="#40404B"/>
</g>
<defs>
<clipPath id="clip0_1_3907">
<rect width="16" height="16" fill="white"/>
</clipPath>
</defs>
</svg>
