<svg width="16" height="16" viewBox="0 0 16 16" fill="none" xmlns="http://www.w3.org/2000/svg">
<path fill-rule="evenodd" clip-rule="evenodd" d="M15.3807 3.05768L8.38075 0.175328C8.13685 0.0748988 7.86315 0.0748988 7.61925 0.175328L0.61925 3.05768C0.244549 3.21197 0 3.57714 0 3.98236V12.0547C0 12.46 0.244549 12.8251 0.61925 12.9794L7.61925 15.8618C7.86315 15.9622 8.13685 15.9622 8.38075 15.8618L15.3807 12.9794C15.7555 12.8251 16 12.46 16 12.0547V3.98236C16 3.57714 15.7555 3.21197 15.3807 3.05768ZM8 1.09955L14.8206 3.90847L8.19037 6.63856L8.09658 6.66681C8.00093 6.68564 7.90109 6.67622 7.80963 6.63856L1.17941 3.90847L8 1.09955ZM8.57112 7.56324L15 4.91606V12.0547L8.5 14.7312V7.59044C8.52388 7.582 8.54759 7.57293 8.57112 7.56324ZM7.5 7.58851L7.42888 7.56324L1 4.91606V12.0547L7.5 14.7312V7.58851Z" fill="#40404B"/>
</svg>
