<svg width="16" height="16" viewBox="0 0 16 16" fill="none" xmlns="http://www.w3.org/2000/svg">
<g clip-path="url(#clip0_1_3867)">
<path fill-rule="evenodd" clip-rule="evenodd" d="M11 7.5H11.5C13.7091 7.5 15.5 9.29086 15.5 11.5C15.5 13.7091 13.7091 15.5 11.5 15.5H5C4.72386 15.5 4.5 15.2761 4.5 15C4.5 14.7239 4.72386 14.5 5 14.5H11.5C13.1569 14.5 14.5 13.1569 14.5 11.5C14.5 9.84315 13.1569 8.5 11.5 8.5H11H5C4.99978 8.5 4.99955 8.5 4.99933 8.5H4.5C2.29086 8.5 0.5 6.70914 0.5 4.5C0.5 2.29086 2.29086 0.5 4.5 0.5H11C11.2761 0.5 11.5 0.723858 11.5 1C11.5 1.27614 11.2761 1.5 11 1.5L4.5 1.5C2.84315 1.5 1.5 2.84315 1.5 4.5C1.5 6.15685 2.84315 7.5 4.5 7.5L5 7.5H11Z" fill="#40404B"/>
</g>
<defs>
<clipPath id="clip0_1_3867">
<rect width="16" height="16" fill="white"/>
</clipPath>
</defs>
</svg>
