<svg width="16" height="16" viewBox="0 0 16 16" fill="none" xmlns="http://www.w3.org/2000/svg">
<g clip-path="url(#clip0_1_3931)">
<path d="M8 14C8.27614 14 8.5 14.2239 8.5 14.5V15.5C8.5 15.7761 8.27614 16 8 16C7.72386 16 7.5 15.7761 7.5 15.5V14.5C7.5 14.2239 7.72386 14 8 14ZM11.683 13.3792L12.183 14.2452C12.3211 14.4843 12.2391 14.7901 12 14.9282C11.7609 15.0663 11.4551 14.9843 11.317 14.7452L10.817 13.8792C10.6789 13.64 10.7609 13.3342 11 13.1962C11.2391 13.0581 11.5449 13.14 11.683 13.3792ZM5 13.1962C5.21257 13.3189 5.30093 13.5741 5.22097 13.7973L5.18301 13.8792L4.68301 14.7452C4.54494 14.9843 4.23915 15.0663 4 14.9282C3.78743 14.8055 3.69907 14.5502 3.77903 14.3271L3.81699 14.2452L4.31699 13.3792C4.45506 13.14 4.76085 13.0581 5 13.1962ZM13.8792 10.817L14.7452 11.317C14.9843 11.4551 15.0663 11.7609 14.9282 12C14.7901 12.2392 14.4843 12.3211 14.2452 12.183L13.3792 11.683C13.14 11.5449 13.0581 11.2392 13.1962 11C13.3342 10.7609 13.64 10.6789 13.8792 10.817ZM2.80385 11C2.92658 11.2126 2.87547 11.4778 2.69464 11.6311L2.62083 11.683L1.75481 12.183C1.51566 12.3211 1.20987 12.2392 1.0718 12C0.949067 11.7874 1.00017 11.5222 1.181 11.3689L1.25481 11.317L2.12083 10.817C2.35998 10.6789 2.66578 10.7609 2.80385 11ZM7.5 8.50001V-0.00799561L8.25862 0.00411145C12.4844 0.138472 15.8676 3.54335 15.9962 7.75156L16 8.00001V8.50001H7.5ZM1.5 7.50001C1.77614 7.50001 2 7.72386 2 8.00001C2 8.27615 1.77614 8.50001 1.5 8.50001H0.5C0.223858 8.50001 0 8.27615 0 8.00001C0 7.72386 0.223858 7.50001 0.5 7.50001H1.5ZM8.5 1.01701V7.50001H14.981L14.9639 7.28487C14.8793 6.45279 14.6489 5.66317 14.2985 4.94237L13.8792 5.18302C13.64 5.32109 13.3342 5.23915 13.1962 5.00001C13.0734 4.78743 13.1245 4.5222 13.3054 4.36891L13.3792 4.31699L13.7968 4.07459C13.2977 3.33834 12.6621 2.70193 11.9261 2.20221L11.683 2.62084C11.5449 2.85999 11.2391 2.94192 11 2.80385C10.7874 2.68112 10.6991 2.42587 10.779 2.2027L10.817 2.12084L11.0596 1.70049C10.4172 1.38782 9.71957 1.17075 8.98515 1.06795L8.71069 1.03506L8.5 1.01701ZM1.75481 3.81699L2.62083 4.31699C2.85998 4.45506 2.94192 4.76086 2.80385 5.00001C2.66578 5.23915 2.35998 5.32109 2.12083 5.18302L1.25481 4.68302C1.01566 4.54495 0.933726 4.23915 1.0718 4.00001C1.20987 3.76086 1.51566 3.67892 1.75481 3.81699ZM4.68301 1.25481L5.18301 2.12084C5.32108 2.35999 5.23915 2.66578 5 2.80385C4.76085 2.94192 4.45506 2.85999 4.31699 2.62084L3.81699 1.75481C3.67892 1.51567 3.76085 1.20987 4 1.0718C4.23915 0.933731 4.54494 1.01567 4.68301 1.25481Z" fill="#40404B"/>
</g>
<defs>
<clipPath id="clip0_1_3931">
<rect width="16" height="16" fill="white"/>
</clipPath>
</defs>
</svg>
