<svg width="16" height="16" viewBox="0 0 16 16" fill="none" xmlns="http://www.w3.org/2000/svg">
<g clip-path="url(#clip0_1_3890)">
<path d="M14.5 8.50801H15.5L15.5899 8.49996L15.9846 8.50003C15.917 9.59625 15.6286 10.6327 15.1634 11.5656L13.8791 10.825C13.64 10.6869 13.3342 10.7689 13.1961 11.008C13.0734 11.2206 13.1245 11.4858 13.3053 11.6391L13.3791 11.691L14.6609 12.4323C14.0709 13.3173 13.3091 14.078 12.4233 14.6669L11.683 13.3872C11.5449 13.148 11.2391 13.0661 11 13.2042C10.7874 13.3269 10.699 13.5821 10.779 13.8053L10.817 13.8872L11.5555 15.1685C10.6251 15.6308 9.59195 15.9174 8.49946 15.9847L8.49998 14.508C8.49998 14.2319 8.27612 14.008 7.99998 14.008C7.75452 14.008 7.55037 14.1849 7.50804 14.4181L7.49998 14.508L7.4995 15.9846C6.40738 15.9172 5.37456 15.6307 4.44446 15.1685L5.18299 13.8872L5.22096 13.8053C5.30092 13.5821 5.21256 13.3269 4.99998 13.2042C4.78741 13.0814 4.52217 13.1325 4.36888 13.3134L4.31697 13.3872L3.57666 14.6669C2.69083 14.078 1.92909 13.3173 1.33903 12.4323L2.62082 11.691L2.69462 11.6391C2.87545 11.4858 2.92656 11.2206 2.80383 11.008C2.6811 10.7954 2.42585 10.7071 2.20268 10.787L2.12082 10.825L0.836533 11.5656C0.372523 10.6351 0.0844492 9.6016 0.0158828 8.50853L1.49998 8.50801C1.77612 8.50801 1.99998 8.28415 1.99998 8.00801C1.99998 7.76255 1.82311 7.5584 1.58986 7.51607L1.49998 7.50801L0.0148315 7.50853C0.0811739 6.41388 0.36764 5.37863 0.830543 4.44649L2.12082 5.19102C2.35996 5.32909 2.66576 5.24716 2.80383 5.00801C2.92656 4.79544 2.87545 4.5302 2.69462 4.37691L2.62082 4.325L1.33105 3.57968C1.9209 2.69158 2.6834 1.92807 3.57067 1.33706L4.31697 2.62885C4.45504 2.86799 4.76084 2.94993 4.99998 2.81186C5.21256 2.68913 5.30092 2.43388 5.22096 2.21071L5.18299 2.12885L4.43743 0.835062C5.3695 0.370726 6.40494 0.0829091 7.49998 0.0153809L7.49998 0.497348V0.508011V1.50801V1.51735V8.50001L14.4101 8.49996L14.5 8.50801ZM11.5625 0.835062L10.817 2.12885L10.779 2.21071C10.699 2.43388 10.7874 2.68913 11 2.81186C11.2126 2.93459 11.4778 2.88348 11.6311 2.70265L11.683 2.62885L12.4293 1.33706C13.3166 1.92807 14.0791 2.69158 14.6689 3.57968L13.3791 4.325L13.3053 4.37691C13.1245 4.5302 13.0734 4.79544 13.1961 5.00801C13.3189 5.22059 13.5741 5.30895 13.7973 5.22898L13.8791 5.19102L15.1694 4.44649C15.631 5.37604 15.9172 6.40812 15.9846 7.4994L8.49998 7.50001L8.50099 0.0154427C9.59566 0.0830847 10.6308 0.370868 11.5625 0.835062Z" fill="#40404B"/>
</g>
<defs>
<clipPath id="clip0_1_3890">
<rect width="16" height="16" fill="white"/>
</clipPath>
</defs>
</svg>
