<svg width="16" height="16" viewBox="0 0 16 16" fill="none" xmlns="http://www.w3.org/2000/svg">
<path fill-rule="evenodd" clip-rule="evenodd" d="M1.73819 7.42777C1.42215 7.42777 1.16596 7.68397 1.16596 8C1.16596 8.31603 1.42215 8.57223 1.73819 8.57223L7.42777 8.57223L7.42777 14.2618C7.42777 14.5778 7.68397 14.834 8 14.834C8.31603 14.834 8.57223 14.5778 8.57223 14.2618L8.57223 8.57223L14.2618 8.57223C14.5778 8.57223 14.834 8.31603 14.834 8C14.834 7.68397 14.5778 7.42777 14.2618 7.42777L8.57223 7.42777L8.57223 1.73819C8.57223 1.42215 8.31603 1.16596 8 1.16596C7.68397 1.16596 7.42777 1.42215 7.42777 1.73819L7.42777 7.42777L1.73819 7.42777Z" fill="#40404B"/>
</svg>
