<svg width="16" height="16" viewBox="0 0 16 16" fill="none" xmlns="http://www.w3.org/2000/svg">
<path fill-rule="evenodd" clip-rule="evenodd" d="M4.8 0C3.92283 0 3.2 0.722733 3.2 1.59979V3.19958H1.6C0.722827 3.19958 0 3.92232 0 4.79938V11.1985C0 12.0756 0.722827 12.7983 1.6 12.7983H3.19896V14.3981C3.19896 15.2752 3.92386 16 4.80104 16H11.199C12.0761 16 12.801 15.2752 12.801 14.3981V12.7983H14.4C15.2772 12.7983 16 12.0756 16 11.1985V4.79938C16 3.92232 15.2772 3.19958 14.4 3.19958H12.8V1.59979C12.8 0.722733 12.0772 0 11.2 0H4.8ZM4.8 1.06653H11.2C11.5047 1.06653 11.7333 1.29515 11.7333 1.59979V3.19958H4.26667V1.59979C4.26667 1.29515 4.49531 1.06653 4.8 1.06653ZM14.4 4.26611H1.6C1.29531 4.26611 1.06667 4.49473 1.06667 4.79938V11.1985C1.06667 11.5032 1.29531 11.7318 1.6 11.7318H3.19896V9.0634C3.20014 8.7689 3.43983 8.5311 3.73438 8.53222H12.2656C12.5602 8.5311 12.7999 8.7689 12.801 9.0634V11.7318H14.4C14.7047 11.7318 14.9333 11.5032 14.9333 11.1985V4.79938C14.9333 4.49473 14.7047 4.26611 14.4 4.26611ZM4.26562 9.59875H11.7344V14.3981C11.7344 14.7028 11.5036 14.9335 11.199 14.9335H4.80104C4.49635 14.9335 4.26562 14.7028 4.26562 14.3981V9.59875ZM4.11046 6.24301C4.21048 6.143 4.26667 6.00736 4.26667 5.86592C4.26666 5.57141 4.02788 5.33267 3.73333 5.33267C3.43878 5.33267 3.2 5.57141 3.2 5.86592C3.2 6.00736 3.25618 6.143 3.3562 6.24301C3.45622 6.34302 3.59188 6.3992 3.73333 6.3992C3.87478 6.3992 4.01044 6.34302 4.11046 6.24301Z" fill="#40404B"/>
</svg>
