<svg width="16" height="16" viewBox="0 0 16 16" fill="none" xmlns="http://www.w3.org/2000/svg">
<path fill-rule="evenodd" clip-rule="evenodd" d="M14.3682 1.9444C14.6154 1.9444 14.8209 2.12248 14.8635 2.35731L14.8716 2.44779L14.8716 7.22456L10.0958 7.22352C9.81777 7.22346 9.59244 6.99803 9.5925 6.72002C9.59256 6.4729 9.77068 6.2674 10.0055 6.22483L10.096 6.21674L13.8608 6.21682C13.8378 6.18262 13.8186 6.14501 13.8041 6.10438C12.751 3.15561 9.59772 1.49252 6.55393 2.30809C4.50459 2.85721 2.95286 4.34034 2.34807 6.27928C2.26529 6.54468 1.98302 6.69272 1.71762 6.60994C1.45222 6.52715 1.30418 6.24489 1.38696 5.97949C2.09479 3.71023 3.91149 1.97384 6.29336 1.33562C9.20485 0.555488 12.2018 1.71897 13.8645 4.06002L13.8648 2.44779C13.8648 2.20067 14.0429 1.99514 14.2777 1.95251L14.3682 1.9444ZM9.68082 13.9778C6.64344 14.7916 3.49606 13.1372 2.43674 10.1983C2.42308 10.1604 2.40533 10.1252 2.38419 10.0929L5.46851 10.0929L5.559 10.0848C5.79384 10.0423 5.97196 9.83678 5.97201 9.58966C5.97207 9.31165 5.74675 9.08622 5.46873 9.08616L0.692895 9.08512L0.692895 13.8619L0.701005 13.9524C0.743628 14.1872 0.949161 14.3653 1.19628 14.3653L1.28677 14.3572C1.5216 14.3145 1.69967 14.109 1.69967 13.8619L1.70031 11.059C3.10491 14.1615 6.58062 15.8508 9.94139 14.9503C12.2746 14.3251 14.0895 12.5703 14.8223 10.3159C14.9082 10.0515 14.7636 9.76747 14.4992 9.68153C14.2348 9.59559 13.9508 9.74025 13.8648 10.0047C13.2363 11.9383 11.6813 13.4418 9.68082 13.9778Z" fill="#40404B"/>
</svg>
