<svg width="16" height="17" viewBox="0 0 16 17" fill="none" xmlns="http://www.w3.org/2000/svg">
<path fill-rule="evenodd" clip-rule="evenodd" d="M11.8948 14.9295C15.7212 12.7204 17.0322 7.82768 14.823 4.00134C12.6139 0.174995 7.72115 -1.13601 3.89481 1.07313C1.83692 2.26126 0.446297 4.26827 0.0255138 6.56031C-0.0276725 6.85002 0.164068 7.12799 0.453778 7.18118C0.743488 7.23436 1.02146 7.04262 1.07465 6.75291C1.43956 4.76523 2.64395 3.027 4.42814 1.99689C7.7443 0.082306 11.9847 1.21851 13.8993 4.53467C15.8138 7.85083 14.6776 12.0912 11.3615 14.0058C8.11074 15.8826 3.97191 14.8278 2.00638 11.6617L3.78243 11.6624L3.87956 11.6539C4.13163 11.609 4.32278 11.3925 4.32278 11.1323C4.32278 10.8395 4.08085 10.6021 3.78243 10.6021H0V14.3132L0.00870571 14.4085C0.0544579 14.6558 0.27508 14.8434 0.540347 14.8434L0.637475 14.8348C0.889546 14.7899 1.08069 14.5735 1.08069 14.3132V12.1929C3.34054 15.8709 8.13302 17.1014 11.8948 14.9295ZM11.9984 4.91934C11.7776 4.72414 11.4404 4.74485 11.2452 4.96562L7.26413 9.46783L5.43178 7.8476C5.21102 7.65239 4.87381 7.67311 4.6786 7.89387L4.63287 7.94559C4.43766 8.16635 4.45838 8.50356 4.67914 8.69877L6.78269 10.5588C6.85778 10.6252 6.94634 10.6666 7.0382 10.6837C7.25904 10.8707 7.58993 10.8476 7.78255 10.6298L12.1127 5.73273C12.3079 5.51196 12.2872 5.17475 12.0664 4.97954L11.9984 4.91934Z" fill="#40404B"/>
</svg>
