<svg width="16" height="16" viewBox="0 0 16 16" fill="none" xmlns="http://www.w3.org/2000/svg">
<path fill-rule="evenodd" clip-rule="evenodd" d="M0.5 2C0.5 1.72386 0.723858 1.5 1 1.5H15C15.2761 1.5 15.5 1.72386 15.5 2C15.5 2.27614 15.2761 2.5 15 2.5H1C0.723858 2.5 0.5 2.27614 0.5 2ZM0.5 8C0.5 7.72386 0.723858 7.5 1 7.5H15C15.2761 7.5 15.5 7.72386 15.5 8C15.5 8.27614 15.2761 8.5 15 8.5H1C0.723858 8.5 0.5 8.27614 0.5 8ZM1 13.5C0.723858 13.5 0.5 13.7239 0.5 14C0.5 14.2761 0.723858 14.5 1 14.5H15C15.2761 14.5 15.5 14.2761 15.5 14C15.5 13.7239 15.2761 13.5 15 13.5H1Z" fill="#40404B"/>
</svg>
