<svg width="16" height="16" viewBox="0 0 16 16" fill="none" xmlns="http://www.w3.org/2000/svg">
<path fill-rule="evenodd" clip-rule="evenodd" d="M15 2.5C15 2.77614 14.7761 3 14.5 3C14.2239 3 14 2.77614 14 2.5C14 2.22386 14.2239 2 14.5 2C14.7761 2 15 2.22386 15 2.5ZM16 2.5C16 3.32843 15.3284 4 14.5 4C14.4352 4 14.3713 3.99589 14.3086 3.98791L11.557 9.43573C11.8306 9.70746 12 10.0839 12 10.5C12 11.3284 11.3284 12 10.5 12C9.67157 12 9 11.3284 9 10.5C9 10.3272 9.02922 10.1612 9.083 10.0067L6.29214 7.77402C6.06226 7.91725 5.7908 8 5.5 8C5.43056 8 5.36221 7.99528 5.29528 7.98615L2.64449 12.5303C2.86625 12.7918 3 13.1303 3 13.5C3 14.3284 2.32843 15 1.5 15C0.671573 15 0 14.3284 0 13.5C0 12.6716 0.671573 12 1.5 12C1.59599 12 1.68987 12.009 1.78084 12.0262L4.40591 7.52615C4.15418 7.25785 4 6.89693 4 6.5C4 5.67157 4.67157 5 5.5 5C6.32843 5 7 5.67157 7 6.5C7 6.67281 6.97078 6.83879 6.917 6.99328L9.70787 9.22597C9.93775 9.08275 10.2092 9 10.5 9C10.5516 9 10.6026 9.00261 10.6529 9.0077L13.4161 3.53692C13.1583 3.26755 13 2.90227 13 2.5C13 1.67157 13.6716 1 14.5 1C15.3284 1 16 1.67157 16 2.5ZM5.5 7C5.77614 7 6 6.77614 6 6.5C6 6.22386 5.77614 6 5.5 6C5.22386 6 5 6.22386 5 6.5C5 6.77614 5.22386 7 5.5 7ZM1.5 14C1.77614 14 2 13.7761 2 13.5C2 13.2239 1.77614 13 1.5 13C1.22386 13 1 13.2239 1 13.5C1 13.7761 1.22386 14 1.5 14ZM11 10.5C11 10.7761 10.7761 11 10.5 11C10.2239 11 10 10.7761 10 10.5C10 10.2239 10.2239 10 10.5 10C10.7761 10 11 10.2239 11 10.5Z" fill="#40404B"/>
</svg>
