<!--
 * Copyright (c) 2026, WSO2 LLC. (https://www.wso2.com).
 *
 * WSO2 LLC. licenses this file to you under the Apache License,
 * Version 2.0 (the "License"); you may not use this file except
 * in compliance with the License.
 * You may obtain a copy of the License at
 *
 *     http://www.apache.org/licenses/LICENSE-2.0
 *
 * Unless required by applicable law or agreed to in writing,
 * software distributed under the License is distributed on an
 * "AS IS" BASIS, WITHOUT WARRANTIES OR CONDITIONS OF ANY
 * KIND, either express or implied. See the License for the
 * specific language governing permissions and limitations
 * under the License.
 -->

<svg
  xmlns="http://www.w3.org/2000/svg"
  width="24"
  height="24"
  viewBox="0 0 18 18"
  fill="none"
  class="lucide-logo"
  name="DevPortal"
>
  <path
    fill="currentColor"
    fill-rule="evenodd"
    clip-rule="evenodd"
    d="M3.59998 3.375C3.59998 1.51104 5.11101 0 6.97498 0C8.83894 0 10.35 1.51104 10.35 3.375C10.35 5.23896 8.83894 6.75 6.97498 6.75C5.11101 6.75 3.59998 5.23896 3.59998 3.375ZM8.99998 3.375C8.99998 2.25662 8.09335 1.35 6.97498 1.35C5.8566 1.35 4.94998 2.25662 4.94998 3.375C4.94998 4.49338 5.8566 5.4 6.97498 5.4C8.09335 5.4 8.99998 4.49338 8.99998 3.375Z"
  />
  <path
    fill="currentColor"
    d="M6.975 5.40002C9.03638 5.40002 10.8889 6.29425 12.1658 7.71596C12.5603 8.11173 11.6992 8.86942 10.3104 7.84515C9.37718 7.15684 8.2236 6.75002 6.975 6.75002C3.93743 6.75002 1.46222 9.15774 1.35371 12.1688L1.35 12.375V14.175C1.35 14.7575 1.79269 15.2366 2.35998 15.2942L2.475 15.3H5.5L5.975 16.65H2.475C1.15872 16.65 0.0824362 15.6225 0.00451691 14.3258L0 14.175V12.375C0 8.52284 3.12281 5.40002 6.975 5.40002Z"
  />
  <path
    fill="currentColor"
    d="M15.5251 7.65002C16.8918 7.65013 17.9995 8.75797 17.9998 10.1246V15.525C17.9998 16.8919 16.892 17.9995 15.5251 17.9996H7.42456C6.05784 17.9994 4.94995 16.8918 4.94995 15.525V10.1246C4.95016 8.75804 6.05797 7.65024 7.42456 7.65002H15.5251ZM7.42456 8.99963C6.80355 8.99984 6.29977 9.50362 6.29956 10.1246V15.525C6.29956 16.1462 6.80342 16.6498 7.42456 16.65H15.5251C16.1464 16.6499 16.6501 16.1463 16.6501 15.525V10.1246C16.6499 9.50356 16.1462 8.99974 15.5251 8.99963H7.42456ZM9.64722 10.5475C9.91078 10.2839 10.3387 10.284 10.6023 10.5475C10.8419 10.7871 10.8636 11.1622 10.6677 11.4264L10.6023 11.5026L9.27515 12.8287L10.6072 14.1862C10.8445 14.428 10.8624 14.8037 10.6638 15.066L10.5974 15.1412C10.3555 15.3784 9.98081 15.3964 9.71851 15.1979L9.64331 15.1324L7.37476 12.8209L9.64722 10.5475ZM12.073 10.5475C12.3366 10.2843 12.7636 10.2841 13.0271 10.5475L15.2996 12.8209L13.032 15.1324L12.9568 15.1979C12.6944 15.3964 12.3188 15.3786 12.0769 15.1412L12.0105 15.066C11.8121 14.8037 11.8308 14.428 12.0681 14.1862L13.3992 12.8287L12.073 11.5026L12.0076 11.4264C11.8115 11.1621 11.8334 10.7871 12.073 10.5475Z"
  />
</svg>
