<!--
 * Copyright (c) 2026, WSO2 LLC. (https://www.wso2.com).
 *
 * WSO2 LLC. licenses this file to you under the Apache License,
 * Version 2.0 (the "License"); you may not use this file except
 * in compliance with the License.
 * You may obtain a copy of the License at
 *
 *     http://www.apache.org/licenses/LICENSE-2.0
 *
 * Unless required by applicable law or agreed to in writing,
 * software distributed under the License is distributed on an
 * "AS IS" BASIS, WITHOUT WARRANTIES OR CONDITIONS OF ANY
 * KIND, either express or implied. See the License for the
 * specific language governing permissions and limitations
 * under the License.
 -->

<svg
  xmlns="http://www.w3.org/2000/svg"
  width="24"
  height="24"
  viewBox="0 0 156 173"
  fill="none"
  class="lucide-logo"
  name="MCP"
>
  <path
    d="M6 80.9117L73.8822 13.0294C83.255 3.65685 98.451 3.65685 107.823 13.0294C117.196 22.4019 117.196 37.598 107.823 46.9706L56.5581 98.2359"
    stroke="currentColor"
    stroke-width="12"
    stroke-linecap="round"
  />
  <path
    d="M57.2652 97.5289L107.823 46.9706C117.196 37.598 132.392 37.598 141.765 46.9706L142.118 47.324C151.491 56.6966 151.491 71.8926 142.118 81.2651L80.7248 142.659C77.6006 145.783 77.6006 150.848 80.7248 153.972L93.331 166.579"
    stroke="currentColor"
    stroke-width="12"
    stroke-linecap="round"
  />
  <path
    d="M90.853 30L40.6482 80.2046C31.2756 89.5769 31.2756 104.773 40.6482 114.146C50.0208 123.518 65.2167 123.518 74.5893 114.146L124.794 63.9411"
    stroke="currentColor"
    stroke-width="12"
    stroke-linecap="round"
  />
</svg>
