<!--
 * Copyright (c) 2025, WSO2 LLC. (https://www.wso2.com).
 *
 * WSO2 LLC. licenses this file to you under the Apache License,
 * Version 2.0 (the "License"); you may not use this file except
 * in compliance with the License.
 * You may obtain a copy of the License at
 *
 *     http://www.apache.org/licenses/LICENSE-2.0
 *
 * Unless required by applicable law or agreed to in writing,
 * software distributed under the License is distributed on an
 * "AS IS" BASIS, WITHOUT WARRANTIES OR CONDITIONS OF ANY
 * KIND, either express or implied. See the License for the
 * specific language governing permissions and limitations
 * under the License.
 -->

<svg
  xmlns="http://www.w3.org/2000/svg"
  width="24"
  height="24"
  viewBox="0 0 24 24"
  class="lucide-logo"
  name="WSO2"
>
  <path fill="currentColor" stroke="none" d="M11.7972 0.00354566C11.9766 0.00378361 12.1561 0.002008 12.3355 9.8704e-05C13.4 -0.00437346 14.4171 0.143032 15.4357 0.461512C15.4986 0.480898 15.5615 0.500284 15.6262 0.520257C17.4305 1.09309 18.9658 2.05158 20.3371 3.34943C20.399 3.40744 20.461 3.46545 20.5249 3.52521C21.3025 4.27532 21.9185 5.12822 22.4505 6.06748C22.4751 6.11089 22.4998 6.1543 22.5252 6.19901C23.2273 7.45415 23.694 8.87049 23.8845 10.2956C23.8949 10.3705 23.8949 10.3705 23.9054 10.4471C24.3026 13.5927 23.4378 16.764 21.5278 19.282C20.8881 20.1039 20.1905 20.8433 19.3559 21.4698C19.2779 21.53 19.1999 21.5902 19.1197 21.6523C16.6418 23.5273 13.4307 24.2997 10.359 23.8955C7.88794 23.5194 5.65017 22.4797 3.80743 20.7903C3.76678 20.753 3.72612 20.7157 3.68423 20.6774C2.14431 19.2463 1.09253 17.4471 0.472266 15.4438C0.454291 15.3866 0.436315 15.3295 0.417795 15.2706C0.0992863 14.1952 -0.00861615 13.1342 0.000530625 12.0179C0.000785265 11.9571 0.0010399 11.8964 0.00130226 11.8337C0.0210519 8.56584 1.32732 5.6415 3.61373 3.31497C4.61248 2.33054 5.77988 1.58602 7.05297 1.00889C7.09925 0.987889 7.14552 0.966877 7.1932 0.94523C7.75352 0.695758 8.3202 0.506769 8.91165 0.34826C8.96742 0.333253 9.0232 0.318247 9.08064 0.302786C9.98441 0.0726044 10.8686 0.000984053 11.7972 0.00354566ZM9.24186 1.76391C9.15846 1.78637 9.15846 1.78637 9.07347 1.80929C7.36755 2.27722 5.91468 3.199 4.63769 4.40645C4.57649 4.4628 4.51529 4.51916 4.45224 4.57722C3.06614 5.89823 2.19499 7.63333 1.69406 9.46506C1.67967 9.51588 1.66529 9.56661 1.65046 9.61901C1.22693 11.1892 1.31144 13.2031 1.76954 14.7502C1.78571 14.8053 1.80189 14.8604 1.81855 14.9172C2.25601 16.358 2.98251 17.6817 3.95839 18.8272C4.01881 18.8987 4.07923 18.9703 4.14148 19.044C5.90225 21.0506 8.47282 22.3088 11.1288 22.5268C13.9727 22.6727 16.7502 21.8652 18.8965 19.9474C18.9743 19.8762 19.0519 19.8048 19.1294 19.7332C19.1872 19.6804 19.1872 19.6804 19.246 19.6266C21.1588 17.8588 22.4037 15.2875 22.5353 12.6756C22.6262 9.58073 21.617 6.83891 19.5068 4.55745C17.7809 2.77419 15.2124 1.48534 12.7061 1.44392C11.5201 1.42657 10.3912 1.43421 9.24186 1.76391Z" />
  <path fill="currentColor" stroke="none" d="M11.4236 6.07489C11.7738 6.41239 11.8588 6.80149 11.9787 7.25308C12.0007 7.33295 12.0228 7.41282 12.0455 7.49511C12.1179 7.75858 12.189 8.02232 12.2601 8.28614C12.3102 8.46926 12.3604 8.65238 12.4106 8.83549C12.5427 9.31711 12.6736 9.79902 12.8042 10.2809C12.9635 10.8675 13.1238 11.4537 13.2842 12.0399C13.4089 12.4958 13.5332 12.9517 13.6571 13.4078C13.6912 13.5332 13.6912 13.5332 13.726 13.6612C13.7686 13.8179 13.8111 13.9745 13.8534 14.1312C13.8722 14.1999 13.8909 14.2685 13.9102 14.3394C13.9345 14.4293 13.9345 14.4293 13.9594 14.5209C14.0003 14.6716 14.0003 14.6716 14.0818 14.8203C14.1085 14.7522 14.1353 14.6841 14.1629 14.6139C14.2629 14.3602 14.364 14.107 14.4654 13.8539C14.509 13.7445 14.5524 13.635 14.5955 13.5253C14.6576 13.3673 14.7207 13.2098 14.7841 13.0523C14.8031 13.0035 14.822 12.9547 14.8414 12.9046C14.9827 12.5578 15.1428 12.3052 15.489 12.1353C15.6142 12.1265 15.7398 12.1223 15.8653 12.1205C15.9436 12.1193 16.0219 12.118 16.1026 12.1168C16.4613 12.1133 16.8199 12.1102 17.1786 12.1084C17.3677 12.1072 17.5568 12.1051 17.7459 12.1021C18.0186 12.098 18.291 12.0963 18.5637 12.0952C18.648 12.0934 18.7324 12.0917 18.8192 12.0899C19.4749 12.0917 19.4749 12.0917 19.7641 12.3187C19.9495 12.5235 20.0082 12.5956 19.9991 12.8641C19.9994 12.9203 19.9997 12.9764 20 13.0343C19.9143 13.3087 19.7852 13.417 19.5544 13.5928C19.2959 13.6455 19.0439 13.6376 18.7808 13.6304C18.6697 13.6295 18.6697 13.6295 18.5564 13.6287C18.3206 13.6265 18.0849 13.6218 17.8491 13.6169C17.6889 13.6149 17.5288 13.6132 17.3686 13.6116C16.9765 13.6074 16.5846 13.6007 16.1927 13.5928C16.1837 13.6461 16.1747 13.6993 16.1654 13.7541C16.1081 14.0045 16.0213 14.228 15.9236 14.4661C15.9046 14.5127 15.8856 14.5594 15.8659 14.6075C15.8042 14.7584 15.7419 14.9093 15.6796 15.06C15.6368 15.1639 15.594 15.2677 15.5513 15.3715C15.4663 15.5778 15.3809 15.784 15.2954 15.9902C15.1911 16.2416 15.0884 16.4936 14.986 16.7456C14.9322 16.8758 14.8784 17.006 14.8245 17.1361C14.801 17.1947 14.7774 17.2533 14.7531 17.3137C14.6295 17.6074 14.5328 17.8174 14.2381 17.9656C13.7021 18.024 13.7021 18.024 13.417 17.8378C13.191 17.6305 13.1403 17.5017 13.0606 17.2112C13.0349 17.1205 13.0093 17.0297 12.9828 16.9362C12.9563 16.8368 12.9298 16.7373 12.9033 16.6378C12.8745 16.534 12.8456 16.4303 12.8166 16.3266C12.7395 16.0498 12.6641 15.7726 12.5891 15.4952C12.5116 15.2098 12.4326 14.9248 12.3537 14.6397C12.2294 14.19 12.106 13.74 11.9833 13.2898C11.8406 12.7663 11.6954 12.2436 11.5485 11.7212C11.494 11.5268 11.4396 11.3323 11.3852 11.1379C11.3524 11.0205 11.3195 10.903 11.2864 10.7856C11.242 10.627 11.198 10.4682 11.1542 10.3095C11.1185 10.1811 11.1185 10.1811 11.0821 10.0502C11.0327 9.83385 11.0327 9.83385 11.0327 9.527C10.9811 9.527 10.9295 9.527 10.8763 9.527C10.8676 9.60095 10.8588 9.67498 10.8498 9.75115C10.7985 10.102 10.699 10.4351 10.5963 10.7742C10.5763 10.8406 10.5563 10.9071 10.5358 10.9756C10.4936 11.1153 10.4512 11.2549 10.4086 11.3945C10.3438 11.6075 10.2804 11.8209 10.2171 12.0343C10.1758 12.1705 10.1345 12.3067 10.093 12.4427C10.0743 12.5062 10.0557 12.5697 10.0364 12.6351C9.92729 12.987 9.81408 13.246 9.54725 13.5161C9.33468 13.6205 9.16518 13.6044 8.9272 13.6064C8.82986 13.6074 8.73252 13.6084 8.63222 13.6094C8.52542 13.6101 8.4187 13.6106 8.31191 13.6112C8.2582 13.6115 8.20449 13.6118 8.14914 13.6121C7.86487 13.6137 7.58052 13.6148 7.29618 13.6156C7.00278 13.6164 6.70943 13.619 6.41604 13.6221C6.19021 13.6241 5.96439 13.6247 5.73855 13.625C5.63043 13.6254 5.52229 13.6262 5.41417 13.6277C5.26262 13.6295 5.11105 13.6293 4.95949 13.6289C4.83025 13.6296 4.83025 13.6296 4.6984 13.6303C4.41119 13.5842 4.28169 13.4825 4.07455 13.286C3.97887 13.0983 3.99509 12.9996 4.01592 12.7922C4.02115 12.7321 4.02639 12.6721 4.03179 12.6103C4.08271 12.4101 4.14452 12.3377 4.30909 12.212C4.54392 12.1352 4.69823 12.126 4.94346 12.1266C5.02483 12.1266 5.10621 12.1266 5.19005 12.1266C5.27776 12.127 5.36548 12.1274 5.45585 12.1278C5.54576 12.1279 5.63566 12.1281 5.72829 12.1281C6.01586 12.1286 6.30343 12.1295 6.59101 12.1305C6.7858 12.1309 6.98059 12.1313 7.17538 12.1316C7.65331 12.1324 8.13115 12.1337 8.60908 12.1353C8.61893 12.0576 8.62878 11.9799 8.63894 11.8998C8.68483 11.6135 8.75144 11.3493 8.83471 11.0716C8.84948 11.022 8.86418 10.9724 8.87943 10.9214C8.92782 10.7591 8.97684 10.5971 9.02594 10.435C9.0601 10.3214 9.09435 10.2079 9.12851 10.0944C9.20005 9.8571 9.27197 9.61997 9.34398 9.38293C9.43608 9.07975 9.527 8.77619 9.61761 8.47264C9.68774 8.23827 9.75873 8.00414 9.82995 7.77009C9.86381 7.65831 9.89735 7.54646 9.93057 7.43448C9.97725 7.27783 10.025 7.12154 10.0731 6.96531C10.0999 6.87647 10.1267 6.78763 10.1544 6.6961C10.2576 6.44183 10.3718 6.27273 10.5636 6.07489C10.8565 5.97909 11.1335 5.97107 11.4236 6.07489Z" />
</svg>
