<svg width="39" height="39" viewBox="0 0 39 39" fill="none" xmlns="http://www.w3.org/2000/svg">
<path d="M19.4612 0C8.71334 0 0 8.6894 0 19.4077C0 30.126 8.71334 38.8154 19.4612 38.8154C30.209 38.8154 38.9223 30.126 38.9223 19.4077C38.9223 8.6894 30.209 0 19.4612 0ZM19.4612 35.2086C10.8268 35.2086 3.8279 28.1346 3.8279 19.4077C3.8279 10.6808 10.8276 3.60682 19.4612 3.60682C28.0955 3.60682 35.0944 10.6808 35.0944 19.4077C35.0944 28.1346 28.0955 35.2086 19.4612 35.2086Z" fill="white"/>
<path d="M35.0433 18.1763L29.3781 18.1898L26.5535 23.2724L19.5058 6.09155L13.1654 20.2051L3.84705 20.1852C3.88456 20.9626 3.97874 21.7248 4.1232 22.4687L14.6404 22.491L19.4101 11.8749L26.243 28.5314L30.723 20.4701L35.0569 20.4598C35.0793 20.1118 35.0952 19.7614 35.0952 19.4078C35.0944 18.9928 35.0745 18.5833 35.0433 18.1763Z" fill="#47EBD8"/>
</svg>
