<svg width="16" height="16" viewBox="0 0 16 16" fill="none" xmlns="http://www.w3.org/2000/svg">
<path fill-rule="evenodd" clip-rule="evenodd" d="M3.71686 11C4.61385 11 5.45959 10.5195 5.85683 9.78646H5.88245V10.8891H6.93963V6.45997C6.93963 5.18482 5.95293 4.37167 4.3896 4.37167C2.81345 4.37167 1.82676 5.22178 1.74988 6.33061H2.82627C2.96723 5.70227 3.50542 5.31418 4.36397 5.31418C5.28659 5.31418 5.82479 5.78235 5.82479 6.56469V7.10063L3.91548 7.20535C2.37777 7.29159 1.5 7.98153 1.5 9.07804C1.5 10.23 2.39059 11 3.71686 11ZM11.6681 13.3717C13.3724 13.3717 14.5 12.0719 14.5 10.0575C14.5 8.04929 13.3659 6.74334 11.6873 6.74334C10.7454 6.74334 9.97018 7.19303 9.55372 7.92609H9.52809V4.37167H8.41326V13.2608H9.47684V12.1766H9.50246C9.93174 12.9158 10.6942 13.3717 11.6681 13.3717ZM11.4502 7.68584C12.6291 7.68584 13.3595 8.60371 13.3595 10.0575C13.3595 11.5236 12.6291 12.4292 11.4502 12.4292C10.3226 12.4292 9.52169 11.4867 9.52169 10.0575C9.52169 8.63451 10.3226 7.68584 11.4502 7.68584ZM2.63406 9.07804C2.63406 9.6879 3.16585 10.0883 3.96673 10.0883C5.0175 10.0883 5.82479 9.37989 5.82479 8.45586V7.93225L4.04362 8.03697C3.14662 8.09241 2.63406 8.47434 2.63406 9.07804ZM1 12.2505H0V14.2505V15.2505H1H15H16V14.2505V12.2505H15V14.2505H1V12.2505Z" fill="#40404B"/>
</svg>
