<svg width="16" height="16" viewBox="0 0 16 16" fill="none" xmlns="http://www.w3.org/2000/svg">
<path fill-rule="evenodd" clip-rule="evenodd" d="M9 2C9 1.44772 8.55228 1 8 1C7.44772 1 7 1.44772 7 2V2.10002C4.71776 2.56329 3 4.58104 3 7V12H1.5C1.22386 12 1 12.2239 1 12.5C1 12.7761 1.22386 13 1.5 13H3H6C6 14.1046 6.89543 15 8 15C9.10457 15 10 14.1046 10 13H13H14.5C14.7761 13 15 12.7761 15 12.5C15 12.2239 14.7761 12 14.5 12H13V7C13 4.58104 11.2822 2.56329 9 2.10002V2ZM8 3C5.8578 3 4.10892 4.68397 4.0049 6.80036L4 7V12H6H10H12V7C12 4.8578 10.316 3.10892 8.19964 3.0049L8 3ZM7.88338 13.9933C7.38604 13.9355 7 13.5128 7 13H9L8.99327 13.1166C8.93551 13.614 8.51284 14 8 14L7.88338 13.9933Z" fill="#40404B"/>
<mask id="mask0_1_3892" style="mask-type:alpha" maskUnits="userSpaceOnUse" x="1" y="1" width="14" height="14">
<path fill-rule="evenodd" clip-rule="evenodd" d="M9 2C9 1.44772 8.55228 1 8 1C7.44772 1 7 1.44772 7 2V2.10002C4.71776 2.56329 3 4.58104 3 7V12H1.5C1.22386 12 1 12.2239 1 12.5C1 12.7761 1.22386 13 1.5 13H3H6C6 14.1046 6.89543 15 8 15C9.10457 15 10 14.1046 10 13H13H14.5C14.7761 13 15 12.7761 15 12.5C15 12.2239 14.7761 12 14.5 12H13V7C13 4.58104 11.2822 2.56329 9 2.10002V2ZM8 3C5.8578 3 4.10892 4.68397 4.0049 6.80036L4 7V12H6H10H12V7C12 4.8578 10.316 3.10892 8.19964 3.0049L8 3ZM7.88338 13.9933C7.38604 13.9355 7 13.5128 7 13H9L8.99327 13.1166C8.93551 13.614 8.51284 14 8 14L7.88338 13.9933Z" fill="white"/>
</mask>
<g mask="url(#mask0_1_3892)">
</g>
</svg>
