<svg width="16" height="16" viewBox="0 0 16 16" fill="none" xmlns="http://www.w3.org/2000/svg">
<path fill-rule="evenodd" clip-rule="evenodd" d="M8.5 0.5V7.5H15.5V7C15.5 3.41015 12.5899 0.5 9 0.5H8.5ZM9.5 1.523L9.65681 1.53881C12.1694 1.83781 14.1622 3.83062 14.4612 6.34319L14.476 6.5H9.5V1.523ZM7.5 8.5V2.5H7C3.41015 2.5 0.5 5.41015 0.5 9C0.5 12.5899 3.41015 15.5 7 15.5C10.5899 15.5 13.5 12.5899 13.5 9V8.5H7.5ZM6.5 3.523V9.5H12.476L12.4612 9.65681C12.1366 12.3847 9.81531 14.5 7 14.5C3.96243 14.5 1.5 12.0376 1.5 9C1.5 6.1847 3.61526 3.86344 6.34319 3.53881L6.5 3.523Z" fill="#40404B"/>
</svg>
