<svg width="16" height="16" viewBox="0 0 16 16" fill="none" xmlns="http://www.w3.org/2000/svg">
<g clip-path="url(#clip0_1_3872)">
<path fill-rule="evenodd" clip-rule="evenodd" d="M9.13201 13.5965C7.12611 15.6024 3.87389 15.6024 1.86799 13.5965C-0.137915 11.5906 -0.137916 8.33839 1.86799 6.33248L6.23926 1.96121C6.43453 1.76594 6.75111 1.76594 6.94637 1.96121C7.14163 2.15647 7.14163 2.47305 6.94637 2.66831L2.5751 7.03959C0.959716 8.65497 0.959715 11.274 2.5751 12.8894C4.19048 14.5048 6.80952 14.5048 8.4249 12.8894L10.2462 11.0681L10.2461 11.068L13.8889 7.42532C14.9007 6.41348 14.9007 4.77298 13.8889 3.76115C12.877 2.74931 11.2365 2.74931 10.2247 3.76115L7.31562 6.67024C7.31397 6.67193 7.31232 6.67361 7.31064 6.67528L4.76073 9.22519C4.35245 9.63348 4.35245 10.2954 4.76073 10.7037C5.16902 11.112 5.83098 11.112 6.23926 10.7037L10.6105 6.33245C10.8058 6.13718 11.1224 6.13718 11.3176 6.33245C11.5129 6.52771 11.5129 6.84429 11.3176 7.03955L6.94637 11.4108C6.14756 12.2096 4.85244 12.2096 4.05363 11.4108C3.25482 10.612 3.25482 9.31689 4.05363 8.51809L6.23918 6.33253L6.23914 6.3325L9.5176 3.05404C10.92 1.65168 13.1936 1.65168 14.596 3.05404C15.9983 4.4564 15.9983 6.73007 14.596 8.13242L12.4165 10.3119L12.4105 10.318L9.13201 13.5965Z" fill="#40404B"/>
</g>
<defs>
<clipPath id="clip0_1_3872">
<rect width="16" height="16" fill="white"/>
</clipPath>
</defs>
</svg>
