<svg width="16" height="16" viewBox="0 0 16 16" fill="none" xmlns="http://www.w3.org/2000/svg">
<path fill-rule="evenodd" clip-rule="evenodd" d="M7.5 5.5C7.5 3.49783 8.97103 1.83923 10.8913 1.54603C10.7426 1.25481 10.4555 1.04608 10.1166 1.00673L10 1H3C2.48716 1 2.06449 1.38604 2.00673 1.88338L2 2V14.315L6.5 11.8609L11 14.316V9.46905C9.02684 9.223 7.5 7.53981 7.5 5.5ZM10 0C10.9406 0 11.7296 0.649365 11.9431 1.52426C13.9437 1.74473 15.5 3.44062 15.5 5.5C15.5 7.53981 13.9732 9.223 12 9.46905V16L6.5 13L1 16V2C1 0.89543 1.89543 0 3 0H10ZM14.5 5.5C14.5 6.9865 13.4189 8.22048 12 8.45852C11.8374 8.4858 11.6704 8.5 11.5 8.5C11.3296 8.5 11.1626 8.4858 11 8.45852C9.58114 8.22048 8.5 6.9865 8.5 5.5C8.5 4.0135 9.58114 2.77952 11 2.54148C11.1626 2.5142 11.3296 2.5 11.5 2.5C11.6704 2.5 11.8374 2.5142 12 2.54148C13.4189 2.77952 14.5 4.0135 14.5 5.5Z" fill="#40404B"/>
</svg>
