<svg width="16" height="16" viewBox="0 0 16 16" fill="none" xmlns="http://www.w3.org/2000/svg">
<g clip-path="url(#clip0_1_3870)">
<path fill-rule="evenodd" clip-rule="evenodd" d="M3 5C4.10457 5 5 4.10457 5 3C5 1.89543 4.10457 1 3 1C1.89543 1 1 1.89543 1 3C1 4.10457 1.89543 5 3 5ZM3.5 5.95852C4.91886 5.72048 6 4.4865 6 3C6 1.34315 4.65685 0 3 0C1.34315 0 0 1.34315 0 3C0 4.4865 1.08114 5.72048 2.5 5.95852V10.0415C1.08114 10.2795 0 11.5135 0 13C0 14.6569 1.34315 16 3 16C4.65685 16 6 14.6569 6 13C6 11.5372 4.95303 10.3189 3.56754 10.0536C3.75756 9.44318 4.32703 9 5 9H11C12.3807 9 13.5 7.88071 13.5 6.5V5.95852C14.9189 5.72048 16 4.4865 16 3C16 1.34315 14.6569 0 13 0C11.3431 0 10 1.34315 10 3C10 4.4865 11.0811 5.72048 12.5 5.95852V6.5C12.5 7.32843 11.8284 8 11 8H5C4.4372 8 3.91783 8.18597 3.5 8.49982V5.95852ZM3 15C4.10457 15 5 14.1046 5 13C5 11.8954 4.10457 11 3 11C1.89543 11 1 11.8954 1 13C1 14.1046 1.89543 15 3 15ZM15 3C15 4.10457 14.1046 5 13 5C11.8954 5 11 4.10457 11 3C11 1.89543 11.8954 1 13 1C14.1046 1 15 1.89543 15 3Z" fill="#40404B"/>
</g>
<defs>
<clipPath id="clip0_1_3870">
<rect width="16" height="16" fill="white"/>
</clipPath>
</defs>
</svg>
