<svg width="16" height="16" viewBox="0 0 16 16" fill="none" xmlns="http://www.w3.org/2000/svg">
<path fill-rule="evenodd" clip-rule="evenodd" d="M12 5C12 7.20914 10.2091 9 8 9C5.79086 9 4 7.20914 4 5C4 2.79086 5.79086 1 8 1C10.2091 1 12 2.79086 12 5ZM10 9.58396C9.38754 9.85155 8.7111 10 8 10C7.2889 10 6.61246 9.85155 6 9.58396V12C6 12.2761 6.22386 12.5 6.5 12.5H9.5C9.77614 12.5 10 12.2761 10 12V9.58396ZM11 9.00037C12.2144 8.08816 13 6.63582 13 5C13 2.23858 10.7614 0 8 0C5.23858 0 3 2.23858 3 5C3 6.63582 3.78555 8.08816 5 9.00037V12C5 12.8284 5.67157 13.5 6.5 13.5V14C6.5 14.8284 7.17157 15.5 8 15.5C8.82843 15.5 9.5 14.8284 9.5 14V13.5C10.3284 13.5 11 12.8284 11 12V9.00037ZM7.5 14V13.5H8.5V14C8.5 14.2761 8.27614 14.5 8 14.5C7.72386 14.5 7.5 14.2761 7.5 14ZM11 5.5C11 5.22386 10.7761 5 10.5 5C10.2239 5 10 5.22386 10 5.5C10 6.32843 9.32843 7 8.5 7C8.22386 7 8 7.22386 8 7.5C8 7.77614 8.22386 8 8.5 8C9.88071 8 11 6.88071 11 5.5Z" fill="#40404B"/>
</svg>
