<svg width="18" height="18" viewBox="0 0 18 18" fill="none" xmlns="http://www.w3.org/2000/svg">
<path fill-rule="evenodd" clip-rule="evenodd" d="M2.25 2.75C2.25 2.47386 2.47386 2.25 2.75 2.25H15.25C15.5261 2.25 15.75 2.47386 15.75 2.75V2.875C15.75 3.15114 15.5261 3.375 15.25 3.375H2.75C2.47386 3.375 2.25 3.15114 2.25 2.875V2.75ZM2.25 8.9375C2.25 8.66136 2.47386 8.4375 2.75 8.4375H15.25C15.5261 8.4375 15.75 8.66136 15.75 8.9375V9.0625C15.75 9.33864 15.5261 9.5625 15.25 9.5625H2.75C2.47386 9.5625 2.25 9.33864 2.25 9.0625V8.9375ZM2.75 14.625C2.47386 14.625 2.25 14.8489 2.25 15.125V15.25C2.25 15.5261 2.47386 15.75 2.75 15.75H9.01923C9.29537 15.75 9.51923 15.5261 9.51923 15.25V15.125C9.51923 14.8489 9.29537 14.625 9.01923 14.625H2.75Z" fill="#40404B"/>
</svg>
