<svg width="16" height="16" viewBox="0 0 16 16" fill="none" xmlns="http://www.w3.org/2000/svg">
<path fill-rule="evenodd" clip-rule="evenodd" d="M3.99512 0C4.24058 0 4.44473 0.176875 4.48706 0.410124L4.49512 0.5V2H11.4951V0.5C11.4951 0.223858 11.719 0 11.9951 0C12.2406 0 12.4447 0.176875 12.4871 0.410124L12.4951 0.5V2H14C15.1046 2 16 2.89543 16 4V14C16 15.1046 15.1046 16 14 16H2C0.895431 16 0 15.1046 0 14V4C0 2.89543 0.895431 2 2 2H3.49512V0.5C3.49512 0.223858 3.71897 0 3.99512 0ZM3.49512 3H2C1.44772 3 1 3.44772 1 4V14C1 14.5523 1.44772 15 2 15H14C14.5523 15 15 14.5523 15 14V4C15 3.44772 14.5523 3 14 3H12.4951V4C12.4951 4.27614 12.2713 4.5 11.9951 4.5C11.7497 4.5 11.5455 4.32312 11.5032 4.08988L11.4951 4V3H4.49512V4C4.49512 4.27614 4.27126 4.5 3.99512 4.5C3.74966 4.5 3.54551 4.32312 3.50317 4.08988L3.49512 4V3ZM3.99512 11C4.24058 11 4.44473 11.1769 4.48706 11.4101L4.49512 11.5V12C4.49512 12.2761 4.27126 12.5 3.99512 12.5C3.74966 12.5 3.54551 12.3231 3.50317 12.0899L3.49512 12V11.5C3.49512 11.2239 3.71897 11 3.99512 11ZM8.48706 11.4101C8.44473 11.1769 8.24058 11 7.99512 11C7.71897 11 7.49512 11.2239 7.49512 11.5V12L7.50317 12.0899C7.54551 12.3231 7.74966 12.5 7.99512 12.5C8.27126 12.5 8.49512 12.2761 8.49512 12V11.5L8.48706 11.4101ZM11.9951 11C12.2406 11 12.4447 11.1769 12.4871 11.4101L12.4951 11.5V12C12.4951 12.2761 12.2713 12.5 11.9951 12.5C11.7497 12.5 11.5455 12.3231 11.5032 12.0899L11.4951 12V11.5C11.4951 11.2239 11.719 11 11.9951 11ZM4.48706 7.41012C4.44473 7.17688 4.24058 7 3.99512 7C3.71897 7 3.49512 7.22386 3.49512 7.5V8L3.50317 8.08988C3.54551 8.32312 3.74966 8.5 3.99512 8.5C4.27126 8.5 4.49512 8.27614 4.49512 8V7.5L4.48706 7.41012ZM7.99512 7C8.24058 7 8.44473 7.17688 8.48706 7.41012L8.49512 7.5V8C8.49512 8.27614 8.27126 8.5 7.99512 8.5C7.74966 8.5 7.54551 8.32312 7.50317 8.08988L7.49512 8V7.5C7.49512 7.22386 7.71897 7 7.99512 7ZM12.4871 7.41012C12.4447 7.17688 12.2406 7 11.9951 7C11.719 7 11.4951 7.22386 11.4951 7.5V8L11.5032 8.08988C11.5455 8.32312 11.7497 8.5 11.9951 8.5C12.2713 8.5 12.4951 8.27614 12.4951 8V7.5L12.4871 7.41012Z" fill="#40404B"/>
</svg>
