<svg width="16" height="16" viewBox="0 0 16 16" fill="none" xmlns="http://www.w3.org/2000/svg">
<g clip-path="url(#clip0_1_3902)">
<path d="M8.50059 0.516431C12.2442 0.763129 15.2374 3.75662 15.4836 7.50034L15.5 7.49999V7.99999C15.5 12.1421 12.1421 15.5 8 15.5C6.21038 15.5 4.56716 14.8732 3.2779 13.8271L3.26638 13.8391L2.89978 13.4989L2.86376 13.4653C2.83466 13.4379 2.80579 13.4103 2.77713 13.3825L2.71663 13.3232C2.69888 13.3056 2.68122 13.2879 2.66365 13.2701C2.64833 13.2545 2.63286 13.2387 2.61746 13.2229L2.49258 13.0912C2.48613 13.0842 2.47969 13.0772 2.47326 13.0702C2.4141 13.0056 2.35562 12.9396 2.29829 12.8726C2.28487 12.8572 2.27191 12.842 2.25901 12.8266C2.21768 12.7772 2.17657 12.7271 2.1361 12.6764C2.10877 12.6426 2.08214 12.6087 2.05582 12.5745C1.95477 12.443 1.85768 12.308 1.76507 12.1698L1.75947 12.162L1.73732 12.1281C1.64914 11.9946 1.56512 11.8581 1.48543 11.7188C1.42673 11.6166 1.37078 11.5131 1.31729 11.4084L1.30594 11.3858C1.23721 11.2502 1.17248 11.1122 1.11191 10.972L1.10209 10.9492C1.09656 10.9363 1.09106 10.9233 1.0856 10.9104C1.07289 10.88 1.06051 10.8501 1.04832 10.82C0.915775 10.4939 0.805513 10.1559 0.71948 9.80844C0.712277 9.77809 0.704967 9.74774 0.697844 9.71734C0.684111 9.66003 0.6714 9.60273 0.659348 9.54519C0.653553 9.5161 0.64764 9.48702 0.641897 9.45789C0.59011 9.19656 0.552155 8.92998 0.52858 8.65929C0.525109 8.61827 0.521863 8.57724 0.51895 8.53615C0.515329 8.486 0.512295 8.43599 0.509754 8.38585C0.503292 8.25808 0.5 8.1293 0.5 7.99999L0.504906 8.27381C0.501644 8.18294 0.5 8.09166 0.5 7.99999C0.5 7.84429 0.504744 7.6897 0.514096 7.53636C0.531665 7.24913 0.565384 6.96629 0.614393 6.68866C0.637089 6.55916 0.66321 6.43098 0.692554 6.30404C0.700853 6.26911 0.70914 6.23443 0.717668 6.19985L0.692554 6.30404C0.849107 5.62677 1.09739 4.98462 1.42361 4.39138C1.44136 4.36023 1.4589 4.32888 1.47666 4.29767C1.69069 3.92027 1.93677 3.56381 2.21092 3.23137C2.22384 3.21678 2.23665 3.20137 2.24952 3.18602C2.33629 3.08142 2.42601 2.98005 2.51836 2.88119C2.52859 2.87131 2.53864 2.86062 2.54872 2.84996C2.64091 2.75135 2.73607 2.65591 2.83374 2.56308C2.8579 2.54119 2.88149 2.51906 2.90522 2.49708C2.93873 2.46498 2.97271 2.43408 3.00698 2.40349C3.01845 2.39432 3.02945 2.38455 3.04049 2.37482C3.2587 2.18121 3.48879 2.00076 3.72908 1.834C3.74318 1.82534 3.75685 1.81593 3.77055 1.80655C3.82376 1.76902 3.87805 1.73291 3.93283 1.69748C3.93953 1.69429 3.94587 1.6902 3.95222 1.68613C4.52987 1.31391 5.16215 1.01981 5.83417 0.81745C5.84097 0.816569 5.84764 0.814569 5.85432 0.812577C6.22341 0.701408 6.60447 0.619042 6.99504 0.566738C7.00574 0.566031 7.01611 0.564658 7.02649 0.563307C7.23094 0.536084 7.4384 0.517785 7.64811 0.508099L7.75092 0.50412L8.5 0.491486L8.50059 0.516431ZM3.95897 13.0915L4.05676 13.1677C5.15043 14.0035 6.51724 14.5 8 14.5L8.23313 14.4959C8.26462 14.4948 8.29605 14.4934 8.32742 14.4919C8.37567 14.4895 8.42347 14.4866 8.47113 14.4832C8.61234 14.4731 8.7522 14.4584 8.89067 14.4395C8.90194 14.4379 8.91355 14.4363 8.92515 14.4347L8.89067 14.4395C8.93524 14.4334 8.97966 14.4268 9.02394 14.4198L8.92515 14.4347C9.00396 14.4234 9.08232 14.4108 9.1602 14.3967L9.02394 14.4198C9.19523 14.3927 9.3643 14.3589 9.53086 14.3187C9.55346 14.3132 9.57577 14.3077 9.59803 14.3021L9.53086 14.3187C9.59057 14.3043 9.64995 14.289 9.70901 14.273L9.59803 14.3021C9.67338 14.283 9.74821 14.2627 9.82249 14.241L9.70901 14.273C9.77403 14.2553 9.83864 14.2367 9.90283 14.217L9.82249 14.241C9.89473 14.22 9.96645 14.1977 10.0376 14.1742L9.90283 14.217C9.99649 14.1884 10.0893 14.1577 10.1811 14.125L10.0376 14.1742C10.1024 14.1528 10.1668 14.1305 10.2306 14.1071L10.1811 14.125C10.2384 14.1046 10.2953 14.0834 10.3519 14.0615L10.2306 14.1071C10.3098 14.0782 10.3882 14.0478 10.4658 14.016L10.3519 14.0615C10.4244 14.0333 10.4963 14.0039 10.5675 13.9732L10.4658 14.016C10.5266 13.991 10.5869 13.9652 10.6468 13.9385L10.5675 13.9732C10.6375 13.9431 10.7069 13.9117 10.7757 13.8792L10.6468 13.9385C10.7184 13.9065 10.7893 13.8733 10.8596 13.8388L10.7757 13.8792C10.8479 13.8451 10.9194 13.8096 10.9901 13.7729L10.8596 13.8388C10.9195 13.8094 10.9788 13.7791 11.0377 13.748L10.9901 13.7729C11.0544 13.7396 11.118 13.7052 11.181 13.6698L11.0377 13.748C11.1064 13.7116 11.1743 13.674 11.2415 13.6353L11.181 13.6698C11.2355 13.6391 11.2894 13.6077 11.3429 13.5756L11.2415 13.6353C11.3095 13.5961 11.3766 13.5558 11.443 13.5142L11.3429 13.5756C11.4702 13.4992 11.5946 13.4185 11.716 13.3338C11.8655 13.2294 12.0106 13.1187 12.1508 13.0023C12.1815 12.9768 12.2118 12.9512 12.2418 12.9253L12.1508 13.0023C12.2066 12.9559 12.2616 12.9087 12.3158 12.8605L12.2418 12.9253C12.2976 12.8772 12.3526 12.8282 12.4067 12.7782L12.3158 12.8605C12.3704 12.812 12.4241 12.7626 12.477 12.7123L12.4067 12.7782C12.4581 12.7308 12.5088 12.6825 12.5587 12.6334L12.477 12.7123C12.5368 12.6556 12.5955 12.5977 12.653 12.5387L12.5587 12.6334C12.6059 12.5869 12.6525 12.5397 12.6983 12.4918L12.653 12.5387C12.7113 12.4789 12.7685 12.418 12.8245 12.356L12.6983 12.4918C12.7531 12.4344 12.807 12.3761 12.8597 12.3167L12.8245 12.356C12.8674 12.3085 12.9097 12.2603 12.9512 12.2116L12.8597 12.3167C12.908 12.2624 12.9555 12.2072 13.002 12.1512L12.9512 12.2116C12.9885 12.1677 13.0253 12.1234 13.0615 12.0785L13.002 12.1512C13.1004 12.0328 13.1946 11.9108 13.2845 11.7855C13.3041 11.7582 13.3237 11.7305 13.343 11.7027L13.2845 11.7855C13.3203 11.7357 13.3554 11.6853 13.3897 11.6345L13.343 11.7027C13.3877 11.6384 13.4312 11.5732 13.4736 11.5072L13.3897 11.6345C13.4346 11.568 13.4783 11.5007 13.5208 11.4326L13.4736 11.5072C13.5527 11.3839 13.6278 11.2578 13.6987 11.129C13.7132 11.1027 13.7276 11.0759 13.7419 11.0491L13.6987 11.129C13.7437 11.0471 13.7871 10.9642 13.8286 10.8803L13.7419 11.0491C13.7761 10.9849 13.8092 10.92 13.8413 10.8545L13.8286 10.8803C13.8487 10.8396 13.8684 10.7987 13.8877 10.7576L13.8413 10.8545C13.8748 10.7861 13.9071 10.717 13.9383 10.6472L13.8877 10.7576C13.9206 10.6876 13.9522 10.6169 13.9826 10.5455L13.9383 10.6472C13.9672 10.5825 13.9951 10.5172 14.0219 10.4514L13.9826 10.5455C14.0745 10.3299 14.1551 10.1083 14.2235 9.88146C14.235 9.84354 14.246 9.80572 14.2567 9.76777C14.2844 9.66969 14.31 9.56999 14.3332 9.4694C14.3918 9.21589 14.4355 8.95683 14.4635 8.69306L14.48 8.49999L8.218 8.49949L3.95897 13.0915ZM7.5 1.51899L7.30693 1.5365C7.23102 1.54455 7.15551 1.5539 7.0804 1.56454L6.96074 1.58252C6.8545 1.59958 6.74913 1.6192 6.6447 1.64133C6.64153 1.64216 6.63822 1.64287 6.63492 1.64357L6.59669 1.6517C6.56885 1.65782 6.54108 1.66412 6.51338 1.67059C6.39914 1.69751 6.28642 1.72716 6.17495 1.7597L6.07806 1.78856C6.00557 1.81095 5.93363 1.83458 5.86227 1.85941C5.783 1.8873 5.70476 1.91626 5.62725 1.94667C5.60131 1.95684 5.57547 1.96718 5.5497 1.97767L5.62725 1.94667C5.56754 1.97009 5.50827 1.99437 5.44944 2.01949L5.5497 1.97767C5.48348 2.00464 5.4178 2.03267 5.35269 2.06174L5.44944 2.01949C5.37976 2.04924 5.31071 2.08018 5.24231 2.11227L5.35269 2.06174C5.28366 2.09256 5.21527 2.12455 5.14754 2.15768L5.24231 2.11227C5.17247 2.14504 5.1033 2.17902 5.03484 2.21418L5.14754 2.15768C5.08216 2.18967 5.01739 2.22271 4.95326 2.25681L5.03484 2.21418C4.97291 2.24598 4.91155 2.27875 4.8508 2.31246L4.95326 2.25681C4.88684 2.29212 4.8211 2.32854 4.75607 2.36607L4.8508 2.31246C4.79197 2.3451 4.7337 2.37863 4.67601 2.41303L4.75607 2.36607C4.689 2.40477 4.62268 2.44464 4.55714 2.48564L4.67601 2.41303C4.54217 2.49283 4.41144 2.5773 4.28405 2.66622C4.25075 2.68946 4.21752 2.71312 4.18453 2.73708L4.28405 2.66622C4.23764 2.69861 4.19168 2.73159 4.14617 2.76515L4.18453 2.73708C4.12496 2.78034 4.06616 2.82459 4.00814 2.8698L4.14617 2.76515C4.07979 2.8141 4.01439 2.86428 3.94998 2.91565L4.00814 2.8698C3.95755 2.90921 3.90757 2.94936 3.85819 2.99023L3.85809 2.99032L3.80491 3.03462C3.77693 3.05829 3.74916 3.08219 3.72159 3.10633L3.66916 3.15286C3.65576 3.16484 3.64241 3.17688 3.62911 3.18897L3.66892 3.15307C3.61453 3.20171 3.56097 3.25125 3.50824 3.30166L3.62911 3.18897C3.57187 3.24101 3.51556 3.29405 3.4602 3.34808L3.50824 3.30166C3.46009 3.34771 3.41264 3.3945 3.36592 3.44199L3.4602 3.34808C3.40446 3.40248 3.3497 3.45788 3.29593 3.51425L3.36592 3.44199C3.31197 3.49684 3.25899 3.55263 3.20701 3.60935L3.29593 3.51425C3.25549 3.55665 3.21561 3.5996 3.1763 3.64308L3.20701 3.60935C3.15974 3.66092 3.1133 3.71325 3.06769 3.76633L3.1763 3.64308C3.11724 3.70844 3.05948 3.77499 3.00308 3.84272L3.06769 3.76633C3.02245 3.819 2.97803 3.8724 2.93446 3.92651L2.93423 3.92679L2.87288 4.00442C2.8458 4.03912 2.81907 4.07411 2.79269 4.10938L2.71539 4.21458C2.69898 4.23744 2.68272 4.26042 2.6666 4.28351L2.71545 4.21449C2.68206 4.26103 2.64927 4.30802 2.61709 4.35545L2.6666 4.28351C2.62176 4.34773 2.57805 4.41281 2.5355 4.47871L2.61709 4.35545C2.57069 4.42385 2.52556 4.49317 2.48174 4.56339L2.5355 4.47871C2.50673 4.52326 2.4785 4.56819 2.4508 4.61348C2.34109 4.79339 2.23964 4.97894 2.14725 5.16966C2.12428 5.21639 2.10199 5.26384 2.08027 5.3116L2.05498 5.36862C1.95511 5.59391 1.86767 5.8259 1.79353 6.0637C1.78336 6.09553 1.77366 6.12755 1.76419 6.15967L1.73147 6.27544C1.7065 6.36636 1.68346 6.45806 1.66239 6.5505C1.62692 6.70545 1.59714 6.86266 1.57313 7.02175C1.56101 7.10258 1.5503 7.18379 1.5411 7.26546C1.5317 7.34851 1.52394 7.43193 1.51776 7.51579C1.51188 7.59568 1.50743 7.67606 1.50446 7.75681C1.50149 7.83783 1.5 7.91874 1.5 7.99999L1.50446 8.24317L1.50942 8.35245C1.51331 8.42494 1.51838 8.49719 1.52464 8.56918L1.50939 8.35243C1.51448 8.44761 1.52161 8.54225 1.53075 8.63631L1.52464 8.56918C1.55116 8.87434 1.59889 9.17488 1.66682 9.46905C1.67114 9.48825 1.67561 9.5072 1.68016 9.52612L1.66682 9.46905C1.69172 9.57689 1.71934 9.68387 1.74962 9.78991L1.82308 10.0294C1.83143 10.0549 1.83994 10.0802 1.8486 10.1055L1.85825 10.1336C1.88018 10.1969 1.90308 10.2597 1.92694 10.3221L1.85824 10.1335C1.88651 10.2149 1.91636 10.2956 1.94775 10.3755L1.92694 10.3221C1.95562 10.3971 1.98568 10.4716 2.0171 10.5454L1.94775 10.3755C1.99171 10.4874 2.03869 10.5978 2.08859 10.7066C2.11164 10.7575 2.13565 10.8082 2.16031 10.8585L2.08859 10.7066C2.12616 10.7885 2.16537 10.8695 2.2062 10.9495L2.16031 10.8585C2.20996 10.9598 2.26225 11.0598 2.31713 11.1584L2.4326 11.3566L2.46238 11.4054C2.4744 11.4249 2.48652 11.4443 2.49875 11.4637C2.5342 11.5207 2.57113 11.5772 2.60896 11.6332L2.49875 11.4637C2.55216 11.5484 2.60748 11.6317 2.66464 11.7137L2.60896 11.6332C2.65609 11.703 2.70462 11.7719 2.75451 11.8399L2.66464 11.7137C2.71556 11.7867 2.76794 11.8586 2.82174 11.9294L2.82155 11.9297L2.96223 12.1077C2.97937 12.1287 2.99664 12.1496 3.01404 12.1704C3.07504 12.2432 3.13761 12.3147 3.20169 12.3848L3.227 12.41L7.5 7.80199V1.51899ZM14.481 7.49966C14.2381 4.30872 11.6913 1.76186 8.50033 1.51896L8.5 7.49999L14.481 7.49966Z" fill="#40404B"/>
</g>
<defs>
<clipPath id="clip0_1_3902">
<rect width="16" height="16" fill="white"/>
</clipPath>
</defs>
</svg>
