<svg width="16" height="16" viewBox="0 0 16 16" fill="none" xmlns="http://www.w3.org/2000/svg">
<path fill-rule="evenodd" clip-rule="evenodd" d="M8 16C12.4183 16 16 12.4183 16 8C16 7.72386 15.7761 7.5 15.5 7.5C15.2239 7.5 15 7.72386 15 8C15 11.866 11.866 15 8 15C4.13401 15 1 11.866 1 8C1 4.13401 4.13401 1 8 1C8.27614 1 8.5 0.776142 8.5 0.5C8.5 0.223858 8.27614 0 8 0C3.58172 0 0 3.58172 0 8C0 12.4183 3.58172 16 8 16ZM13.5102 3.73205C13.7055 3.53679 14.0221 3.53679 14.2173 3.73205L14.2679 3.78267C14.4632 3.97793 14.4632 4.29451 14.2679 4.48977L8.90399 9.85373C8.71227 10.0455 8.40359 10.0489 8.20763 9.86417C8.12227 9.84304 8.0414 9.79912 7.97469 9.73241L5.14627 6.90399C4.951 6.70872 4.951 6.39214 5.14627 6.19688L5.19688 6.14627C5.39214 5.951 5.70872 5.951 5.90399 6.14627L8.5 8.74228L13.5102 3.73205Z" fill="#40404B"/>
</svg>
