<svg width="16" height="16" viewBox="0 0 16 16" fill="none" xmlns="http://www.w3.org/2000/svg">
<path fill-rule="evenodd" clip-rule="evenodd" d="M8 0.5C3.85786 0.5 0.5 3.85786 0.5 8C0.5 12.1421 3.85786 15.5 8 15.5C12.1421 15.5 15.5 12.1421 15.5 8C15.5 3.85786 12.1421 0.5 8 0.5ZM12.9513 3.7886C13.9171 4.92298 14.5 6.39342 14.5 8C14.5 11.5899 11.5899 14.5 8 14.5C6.39342 14.5 4.92298 13.9171 3.7886 12.9513L12.9513 3.7886ZM12.2468 3.07898L3.07898 12.2468C2.09507 11.1076 1.5 9.62332 1.5 8C1.5 4.41015 4.41015 1.5 8 1.5C9.62332 1.5 11.1076 2.09507 12.2468 3.07898Z" fill="#40404B"/>
</svg>
