<svg width="16" height="16" viewBox="0 0 16 16" fill="none" xmlns="http://www.w3.org/2000/svg">
<path fill-rule="evenodd" clip-rule="evenodd" d="M13.6569 1.02513C14.9781 2.3464 15.0222 4.46124 13.789 5.83542L13.6569 5.97487L11.0641 8.5676L9.41422 10.2175L7.0572 12.5745C6.08088 13.5508 4.49797 13.5508 3.52166 12.5745C2.5844 11.6373 2.54691 10.141 3.40919 9.15899L3.52166 9.039L7.0572 5.50347C7.25246 5.30821 7.56904 5.30821 7.7643 5.50347C7.93787 5.67704 7.95715 5.94646 7.82216 6.14133L7.7643 6.21058L4.22877 9.74611C3.64298 10.3319 3.64298 11.2816 4.22877 11.8674C4.7801 12.4188 5.65383 12.4512 6.24308 11.9647L6.35009 11.8674L8.70711 9.51041L10.357 7.86049L12.9498 5.26777C13.9261 4.29146 13.9261 2.70854 12.9498 1.73223C12.0125 0.794975 10.5162 0.757484 9.53421 1.61976L9.41422 1.73223L7.2929 3.85355L5.17158 5.97487L2.34315 8.8033C0.976315 10.1701 0.976315 12.3862 2.34315 13.753C3.66442 15.0743 5.77927 15.1184 7.15345 13.8852L7.2929 13.753L13.6569 7.38909C13.8521 7.19383 14.1687 7.19383 14.364 7.38909C14.5375 7.56265 14.5568 7.83208 14.4218 8.02695L14.364 8.09619L8 14.4602C6.24264 16.2175 3.3934 16.2175 1.63604 14.4602C-0.0711058 12.753 -0.119882 10.0155 1.48972 8.24945L1.63604 8.09619L4.46447 5.26777L6.58579 3.14645C6.58591 3.14633 6.58603 3.14621 6.58615 3.14609L8.70711 1.02513C10.0739 -0.341709 12.29 -0.341709 13.6569 1.02513Z" fill="#40404B"/>
</svg>
