<svg width="16" height="16" viewBox="0 0 16 16" fill="none" xmlns="http://www.w3.org/2000/svg">
<path fill-rule="evenodd" clip-rule="evenodd" d="M12.2157 3.08859C12.4106 2.9536 12.68 2.97288 12.8536 3.14645C13.0488 3.34171 13.0488 3.65829 12.8536 3.85355L8.70711 8L12.8536 12.1464C13.0488 12.3417 13.0488 12.6583 12.8536 12.8536C12.68 13.0271 12.4106 13.0464 12.2157 12.9114L12.1464 12.8536L8 8.70711L3.85355 12.8536L3.78431 12.9114C3.58944 13.0464 3.32001 13.0271 3.14645 12.8536C2.95118 12.6583 2.95118 12.3417 3.14645 12.1464L7.29289 8L3.14645 3.85355C2.95118 3.65829 2.95118 3.34171 3.14645 3.14645C3.32001 2.97288 3.58944 2.9536 3.78431 3.08859L3.85355 3.14645L8 7.29289L12.1464 3.14645L12.2157 3.08859Z" fill="#40404B"/>
</svg>
