<svg width="16" height="16" viewBox="0 0 16 16" fill="none" xmlns="http://www.w3.org/2000/svg">
<path fill-rule="evenodd" clip-rule="evenodd" d="M5.85356 3.35355C6.04882 3.15829 6.04882 2.84171 5.85356 2.64645C5.65829 2.45118 5.34171 2.45118 5.14645 2.64645L0.358582 7.43431C0.0461627 7.74673 0.0461627 8.25327 0.358582 8.56569L5.14645 13.3536C5.34171 13.5488 5.65829 13.5488 5.85356 13.3536C6.04882 13.1583 6.04882 12.8417 5.85356 12.6464L1.20711 8L5.85356 3.35355ZM10.1465 12.6464C9.95119 12.8417 9.95119 13.1583 10.1465 13.3536C10.3417 13.5488 10.6583 13.5488 10.8536 13.3536L15.6414 8.56569C15.9538 8.25327 15.9538 7.74673 15.6414 7.43431L10.8536 2.64645C10.6583 2.45118 10.3417 2.45118 10.1465 2.64645C9.95119 2.84171 9.95119 3.15829 10.1465 3.35355L14.7929 8L10.1465 12.6464Z" fill="#40404B"/>
</svg>
