<svg width="16" height="16" viewBox="0 0 16 16" fill="none" xmlns="http://www.w3.org/2000/svg">
<path fill-rule="evenodd" clip-rule="evenodd" d="M0.5 3C0.5 1.61929 1.61929 0.5 3 0.5C4.38071 0.5 5.5 1.61929 5.5 3C5.5 4.20948 4.64112 5.21836 3.5 5.44999V7.5H10C11.23 7.5 12.2525 6.61178 12.4611 5.44177C11.3394 5.19533 10.5 4.19569 10.5 3C10.5 1.61929 11.6193 0.5 13 0.5C14.3807 0.5 15.5 1.61929 15.5 3C15.5 4.21985 14.6263 5.23564 13.4706 5.45578C13.2553 7.1112 11.8833 8.40337 10.192 8.49482L10 8.5H3.5V10.55C4.64112 10.7816 5.5 11.7905 5.5 13C5.5 14.3807 4.38071 15.5 3 15.5C1.61929 15.5 0.5 14.3807 0.5 13C0.5 11.7905 1.35888 10.7816 2.5 10.55V5.44999C1.35888 5.21836 0.5 4.20948 0.5 3ZM4.5 3C4.5 2.17157 3.82843 1.5 3 1.5C2.17157 1.5 1.5 2.17157 1.5 3C1.5 3.82843 2.17157 4.5 3 4.5C3.82843 4.5 4.5 3.82843 4.5 3ZM14.5 3C14.5 2.17157 13.8284 1.5 13 1.5C12.1716 1.5 11.5 2.17157 11.5 3C11.5 3.82843 12.1716 4.5 13 4.5C13.8284 4.5 14.5 3.82843 14.5 3ZM3 11.5C3.82843 11.5 4.5 12.1716 4.5 13C4.5 13.8284 3.82843 14.5 3 14.5C2.17157 14.5 1.5 13.8284 1.5 13C1.5 12.1716 2.17157 11.5 3 11.5Z" fill="#40404B"/>
</svg>
