<svg width="16" height="16" viewBox="0 0 16 16" fill="none" xmlns="http://www.w3.org/2000/svg">
<path fill-rule="evenodd" clip-rule="evenodd" d="M15.5 8C15.5 8.27614 15.2761 8.5 15 8.5L11.9691 8.5C11.723 10.4732 10.0398 12 8 12C5.96019 12 4.277 10.4732 4.03095 8.5L1 8.5C0.723858 8.5 0.5 8.27614 0.5 8C0.5 7.72386 0.723858 7.5 1 7.5L4.03095 7.5C4.277 5.52684 5.96019 4 8 4C10.0398 4 11.723 5.52684 11.9691 7.5L15 7.5C15.2761 7.5 15.5 7.72386 15.5 8ZM5 8C5 9.65685 6.34315 11 8 11C9.65685 11 11 9.65685 11 8C11 6.34315 9.65685 5 8 5C6.34315 5 5 6.34315 5 8Z" fill="#40404B"/>
</svg>
