<svg width="16" height="16" viewBox="0 0 16 16" fill="none" xmlns="http://www.w3.org/2000/svg">
<path fill-rule="evenodd" clip-rule="evenodd" d="M12 0C12.2761 0 12.5 0.223858 12.5 0.5V2.5C12.5 2.51671 12.4992 2.53323 12.4976 2.54952C13.6399 2.78022 14.5 3.78967 14.5 5C14.5 6.21033 13.6399 7.21978 12.4976 7.45048C12.4992 7.46677 12.5 7.48329 12.5 7.5V15.5C12.5 15.7761 12.2761 16 12 16C11.7239 16 11.5 15.7761 11.5 15.5V7.5C11.5 7.48329 11.5008 7.46677 11.5024 7.45048C10.3601 7.21978 9.5 6.21033 9.5 5C9.5 3.78967 10.3601 2.78022 11.5024 2.54952C11.5008 2.53323 11.5 2.51671 11.5 2.5V0.5C11.5 0.223858 11.7239 0 12 0ZM4.49758 13.4505C4.49918 13.4668 4.5 13.4833 4.5 13.5V15.5C4.5 15.7761 4.27614 16 4 16C3.72386 16 3.5 15.7761 3.5 15.5V13.5C3.5 13.4833 3.50082 13.4668 3.50242 13.4505C2.36009 13.2198 1.5 12.2103 1.5 11C1.5 9.78967 2.36009 8.78022 3.50242 8.54952C3.50082 8.53323 3.5 8.51671 3.5 8.5V0.5C3.5 0.223858 3.72386 0 4 0C4.27614 0 4.5 0.223858 4.5 0.5V8.5C4.5 8.51671 4.49918 8.53323 4.49758 8.54952C5.6399 8.78022 6.5 9.78967 6.5 11C6.5 12.2103 5.6399 13.2198 4.49758 13.4505Z" fill="#40404B"/>
</svg>
