<svg width="16" height="16" viewBox="0 0 16 16" fill="none" xmlns="http://www.w3.org/2000/svg">
<path fill-rule="evenodd" clip-rule="evenodd" d="M8 0C9.59768 0 10.9037 1.24892 10.9949 2.82373L11 3H14H14.5C14.7761 3 15 3.22386 15 3.5C15 3.77614 14.7761 4 14.5 4H14V13C14 14.6569 12.6569 16 11 16H5C3.34315 16 2 14.6569 2 13V4H1.5C1.22386 4 1 3.77614 1 3.5C1 3.22386 1.22386 3 1.5 3H2H5C5 1.34315 6.34315 0 8 0ZM10 3C10 1.89543 9.10457 1 8 1C6.94564 1 6.08183 1.81588 6.00549 2.85074L6 3H10ZM3 4V13C3 14.0544 3.81588 14.9182 4.85074 14.9945L5 15H11C12.0544 15 12.9182 14.1841 12.9945 13.1493L13 13V4H3ZM6.5 12.5C6.5 12.7761 6.27614 13 6 13C5.72386 13 5.5 12.7761 5.5 12.5V6.5C5.5 6.22386 5.72386 6 6 6C6.27614 6 6.5 6.22386 6.5 6.5V12.5ZM10 13C10.2761 13 10.5 12.7761 10.5 12.5V6.5C10.5 6.22386 10.2761 6 10 6C9.72386 6 9.5 6.22386 9.5 6.5V12.5C9.5 12.7761 9.72386 13 10 13Z" fill="#40404B"/>
</svg>
