<svg width="16" height="16" viewBox="0 0 16 16" fill="none" xmlns="http://www.w3.org/2000/svg">
<path fill-rule="evenodd" clip-rule="evenodd" d="M10.5 1C10.5 0.723858 10.2761 0.5 10 0.5H6L5.91012 0.508056C5.67688 0.550392 5.5 0.75454 5.5 1C5.5 1.27614 5.72386 1.5 6 1.5H7.5V13.793L2.35355 8.64645L2.28431 8.58859C2.08944 8.4536 1.82001 8.47288 1.64645 8.64645C1.45118 8.84171 1.45118 9.15829 1.64645 9.35355L8 15.7071L14.3536 9.35355L14.4114 9.28431C14.5464 9.08944 14.5271 8.82001 14.3536 8.64645L14.2843 8.58859C14.0894 8.4536 13.82 8.47288 13.6464 8.64645L8.5 13.793V1.5H10L10.0899 1.49194C10.3231 1.44961 10.5 1.24546 10.5 1Z" fill="#40404B"/>
</svg>
