<svg width="16" height="16" viewBox="0 0 16 16" fill="none" xmlns="http://www.w3.org/2000/svg">
<path fill-rule="evenodd" clip-rule="evenodd" d="M14.4986 1.31174L14.7146 1.44682C16.2836 3.84707 15.9425 7.04447 13.9832 9.20927L14.0192 9.46491C14.255 11.3938 13.7157 13.16 12.4719 14.4039L11.759 15.1167L9.64234 13L7.67708 14.6838C7.50559 14.8317 7.30358 14.9212 7.09721 14.9526L6.97307 14.9644C6.68317 14.9758 6.39497 14.8736 6.18025 14.6589L1.48874 9.96738C1.14102 9.61965 1.08827 9.0792 1.33556 8.65091C1.37387 8.58328 1.4191 8.51841 1.47174 8.45741L1.854 8.01291L2.74484 6.97129L0.504517 4.73097L1.21735 4.01814C2.46122 2.77427 4.22744 2.23498 6.15631 2.47082L6.43293 2.50979L6.55473 2.53141C7.788 1.23585 9.43503 0.523133 11.095 0.456974L11.3469 0.451905C12.4387 0.451519 13.5272 0.732092 14.4986 1.31174ZM5.76853 3.43582C4.33404 3.31963 3.04541 3.71269 2.09672 4.56221L1.91872 4.73081L3.39679 6.20899L5.76853 3.43582ZM10.4042 12.3472L13.0677 10.0653C13.1302 11.4143 12.7351 12.6229 11.9278 13.5245L11.7602 13.7023L10.4042 12.3472ZM1.51718 11.5877L4.56961 14.6401C3.9357 15.274 3.0383 15.5817 1.40016 15.5985L1.08422 15.5982L0.575997 15.5925L0.562845 15.0848C0.517692 13.3416 0.787586 12.3932 1.40467 11.7063L1.51718 11.5877ZM1.67809 13.349L1.71598 13.2L2.94598 14.431L2.81543 14.4643C2.49794 14.5365 2.11241 14.5791 1.63587 14.5936L1.55798 14.595L1.5652 14.3086C1.58013 13.9311 1.61755 13.6161 1.67809 13.349ZM7.25852 3.2423L7.08941 3.42993L2.61219 8.66494L2.22885 9.11069L2.20157 9.15094C2.18053 9.18738 2.17796 9.22079 2.1854 9.24262L2.19585 9.26027L6.88736 13.9518C6.90388 13.9683 6.941 13.973 6.98317 13.953L7.02645 13.9244L12.73 9.03784C14.7701 7.27748 15.2859 4.37783 14.0031 2.19632L13.9862 2.17048C11.9242 0.940095 9.22094 1.32249 7.4341 3.06366L7.25852 3.2423ZM10.5 3.5C9.39541 3.5 8.49998 4.39543 8.49998 5.5C8.49998 6.60457 9.39541 7.5 10.5 7.5C11.6045 7.5 12.5 6.60457 12.5 5.5C12.5 4.39543 11.6045 3.5 10.5 3.5ZM10.5 4.5C11.0523 4.5 11.5 4.94772 11.5 5.5C11.5 6.05229 11.0523 6.5 10.5 6.5C9.94769 6.5 9.49998 6.05229 9.49998 5.5C9.49998 4.94772 9.94769 4.5 10.5 4.5Z" fill="#40404B"/>
</svg>
