<svg width="17" height="17" viewBox="0 0 17 17" fill="none" xmlns="http://www.w3.org/2000/svg">
<path fill-rule="evenodd" clip-rule="evenodd" d="M8.88142 1.1281C9.15576 1.15959 9.40369 0.962728 9.43518 0.688387C9.46668 0.414047 9.26981 0.16612 8.99547 0.134627C6.98512 -0.0961507 4.95003 0.447267 3.32231 1.6494C3.10018 1.81345 3.05309 2.12651 3.21714 2.34864C3.38119 2.57077 3.69426 2.61785 3.91639 2.4538C5.34051 1.40204 7.12255 0.926192 8.88142 1.1281ZM14.5254 3.34296C15.7173 4.96525 16.2566 6.98939 16.0296 8.98968C15.9985 9.26406 15.7508 9.46126 15.4765 9.43013C15.2021 9.399 15.0049 9.15134 15.036 8.87696C15.2345 7.12687 14.7623 5.35442 13.7195 3.93504C13.556 3.7125 13.6039 3.39956 13.8264 3.23606C14.0489 3.07256 14.3619 3.12042 14.5254 3.34296ZM2.44853 12.2459C1.40491 10.8325 0.928323 9.06618 1.11911 7.3196C1.14909 7.04509 0.950868 6.79825 0.676359 6.76827C0.401849 6.73828 0.155007 6.93651 0.125022 7.21102C-0.0930359 9.20727 0.451229 11.2244 1.64405 12.8399C1.80807 13.0621 2.12113 13.1092 2.34328 12.9452C2.56543 12.7812 2.61255 12.4681 2.44853 12.2459ZM12.7977 14.5465C13.0208 14.3838 13.0698 14.071 12.9071 13.8479C12.7443 13.6248 12.4316 13.5758 12.2085 13.7386C10.8 14.7658 9.04723 15.2333 7.31432 15.0439C7.03981 15.0139 6.79295 15.2121 6.76295 15.4866C6.73294 15.7611 6.93114 16.008 7.20565 16.038C9.18628 16.2545 11.188 15.7206 12.7977 14.5465Z" fill="#40404B"/>
</svg>
