<svg width="16" height="16" viewBox="0 0 16 16" fill="none" xmlns="http://www.w3.org/2000/svg">
<path fill-rule="evenodd" clip-rule="evenodd" d="M2 2C2 2.27614 2.22386 2.5 2.5 2.5H13.5C13.7761 2.5 14 2.27614 14 2C14 1.72386 13.7761 1.5 13.5 1.5H2.5C2.22386 1.5 2 1.72386 2 2ZM2 6C2 6.27614 2.22386 6.5 2.5 6.5H13.5C13.7761 6.5 14 6.27614 14 6C14 5.72386 13.7761 5.5 13.5 5.5H2.5C2.22386 5.5 2 5.72386 2 6ZM2.5 10.5C2.22386 10.5 2 10.2761 2 10C2 9.72386 2.22386 9.5 2.5 9.5H13.5C13.7761 9.5 14 9.72386 14 10C14 10.2761 13.7761 10.5 13.5 10.5H2.5ZM2 14C2 14.2761 2.22386 14.5 2.5 14.5H9.5C9.77614 14.5 10 14.2761 10 14C10 13.7239 9.77614 13.5 9.5 13.5H2.5C2.22386 13.5 2 13.7239 2 14Z" fill="#40404B"/>
<mask id="mask0_1_3928" style="mask-type:alpha" maskUnits="userSpaceOnUse" x="2" y="1" width="12" height="14">
<path fill-rule="evenodd" clip-rule="evenodd" d="M2 2C2 2.27614 2.22386 2.5 2.5 2.5H13.5C13.7761 2.5 14 2.27614 14 2C14 1.72386 13.7761 1.5 13.5 1.5H2.5C2.22386 1.5 2 1.72386 2 2ZM2 6C2 6.27614 2.22386 6.5 2.5 6.5H13.5C13.7761 6.5 14 6.27614 14 6C14 5.72386 13.7761 5.5 13.5 5.5H2.5C2.22386 5.5 2 5.72386 2 6ZM2.5 10.5C2.22386 10.5 2 10.2761 2 10C2 9.72386 2.22386 9.5 2.5 9.5H13.5C13.7761 9.5 14 9.72386 14 10C14 10.2761 13.7761 10.5 13.5 10.5H2.5ZM2 14C2 14.2761 2.22386 14.5 2.5 14.5H9.5C9.77614 14.5 10 14.2761 10 14C10 13.7239 9.77614 13.5 9.5 13.5H2.5C2.22386 13.5 2 13.7239 2 14Z" fill="white"/>
</mask>
<g mask="url(#mask0_1_3928)">
</g>
</svg>
