<svg width="16" height="16" viewBox="0 0 16 16" fill="none" xmlns="http://www.w3.org/2000/svg">
<path fill-rule="evenodd" clip-rule="evenodd" d="M7.6598 3.98008L5.82818 0.5L0 11.5735H4.16875C5.0382 14.0442 7.45132 15.7089 10.1423 15.5679C13.4514 15.3945 15.9935 12.5713 15.82 9.26212C15.6466 5.95295 12.8234 3.41093 9.51423 3.58436C8.87146 3.61804 8.24749 3.75245 7.6598 3.98008ZM8.12928 4.87208L11.6564 11.5735H5.24252C6.05748 13.4468 7.9705 14.6804 10.0899 14.5693C12.8476 14.4248 14.9659 12.0721 14.8214 9.31445C14.6769 6.55682 12.3242 4.43846 9.56657 4.58299C9.06949 4.60904 8.58676 4.70705 8.12928 4.87208ZM5.82818 2.64655L10.0002 10.5735H1.65518L5.82818 2.64655Z" fill="#40404B"/>
</svg>
