<svg width="16" height="16" viewBox="0 0 16 16" fill="none" xmlns="http://www.w3.org/2000/svg">
<g clip-path="url(#clip0_1_3868)">
<path fill-rule="evenodd" clip-rule="evenodd" d="M2 1H6C6.55228 1 7 1.44772 7 2C7 2.55228 6.55228 3 6 3H2C1.44772 3 1 2.55228 1 2C1 1.44772 1.44772 1 2 1ZM0 2C0 0.895431 0.895431 0 2 0H6C7.10457 0 8 0.895431 8 2C8 3.10457 7.10457 4 6 4H4.5V6H6.5C7.05228 6 7.5 6.44772 7.5 7V9H10C10.0139 9 10.0276 9.00056 10.0412 9.00167C10.2785 7.58199 11.5129 6.5 13 6.5C14.6569 6.5 16 7.84315 16 9.5C16 11.1569 14.6569 12.5 13 12.5C11.5129 12.5 10.2785 11.418 10.0412 9.99833C10.0276 9.99944 10.0139 10 10 10H7.5V12C7.5 12.5523 7.05228 13 6.5 13H4.5V15.5C4.5 15.7761 4.27614 16 4 16C3.72386 16 3.5 15.7761 3.5 15.5V13H1.5C0.947715 13 0.5 12.5523 0.5 12V7C0.5 6.44772 0.947715 6 1.5 6H3.5V4H2C0.895431 4 0 3.10457 0 2ZM4 7H1.5V12H6.5V7H4ZM13 11.5C14.1046 11.5 15 10.6046 15 9.5C15 8.39543 14.1046 7.5 13 7.5C11.8954 7.5 11 8.39543 11 9.5C11 10.6046 11.8954 11.5 13 11.5Z" fill="#40404B"/>
</g>
<defs>
<clipPath id="clip0_1_3868">
<rect width="16" height="16" fill="white"/>
</clipPath>
</defs>
</svg>
