<svg width="16" height="16" viewBox="0 0 16 16" fill="none" xmlns="http://www.w3.org/2000/svg">
<path fill-rule="evenodd" clip-rule="evenodd" d="M7.5 0.5C7.5 0.223858 7.72386 0 8 0C8.27614 0 8.5 0.223858 8.5 0.5V10.7929L13.1464 6.14645C13.3417 5.95118 13.6583 5.95118 13.8536 6.14645C14.0488 6.34171 14.0488 6.65829 13.8536 6.85355L8.35355 12.3536L8 12.7071L7.64645 12.3536L2.14645 6.85355C1.95118 6.65829 1.95118 6.34171 2.14645 6.14645C2.34171 5.95118 2.65829 5.95118 2.85355 6.14645L7.5 10.7929V0.5ZM15 13.5C15.2455 13.5 15.4496 13.6769 15.4919 13.9101L15.5 14C15.5 14.7797 14.9051 15.4204 14.1445 15.4931L14 15.5H2C1.2203 15.5 0.579551 14.9051 0.506867 14.1445L0.5 14C0.5 13.7239 0.723858 13.5 1 13.5C1.24546 13.5 1.44961 13.6769 1.49194 13.9101L1.5 14C1.5 14.2455 1.67688 14.4496 1.91012 14.4919L2 14.5H14C14.2455 14.5 14.4496 14.3231 14.4919 14.0899L14.5 14C14.5 13.7239 14.7239 13.5 15 13.5Z" fill="#40404B"/>
</svg>
