<svg width="16" height="16" viewBox="0 0 16 16" fill="none" xmlns="http://www.w3.org/2000/svg">
<path fill-rule="evenodd" clip-rule="evenodd" d="M15.5 4C15.7761 4 16 4.22386 16 4.5C16 4.77614 15.7761 5 15.5 5H0.5C0.223858 5 0 4.77614 0 4.5C0 4.22386 0.223858 4 0.5 4H15.5ZM15.5 7.5C15.7761 7.5 16 7.72386 16 8C16 8.27614 15.7761 8.5 15.5 8.5H0.5C0.223858 8.5 0 8.27614 0 8C0 7.72386 0.223858 7.5 0.5 7.5H15.5ZM16 11.5C16 11.2239 15.7761 11 15.5 11H0.5C0.223858 11 0 11.2239 0 11.5C0 11.7761 0.223858 12 0.5 12H15.5C15.7761 12 16 11.7761 16 11.5Z" fill="#40404B"/>
</svg>
