<svg width="16" height="16" viewBox="0 0 16 16" fill="none" xmlns="http://www.w3.org/2000/svg">
<path fill-rule="evenodd" clip-rule="evenodd" d="M15.9947 2.33562C15.91 1.03154 14.8255 0 13.5 0H5.5L5.33562 0.00531768C4.03154 0.0899613 3 1.17452 3 2.5V3H2.5C1.11929 3 0 4.11929 0 5.5V13.5C0 14.8807 1.11929 16 2.5 16H10.5C11.8807 16 13 14.8807 13 13.5V13H13.5L13.6644 12.9947C14.9685 12.91 16 11.8255 16 10.5V2.5L15.9947 2.33562ZM13 12H13.5C14.2797 12 14.9204 11.4051 14.9931 10.6445L15 10.5V2.5C15 1.7203 14.4051 1.07955 13.6445 1.00687L13.5 1H5.5C4.7203 1 4.07955 1.59489 4.00687 2.35554L4 2.5V3H10.5C11.8807 3 13 4.11929 13 5.5V12ZM10.5 4H2.5C1.67157 4 1 4.67157 1 5.5V13.5C1 14.3284 1.67157 15 2.5 15H10.5C11.3284 15 12 14.3284 12 13.5V5.5C12 4.67157 11.3284 4 10.5 4ZM6 12.5C6 12.7761 6.22386 13 6.5 13C6.77614 13 7 12.7761 7 12.5L7 10H9.5C9.77614 10 10 9.77614 10 9.5C10 9.22386 9.77614 9 9.5 9H7V6.5C7 6.22386 6.77614 6 6.5 6C6.22386 6 6 6.22386 6 6.5V9H3.5C3.22386 9 3 9.22386 3 9.5C3 9.77614 3.22386 10 3.5 10H6V12.5Z" fill="#40404B"/>
</svg>
