<svg width="16" height="16" viewBox="0 0 16 16" fill="none" xmlns="http://www.w3.org/2000/svg">
<path fill-rule="evenodd" clip-rule="evenodd" d="M8.57143 0.571429C8.57143 0.255837 8.31559 0 8 0C3.58172 0 0 3.58172 0 8C0 12.4183 3.58172 16 8 16C12.4183 16 16 12.4183 16 8C16 7.68441 15.7442 7.42857 15.4286 7.42857C15.113 7.42857 14.8571 7.68441 14.8571 8C14.8571 11.7871 11.7871 14.8571 8 14.8571C4.2129 14.8571 1.14286 11.7871 1.14286 8C1.14286 4.2129 4.2129 1.14286 8 1.14286C8.31559 1.14286 8.57143 0.88702 8.57143 0.571429ZM11.7645 1.55603L7.33957 6.36762L6.62291 9.90938L10.0375 9.06944L14.4727 4.28047C15.195 3.50051 15.1683 2.28812 14.4122 1.54077C13.6769 0.813827 12.4914 0.820659 11.7645 1.55603ZM13.7888 2.34072C14.0813 2.71052 14.0673 3.24647 13.739 3.60098L9.4947 8.18199L7.7747 8.65999L8.2447 6.85999L12.482 2.25254C12.8143 1.91645 13.3666 1.91326 13.7092 2.25194L13.7888 2.34072Z" fill="#40404B"/>
</svg>
