<svg width="16" height="16" viewBox="0 0 16 16" fill="none" xmlns="http://www.w3.org/2000/svg">
<path fill-rule="evenodd" clip-rule="evenodd" d="M1.5 2.5H14.5C15.3284 2.5 16 3.17157 16 4V12C16 12.8284 15.3284 13.5 14.5 13.5H1.5C0.671573 13.5 0 12.8284 0 12V4C0 3.17157 0.671573 2.5 1.5 2.5ZM1.92539 3.5H14.0746L8.31235 8.10981L8.22983 8.16347C8.05717 8.25292 7.84417 8.23503 7.68765 8.10981L1.92539 3.5ZM1 11.5597V4.04031L5.69961 7.8L1 11.5597ZM1.43125 12.4953C1.45372 12.4984 1.47668 12.5 1.5 12.5H14.5C14.5233 12.5 14.5463 12.4984 14.5687 12.4953L9.5 8.44031L8.93704 8.89068C8.42834 9.29764 7.72081 9.3267 7.18371 8.97788L7.06296 8.89068L6.5 8.44031L1.43125 12.4953ZM10.3004 7.8L15 11.5597V4.04031L10.3004 7.8Z" fill="#40404B"/>
</svg>
