<svg width="16" height="16" viewBox="0 0 16 16" fill="none" xmlns="http://www.w3.org/2000/svg">
<g clip-path="url(#clip0_1_3886)">
<path fill-rule="evenodd" clip-rule="evenodd" d="M1.29289 5.12132L5.12132 1.29289C5.30886 1.10536 5.56321 1 5.82843 1H10.1716C10.4368 1 10.6911 1.10536 10.8787 1.29289L14.7071 5.12132C14.8946 5.30886 15 5.56321 15 5.82843V10.1716C15 10.4368 14.8946 10.6911 14.7071 10.8787L10.8787 14.7071C10.6911 14.8946 10.4368 15 10.1716 15H5.82843C5.56321 15 5.30886 14.8946 5.12132 14.7071L1.29289 10.8787C1.10536 10.6911 1 10.4368 1 10.1716V5.82843C1 5.56321 1.10536 5.30886 1.29289 5.12132L0.585786 4.41421L1.29289 5.12132ZM4.41421 0.585786L0.585786 4.41421C0.210714 4.78929 0 5.29799 0 5.82843V10.1716C0 10.702 0.210713 11.2107 0.585786 11.5858L4.41421 15.4142C4.78929 15.7893 5.29799 16 5.82843 16H10.1716C10.702 16 11.2107 15.7893 11.5858 15.4142L15.4142 11.5858C15.7893 11.2107 16 10.702 16 10.1716V5.82843C16 5.29799 15.7893 4.78929 15.4142 4.41421L11.5858 0.585786C11.2107 0.210714 10.702 0 10.1716 0H5.82843C5.29799 0 4.78929 0.210713 4.41421 0.585786ZM10.925 5.07501C11.1202 5.27027 11.1202 5.58685 10.925 5.78211L8.70711 7.99997L10.925 10.2179C11.1203 10.4131 11.1203 10.7297 10.925 10.925C10.7297 11.1202 10.4131 11.1202 10.2179 10.925L8 8.70708L5.78211 10.925C5.58685 11.1202 5.27027 11.1202 5.07501 10.925C4.87974 10.7297 4.87974 10.4131 5.07501 10.2179L7.29289 7.99997L5.07503 5.78211C4.87977 5.58685 4.87977 5.27027 5.07503 5.075C5.27029 4.87974 5.58688 4.87974 5.78214 5.075L8 7.29287L10.2179 5.07501C10.4131 4.87974 10.7297 4.87974 10.925 5.07501Z" fill="#40404B"/>
</g>
<defs>
<clipPath id="clip0_1_3886">
<rect width="16" height="16" fill="white"/>
</clipPath>
</defs>
</svg>
