<svg width="16" height="16" viewBox="0 0 16 16" fill="none" xmlns="http://www.w3.org/2000/svg">
<path fill-rule="evenodd" clip-rule="evenodd" d="M6.5 3.5C6.22386 3.5 6 3.72386 6 4C6 4.27614 6.22386 4.5 6.5 4.5H15.5C15.7761 4.5 16 4.27614 16 4C16 3.72386 15.7761 3.5 15.5 3.5H6.5ZM2.5 8C2.5 7.72386 2.72386 7.5 3 7.5H12C12.2761 7.5 12.5 7.72386 12.5 8C12.5 8.27614 12.2761 8.5 12 8.5H3C2.72386 8.5 2.5 8.27614 2.5 8ZM0 12C0 11.7239 0.223858 11.5 0.5 11.5H9.5C9.77614 11.5 10 11.7239 10 12C10 12.2761 9.77614 12.5 9.5 12.5H0.5C0.223858 12.5 0 12.2761 0 12Z" fill="black"/>
</svg>
