<svg width="16" height="16" viewBox="0 0 16 16" fill="none" xmlns="http://www.w3.org/2000/svg">
<g clip-path="url(#clip0_1_3947)">
<path fill-rule="evenodd" clip-rule="evenodd" d="M14.6464 0.646447C14.8417 0.451184 15.1583 0.451184 15.3536 0.646447C15.5488 0.841709 15.5488 1.15829 15.3536 1.35355L11.2071 5.5H14C14.2761 5.5 14.5 5.72386 14.5 6C14.5 6.27614 14.2761 6.5 14 6.5H10H9.5V6V2C9.5 1.72386 9.72386 1.5 10 1.5C10.2761 1.5 10.5 1.72386 10.5 2V4.79289L14.6464 0.646447ZM6 9.5H6.5V10V14C6.5 14.2761 6.27614 14.5 6 14.5C5.72386 14.5 5.5 14.2761 5.5 14V11.2071L1.35355 15.3536C1.15829 15.5488 0.841709 15.5488 0.646446 15.3536C0.451185 15.1583 0.451185 14.8417 0.646446 14.6464L4.79289 10.5H2C1.72386 10.5 1.5 10.2761 1.5 10C1.5 9.72386 1.72386 9.5 2 9.5H6ZM1.35355 0.646447C1.15829 0.451184 0.841709 0.451184 0.646447 0.646447C0.451185 0.841709 0.451185 1.15829 0.646447 1.35355L4.79289 5.5H2C1.72386 5.5 1.5 5.72386 1.5 6C1.5 6.27614 1.72386 6.5 2 6.5H6H6.5V6V2C6.5 1.72386 6.27614 1.5 6 1.5C5.72386 1.5 5.5 1.72386 5.5 2V4.79289L1.35355 0.646447ZM10 9.5H9.5V10V14C9.5 14.2761 9.72386 14.5 10 14.5C10.2761 14.5 10.5 14.2761 10.5 14V11.2071L14.6464 15.3536C14.8417 15.5488 15.1583 15.5488 15.3536 15.3536C15.5488 15.1583 15.5488 14.8417 15.3536 14.6464L11.2071 10.5H14C14.2761 10.5 14.5 10.2761 14.5 10C14.5 9.72386 14.2761 9.5 14 9.5H10Z" fill="#40404B"/>
</g>
<defs>
<clipPath id="clip0_1_3947">
<rect width="16" height="16" fill="white"/>
</clipPath>
</defs>
</svg>
