<svg width="16" height="16" viewBox="0 0 16 16" fill="none" xmlns="http://www.w3.org/2000/svg">
<path fill-rule="evenodd" clip-rule="evenodd" d="M8 0C3.58172 0 0 3.58172 0 8C0 12.4183 3.58172 16 8 16C12.4183 16 16 12.4183 16 8C16 3.58172 12.4183 0 8 0ZM8 1C11.866 1 15 4.13401 15 8C15 11.866 11.866 15 8 15C4.13401 15 1 11.866 1 8C1 4.13401 4.13401 1 8 1ZM5.28351 6.59163C5.08839 6.45701 4.819 6.47682 4.64577 6.65072C4.45088 6.84635 4.45149 7.16294 4.64713 7.35782L8 10.6978L11.3529 7.35782L11.4109 7.28869C11.5462 7.09408 11.5275 6.82462 11.3542 6.65072L11.2851 6.59273C11.0905 6.45736 10.821 6.47612 10.6471 6.64936L8 9.286L5.35287 6.64936L5.28351 6.59163Z" fill="#40404B"/>
</svg>
