<svg width="16" height="16" viewBox="0 0 16 16" fill="none" xmlns="http://www.w3.org/2000/svg">
<path fill-rule="evenodd" clip-rule="evenodd" d="M15.9934 1.46447C15.9193 0.643399 15.2292 0 14.3889 0H6.61111L6.46447 0.00658408C5.6434 0.0806665 5 0.770752 5 1.61111V6.05556L5.00806 6.14543C5.05039 6.37868 5.25454 6.55556 5.5 6.55556C5.77614 6.55556 6 6.3317 6 6.05556V1.61111L6.008 1.51199C6.05536 1.22162 6.30735 1 6.61111 1H14.3889L14.488 1.008C14.7784 1.05536 15 1.30735 15 1.61111V9.38889L14.992 9.48801C14.9446 9.77838 14.6926 10 14.3889 10H9.94444L9.85457 10.0081C9.62132 10.0504 9.44444 10.2545 9.44444 10.5C9.44444 10.7761 9.6683 11 9.94444 11H14.3889L14.5355 10.9934C15.3566 10.9193 16 10.2292 16 9.38889V1.61111L15.9934 1.46447ZM13 3V6.5C13 6.77614 12.7761 7 12.5 7C12.2545 7 12.0504 6.82312 12.0081 6.58988L12 6.5L11.999 4.707L3.85355 12.8536C3.65829 13.0488 3.34171 13.0488 3.14645 12.8536C2.97288 12.68 2.9536 12.4106 3.08859 12.2157L3.14645 12.1464L11.293 3.999L9.5 4C9.25454 4 9.05039 3.82312 9.00806 3.58988L9 3.5C9 3.25454 9.17688 3.05039 9.41012 3.00806L9.5 3H13ZM3.5 9C3.77614 9 4 9.22386 4 9.5C4 9.77614 3.77614 10 3.5 10C2.11929 10 1 11.1193 1 12.5C1 13.8807 2.11929 15 3.5 15C4.88071 15 6 13.8807 6 12.5C6 12.2239 6.22386 12 6.5 12C6.77614 12 7 12.2239 7 12.5C7 14.433 5.433 16 3.5 16C1.567 16 0 14.433 0 12.5C0 10.567 1.567 9 3.5 9Z" fill="#40404B"/>
</svg>
