<svg width="16" height="16" viewBox="0 0 16 16" fill="none" xmlns="http://www.w3.org/2000/svg">
<path fill-rule="evenodd" clip-rule="evenodd" d="M1.49572 0.5H14.5044C15.0542 0.5 15.5 0.941226 15.5 1.48551C15.5 1.69091 15.4352 1.89118 15.3145 2.05832L9.99033 8.06347L9.99132 12.7315C9.99132 13.2447 9.72277 13.7176 9.28829 13.9858L9.16576 14.0537L7.44966 15.3957C6.95783 15.6392 6.35978 15.4418 6.11387 14.955C6.04474 14.8182 6.00875 14.6673 6.00875 14.5143L6.00776 8.06149L0.685532 2.05832C0.390507 1.64949 0.45612 1.09359 0.819895 0.761667L0.917015 0.683567C1.08588 0.564179 1.28821 0.5 1.49572 0.5ZM14.5044 1.48551H1.49572L7.0044 7.74787V14.5143L8.72049 13.1722C8.88915 13.0887 8.99568 12.9181 8.99568 12.7315V7.74787L14.5044 1.48551Z" fill="#40404B"/>
</svg>
