<svg width="16" height="16" viewBox="0 0 16 16" fill="none" xmlns="http://www.w3.org/2000/svg">
<path d="M14.5044 0.5H1.49572C1.28821 0.5 1.08588 0.564179 0.917015 0.683567L0.819895 0.761667C0.45612 1.09359 0.390507 1.64949 0.685532 2.05832L6.00776 8.06149L6.00875 14.5143C6.00875 14.6673 6.04474 14.8182 6.11387 14.955C6.35978 15.4418 6.95783 15.6392 7.44966 15.3957L9.16576 14.0537L9.28829 13.9858C9.72277 13.7176 9.99132 13.2447 9.99132 12.7315L9.99033 8.06347L15.3145 2.05832C15.4352 1.89118 15.5 1.69091 15.5 1.48551C15.5 0.941226 15.0542 0.5 14.5044 0.5Z" fill="#40404B"/>
</svg>
