<svg width="16" height="16" viewBox="0 0 16 16" fill="none" xmlns="http://www.w3.org/2000/svg">
<path fill-rule="evenodd" clip-rule="evenodd" d="M10.5 0C10.7455 0 10.9496 0.176875 10.9919 0.410124L11 0.5V15.5C11 15.7761 10.7761 16 10.5 16C10.2545 16 10.0504 15.8231 10.0081 15.5899L10 15.5V0.5C10 0.223858 10.2239 0 10.5 0ZM15.9919 4.41012C15.9496 4.17688 15.7455 4 15.5 4C15.2239 4 15 4.22386 15 4.5V15.5L15.0081 15.5899C15.0504 15.8231 15.2545 16 15.5 16C15.7761 16 16 15.7761 16 15.5V4.5L15.9919 4.41012ZM0.991944 11.4101C0.949608 11.1769 0.74546 11 0.5 11C0.223858 11 0 11.2239 0 11.5V15.5L0.00805567 15.5899C0.0503916 15.8231 0.25454 16 0.5 16C0.776142 16 1 15.7761 1 15.5V11.5L0.991944 11.4101ZM5.99194 7.41012C5.94961 7.17688 5.74546 7 5.5 7C5.22386 7 5 7.22386 5 7.5V15.5L5.00806 15.5899C5.05039 15.8231 5.25454 16 5.5 16C5.77614 16 6 15.7761 6 15.5V7.5L5.99194 7.41012Z" fill="#40404B"/>
</svg>
