<svg width="16" height="16" viewBox="0 0 16 16" fill="none" xmlns="http://www.w3.org/2000/svg">
<g clip-path="url(#clip0_1_3946)">
<path fill-rule="evenodd" clip-rule="evenodd" d="M15 0.5H15.5V1V5C15.5 5.27614 15.2761 5.5 15 5.5C14.7239 5.5 14.5 5.27614 14.5 5V2.20711L10.3536 6.35355C10.1583 6.54882 9.84171 6.54882 9.64645 6.35355C9.45118 6.15829 9.45118 5.84171 9.64645 5.64645L13.7929 1.5H11C10.7239 1.5 10.5 1.27614 10.5 1C10.5 0.723858 10.7239 0.5 11 0.5H15ZM5.64645 9.64645C5.84171 9.45118 6.15829 9.45118 6.35355 9.64645C6.54882 9.84171 6.54882 10.1583 6.35355 10.3536L2.20711 14.5H5C5.27614 14.5 5.5 14.7239 5.5 15C5.5 15.2761 5.27614 15.5 5 15.5H1H0.5V15V11C0.5 10.7239 0.723858 10.5 1 10.5C1.27614 10.5 1.5 10.7239 1.5 11V13.7929L5.64645 9.64645ZM1 0.5H0.5V1V5C0.5 5.27614 0.723858 5.5 1 5.5C1.27614 5.5 1.5 5.27614 1.5 5V2.20711L5.64645 6.35355C5.84171 6.54882 6.15829 6.54882 6.35355 6.35355C6.54882 6.15829 6.54882 5.84171 6.35355 5.64645L2.20711 1.5H5C5.27614 1.5 5.5 1.27614 5.5 1C5.5 0.723858 5.27614 0.5 5 0.5H1ZM10.3536 9.64645C10.1583 9.45118 9.84171 9.45118 9.64645 9.64645C9.45118 9.84171 9.45118 10.1583 9.64645 10.3536L13.7929 14.5H11C10.7239 14.5 10.5 14.7239 10.5 15C10.5 15.2761 10.7239 15.5 11 15.5H15H15.5V15V11C15.5 10.7239 15.2761 10.5 15 10.5C14.7239 10.5 14.5 10.7239 14.5 11V13.7929L10.3536 9.64645Z" fill="#40404B"/>
</g>
<defs>
<clipPath id="clip0_1_3946">
<rect width="16" height="16" fill="white"/>
</clipPath>
</defs>
</svg>
