<svg width="16" height="16" viewBox="0 0 16 16" fill="none" xmlns="http://www.w3.org/2000/svg">
<path fill-rule="evenodd" clip-rule="evenodd" d="M5.59375 0.5C5.85263 0.5 6.0625 0.709867 6.0625 0.96875C6.0625 1.19887 5.89668 1.39026 5.67801 1.42995L5.59375 1.4375H3.78125C2.53861 1.4375 1.52184 2.40456 1.44249 3.62715L1.4375 3.78125V12.2188C1.4375 13.4614 2.40456 14.4782 3.62715 14.5575L3.78125 14.5625H12.2188C13.4614 14.5625 14.4782 13.5954 14.5575 12.3729L14.5625 12.2188V10.4062C14.5625 10.1474 14.7724 9.9375 15.0312 9.9375C15.2614 9.9375 15.4528 10.1033 15.4924 10.322L15.5 10.4062V12.2188C15.5 13.9705 14.1272 15.4017 12.3988 15.4951L12.2188 15.5H3.78125C2.02947 15.5 0.598319 14.1272 0.504855 12.3988L0.5 12.2188V3.78125C0.5 2.02947 1.87276 0.598319 3.60122 0.504855L3.78125 0.5H5.59375ZM15 1.50047V5.5C15 5.77614 14.7761 6 14.5 6C14.2545 6 14.0504 5.82312 14.0081 5.58988L14 5.5V2.70711L7.35355 9.35355C7.15829 9.54882 6.84171 9.54882 6.64645 9.35355C6.47288 9.17999 6.4536 8.91056 6.58859 8.71569L6.64645 8.64645L13.2929 2H10.5C10.2545 2 10.0504 1.82312 10.0081 1.58988L10 1.5C10 1.25454 10.1769 1.05039 10.4101 1.00806L10.5 1H14.4999C14.5 1 14.5 1 14.5001 1H15V1.49952C15 1.49984 15 1.50016 15 1.50047Z" fill="#40404B"/>
</svg>
