<svg width="16" height="16" viewBox="0 0 16 16" fill="none" xmlns="http://www.w3.org/2000/svg">
<path fill-rule="evenodd" clip-rule="evenodd" d="M4.51733 0.41774C6.38589 0.41774 7.91246 1.88202 8.01215 3.7257L8.01733 3.91774V5H14.5C15.3284 5 16 5.67157 16 6.5V14.5C16 15.3284 15.3284 16 14.5 16H5.5C4.67157 16 4 15.3284 4 14.5V6.5C4 5.67157 4.67157 5 5.5 5H7.01733V3.91774C7.01733 2.59226 5.9858 1.5077 4.68171 1.42306L4.51733 1.41774H3.5C2.17452 1.41774 1.08996 2.44928 1.00532 3.75336L1 3.91774V5.5C1 5.77614 0.776142 6 0.5 6C0.25454 6 0.0503916 5.82312 0.00805567 5.58988L0 5.5V3.91774C0 2.04918 1.46428 0.522613 3.30796 0.422919L3.5 0.41774H4.51733ZM5.5 6H7.51733H14.5C14.7761 6 15 6.22386 15 6.5V14.5C15 14.7761 14.7761 15 14.5 15H5.5C5.22386 15 5 14.7761 5 14.5V6.5C5 6.22386 5.22386 6 5.5 6ZM12.8739 8.11659C12.653 7.9509 12.3396 7.99567 12.1739 8.21659L9.946 11.239L8.35355 9.64645L8.28431 9.58859C8.08944 9.4536 7.82001 9.47288 7.64645 9.64645C7.45118 9.84171 7.45118 10.1583 7.64645 10.3536L10.0541 12.7612L12.9739 8.81659L13.0214 8.73985C13.1275 8.52785 13.0703 8.26386 12.8739 8.11659Z" fill="#40404B"/>
</svg>
