<svg width="16" height="17" viewBox="0 0 16 17" fill="none" xmlns="http://www.w3.org/2000/svg">
<path fill-rule="evenodd" clip-rule="evenodd" d="M1.07314 12.0013C-1.136 8.17501 0.174997 3.28229 4.00134 1.07315C7.76312 -1.09872 12.5556 0.131774 14.8155 3.80984V1.68949C14.8155 1.42922 15.0066 1.21276 15.2587 1.16787L15.3558 1.15933C15.6211 1.15933 15.8417 1.34687 15.8874 1.59419L15.8961 1.68949V5.40057H12.1137C11.8153 5.40057 11.5734 5.16321 11.5734 4.87042C11.5734 4.61016 11.7645 4.39369 12.0166 4.3488L12.1137 4.34026L13.8898 4.34096C11.9242 1.17488 7.78541 0.120093 4.53467 1.99691C1.21851 3.91149 0.0823088 8.15185 1.9969 11.468C3.91148 14.7842 8.15184 15.9204 11.468 14.0058C13.2522 12.9757 14.4566 11.2375 14.8215 9.24977C14.8747 8.96006 15.1527 8.76832 15.4424 8.82151C15.7321 8.87469 15.9238 9.15267 15.8706 9.44238C15.4499 11.7344 14.0592 13.7414 12.0013 14.9296C8.175 17.1387 3.28227 15.8277 1.07314 12.0013ZM7.89481 13.0027C7.64935 13.0027 7.4452 12.8258 7.40287 12.5926L7.39481 12.5027L7.39515 7.50169L4.86597 7.50135C4.62051 7.50135 4.41636 7.32447 4.37402 7.09122L4.36597 7.00135C4.36597 6.75589 4.54284 6.55174 4.77609 6.50941L4.86597 6.50135H8.39481V12.5027C8.39481 12.7788 8.17096 13.0027 7.89481 13.0027Z" fill="#40404B"/>
</svg>
