<svg width="16" height="16" viewBox="0 0 16 16" fill="none" xmlns="http://www.w3.org/2000/svg">
<path fill-rule="evenodd" clip-rule="evenodd" d="M11 0C12.1046 0 13 0.89543 13 2V5.76756C12.7058 5.59739 12.3643 5.5 12 5.5V2C12 1.48716 11.614 1.06449 11.1166 1.00673L11 1H2C1.48716 1 1.06449 1.38604 1.00673 1.88338L1 2V14C1 14.5128 1.38604 14.9355 1.88338 14.9933L2 15H6C6 15.5523 6.44772 16 7 16H2C0.89543 16 0 15.1046 0 14V2C0 0.89543 0.89543 0 2 0H11ZM3.5 4C3.22386 4 3 4.22386 3 4.5C3 4.77614 3.22386 5 3.5 5H7.5C7.77614 5 8 4.77614 8 4.5C8 4.22386 7.77614 4 7.5 4H3.5ZM3 7.5C3 7.22386 3.22386 7 3.5 7H4.5C4.77614 7 5 7.22386 5 7.5C5 7.77614 4.77614 8 4.5 8H3.5C3.22386 8 3 7.77614 3 7.5ZM3.5 10C3.22386 10 3 10.2239 3 10.5C3 10.7761 3.22386 11 3.5 11C3.77614 11 4 10.7761 4 10.5C4 10.2239 3.77614 10 3.5 10ZM9 9C9 7.61929 10.1193 6.5 11.5 6.5C12.8807 6.5 14 7.61929 14 9H14.5C15.3284 9 16 9.67157 16 10.5V14.5C16 15.3284 15.3284 16 14.5 16H8.5C7.67157 16 7 15.3284 7 14.5V10.5C7 9.67157 7.67157 9 8.5 9H9ZM11.5 7.5C12.3284 7.5 13 8.17157 13 9H10C10 8.17157 10.6716 7.5 11.5 7.5ZM8.5 10H9H10H13H14H14.5C14.7761 10 15 10.2239 15 10.5V14.5C15 14.7761 14.7761 15 14.5 15H8.5C8.22386 15 8 14.7761 8 14.5V10.5C8 10.2239 8.22386 10 8.5 10ZM11.5 12C11.2239 12 11 12.2239 11 12.5C11 12.7761 11.2239 13 11.5 13C11.7761 13 12 12.7761 12 12.5C12 12.2239 11.7761 12 11.5 12Z" fill="#40404B"/>
</svg>
