<svg width="16" height="16" viewBox="0 0 16 16" fill="none" xmlns="http://www.w3.org/2000/svg">
<path fill-rule="evenodd" clip-rule="evenodd" d="M4 0.5C2.61929 0.5 1.5 1.61929 1.5 3V13C1.5 14.3807 2.61929 15.5 4 15.5H13C14.3807 15.5 15.5 14.3807 15.5 13C15.5 12.7239 15.2761 12.5 15 12.5C14.7239 12.5 14.5 12.7239 14.5 13C14.5 13.8284 13.8284 14.5 13 14.5H4C3.17157 14.5 2.5 13.8284 2.5 13V3C2.5 2.17157 3.17157 1.5 4 1.5H13C13.8284 1.5 14.5 2.17157 14.5 3C14.5 3.27614 14.7239 3.5 15 3.5C15.2761 3.5 15.5 3.27614 15.5 3C15.5 1.61929 14.3807 0.5 13 0.5H4ZM15.3536 7.64645L13.3536 5.64645C13.1583 5.45118 12.8417 5.45118 12.6464 5.64645C12.4512 5.84171 12.4512 6.15829 12.6464 6.35355L13.7929 7.5H7C6.72386 7.5 6.5 7.72386 6.5 8C6.5 8.27614 6.72386 8.5 7 8.5H13.7929L12.6464 9.64645C12.4512 9.84171 12.4512 10.1583 12.6464 10.3536C12.8417 10.5488 13.1583 10.5488 13.3536 10.3536L15.3536 8.35355L15.7071 8L15.3536 7.64645Z" fill="#40404B"/>
</svg>
