<svg width="16" height="16" viewBox="0 0 16 16" fill="none" xmlns="http://www.w3.org/2000/svg">
<path fill-rule="evenodd" clip-rule="evenodd" d="M7.5 0H8.5C9.32843 0 10 0.671573 10 1.5V16H6V1.5C6 0.671573 6.67157 0 7.5 0ZM8.58988 1.00806L8.5 1H7.5C7.22386 1 7 1.22386 7 1.5V15H9V1.5C9 1.25454 8.82312 1.05039 8.58988 1.00806ZM1.5 8H2.5C3.32843 8 4 8.67157 4 9.5V16H0V9.5C0 8.67157 0.671573 8 1.5 8ZM2.58988 9.00806L2.5 9H1.5C1.22386 9 1 9.22386 1 9.5V15H3V9.5C3 9.25454 2.82312 9.05039 2.58988 9.00806ZM14.5 3H13.5C12.6716 3 12 3.67157 12 4.5V16H16V4.5C16 3.67157 15.3284 3 14.5 3ZM14.5 4L14.5899 4.00806C14.8231 4.05039 15 4.25454 15 4.5V15H13V4.5C13 4.22386 13.2239 4 13.5 4H14.5Z" fill="#40404B"/>
</svg>
