<svg width="16" height="16" viewBox="0 0 16 16" fill="none" xmlns="http://www.w3.org/2000/svg">
<path fill-rule="evenodd" clip-rule="evenodd" d="M8 4.86107C8.30123 4.86107 8.54546 4.61684 8.54546 4.31561V0.562682C8.54546 0.261456 8.30123 0.0172272 8 0.0172272C7.69878 0.0172272 7.45455 0.261456 7.45455 0.562682V4.31561C7.45455 4.61684 7.69878 4.86107 8 4.86107ZM4.31561 7.45455C4.61684 7.45455 4.86107 7.69878 4.86107 8C4.86107 8.30123 4.61684 8.54546 4.31561 8.54546H0.562682C0.261456 8.54546 0.0172272 8.30123 0.0172272 8C0.0172272 7.69878 0.261456 7.45455 0.562682 7.45455H4.31561ZM11.6844 8.54546C11.3832 8.54546 11.1389 8.30123 11.1389 8C11.1389 7.69878 11.3832 7.45455 11.6844 7.45455H15.4373C15.7386 7.45455 15.9828 7.69878 15.9828 8C15.9828 8.30123 15.7386 8.54546 15.4373 8.54546H11.6844ZM8.54546 15.4373C8.54546 15.7386 8.30123 15.9828 8 15.9828C7.69878 15.9828 7.45455 15.7386 7.45455 15.4373V11.6844C7.45455 11.3832 7.69878 11.1389 8 11.1389C8.30123 11.1389 8.54546 11.3832 8.54546 11.6844V15.4373ZM5.00915 10.2196L2.35538 12.8732C2.14231 13.0863 2.14231 13.4316 2.35529 13.6446C2.46183 13.7512 2.60139 13.8044 2.74104 13.8044C2.8806 13.8044 3.02024 13.7512 3.12669 13.6447L5.78045 10.991C5.99352 10.778 5.99352 10.4326 5.78054 10.2196C5.56756 10.0067 5.22213 10.0066 5.00915 10.2196ZM10.9909 5.78045C10.8844 5.88699 10.7448 5.94026 10.6052 5.94026C10.4656 5.94026 10.326 5.88699 10.2196 5.78045C10.0065 5.56747 10.0065 5.22213 10.2196 5.00915L12.8733 2.35538C13.0862 2.14231 13.4317 2.14231 13.6446 2.35538C13.8577 2.56836 13.8577 2.91371 13.6446 3.12669L10.9909 5.78045ZM5.00915 5.78045C5.11559 5.88699 5.25524 5.94026 5.3948 5.94026C5.53436 5.94026 5.67401 5.88699 5.78045 5.78045C5.99352 5.56747 5.99352 5.22213 5.78045 5.00915L3.12669 2.35538C2.9138 2.14231 2.56827 2.14231 2.35538 2.35538C2.14231 2.56836 2.14231 2.91371 2.35538 3.12669L5.00915 5.78045ZM13.259 13.8044C13.1194 13.8044 12.9798 13.7512 12.8733 13.6447L10.2196 10.991C10.0065 10.778 10.0065 10.4326 10.2195 10.2196C10.4325 10.0066 10.778 10.0067 10.9909 10.2196L13.6446 12.8732C13.8577 13.0863 13.8577 13.4316 13.6447 13.6446C13.5382 13.7512 13.3985 13.8044 13.259 13.8044Z" fill="#40404B"/>
</svg>
