<svg width="16" height="16" viewBox="0 0 16 16" fill="none" xmlns="http://www.w3.org/2000/svg">
<mask id="path-1-inside-1_1_3951" fill="white">
<path fill-rule="evenodd" clip-rule="evenodd" d="M8 0C9.86856 0 11.3951 1.46428 11.4948 3.30796L11.5 3.5V6H13C14.1046 6 15 6.89543 15 8V14C15 15.1046 14.1046 16 13 16H3C1.89543 16 1 15.1046 1 14V8C1 6.89543 1.89543 6 3 6H4.5V3.5C4.5 1.567 6.067 0 8 0ZM10.5 3.5V6H5.5V3.5C5.5 2.11929 6.61929 1 8 1C9.38071 1 10.5 2.11929 10.5 3.5ZM8 12C8.55228 12 9 11.5523 9 11C9 10.4477 8.55228 10 8 10C7.44772 10 7 10.4477 7 11C7 11.5523 7.44772 12 8 12Z"/>
</mask>
<path d="M11.4948 3.30796L12.4945 3.28101L12.4941 3.26748L12.4934 3.25397L11.4948 3.30796ZM11.5 3.5H12.5V3.48652L12.4996 3.47304L11.5 3.5ZM11.5 6H10.5V7H11.5V6ZM4.5 6V7H5.5V6H4.5ZM10.5 6V7H11.5V6H10.5ZM5.5 6H4.5V7H5.5V6ZM12.4934 3.25397C12.3651 0.882648 10.4028 -1 8 -1V1C9.33437 1 10.4251 2.04591 10.4963 3.36196L12.4934 3.25397ZM12.4996 3.47304L12.4945 3.28101L10.4952 3.33492L10.5004 3.52696L12.4996 3.47304ZM12.5 6V3.5H10.5V6H12.5ZM13 5H11.5V7H13V5ZM16 8C16 6.34315 14.6569 5 13 5V7C13.5523 7 14 7.44772 14 8H16ZM16 14V8H14V14H16ZM13 17C14.6569 17 16 15.6569 16 14H14C14 14.5523 13.5523 15 13 15V17ZM3 17H13V15H3V17ZM0 14C0 15.6569 1.34315 17 3 17V15C2.44772 15 2 14.5523 2 14H0ZM0 8V14H2V8H0ZM3 5C1.34315 5 0 6.34315 0 8H2C2 7.44772 2.44772 7 3 7V5ZM4.5 5H3V7H4.5V5ZM3.5 3.5V6H5.5V3.5H3.5ZM8 -1C5.51472 -1 3.5 1.01472 3.5 3.5H5.5C5.5 2.11929 6.61929 1 8 1V-1ZM11.5 6V3.5H9.5V6H11.5ZM5.5 7H10.5V5H5.5V7ZM4.5 3.5V6H6.5V3.5H4.5ZM8 0C6.067 0 4.5 1.567 4.5 3.5H6.5C6.5 2.67157 7.17157 2 8 2V0ZM11.5 3.5C11.5 1.567 9.933 0 8 0V2C8.82843 2 9.5 2.67157 9.5 3.5H11.5ZM8 11V13C9.10457 13 10 12.1046 10 11H8ZM8 11H10C10 9.89543 9.10457 9 8 9V11ZM8 11V9C6.89543 9 6 9.89543 6 11H8ZM8 11H6C6 12.1046 6.89543 13 8 13V11Z" fill="#40404B" mask="url(#path-1-inside-1_1_3951)"/>
</svg>
