<svg width="16" height="16" viewBox="0 0 16 16" fill="none" xmlns="http://www.w3.org/2000/svg">
<path fill-rule="evenodd" clip-rule="evenodd" d="M5.78548 0.318745C5.03751 0.599431 4.61373 1.42056 4.82898 2.2239L4.88116 2.41885C3.8873 2.98631 3.07194 3.8209 2.51668 4.82696L2.32371 4.7735L2.17455 4.74045C1.35927 4.61334 0.609308 5.10913 0.406415 5.89358L0.375419 6.04513L0.360627 6.19964C0.321681 6.96742 0.801846 7.6552 1.52647 7.85621L1.71792 7.90934C1.7159 8.48264 1.79023 9.05804 1.94169 9.62331C2.0932 10.1887 2.31659 10.7242 2.60488 11.2195L2.4656 11.3613C1.8556 11.9822 1.86066 12.9939 2.47697 13.621L2.58949 13.7252C3.2089 14.2465 4.12332 14.2167 4.69749 13.6323L4.83774 13.4895C5.82135 14.083 6.94484 14.3983 8.08958 14.3928L8.14188 14.5878C8.37058 15.4413 9.23408 15.9515 10.0706 15.7274L10.2145 15.6812C10.9625 15.4006 11.3863 14.5794 11.171 13.7761L11.1187 13.5812C12.1129 13.0136 12.9282 12.1788 13.4834 11.173L13.6762 11.2265L13.8255 11.2595C14.6407 11.3866 15.3907 10.8909 15.5936 10.1064L15.6246 9.95485L15.6394 9.80035C15.6783 9.03256 15.1982 8.34479 14.4735 8.14378L14.2821 8.09063C14.2841 7.51792 14.2099 6.94241 14.0583 6.37667C13.9068 5.81119 13.6834 5.27567 13.3951 4.78037L13.5343 4.63875C14.1444 4.01783 14.1393 3.00612 13.523 2.37899L13.4105 2.27478C12.7911 1.75344 11.8767 1.78333 11.3025 2.36768L11.1621 2.51035C10.1794 1.91743 9.05584 1.60163 7.91031 1.60715L7.85815 1.41228C7.62943 0.558692 6.76593 0.0484525 5.92945 0.272586L5.78548 0.318745ZM3.56957 5.11863C3.97706 4.463 4.52185 3.90619 5.1679 3.4902L5.16792 3.49027C5.46393 3.2997 5.78267 3.13775 6.12152 3.00913L5.83871 1.95338C5.76247 1.66883 5.9267 1.37762 6.20553 1.30291C6.48435 1.2282 6.77219 1.39828 6.84842 1.68279L7.13123 2.73856C7.26199 2.71734 7.39266 2.70133 7.523 2.69037L7.77334 2.67551C7.91523 2.67058 8.05655 2.6716 8.19701 2.67838L8.19699 2.67831C8.96519 2.71547 9.71564 2.92556 10.3958 3.28924L10.3958 3.28932C10.713 3.4589 11.0134 3.66098 11.2917 3.8925L12.0464 3.12478C12.2498 2.91773 12.5812 2.91942 12.7866 3.12846C12.9921 3.3375 12.9938 3.67474 12.7904 3.8817L12.0364 4.64892C12.1189 4.75135 12.198 4.85717 12.2733 4.96625L12.4359 5.21625C12.5041 5.32773 12.5685 5.44224 12.629 5.55963L12.6291 5.55953C12.8058 5.90254 12.9466 6.26649 13.0486 6.64723C13.1506 7.02784 13.2106 7.41325 13.2291 7.79824L13.229 7.79821C13.2467 8.16558 13.2265 8.52898 13.1712 8.88349L14.2076 9.1713C14.4653 9.24277 14.6304 9.49912 14.5933 9.76404L14.5743 9.85537C14.5135 10.0869 14.2633 10.2523 14.0026 10.212L13.9126 10.1917L12.9043 9.91181C12.7791 10.2511 12.6202 10.5759 12.4305 10.8811L12.4306 10.8811C12.023 11.5369 11.478 12.0941 10.8314 12.5102L10.8314 12.5101C10.5356 12.7006 10.217 12.8624 9.87834 12.9909L10.1613 14.0467C10.2375 14.3312 10.0733 14.6224 9.79448 14.6971C9.51566 14.7718 9.22782 14.6017 9.15159 14.3172L8.86862 13.2615C8.7376 13.2827 8.60668 13.2987 8.47609 13.3097L8.21798 13.3248C8.07875 13.3294 7.94006 13.3282 7.80221 13.3216L7.80223 13.3216C7.03438 13.2844 6.28393 13.0744 5.60321 12.7102L5.60327 12.7101C5.28629 12.5406 4.98617 12.3387 4.70809 12.1073L3.95353 12.8753C3.7502 13.0823 3.41881 13.0806 3.21337 12.8715C3.00794 12.6625 3.00625 12.3252 3.2096 12.1183L3.96345 11.3508C3.87753 11.2442 3.79539 11.1339 3.71729 11.0201L3.55689 10.772C3.49127 10.664 3.42915 10.5533 3.37074 10.4399L3.37065 10.44C3.19412 10.0971 3.05338 9.7333 2.95141 9.35276C2.84946 8.97228 2.78944 8.58688 2.77089 8.2016L2.771 8.20163C2.75334 7.83426 2.77354 7.47086 2.82882 7.11636L1.79232 6.82867C1.53474 6.75722 1.36964 6.50087 1.40666 6.23595L1.42571 6.14462C1.48649 5.9131 1.73674 5.74766 1.99745 5.78802L2.0874 5.80832L3.0958 6.08805C3.13727 5.97563 3.18245 5.86479 3.23123 5.75572L3.34812 5.51124C3.41644 5.3772 3.49036 5.24621 3.56966 5.11866L3.56957 5.11863ZM7.03375 4.39387C5.08196 4.91685 3.93234 6.95532 4.46599 8.94693C4.99964 10.9385 7.01448 12.1291 8.96626 11.6061C10.918 11.0831 12.0677 9.04466 11.534 7.05306C11.0004 5.06145 8.98553 3.87089 7.03375 4.39387ZM7.30982 5.42419C8.70395 5.05063 10.1431 5.90103 10.5243 7.32361C10.9055 8.74619 10.0843 10.2022 8.69019 10.5758C7.29606 10.9494 5.85689 10.099 5.47571 8.67638C5.09453 7.2538 5.91569 5.79775 7.30982 5.42419Z" fill="#40404B"/>
</svg>
