<svg width="16" height="16" viewBox="0 0 16 16" fill="none" xmlns="http://www.w3.org/2000/svg">
<path fill-rule="evenodd" clip-rule="evenodd" d="M2 0.5C1.17157 0.5 0.5 1.17157 0.5 2V10C0.5 10.8284 1.17157 11.5 2 11.5H14C14.8284 11.5 15.5 10.8284 15.5 10V2C15.5 1.17157 14.8284 0.5 14 0.5H2ZM1.5 2C1.5 1.72386 1.72386 1.5 2 1.5H14C14.2761 1.5 14.5 1.72386 14.5 2V10C14.5 10.2761 14.2761 10.5 14 10.5H2C1.72386 10.5 1.5 10.2761 1.5 10V2ZM2 14C1.72386 14 1.5 14.2239 1.5 14.5C1.5 14.7761 1.72386 15 2 15H14C14.2761 15 14.5 14.7761 14.5 14.5C14.5 14.2239 14.2761 14 14 14H2Z" fill="#40404B"/>
</svg>
