<svg width="16" height="16" viewBox="0 0 16 16" fill="none" xmlns="http://www.w3.org/2000/svg">
<path fill-rule="evenodd" clip-rule="evenodd" d="M12.5 14C12.7761 14 13 13.7761 13 13.5L13 2.5C13 2.22386 12.7761 2 12.5 2C12.2239 2 12 2.22386 12 2.5L12 13.5C12 13.7761 12.2239 14 12.5 14ZM3.14645 13.1464C2.95118 13.3417 2.95118 13.6583 3.14645 13.8536C3.34171 14.0488 3.65829 14.0488 3.85355 13.8536L9.35355 8.35355L9.70711 8L9.35355 7.64645L3.85355 2.14645C3.65829 1.95118 3.34171 1.95118 3.14645 2.14645C2.95119 2.34171 2.95119 2.65829 3.14645 2.85355L8.29289 8L3.14645 13.1464Z" fill="#40404B"/>
</svg>
