<svg width="16" height="16" viewBox="0 0 16 16" fill="none" xmlns="http://www.w3.org/2000/svg">
<path fill-rule="evenodd" clip-rule="evenodd" d="M1.5 2H5.5C5.77614 2 6 2.22386 6 2.5V5.5C6 5.77614 5.77614 6 5.5 6H1.5C1.22386 6 1 5.77614 1 5.5V2.5C1 2.22386 1.22386 2 1.5 2ZM0 2.5C0 1.67157 0.671573 1 1.5 1H5.5C6.32843 1 7 1.67157 7 2.5V5.5C7 6.32843 6.32843 7 5.5 7H1.5C0.671573 7 0 6.32843 0 5.5V2.5ZM1.5 10H5.5C5.77614 10 6 10.2239 6 10.5V13.5C6 13.7761 5.77614 14 5.5 14H1.5C1.22386 14 1 13.7761 1 13.5V10.5C1 10.2239 1.22386 10 1.5 10ZM0 10.5C0 9.67157 0.671573 9 1.5 9H5.5C6.32843 9 7 9.67157 7 10.5V13.5C7 14.3284 6.32843 15 5.5 15H1.5C0.671573 15 0 14.3284 0 13.5V10.5ZM14.5 2H10.5C10.2239 2 10 2.22386 10 2.5V5.5C10 5.77614 10.2239 6 10.5 6H14.5C14.7761 6 15 5.77614 15 5.5V2.5C15 2.22386 14.7761 2 14.5 2ZM10.5 1C9.67157 1 9 1.67157 9 2.5V5.5C9 6.32843 9.67157 7 10.5 7H14.5C15.3284 7 16 6.32843 16 5.5V2.5C16 1.67157 15.3284 1 14.5 1H10.5ZM10.5 10H14.5C14.7761 10 15 10.2239 15 10.5V13.5C15 13.7761 14.7761 14 14.5 14H10.5C10.2239 14 10 13.7761 10 13.5V10.5C10 10.2239 10.2239 10 10.5 10ZM9 10.5C9 9.67157 9.67157 9 10.5 9H14.5C15.3284 9 16 9.67157 16 10.5V13.5C16 14.3284 15.3284 15 14.5 15H10.5C9.67157 15 9 14.3284 9 13.5V10.5Z" fill="#40404B"/>
</svg>
