<svg width="16" height="16" viewBox="0 0 16 16" fill="none" xmlns="http://www.w3.org/2000/svg">
<path fill-rule="evenodd" clip-rule="evenodd" d="M2.5117 4.28796L7.49999 1.43769V4.5C7.49999 4.77614 7.72385 5 7.99999 5C8.27614 5 8.49999 4.77614 8.49999 4.5V1.43724L13.4884 4.28792L7.99999 7.42412L2.5117 4.28796ZM8.00046 0L14.6922 3.82411C14.7306 3.84007 14.7672 3.86086 14.8008 3.88619L15 4V4.27601C15.0001 4.28218 15.0001 4.28834 15 4.2945V12L8.00046 16L0.999994 12V4.2945C0.99988 4.28834 0.99988 4.28218 0.999994 4.27601V4L1.19906 3.88625C1.23281 3.86086 1.26943 3.84003 1.30793 3.82405L8.00046 0ZM8.49999 8.29016L14 5.1473V10.8525L11.7483 9.56587C11.5085 9.42887 11.2031 9.51218 11.0661 9.75194C10.9291 9.99171 11.0124 10.2971 11.2522 10.4341L13.4886 11.712L8.49999 14.5628V8.29016ZM7.49999 8.29016V14.5623L2.51189 11.7122L4.74831 10.4341C4.98806 10.2971 5.07135 9.99167 4.93434 9.75192C4.79733 9.51216 4.4919 9.42887 4.25214 9.56589L1.99999 10.8529V5.1473L7.49999 8.29016Z" fill="#40404B"/>
</svg>
