<svg width="16" height="16" viewBox="0 0 16 16" fill="none" xmlns="http://www.w3.org/2000/svg">
<path fill-rule="evenodd" clip-rule="evenodd" d="M0.896454 10.6035C0.620311 10.6035 0.396454 10.3797 0.396454 10.1035L0.396454 6.10355L0.40451 6.01367C0.446845 5.78042 0.650994 5.60355 0.896454 5.60355C1.1726 5.60355 1.39645 5.8274 1.39645 6.10355L1.39645 7.60355L13.6894 7.60355L8.5429 2.4571L8.48505 2.38785C8.35005 2.19298 8.36933 1.92356 8.5429 1.74999C8.73816 1.55473 9.05474 1.55473 9.25001 1.74999L15.6036 8.10355L9.25001 14.4571L9.18076 14.515C8.98589 14.65 8.71647 14.6307 8.5429 14.4571L8.48505 14.3879C8.35005 14.193 8.36933 13.9236 8.5429 13.75L13.6894 8.60355H1.39645V10.1035L1.3884 10.1934C1.34606 10.4267 1.14191 10.6035 0.896454 10.6035Z" fill="#40404B"/>
</svg>
