<svg width="16" height="16" viewBox="0 0 16 16" fill="none" xmlns="http://www.w3.org/2000/svg">
<g clip-path="url(#clip0_1_3944)">
<path fill-rule="evenodd" clip-rule="evenodd" d="M8 15C11.866 15 15 11.866 15 8C15 4.13401 11.866 1 8 1C4.13401 1 1 4.13401 1 8C1 11.866 4.13401 15 8 15ZM8 16C12.4183 16 16 12.4183 16 8C16 3.58172 12.4183 0 8 0C3.58172 0 0 3.58172 0 8C0 12.4183 3.58172 16 8 16ZM4.5 6.5C4.5 6.22386 4.72386 6 5 6H11C11.2761 6 11.5 6.22386 11.5 6.5C11.5 6.77614 11.2761 7 11 7H5C4.72386 7 4.5 6.77614 4.5 6.5ZM5 9C4.72386 9 4.5 9.22386 4.5 9.5C4.5 9.77614 4.72386 10 5 10H8C8.27614 10 8.5 9.77614 8.5 9.5C8.5 9.22386 8.27614 9 8 9H5Z" fill="#40404B"/>
</g>
<defs>
<clipPath id="clip0_1_3944">
<rect width="16" height="16" fill="white"/>
</clipPath>
</defs>
</svg>
