<svg width="16" height="16" viewBox="0 0 16 16" fill="none" xmlns="http://www.w3.org/2000/svg">
<g clip-path="url(#clip0_1_3823)">
<path fill-rule="evenodd" clip-rule="evenodd" d="M15 8C15 11.866 11.866 15 8 15C4.13401 15 1 11.866 1 8C1 4.13401 4.13401 1 8 1C11.866 1 15 4.13401 15 8ZM16 8C16 12.4183 12.4183 16 8 16C3.58172 16 0 12.4183 0 8C0 3.58172 3.58172 0 8 0C12.4183 0 16 3.58172 16 8ZM8.31055 10.4927H7.3457L7.32031 10.499C7.32031 10.0674 7.40283 9.67383 7.57422 9.31836C7.74561 8.96289 7.94873 8.6709 8.18994 8.44873C8.43115 8.22656 8.67236 8.01074 8.90723 7.80762C9.14209 7.60449 9.34521 7.37598 9.5166 7.12842C9.68799 6.88086 9.77051 6.61426 9.77051 6.32861C9.77051 5.83984 9.60547 5.43994 9.28174 5.13525C8.95801 4.83057 8.52002 4.67822 7.96777 4.67822C7.41553 4.67822 6.9585 4.83691 6.59668 5.16064C6.23486 5.48438 5.9873 5.91602 5.86035 6.46191L4.93359 6.18896C5.07959 5.48438 5.41602 4.90039 5.93652 4.43701C6.45703 3.97363 7.14258 3.73877 7.98682 3.73877C8.81201 3.73877 9.49121 3.97363 10.0181 4.44971C10.5449 4.92578 10.8115 5.53516 10.8115 6.27783C10.8115 6.65869 10.7227 7.00781 10.5513 7.31885C10.3799 7.62988 10.1704 7.89648 9.92285 8.1123C9.67529 8.32812 9.43408 8.54395 9.19287 8.75977C8.95166 8.97559 8.74219 9.22949 8.5708 9.52148C8.39941 9.81348 8.31055 10.1372 8.31055 10.4927ZM8.31055 12.8857C8.1709 13.0254 7.99951 13.0952 7.79004 13.0952C7.58057 13.0952 7.40918 13.0254 7.26953 12.8857C7.12988 12.7461 7.06006 12.5747 7.06006 12.3652C7.06006 12.1685 7.12988 12.0034 7.26953 11.8701C7.40918 11.7368 7.58057 11.667 7.79004 11.667C7.99951 11.667 8.1709 11.7368 8.31055 11.8701C8.4502 12.0034 8.52002 12.1685 8.52002 12.3652C8.52002 12.5747 8.4502 12.7461 8.31055 12.8857Z" fill="#40404B"/>
</g>
<defs>
<clipPath id="clip0_1_3823">
<rect width="16" height="16" fill="white"/>
</clipPath>
</defs>
</svg>
