<svg width="16" height="16" viewBox="0 0 16 16" fill="none" xmlns="http://www.w3.org/2000/svg">
<path fill-rule="evenodd" clip-rule="evenodd" d="M10.3829 8.87728C10.1979 9.02554 9.92778 9.02509 9.74253 8.86406L9.67999 8.79901C9.53173 8.61404 9.53217 8.34392 9.69321 8.15867L12.7863 4.73393H8L7.78311 4.73855C5.12231 4.85211 3 7.04518 3 9.73393C3 12.4954 5.23858 14.7339 8 14.7339H15L15.0899 14.742C15.3231 14.7843 15.5 14.9885 15.5 15.2339C15.5 15.5101 15.2761 15.7339 15 15.7339H8L7.77506 15.7298C4.56557 15.6115 2 12.9723 2 9.73393C2 6.42022 4.68629 3.73393 8 3.73393H12.4858L9.32399 0.877434L9.26143 0.812405C9.11313 0.62746 9.11351 0.357347 9.27451 0.172061C9.45563 -0.0363864 9.77143 -0.058539 9.97988 0.122581L14.5607 4.23393L10.4479 8.81473L10.3829 8.87728Z" fill="#40404B"/>
</svg>
