<svg width="16" height="16" viewBox="0 0 16 16" fill="none" xmlns="http://www.w3.org/2000/svg">
<g clip-path="url(#clip0_1_3824)">
<path fill-rule="evenodd" clip-rule="evenodd" d="M15 8C15 11.866 11.866 15 7.99999 15C4.13399 15 0.999987 11.866 0.999987 8C0.999988 4.13401 4.13399 0.999999 7.99999 0.999999C10.3151 1 12.3683 2.12374 13.6431 3.8572L12.1097 3.5122C11.8403 3.45158 11.5728 3.62084 11.5122 3.89024C11.4516 4.15965 11.6208 4.42719 11.8902 4.48781L14.7477 5.13073L15.2355 5.24048L15.3452 4.75268L15.9882 1.89524C16.0488 1.62583 15.8795 1.35829 15.6101 1.29768C15.3407 1.23706 15.0732 1.40632 15.0125 1.67573L14.6053 3.48552C13.1648 1.38173 10.744 -4.59534e-07 7.99999 -6.99423e-07C3.58171 -1.08568e-06 -1.22658e-05 3.58172 -1.26521e-05 8C-1.30383e-05 12.4183 3.58171 16 7.99999 16C12.4183 16 16 12.4183 16 8C16 7.72386 15.7761 7.5 15.5 7.5C15.2238 7.5 15 7.72386 15 8Z" fill="#40404B"/>
</g>
<defs>
<clipPath id="clip0_1_3824">
<rect width="16" height="16" fill="white"/>
</clipPath>
</defs>
</svg>
