<svg width="17" height="16" viewBox="0 0 17 16" fill="none" xmlns="http://www.w3.org/2000/svg">
<path fill-rule="evenodd" clip-rule="evenodd" d="M0.146022 3.37657C0.0938547 3.14532 0.212664 2.90274 0.438611 2.80683L0.52449 2.77913C0.755738 2.72696 0.99832 2.84577 1.09423 3.07172L2.32519 5.96983C2.96961 3.84372 4.58976 2.12225 6.7465 1.37963C10.4019 0.120984 14.3855 2.06391 15.6441 5.71928C16.9028 9.37465 14.9598 13.3582 11.3045 14.6169C9.58202 15.21 7.73455 15.1063 6.11141 14.3629C5.30764 13.9947 4.57914 13.478 3.96716 12.8393C3.77611 12.6399 3.78287 12.3234 3.98226 12.1323C4.18165 11.9413 4.49816 11.948 4.68921 12.1474C5.21365 12.6948 5.83838 13.1379 6.52783 13.4537C7.91976 14.0912 9.50172 14.18 10.9789 13.6714C14.1121 12.5925 15.7774 9.17802 14.6986 6.04485C13.6198 2.91168 10.2052 1.24631 7.07207 2.32515C5.24256 2.9551 3.8641 4.40578 3.29994 6.20237L6.00283 5.055L6.0887 5.02728C6.31994 4.97506 6.56255 5.09382 6.65851 5.31975C6.76646 5.57391 6.64793 5.86747 6.39376 5.97542L2.02759 7.82988L0.173724 3.46245L0.146022 3.37657Z" fill="#40404B"/>
</svg>
