<svg width="16" height="16" viewBox="0 0 16 16" fill="none" xmlns="http://www.w3.org/2000/svg">
<g clip-path="url(#clip0_1_3859)">
<path fill-rule="evenodd" clip-rule="evenodd" d="M14.3971 5.8766C14.6666 6.0765 14.6666 6.47989 14.3971 6.67979L8.59542 10.9828C8.24162 11.2453 7.75778 11.2453 7.40398 10.9828L1.6023 6.67979C1.33278 6.47989 1.33278 6.0765 1.6023 5.8766L7.40398 1.57355C7.75778 1.31114 8.24162 1.31114 8.59542 1.57355L14.3971 5.8766ZM14.9928 7.48298C15.8014 6.88328 15.8014 5.67311 14.9928 5.07341L9.19114 0.770356C8.48354 0.245534 7.51586 0.245534 6.80826 0.770356L1.00658 5.07341C0.198023 5.67311 0.198021 6.88328 1.00658 7.48298L6.80826 11.786C7.51586 12.3109 8.48354 12.3109 9.19114 11.786L14.9928 7.48298ZM15.076 10.6798C15.2978 10.5153 15.3443 10.2021 15.1798 9.98032C15.0153 9.75852 14.7021 9.71208 14.4803 9.87658L8.89358 14.0202C8.36288 14.4138 7.63712 14.4138 7.10642 14.0202L1.51969 9.87658C1.29789 9.71208 0.984733 9.75852 0.82023 9.98032C0.655726 10.2021 0.70217 10.5153 0.923966 10.6798L6.5107 14.8234C7.3952 15.4794 8.6048 15.4794 9.4893 14.8234L15.076 10.6798Z" fill="#40404B"/>
</g>
<defs>
<clipPath id="clip0_1_3859">
<rect width="16" height="16" fill="white"/>
</clipPath>
</defs>
</svg>
