<svg width="17" height="16" viewBox="0 0 17 16" fill="none" xmlns="http://www.w3.org/2000/svg">
<path fill-rule="evenodd" clip-rule="evenodd" d="M0.438492 2.80681C0.212544 2.90272 0.0937352 3.14531 0.145903 3.37655L0.173604 3.46243L2.02747 7.82987L6.39364 5.97541C6.64781 5.86746 6.76634 5.5739 6.65839 5.31973C6.56243 5.09381 6.31982 4.97505 6.08858 5.02727L6.00271 5.05499L3.29982 6.20236C3.86398 4.40577 5.24244 2.95508 7.07195 2.32513C10.2051 1.24629 13.6196 2.91166 14.6985 6.04484C15.7773 9.17801 14.1119 12.5925 10.9788 13.6714C9.5016 14.18 7.91964 14.0912 6.52771 13.4537C5.83826 13.1379 5.21353 12.6948 4.68909 12.1474C4.49804 11.948 4.18153 11.9413 3.98214 12.1323C3.78275 12.3234 3.77599 12.6399 3.96704 12.8393C4.57902 13.478 5.30752 13.9947 6.11129 14.3629C7.73443 15.1063 9.5819 15.21 11.3043 14.6169C14.9597 13.3582 16.9026 9.37463 15.644 5.71927C14.3853 2.0639 10.4017 0.12097 6.74638 1.37961C4.58964 2.12224 2.96949 3.84371 2.32507 5.96982L1.09411 3.0717C0.998201 2.84575 0.755619 2.72695 0.52437 2.77911L0.438492 2.80681ZM11.8536 4.85354C12.0488 4.65828 12.0488 4.34169 11.8536 4.14643C11.6583 3.95117 11.3417 3.95117 11.1465 4.14643L8.64645 6.64643L8.5 6.79288V6.99999V12C8.5 12.2761 8.72386 12.5 9 12.5C9.27614 12.5 9.5 12.2761 9.5 12V7.20709L11.8536 4.85354Z" fill="#40404B"/>
</svg>
