<svg width="16" height="16" viewBox="0 0 16 16" fill="none" xmlns="http://www.w3.org/2000/svg">
<path fill-rule="evenodd" clip-rule="evenodd" d="M2.80039 6L6.5 3.04031V6V8.95969L2.80039 6ZM7.5 5.50001V2.41613C7.5 1.82917 6.82105 1.50285 6.36271 1.86952L1.88287 5.45339C1.53259 5.73362 1.53258 6.26638 1.88287 6.54661L6.36271 10.1305C6.82105 10.4972 7.5 10.1708 7.5 9.58388V6.5H11C12.933 6.5 14.5 8.06701 14.5 10C14.5 11.933 12.933 13.5 11 13.5H1C0.723858 13.5 0.5 13.7239 0.5 14C0.5 14.2761 0.723858 14.5 1 14.5H11C13.4853 14.5 15.5 12.4853 15.5 10C15.5 7.51472 13.4853 5.50001 11 5.50001H7.5Z" fill="#40404B"/>
</svg>
