<svg width="16" height="16" viewBox="0 0 16 16" fill="none" xmlns="http://www.w3.org/2000/svg">
<path fill-rule="evenodd" clip-rule="evenodd" d="M0 2C0 1.72386 0.223858 1.5 0.5 1.5H15.5C15.7761 1.5 16 1.72386 16 2C16 2.27614 15.7761 2.5 15.5 2.5H0.5C0.223858 2.5 0 2.27614 0 2ZM0 8C0 7.72386 0.223858 7.5 0.5 7.5H15.5C15.7761 7.5 16 7.72386 16 8C16 8.27614 15.7761 8.5 15.5 8.5H0.5C0.223858 8.5 0 8.27614 0 8ZM0.5 13.5C0.223858 13.5 0 13.7239 0 14C0 14.2761 0.223858 14.5 0.5 14.5H15.5C15.7761 14.5 16 14.2761 16 14C16 13.7239 15.7761 13.5 15.5 13.5H0.5Z" fill="#40404B"/>
</svg>
