<svg width="16" height="16" viewBox="0 0 16 16" fill="none" xmlns="http://www.w3.org/2000/svg">
<mask id="path-1-inside-1_1_3906" fill="white">
<path d="M2 2.5L8 0.5L14 2.5V7.55573C14 10.5859 12.288 13.356 9.57771 14.7111L8 15.5L6.42229 14.7111C3.71202 13.356 2 10.5859 2 7.55573V2.5Z"/>
</mask>
<path d="M5.85355 7.64645C5.65829 7.45118 5.34171 7.45118 5.14645 7.64645C4.95118 7.84171 4.95118 8.15829 5.14645 8.35355L5.85355 7.64645ZM7.5 10L7.14645 10.3536C7.2443 10.4514 7.37833 10.5043 7.51664 10.4997C7.65495 10.4951 7.78516 10.4334 7.87629 10.3293L7.5 10ZM11.3763 6.32925C11.5581 6.12143 11.5371 5.80555 11.3293 5.62371C11.1214 5.44187 10.8056 5.46293 10.6237 5.67075L11.3763 6.32925ZM5.14645 8.35355C5.1484 8.35551 5.15035 8.35746 5.15231 8.35941C5.15426 8.36137 5.15621 8.36332 5.15817 8.36527C5.16012 8.36723 5.16207 8.36918 5.16402 8.37113C5.16598 8.37308 5.16793 8.37504 5.16988 8.37699C5.17184 8.37894 5.17379 8.3809 5.17574 8.38285C5.1777 8.3848 5.17965 8.38675 5.1816 8.38871C5.18355 8.39066 5.18551 8.39261 5.18746 8.39457C5.18941 8.39652 5.19137 8.39847 5.19332 8.40042C5.19527 8.40238 5.19722 8.40433 5.19918 8.40628C5.20113 8.40824 5.20308 8.41019 5.20503 8.41214C5.20699 8.41409 5.20894 8.41604 5.21089 8.418C5.21284 8.41995 5.21479 8.4219 5.21675 8.42385C5.2187 8.42581 5.22065 8.42776 5.2226 8.42971C5.22455 8.43166 5.22651 8.43361 5.22846 8.43556C5.23041 8.43752 5.23236 8.43947 5.23431 8.44142C5.23626 8.44337 5.23821 8.44532 5.24017 8.44727C5.24212 8.44922 5.24407 8.45118 5.24602 8.45313C5.24797 8.45508 5.24992 8.45703 5.25187 8.45898C5.25382 8.46093 5.25577 8.46288 5.25772 8.46483C5.25967 8.46678 5.26162 8.46873 5.26357 8.47068C5.26552 8.47263 5.26747 8.47458 5.26942 8.47653C5.27137 8.47848 5.27332 8.48043 5.27527 8.48238C5.27722 8.48433 5.27917 8.48628 5.28112 8.48823C5.28307 8.49018 5.28502 8.49213 5.28697 8.49408C5.28892 8.49602 5.29087 8.49797 5.29281 8.49992C5.29476 8.50187 5.29671 8.50382 5.29866 8.50577C5.30061 8.50771 5.30256 8.50966 5.3045 8.51161C5.30645 8.51356 5.3084 8.5155 5.31035 8.51745C5.31229 8.5194 5.31424 8.52135 5.31619 8.52329C5.31813 8.52524 5.32008 8.52719 5.32203 8.52913C5.32397 8.53108 5.32592 8.53303 5.32787 8.53497C5.32981 8.53692 5.33176 8.53886 5.3337 8.54081C5.33565 8.54276 5.33759 8.5447 5.33954 8.54665C5.34148 8.54859 5.34343 8.55054 5.34537 8.55248C5.34732 8.55442 5.34926 8.55637 5.35121 8.55831C5.35315 8.56026 5.35509 8.5622 5.35704 8.56414C5.35898 8.56609 5.36092 8.56803 5.36287 8.56997C5.36481 8.57192 5.36675 8.57386 5.36869 8.5758C5.37064 8.57774 5.37258 8.57969 5.37452 8.58163C5.37646 8.58357 5.3784 8.58551 5.38034 8.58745C5.38229 8.58939 5.38423 8.59133 5.38617 8.59327C5.38811 8.59521 5.39005 8.59716 5.39199 8.5991C5.39393 8.60104 5.39587 8.60297 5.39781 8.60491C5.39975 8.60685 5.40169 8.60879 5.40362 8.61073C5.40556 8.61267 5.4075 8.61461 5.40944 8.61655C5.41138 8.61848 5.41332 8.62042 5.41525 8.62236C5.41719 8.6243 5.41913 8.62623 5.42106 8.62817C5.423 8.63011 5.42494 8.63204 5.42687 8.63398C5.42881 8.63592 5.43074 8.63785 5.43268 8.63979C5.43461 8.64172 5.43655 8.64366 5.43848 8.64559C5.44042 8.64753 5.44235 8.64946 5.44429 8.65139C5.44622 8.65333 5.44815 8.65526 5.45009 8.65719C5.45202 8.65913 5.45395 8.66106 5.45588 8.66299C5.45782 8.66492 5.45975 8.66685 5.46168 8.66879C5.46361 8.67072 5.46554 8.67265 5.46747 8.67458C5.4694 8.67651 5.47133 8.67844 5.47326 8.68037C5.47519 8.6823 5.47712 8.68423 5.47905 8.68616C5.48098 8.68809 5.48291 8.69002 5.48484 8.69194C5.48676 8.69387 5.48869 8.6958 5.49062 8.69773C5.49255 8.69965 5.49447 8.70158 5.4964 8.70351C5.49833 8.70543 5.50025 8.70736 5.50218 8.70928C5.5041 8.71121 5.50603 8.71313 5.50795 8.71506C5.50988 8.71698 5.5118 8.71891 5.51372 8.72083C5.51565 8.72275 5.51757 8.72468 5.51949 8.7266C5.52142 8.72852 5.52334 8.73044 5.52526 8.73237C5.52718 8.73429 5.5291 8.73621 5.53102 8.73813C5.53294 8.74005 5.53486 8.74197 5.53678 8.74389C5.5387 8.74581 5.54062 8.74773 5.54254 8.74965C5.54446 8.75157 5.54638 8.75348 5.5483 8.7554C5.55021 8.75732 5.55213 8.75924 5.55405 8.76115C5.55596 8.76307 5.55788 8.76499 5.5598 8.7669C5.56171 8.76882 5.56363 8.77073 5.56554 8.77265C5.56746 8.77456 5.56937 8.77648 5.57128 8.77839C5.5732 8.7803 5.57511 8.78222 5.57702 8.78413C5.57893 8.78604 5.58085 8.78795 5.58276 8.78986C5.58467 8.79177 5.58658 8.79368 5.58849 8.7956C5.5904 8.79751 5.59231 8.79941 5.59422 8.80132C5.59613 8.80323 5.59803 8.80514 5.59994 8.80705C5.60185 8.80896 5.60376 8.81086 5.60566 8.81277C5.60757 8.81468 5.60948 8.81658 5.61138 8.81849C5.61329 8.82039 5.61519 8.8223 5.6171 8.8242C5.619 8.82611 5.6209 8.82801 5.62281 8.82991C5.62471 8.83182 5.62661 8.83372 5.62851 8.83562C5.63042 8.83752 5.63232 8.83942 5.63422 8.84132C5.63612 8.84323 5.63802 8.84513 5.63992 8.84702C5.64182 8.84892 5.64372 8.85082 5.64561 8.85272C5.64751 8.85462 5.64941 8.85652 5.65131 8.85841C5.6532 8.86031 5.6551 8.86221 5.65699 8.8641C5.65889 8.866 5.66078 8.86789 5.66268 8.86979C5.66457 8.87168 5.66647 8.87357 5.66836 8.87547C5.67025 8.87736 5.67214 8.87925 5.67404 8.88114C5.67593 8.88303 5.67782 8.88492 5.67971 8.88681C5.6816 8.8887 5.68349 8.89059 5.68538 8.89248C5.68726 8.89437 5.68915 8.89626 5.69104 8.89815C5.69293 8.90003 5.69481 8.90192 5.6967 8.90381C5.69859 8.90569 5.70047 8.90758 5.70235 8.90946C5.70424 8.91135 5.70612 8.91323 5.70801 8.91511C5.70989 8.917 5.71177 8.91888 5.71365 8.92076C5.71553 8.92264 5.71742 8.92452 5.7193 8.9264C5.72118 8.92828 5.72305 8.93016 5.72493 8.93204C5.72681 8.93392 5.72869 8.9358 5.73057 8.93767C5.73244 8.93955 5.73432 8.94143 5.7362 8.9433C5.73807 8.94518 5.73995 8.94705 5.74182 8.94893C5.74369 8.9508 5.74557 8.95267 5.74744 8.95455C5.74931 8.95642 5.75118 8.95829 5.75306 8.96016C5.75493 8.96203 5.7568 8.9639 5.75867 8.96577C5.76054 8.96764 5.7624 8.96951 5.76427 8.97138C5.76614 8.97325 5.76801 8.97511 5.76987 8.97698C5.77174 8.97885 5.77361 8.98071 5.77547 8.98258C5.77733 8.98444 5.7792 8.98631 5.78106 8.98817C5.78292 8.99003 5.78479 8.99189 5.78665 8.99375C5.78851 8.99562 5.79037 8.99748 5.79223 8.99934C5.79409 9.0012 5.79595 9.00305 5.79781 9.00491C5.79966 9.00677 5.80152 9.00863 5.80338 9.01048C5.80523 9.01234 5.80709 9.0142 5.80894 9.01605C5.8108 9.0179 5.81265 9.01976 5.8145 9.02161C5.81636 9.02346 5.81821 9.02532 5.82006 9.02717C5.82191 9.02902 5.82376 9.03087 5.82561 9.03272C5.82746 9.03457 5.82931 9.03642 5.83116 9.03826C5.833 9.04011 5.83485 9.04196 5.8367 9.0438C5.83854 9.04565 5.84039 9.04749 5.84223 9.04934C5.84408 9.05118 5.84592 9.05303 5.84776 9.05487C5.8496 9.05671 5.85144 9.05855 5.85329 9.06039C5.85513 9.06223 5.85697 9.06407 5.8588 9.06591C5.86064 9.06775 5.86248 9.06959 5.86432 9.07142C5.86615 9.07326 5.86799 9.0751 5.86982 9.07693C5.87166 9.07877 5.87349 9.0806 5.87533 9.08243C5.87716 9.08427 5.87899 9.0861 5.88082 9.08793C5.88265 9.08976 5.88448 9.09159 5.88631 9.09342C5.88814 9.09525 5.88997 9.09708 5.8918 9.0989C5.89362 9.10073 5.89545 9.10256 5.89728 9.10438C5.8991 9.10621 5.90092 9.10803 5.90275 9.10985C5.90457 9.11168 5.90639 9.1135 5.90822 9.11532C5.91004 9.11714 5.91186 9.11896 5.91368 9.12078C5.9155 9.1226 5.91731 9.12442 5.91913 9.12624C5.92095 9.12806 5.92276 9.12987 5.92458 9.13169C5.9264 9.1335 5.92821 9.13532 5.93002 9.13713C5.93184 9.13894 5.93365 9.14076 5.93546 9.14257C5.93727 9.14438 5.93908 9.14619 5.94089 9.148C5.9427 9.14981 5.94451 9.15161 5.94631 9.15342C5.94812 9.15523 5.94993 9.15703 5.95173 9.15884C5.95354 9.16064 5.95534 9.16245 5.95714 9.16425C5.95895 9.16605 5.96075 9.16786 5.96255 9.16966C5.96435 9.17146 5.96615 9.17326 5.96795 9.17506C5.96975 9.17686 5.97155 9.17865 5.97334 9.18045C5.97514 9.18225 5.97693 9.18404 5.97873 9.18583C5.98052 9.18763 5.98232 9.18942 5.98411 9.19121C5.9859 9.19301 5.98769 9.1948 5.98948 9.19659C5.99127 9.19838 5.99306 9.20017 5.99485 9.20195C5.99663 9.20374 5.99842 9.20553 6.00021 9.20731C6.00199 9.2091 6.00378 9.21088 6.00556 9.21267C6.00734 9.21445 6.00913 9.21623 6.01091 9.21801C6.01269 9.21979 6.01447 9.22157 6.01625 9.22335C6.01802 9.22513 6.0198 9.22691 6.02158 9.22869C6.02336 9.23046 6.02513 9.23224 6.0269 9.23401C6.02868 9.23579 6.03045 9.23756 6.03222 9.23933C6.034 9.2411 6.03577 9.24287 6.03754 9.24464C6.03931 9.24641 6.04107 9.24818 6.04284 9.24995C6.04461 9.25171 6.04637 9.25348 6.04814 9.25525C6.0499 9.25701 6.05167 9.25877 6.05343 9.26054C6.05519 9.2623 6.05695 9.26406 6.05871 9.26582C6.06047 9.26758 6.06223 9.26934 6.06399 9.2711C6.06575 9.27285 6.0675 9.27461 6.06926 9.27637C6.07101 9.27812 6.07277 9.27987 6.07452 9.28163C6.07627 9.28338 6.07802 9.28513 6.07977 9.28688C6.08152 9.28863 6.08327 9.29038 6.08502 9.29213C6.08677 9.29388 6.08852 9.29562 6.09026 9.29737C6.09201 9.29911 6.09375 9.30086 6.09549 9.3026C6.09724 9.30434 6.09898 9.30608 6.10072 9.30783C6.10246 9.30957 6.1042 9.31131 6.10594 9.31304C6.10767 9.31478 6.10941 9.31652 6.11115 9.31825C6.11288 9.31999 6.11461 9.32172 6.11635 9.32345C6.11808 9.32519 6.11981 9.32692 6.12154 9.32865C6.12327 9.33038 6.125 9.33211 6.12673 9.33383C6.12846 9.33556 6.13018 9.33729 6.13191 9.33901C6.13363 9.34074 6.13536 9.34246 6.13708 9.34418C6.1388 9.34591 6.14052 9.34763 6.14224 9.34935C6.14396 9.35107 6.14568 9.35279 6.1474 9.3545C6.14911 9.35622 6.15083 9.35794 6.15254 9.35965C6.15426 9.36136 6.15597 9.36308 6.15768 9.36479C6.15939 9.3665 6.1611 9.36821 6.16281 9.36992C6.16452 9.37163 6.16623 9.37334 6.16794 9.37504C6.16964 9.37675 6.17135 9.37845 6.17305 9.38016C6.17476 9.38186 6.17646 9.38356 6.17816 9.38527C6.17986 9.38697 6.18156 9.38867 6.18326 9.39036C6.18495 9.39206 6.18665 9.39376 6.18835 9.39545C6.19004 9.39715 6.19174 9.39884 6.19343 9.40054C6.19512 9.40223 6.19681 9.40392 6.1985 9.40561C6.20019 9.4073 6.20188 9.40899 6.20357 9.41067C6.20525 9.41236 6.20694 9.41405 6.20862 9.41573C6.21031 9.41742 6.21199 9.4191 6.21367 9.42078C6.21535 9.42246 6.21703 9.42414 6.21871 9.42582C6.22039 9.4275 6.22207 9.42917 6.22374 9.43085C6.22542 9.43253 6.22709 9.4342 6.22877 9.43587C6.23044 9.43755 6.23211 9.43922 6.23378 9.44089C6.23545 9.44256 6.23712 9.44422 6.23878 9.44589C6.24045 9.44756 6.24212 9.44922 6.24378 9.45089C6.24544 9.45255 6.24711 9.45421 6.24877 9.45588C6.25043 9.45754 6.25209 9.4592 6.25375 9.46085C6.25541 9.46251 6.25706 9.46417 6.25872 9.46582C6.26037 9.46748 6.26203 9.46913 6.26368 9.47078C6.26533 9.47244 6.26698 9.47409 6.26863 9.47574C6.27028 9.47739 6.27193 9.47903 6.27357 9.48068C6.27522 9.48233 6.27686 9.48397 6.27851 9.48561C6.28015 9.48726 6.28179 9.4889 6.28343 9.49054C6.28507 9.49218 6.28671 9.49382 6.28835 9.49545C6.28998 9.49709 6.29162 9.49872 6.29325 9.50036C6.29489 9.50199 6.29652 9.50363 6.29815 9.50526C6.29978 9.50689 6.30141 9.50852 6.30304 9.51014C6.30467 9.51177 6.30629 9.5134 6.30792 9.51502C6.30954 9.51665 6.31116 9.51827 6.31278 9.51989C6.31441 9.52151 6.31603 9.52313 6.31764 9.52475C6.31926 9.52637 6.32088 9.52799 6.32249 9.5296C6.32411 9.53122 6.32572 9.53283 6.32733 9.53444C6.32895 9.53605 6.33056 9.53766 6.33217 9.53927C6.33377 9.54088 6.33538 9.54249 6.33699 9.54409C6.33859 9.5457 6.3402 9.5473 6.3418 9.54891C6.3434 9.55051 6.345 9.55211 6.3466 9.55371C6.3482 9.55531 6.3498 9.5569 6.35139 9.5585C6.35299 9.5601 6.35458 9.56169 6.35618 9.56328C6.35777 9.56487 6.35936 9.56647 6.36095 9.56806C6.36254 9.56964 6.36412 9.57123 6.36571 9.57282C6.3673 9.5744 6.36888 9.57599 6.37046 9.57757C6.37205 9.57915 6.37363 9.58073 6.37521 9.58231C6.37679 9.58389 6.37836 9.58547 6.37994 9.58705C6.38152 9.58862 6.38309 9.5902 6.38466 9.59177C6.38623 9.59334 6.38781 9.59491 6.38937 9.59648C6.39094 9.59805 6.39251 9.59962 6.39408 9.60118C6.39564 9.60275 6.39721 9.60431 6.39877 9.60588C6.40033 9.60744 6.40189 9.609 6.40345 9.61056C6.40501 9.61212 6.40657 9.61368 6.40812 9.61523C6.40968 9.61679 6.41123 9.61834 6.41279 9.61989C6.41434 9.62144 6.41589 9.62299 6.41744 9.62454C6.41898 9.62609 6.42053 9.62764 6.42208 9.62918C6.42362 9.63073 6.42517 9.63227 6.42671 9.63381C6.42825 9.63536 6.42979 9.6369 6.43133 9.63843C6.43287 9.63997 6.4344 9.64151 6.43594 9.64304C6.43747 9.64458 6.439 9.64611 6.44053 9.64764C6.44207 9.64917 6.44359 9.6507 6.44512 9.65223C6.44665 9.65376 6.44818 9.65528 6.4497 9.65681C6.45122 9.65833 6.45275 9.65985 6.45427 9.66137C6.45579 9.66289 6.45731 9.66441 6.45882 9.66593C6.46034 9.66745 6.46185 9.66896 6.46337 9.67047C6.46488 9.67199 6.46639 9.6735 6.4679 9.67501C6.46941 9.67652 6.47092 9.67803 6.47242 9.67953C6.47393 9.68104 6.47543 9.68254 6.47694 9.68404C6.47844 9.68555 6.47994 9.68705 6.48144 9.68854C6.48294 9.69004 6.48443 9.69154 6.48593 9.69304C6.48742 9.69453 6.48892 9.69602 6.49041 9.69751C6.4919 9.69901 6.49339 9.70049 6.49487 9.70198C6.49636 9.70347 6.49785 9.70496 6.49933 9.70644C6.50082 9.70792 6.5023 9.7094 6.50378 9.71088C6.50526 9.71236 6.50674 9.71384 6.50821 9.71532C6.50969 9.71679 6.51116 9.71827 6.51263 9.71974C6.51411 9.72121 6.51558 9.72268 6.51705 9.72415C6.51852 9.72562 6.51998 9.72709 6.52145 9.72855C6.52291 9.73002 6.52437 9.73148 6.52584 9.73294C6.5273 9.7344 6.52876 9.73586 6.53021 9.73732C6.53167 9.73878 6.53313 9.74023 6.53458 9.74168C6.53603 9.74314 6.53748 9.74459 6.53893 9.74604C6.54038 9.74749 6.54183 9.74894 6.54328 9.75038C6.54472 9.75183 6.54616 9.75327 6.54761 9.75471C6.54905 9.75616 6.55049 9.75759 6.55193 9.75903C6.55336 9.76047 6.5548 9.76191 6.55623 9.76334C6.55767 9.76477 6.5591 9.76621 6.56053 9.76764C6.56196 9.76906 6.56339 9.77049 6.56481 9.77192C6.56624 9.77334 6.56766 9.77477 6.56908 9.77619C6.57051 9.77761 6.57193 9.77903 6.57334 9.78045C6.57476 9.78187 6.57618 9.78329 6.57759 9.7847C6.57901 9.78611 6.58042 9.78753 6.58183 9.78893C6.58324 9.79035 6.58465 9.79175 6.58605 9.79316C6.58746 9.79456 6.58886 9.79597 6.59026 9.79737C6.59167 9.79877 6.59307 9.80017 6.59446 9.80157C6.59586 9.80297 6.59726 9.80436 6.59865 9.80576C6.60004 9.80715 6.60144 9.80854 6.60283 9.80993C6.60422 9.81132 6.6056 9.81271 6.60699 9.8141C6.60837 9.81548 6.60976 9.81686 6.61114 9.81825C6.61252 9.81963 6.6139 9.82101 6.61528 9.82238C6.61665 9.82376 6.61803 9.82514 6.6194 9.82651C6.62078 9.82788 6.62215 9.82925 6.62352 9.83062C6.62489 9.83199 6.62625 9.83336 6.62762 9.83472C6.62898 9.83609 6.63034 9.83745 6.63171 9.83881C6.63307 9.84017 6.63442 9.84153 6.63578 9.84289C6.63714 9.84424 6.63849 9.8456 6.63984 9.84695C6.6412 9.8483 6.64255 9.84965 6.64389 9.851C6.64524 9.85235 6.64659 9.85369 6.64793 9.85504C6.64928 9.85638 6.65062 9.85772 6.65196 9.85906C6.6533 9.8604 6.65463 9.86174 6.65597 9.86308C6.6573 9.86441 6.65864 9.86574 6.65997 9.86707C6.6613 9.8684 6.66263 9.86973 6.66395 9.87106C6.66528 9.87239 6.6666 9.87371 6.66793 9.87503C6.66925 9.87636 6.67057 9.87768 6.67189 9.87899C6.6732 9.88031 6.67452 9.88163 6.67583 9.88294C6.67715 9.88425 6.67846 9.88556 6.67977 9.88687C6.68108 9.88818 6.68238 9.88949 6.68369 9.89079C6.68499 9.8921 6.6863 9.8934 6.6876 9.8947C6.6889 9.896 6.69019 9.8973 6.69149 9.8986C6.69279 9.89989 6.69408 9.90119 6.69537 9.90248C6.69666 9.90377 6.69795 9.90506 6.69924 9.90635C6.70053 9.90763 6.70181 9.90892 6.70309 9.9102C6.70438 9.91148 6.70566 9.91276 6.70693 9.91404C6.70821 9.91532 6.70949 9.9166 6.71076 9.91787C6.71204 9.91914 6.71331 9.92041 6.71458 9.92168C6.71585 9.92295 6.71711 9.92422 6.71838 9.92548C6.71964 9.92675 6.7209 9.92801 6.72216 9.92927C6.72342 9.93053 6.72468 9.93179 6.72594 9.93304C6.72719 9.9343 6.72845 9.93555 6.7297 9.9368C6.73095 9.93805 6.7322 9.9393 6.73344 9.94055C6.73469 9.9418 6.73593 9.94304 6.73717 9.94428C6.73842 9.94552 6.73966 9.94676 6.74089 9.948C6.74213 9.94924 6.74336 9.95047 6.7446 9.9517C6.74583 9.95294 6.74706 9.95417 6.74829 9.95539C6.74952 9.95662 6.75074 9.95785 6.75196 9.95907C6.75319 9.96029 6.75441 9.96152 6.75563 9.96273C6.75685 9.96395 6.75806 9.96517 6.75928 9.96638C6.76049 9.9676 6.7617 9.96881 6.76291 9.97002C6.76412 9.97123 6.76533 9.97243 6.76653 9.97364C6.76773 9.97484 6.76894 9.97604 6.77014 9.97724C6.77134 9.97844 6.77253 9.97964 6.77373 9.98083C6.77492 9.98203 6.77612 9.98322 6.77731 9.98441C6.7785 9.9856 6.77968 9.98679 6.78087 9.98798C6.78205 9.98916 6.78324 9.99035 6.78442 9.99153C6.7856 9.99271 6.78678 9.99388 6.78795 9.99506C6.78913 9.99624 6.7903 9.99741 6.79147 9.99858C6.79264 9.99975 6.79381 10.0009 6.79498 10.0021C6.79614 10.0033 6.79731 10.0044 6.79847 10.0056C6.79963 10.0067 6.80079 10.0079 6.80195 10.0091C6.8031 10.0102 6.80426 10.0114 6.80541 10.0125C6.80656 10.0137 6.80771 10.0148 6.80886 10.016C6.81 10.0171 6.81115 10.0183 6.81229 10.0194C6.81343 10.0205 6.81457 10.0217 6.81571 10.0228C6.81684 10.024 6.81798 10.0251 6.81911 10.0262C6.82024 10.0273 6.82137 10.0285 6.8225 10.0296C6.82363 10.0307 6.82475 10.0319 6.82587 10.033C6.82699 10.0341 6.82811 10.0352 6.82923 10.0363C6.83035 10.0375 6.83146 10.0386 6.83257 10.0397C6.83369 10.0408 6.83479 10.0419 6.8359 10.043C6.83701 10.0441 6.83811 10.0452 6.83922 10.0463C6.84032 10.0474 6.84142 10.0485 6.84251 10.0496C6.84361 10.0507 6.8447 10.0518 6.8458 10.0529C6.84689 10.054 6.84798 10.0551 6.84906 10.0562C6.85015 10.0573 6.85124 10.0583 6.85232 10.0594C6.8534 10.0605 6.85448 10.0616 6.85555 10.0627C6.85663 10.0637 6.85771 10.0648 6.85878 10.0659C6.85985 10.067 6.86092 10.068 6.86198 10.0691C6.86305 10.0702 6.86411 10.0712 6.86517 10.0723C6.86624 10.0733 6.86729 10.0744 6.86835 10.0755C6.86941 10.0765 6.87046 10.0776 6.87151 10.0786C6.87256 10.0797 6.87361 10.0807 6.87466 10.0818C6.8757 10.0828 6.87674 10.0839 6.87778 10.0849C6.87882 10.0859 6.87986 10.087 6.8809 10.088C6.88193 10.089 6.88297 10.0901 6.884 10.0911C6.88503 10.0921 6.88605 10.0932 6.88708 10.0942C6.8881 10.0952 6.88912 10.0962 6.89014 10.0973C6.89116 10.0983 6.89218 10.0993 6.89319 10.1003C6.89421 10.1013 6.89522 10.1023 6.89623 10.1033C6.89724 10.1043 6.89824 10.1054 6.89925 10.1064C6.90025 10.1074 6.90125 10.1084 6.90225 10.1094C6.90325 10.1104 6.90424 10.1114 6.90524 10.1123C6.90623 10.1133 6.90722 10.1143 6.90821 10.1153C6.90919 10.1163 6.91018 10.1173 6.91116 10.1183C6.91214 10.1193 6.91312 10.1202 6.9141 10.1212C6.91508 10.1222 6.91605 10.1232 6.91702 10.1241C6.91799 10.1251 6.91896 10.1261 6.91993 10.127C6.92089 10.128 6.92186 10.129 6.92282 10.1299C6.92378 10.1309 6.92474 10.1318 6.92569 10.1328C6.92665 10.1338 6.9276 10.1347 6.92855 10.1357C6.9295 10.1366 6.93045 10.1376 6.93139 10.1385C6.93233 10.1394 6.93327 10.1404 6.93421 10.1413C6.93515 10.1423 6.93609 10.1432 6.93702 10.1441C6.93795 10.1451 6.93888 10.146 6.93981 10.1469C6.94074 10.1478 6.94166 10.1488 6.94259 10.1497C6.94351 10.1506 6.94443 10.1515 6.94534 10.1525C6.94626 10.1534 6.94718 10.1543 6.94809 10.1552C6.949 10.1561 6.9499 10.157 6.95081 10.1579C6.95172 10.1588 6.95262 10.1597 6.95352 10.1606C6.95442 10.1615 6.95532 10.1624 6.95621 10.1633C6.9571 10.1642 6.95799 10.1651 6.95888 10.166C6.95977 10.1669 6.96066 10.1678 6.96154 10.1686C6.96242 10.1695 6.9633 10.1704 6.96418 10.1713C6.96506 10.1722 6.96593 10.173 6.9668 10.1739C6.96768 10.1748 6.96854 10.1757 6.96941 10.1765C6.97028 10.1774 6.97114 10.1782 6.972 10.1791C6.97286 10.18 6.97372 10.1808 6.97457 10.1817C6.97543 10.1825 6.97628 10.1834 6.97713 10.1842C6.97798 10.1851 6.97882 10.1859 6.97966 10.1868C6.98051 10.1876 6.98135 10.1885 6.98218 10.1893C6.98302 10.1901 6.98386 10.191 6.98469 10.1918C6.98552 10.1926 6.98635 10.1935 6.98717 10.1943C6.988 10.1951 6.98882 10.1959 6.98964 10.1967C6.99046 10.1976 6.99128 10.1984 6.99209 10.1992C6.99291 10.2 6.99372 10.2008 6.99453 10.2016C6.99533 10.2024 6.99614 10.2032 6.99694 10.204C6.99774 10.2049 6.99854 10.2057 6.99934 10.2064C7.00014 10.2072 7.00093 10.208 7.00172 10.2088C7.00251 10.2096 7.0033 10.2104 7.00408 10.2112C7.00487 10.212 7.00565 10.2128 7.00643 10.2135C7.00721 10.2143 7.00798 10.2151 7.00876 10.2159C7.00953 10.2166 7.0103 10.2174 7.01107 10.2182C7.01183 10.2189 7.0126 10.2197 7.01336 10.2205C7.01412 10.2212 7.01488 10.222 7.01563 10.2227C7.01639 10.2235 7.01714 10.2242 7.01789 10.225C7.01864 10.2257 7.01938 10.2265 7.02013 10.2272C7.02087 10.228 7.02161 10.2287 7.02235 10.2295C7.02309 10.2302 7.02382 10.2309 7.02455 10.2317C7.02528 10.2324 7.02601 10.2331 7.02673 10.2338C7.02746 10.2346 7.02818 10.2353 7.0289 10.236C7.02962 10.2367 7.03034 10.2374 7.03105 10.2382C7.03176 10.2389 7.03247 10.2396 7.03318 10.2403C7.03388 10.241 7.03459 10.2417 7.03529 10.2424C7.03599 10.2431 7.03669 10.2438 7.03738 10.2445C7.03808 10.2452 7.03877 10.2459 7.03946 10.2466C7.04014 10.2473 7.04083 10.2479 7.04151 10.2486C7.04219 10.2493 7.04287 10.25 7.04355 10.2507C7.04423 10.2513 7.0449 10.252 7.04557 10.2527C7.04624 10.2533 7.04691 10.254 7.04757 10.2547C7.04823 10.2553 7.04889 10.256 7.04955 10.2567C7.05021 10.2573 7.05086 10.258 7.05152 10.2586C7.05217 10.2593 7.05281 10.2599 7.05346 10.2606C7.0541 10.2612 7.05475 10.2619 7.05539 10.2625C7.05602 10.2631 7.05666 10.2638 7.05729 10.2644C7.05793 10.265 7.05855 10.2657 7.05918 10.2663C7.05981 10.2669 7.06043 10.2675 7.06105 10.2682C7.06167 10.2688 7.06229 10.2694 7.0629 10.27C7.06351 10.2706 7.06413 10.2712 7.06473 10.2718C7.06534 10.2724 7.06594 10.2731 7.06655 10.2737C7.06715 10.2743 7.06774 10.2749 7.06834 10.2754C7.06893 10.276 7.06952 10.2766 7.07011 10.2772C7.0707 10.2778 7.07129 10.2784 7.07187 10.279C7.07245 10.2796 7.07303 10.2801 7.0736 10.2807C7.07418 10.2813 7.07475 10.2819 7.07532 10.2824C7.07589 10.283 7.07646 10.2836 7.07702 10.2841C7.07758 10.2847 7.07814 10.2852 7.0787 10.2858C7.07925 10.2864 7.07981 10.2869 7.08036 10.2875C7.08091 10.288 7.08145 10.2886 7.082 10.2891C7.08254 10.2896 7.08308 10.2902 7.08362 10.2907C7.08415 10.2913 7.08469 10.2918 7.08522 10.2923C7.08575 10.2929 7.08627 10.2934 7.0868 10.2939C7.08732 10.2944 7.08784 10.2949 7.08836 10.2955C7.08888 10.296 7.08939 10.2965 7.0899 10.297C7.09041 10.2975 7.09092 10.298 7.09142 10.2985C7.09193 10.299 7.09243 10.2995 7.09293 10.3C7.09342 10.3005 7.09392 10.301 7.09441 10.3015C7.0949 10.302 7.09539 10.3025 7.09587 10.303C7.09636 10.3035 7.09684 10.3039 7.09731 10.3044C7.09779 10.3049 7.09827 10.3054 7.09874 10.3058C7.09921 10.3063 7.09968 10.3068 7.10014 10.3072C7.10061 10.3077 7.10107 10.3082 7.10152 10.3086C7.10198 10.3091 7.10244 10.3095 7.10289 10.31C7.10334 10.3104 7.10379 10.3109 7.10423 10.3113C7.10468 10.3118 7.10512 10.3122 7.10555 10.3127C7.10599 10.3131 7.10643 10.3135 7.10686 10.314C7.10729 10.3144 7.10772 10.3148 7.10814 10.3152C7.10856 10.3157 7.10898 10.3161 7.1094 10.3165C7.10982 10.3169 7.11023 10.3173 7.11064 10.3178C7.11106 10.3182 7.11146 10.3186 7.11187 10.319C7.11227 10.3194 7.11267 10.3198 7.11307 10.3202C7.11346 10.3206 7.11386 10.321 7.11425 10.3214C7.11464 10.3217 7.11503 10.3221 7.11541 10.3225C7.11579 10.3229 7.11617 10.3233 7.11655 10.3237C7.11693 10.324 7.1173 10.3244 7.11767 10.3248C7.11804 10.3251 7.1184 10.3255 7.11877 10.3259C7.11913 10.3262 7.11949 10.3266 7.11985 10.327C7.1202 10.3273 7.12055 10.3277 7.1209 10.328C7.12125 10.3284 7.1216 10.3287 7.12194 10.329C7.12228 10.3294 7.12262 10.3297 7.12296 10.3301C7.12329 10.3304 7.12362 10.3307 7.12395 10.3311C7.12428 10.3314 7.1246 10.3317 7.12493 10.332C7.12525 10.3324 7.12556 10.3327 7.12588 10.333C7.12619 10.3333 7.1265 10.3336 7.12681 10.3339C7.12712 10.3342 7.12742 10.3345 7.12772 10.3348C7.12802 10.3351 7.12832 10.3354 7.12861 10.3357C7.12891 10.336 7.1292 10.3363 7.12948 10.3366C7.12977 10.3369 7.13005 10.3372 7.13033 10.3374C7.13061 10.3377 7.13089 10.338 7.13116 10.3383C7.13143 10.3385 7.1317 10.3388 7.13196 10.3391C7.13223 10.3393 7.13249 10.3396 7.13275 10.3399C7.13301 10.3401 7.13326 10.3404 7.13351 10.3406C7.13376 10.3409 7.13401 10.3411 7.13425 10.3414C7.1345 10.3416 7.13474 10.3418 7.13497 10.3421C7.13521 10.3423 7.13544 10.3425 7.13567 10.3428C7.1359 10.343 7.13613 10.3432 7.13635 10.3435C7.13657 10.3437 7.13679 10.3439 7.137 10.3441C7.13722 10.3443 7.13743 10.3445 7.13764 10.3447C7.13785 10.345 7.13805 10.3452 7.13825 10.3454C7.13845 10.3456 7.13865 10.3458 7.13884 10.3459C7.13903 10.3461 7.13922 10.3463 7.13941 10.3465C7.1396 10.3467 7.13978 10.3469 7.13996 10.3471C7.14014 10.3472 7.14031 10.3474 7.14048 10.3476C7.14066 10.3478 7.14082 10.3479 7.14099 10.3481C7.14115 10.3483 7.14131 10.3484 7.14147 10.3486C7.14163 10.3487 7.14178 10.3489 7.14193 10.349C7.14208 10.3492 7.14222 10.3493 7.14237 10.3495C7.14251 10.3496 7.14265 10.3498 7.14278 10.3499C7.14292 10.35 7.14305 10.3502 7.14318 10.3503C7.1433 10.3504 7.14343 10.3505 7.14355 10.3507C7.14367 10.3508 7.14378 10.3509 7.1439 10.351C7.14401 10.3511 7.14412 10.3512 7.14422 10.3513C7.14433 10.3514 7.14443 10.3515 7.14453 10.3516C7.14463 10.3517 7.14472 10.3518 7.14481 10.3519C7.1449 10.352 7.14499 10.3521 7.14507 10.3522C7.14515 10.3523 7.14523 10.3523 7.14531 10.3524C7.14539 10.3525 7.14546 10.3526 7.14552 10.3526C7.14559 10.3527 7.14566 10.3528 7.14572 10.3528C7.14578 10.3529 7.14584 10.3529 7.14589 10.353C7.14594 10.353 7.14599 10.3531 7.14604 10.3531C7.14608 10.3532 7.14612 10.3532 7.14616 10.3533C7.1462 10.3533 7.14623 10.3533 7.14626 10.3534C7.14629 10.3534 7.14632 10.3534 7.14634 10.3535C7.14637 10.3535 7.14639 10.3535 7.1464 10.3535C7.14642 10.3535 7.14643 10.3535 7.14644 10.3535C7.14644 10.3535 7.14645 10.3536 7.5 10C7.85355 9.64645 7.85355 9.64644 7.85354 9.64643C7.85353 9.64643 7.85352 9.64642 7.85351 9.6464C7.85349 9.64639 7.85347 9.64637 7.85345 9.64634C7.85343 9.64632 7.8534 9.64629 7.85337 9.64626C7.85334 9.64623 7.85331 9.6462 7.85327 9.64616C7.85323 9.64612 7.85319 9.64608 7.85314 9.64604C7.8531 9.64599 7.85305 9.64594 7.853 9.64589C7.85294 9.64583 7.85289 9.64578 7.85282 9.64572C7.85276 9.64566 7.8527 9.64559 7.85263 9.64552C7.85256 9.64546 7.85249 9.64538 7.85242 9.64531C7.85234 9.64523 7.85226 9.64515 7.85218 9.64507C7.8521 9.64499 7.85201 9.6449 7.85192 9.64481C7.85183 9.64472 7.85173 9.64463 7.85164 9.64453C7.85154 9.64443 7.85144 9.64433 7.85133 9.64422C7.85123 9.64412 7.85112 9.64401 7.851 9.6439C7.85089 9.64378 7.85077 9.64367 7.85065 9.64355C7.85053 9.64343 7.85041 9.6433 7.85028 9.64318C7.85015 9.64305 7.85002 9.64292 7.84989 9.64278C7.84975 9.64265 7.84962 9.64251 7.84947 9.64237C7.84933 9.64222 7.84918 9.64208 7.84904 9.64193C7.84889 9.64178 7.84873 9.64163 7.84858 9.64147C7.84842 9.64131 7.84826 9.64115 7.84809 9.64099C7.84793 9.64082 7.84776 9.64065 7.84759 9.64048C7.84742 9.64031 7.84724 9.64014 7.84706 9.63996C7.84689 9.63978 7.8467 9.6396 7.84652 9.63941C7.84633 9.63922 7.84614 9.63903 7.84595 9.63884C7.84575 9.63865 7.84556 9.63845 7.84536 9.63825C7.84516 9.63805 7.84495 9.63785 7.84474 9.63764C7.84454 9.63743 7.84433 9.63722 7.84411 9.637C7.8439 9.63679 7.84368 9.63657 7.84345 9.63635C7.84323 9.63613 7.84301 9.6359 7.84278 9.63567C7.84255 9.63544 7.84232 9.63521 7.84208 9.63497C7.84184 9.63474 7.8416 9.6345 7.84136 9.63425C7.84111 9.63401 7.84087 9.63376 7.84062 9.63351C7.84037 9.63326 7.84011 9.63301 7.83985 9.63275C7.8396 9.63249 7.83933 9.63223 7.83907 9.63196C7.8388 9.6317 7.83854 9.63143 7.83826 9.63116C7.83799 9.63089 7.83772 9.63061 7.83744 9.63033C7.83716 9.63005 7.83687 9.62977 7.83659 9.62948C7.8363 9.6292 7.83601 9.62891 7.83572 9.62861C7.83543 9.62832 7.83513 9.62802 7.83483 9.62772C7.83453 9.62742 7.83423 9.62712 7.83392 9.62681C7.83361 9.6265 7.8333 9.62619 7.83299 9.62588C7.83267 9.62556 7.83235 9.62525 7.83203 9.62493C7.83171 9.6246 7.83139 9.62428 7.83106 9.62395C7.83073 9.62362 7.8304 9.62329 7.83006 9.62296C7.82973 9.62262 7.82939 9.62228 7.82905 9.62194C7.8287 9.6216 7.82836 9.62125 7.82801 9.6209C7.82766 9.62055 7.82731 9.6202 7.82695 9.61985C7.8266 9.61949 7.82624 9.61913 7.82587 9.61877C7.82551 9.6184 7.82515 9.61804 7.82478 9.61767C7.82441 9.6173 7.82403 9.61693 7.82366 9.61655C7.82328 9.61617 7.8229 9.61579 7.82252 9.61541C7.82213 9.61503 7.82175 9.61464 7.82136 9.61425C7.82097 9.61386 7.82057 9.61347 7.82017 9.61307C7.81978 9.61267 7.81938 9.61227 7.81897 9.61187C7.81857 9.61146 7.81816 9.61106 7.81775 9.61064C7.81734 9.61023 7.81693 9.60982 7.81651 9.6094C7.81609 9.60898 7.81567 9.60856 7.81525 9.60814C7.81482 9.60772 7.81439 9.60729 7.81396 9.60686C7.81353 9.60643 7.8131 9.60599 7.81266 9.60555C7.81222 9.60512 7.81178 9.60468 7.81134 9.60423C7.81089 9.60379 7.81045 9.60334 7.80999 9.60289C7.80954 9.60244 7.80909 9.60198 7.80863 9.60152C7.80817 9.60107 7.80771 9.60061 7.80725 9.60014C7.80678 9.59968 7.80632 9.59921 7.80584 9.59874C7.80537 9.59827 7.8049 9.59779 7.80442 9.59731C7.80394 9.59684 7.80346 9.59636 7.80298 9.59587C7.80249 9.59539 7.80201 9.5949 7.80152 9.59441C7.80102 9.59392 7.80053 9.59342 7.80003 9.59293C7.79954 9.59243 7.79903 9.59193 7.79853 9.59142C7.79803 9.59092 7.79752 9.59041 7.79701 9.5899C7.7965 9.58939 7.79598 9.58888 7.79547 9.58836C7.79495 9.58784 7.79443 9.58732 7.7939 9.5868C7.79338 9.58627 7.79285 9.58575 7.79232 9.58522C7.79179 9.58469 7.79126 9.58415 7.79072 9.58362C7.79019 9.58308 7.78965 9.58254 7.7891 9.582C7.78856 9.58145 7.78801 9.58091 7.78746 9.58036C7.78691 9.57981 7.78636 9.57925 7.7858 9.5787C7.78525 9.57814 7.78469 9.57758 7.78413 9.57702C7.78356 9.57646 7.783 9.57589 7.78243 9.57532C7.78186 9.57475 7.78129 9.57418 7.78071 9.5736C7.78014 9.57303 7.77956 9.57245 7.77898 9.57187C7.77839 9.57129 7.77781 9.5707 7.77722 9.57011C7.77663 9.56952 7.77604 9.56893 7.77545 9.56834C7.77485 9.56774 7.77425 9.56715 7.77365 9.56655C7.77305 9.56594 7.77245 9.56534 7.77184 9.56473C7.77123 9.56413 7.77062 9.56351 7.77001 9.5629C7.76939 9.56229 7.76878 9.56167 7.76816 9.56105C7.76754 9.56043 7.76691 9.55981 7.76629 9.55918C7.76566 9.55855 7.76503 9.55793 7.7644 9.55729C7.76377 9.55666 7.76313 9.55602 7.76249 9.55539C7.76185 9.55475 7.76121 9.5541 7.76057 9.55346C7.75992 9.55281 7.75927 9.55217 7.75862 9.55151C7.75797 9.55086 7.75732 9.55021 7.75666 9.54955C7.756 9.54889 7.75534 9.54823 7.75468 9.54757C7.75401 9.54691 7.75335 9.54624 7.75268 9.54557C7.75201 9.5449 7.75133 9.54423 7.75066 9.54355C7.74998 9.54287 7.7493 9.54219 7.74862 9.54151C7.74794 9.54083 7.74725 9.54014 7.74656 9.53946C7.74587 9.53877 7.74518 9.53808 7.74449 9.53738C7.74379 9.53669 7.7431 9.53599 7.7424 9.53529C7.74169 9.53459 7.74099 9.53388 7.74028 9.53318C7.73958 9.53247 7.73887 9.53176 7.73815 9.53105C7.73744 9.53034 7.73673 9.52962 7.73601 9.5289C7.73529 9.52818 7.73457 9.52746 7.73384 9.52673C7.73312 9.52601 7.73239 9.52528 7.73166 9.52455C7.73093 9.52382 7.73019 9.52309 7.72945 9.52235C7.72872 9.52161 7.72798 9.52087 7.72723 9.52013C7.72649 9.51939 7.72575 9.51864 7.725 9.51789C7.72425 9.51714 7.7235 9.51639 7.72274 9.51563C7.72199 9.51488 7.72123 9.51412 7.72047 9.51336C7.71971 9.5126 7.71894 9.51183 7.71817 9.51107C7.71741 9.5103 7.71664 9.50953 7.71586 9.50876C7.71509 9.50798 7.71432 9.50721 7.71354 9.50643C7.71276 9.50565 7.71198 9.50487 7.71119 9.50408C7.71041 9.5033 7.70962 9.50251 7.70883 9.50172C7.70804 9.50093 7.70724 9.50014 7.70645 9.49934C7.70565 9.49854 7.70485 9.49774 7.70405 9.49694C7.70325 9.49614 7.70244 9.49533 7.70163 9.49453C7.70082 9.49372 7.70001 9.49291 7.6992 9.49209C7.69839 9.49128 7.69757 9.49046 7.69675 9.48964C7.69593 9.48882 7.69511 9.488 7.69428 9.48717C7.69345 9.48635 7.69263 9.48552 7.69179 9.48469C7.69096 9.48386 7.69013 9.48302 7.68929 9.48218C7.68845 9.48135 7.68761 9.48051 7.68677 9.47966C7.68593 9.47882 7.68508 9.47797 7.68423 9.47713C7.68338 9.47628 7.68253 9.47543 7.68168 9.47457C7.68082 9.47372 7.67997 9.47286 7.67911 9.472C7.67825 9.47114 7.67738 9.47028 7.67652 9.46941C7.67565 9.46854 7.67478 9.46768 7.67391 9.4668C7.67304 9.46593 7.67216 9.46506 7.67129 9.46418C7.67041 9.4633 7.66953 9.46242 7.66865 9.46154C7.66776 9.46066 7.66688 9.45977 7.66599 9.45888C7.6651 9.45799 7.66421 9.4571 7.66332 9.45621C7.66242 9.45531 7.66152 9.45442 7.66062 9.45352C7.65973 9.45262 7.65882 9.45172 7.65792 9.45081C7.65701 9.44991 7.6561 9.449 7.65519 9.44809C7.65428 9.44718 7.65337 9.44626 7.65245 9.44534C7.65154 9.44443 7.65062 9.44351 7.64969 9.44259C7.64877 9.44166 7.64785 9.44074 7.64692 9.43981C7.64599 9.43888 7.64506 9.43795 7.64413 9.43702C7.64319 9.43609 7.64226 9.43515 7.64132 9.43421C7.64038 9.43328 7.63944 9.43233 7.6385 9.43139C7.63755 9.43044 7.6366 9.4295 7.63566 9.42855C7.63471 9.4276 7.63375 9.42665 7.6328 9.42569C7.63184 9.42474 7.63089 9.42378 7.62992 9.42282C7.62896 9.42186 7.628 9.42089 7.62704 9.41993C7.62607 9.41896 7.6251 9.41799 7.62413 9.41702C7.62316 9.41605 7.62218 9.41508 7.62121 9.4141C7.62023 9.41312 7.61925 9.41214 7.61827 9.41116C7.61729 9.41018 7.6163 9.40919 7.61531 9.40821C7.61433 9.40722 7.61334 9.40623 7.61234 9.40524C7.61135 9.40424 7.61035 9.40325 7.60936 9.40225C7.60836 9.40125 7.60736 9.40025 7.60635 9.39925C7.60535 9.39824 7.60434 9.39724 7.60334 9.39623C7.60233 9.39522 7.60132 9.39421 7.6003 9.39319C7.59929 9.39218 7.59827 9.39116 7.59725 9.39014C7.59623 9.38912 7.59521 9.3881 7.59418 9.38708C7.59316 9.38605 7.59213 9.38503 7.5911 9.384C7.59007 9.38297 7.58904 9.38193 7.588 9.3809C7.58697 9.37986 7.58593 9.37882 7.58489 9.37778C7.58385 9.37674 7.58281 9.3757 7.58176 9.37465C7.58072 9.37361 7.57967 9.37256 7.57862 9.37151C7.57757 9.37046 7.57651 9.36941 7.57546 9.36835C7.5744 9.36729 7.57334 9.36624 7.57228 9.36517C7.57122 9.36411 7.57016 9.36305 7.56909 9.36198C7.56802 9.36092 7.56695 9.35985 7.56588 9.35878C7.56481 9.35771 7.56374 9.35663 7.56266 9.35555C7.56158 9.35448 7.56051 9.3534 7.55942 9.35232C7.55834 9.35124 7.55726 9.35015 7.55617 9.34906C7.55508 9.34798 7.554 9.34689 7.5529 9.3458C7.55181 9.3447 7.55072 9.34361 7.54962 9.34251C7.54852 9.34142 7.54742 9.34032 7.54632 9.33922C7.54522 9.33811 7.54412 9.33701 7.54301 9.3359C7.5419 9.33479 7.54079 9.33368 7.53968 9.33257C7.53857 9.33146 7.53745 9.33035 7.53634 9.32923C7.53522 9.32811 7.5341 9.32699 7.53298 9.32587C7.53186 9.32475 7.53073 9.32362 7.5296 9.3225C7.52848 9.32137 7.52735 9.32024 7.52622 9.31911C7.52508 9.31798 7.52395 9.31684 7.52281 9.31571C7.52168 9.31457 7.52054 9.31343 7.5194 9.31229C7.51825 9.31115 7.51711 9.31 7.51596 9.30886C7.51482 9.30771 7.51367 9.30656 7.51252 9.30541C7.51136 9.30426 7.51021 9.3031 7.50905 9.30195C7.5079 9.30079 7.50674 9.29963 7.50558 9.29847C7.50442 9.29731 7.50325 9.29615 7.50209 9.29498C7.50092 9.29381 7.49975 9.29264 7.49858 9.29147C7.49741 9.2903 7.49624 9.28913 7.49506 9.28795C7.49388 9.28678 7.49271 9.2856 7.49153 9.28442C7.49034 9.28324 7.48916 9.28205 7.48798 9.28087C7.48679 9.27968 7.4856 9.2785 7.48441 9.27731C7.48322 9.27612 7.48203 9.27492 7.48083 9.27373C7.47964 9.27253 7.47844 9.27134 7.47724 9.27014C7.47604 9.26894 7.47484 9.26773 7.47364 9.26653C7.47243 9.26533 7.47123 9.26412 7.47002 9.26291C7.46881 9.2617 7.4676 9.26049 7.46638 9.25928C7.46517 9.25806 7.46395 9.25685 7.46273 9.25563C7.46151 9.25441 7.46029 9.25319 7.45907 9.25196C7.45785 9.25074 7.45662 9.24952 7.45539 9.24829C7.45417 9.24706 7.45294 9.24583 7.4517 9.2446C7.45047 9.24336 7.44924 9.24213 7.448 9.24089C7.44676 9.23966 7.44552 9.23842 7.44428 9.23717C7.44304 9.23593 7.4418 9.23469 7.44055 9.23344C7.4393 9.2322 7.43805 9.23095 7.4368 9.2297C7.43555 9.22845 7.4343 9.22719 7.43304 9.22594C7.43179 9.22468 7.43053 9.22342 7.42927 9.22216C7.42801 9.2209 7.42675 9.21964 7.42548 9.21838C7.42422 9.21711 7.42295 9.21585 7.42168 9.21458C7.42041 9.21331 7.41914 9.21204 7.41787 9.21076C7.41659 9.20949 7.41532 9.20821 7.41404 9.20693C7.41276 9.20566 7.41148 9.20438 7.4102 9.20309C7.40892 9.20181 7.40763 9.20053 7.40635 9.19924C7.40506 9.19795 7.40377 9.19666 7.40248 9.19537C7.40119 9.19408 7.39989 9.19279 7.3986 9.19149C7.3973 9.19019 7.396 9.1889 7.3947 9.1876C7.3934 9.1863 7.3921 9.18499 7.39079 9.18369C7.38949 9.18238 7.38818 9.18108 7.38687 9.17977C7.38556 9.17846 7.38425 9.17715 7.38294 9.17583C7.38163 9.17452 7.38031 9.1732 7.37899 9.17189C7.37768 9.17057 7.37636 9.16925 7.37503 9.16793C7.37371 9.1666 7.37239 9.16528 7.37106 9.16395C7.36973 9.16263 7.3684 9.1613 7.36707 9.15997C7.36574 9.15864 7.36441 9.1573 7.36307 9.15597C7.36174 9.15463 7.3604 9.1533 7.35906 9.15196C7.35772 9.15062 7.35638 9.14927 7.35504 9.14793C7.35369 9.14659 7.35235 9.14524 7.351 9.14389C7.34965 9.14255 7.3483 9.1412 7.34695 9.13984C7.3456 9.13849 7.34424 9.13714 7.34289 9.13578C7.34153 9.13442 7.34017 9.13307 7.33881 9.13171C7.33745 9.13034 7.33609 9.12898 7.33472 9.12762C7.33336 9.12625 7.33199 9.12489 7.33062 9.12352C7.32925 9.12215 7.32788 9.12078 7.32651 9.1194C7.32514 9.11803 7.32376 9.11665 7.32238 9.11528C7.32101 9.1139 7.31963 9.11252 7.31825 9.11114C7.31686 9.10976 7.31548 9.10837 7.3141 9.10699C7.31271 9.1056 7.31132 9.10422 7.30993 9.10283C7.30854 9.10144 7.30715 9.10004 7.30576 9.09865C7.30436 9.09726 7.30297 9.09586 7.30157 9.09446C7.30017 9.09307 7.29877 9.09167 7.29737 9.09026C7.29597 9.08886 7.29456 9.08746 7.29316 9.08605C7.29175 9.08465 7.29034 9.08324 7.28893 9.08183C7.28752 9.08042 7.28611 9.07901 7.2847 9.07759C7.28329 9.07618 7.28187 9.07476 7.28045 9.07334C7.27903 9.07193 7.27761 9.07051 7.27619 9.06908C7.27477 9.06766 7.27334 9.06624 7.27192 9.06481C7.27049 9.06339 7.26907 9.06196 7.26764 9.06053C7.26621 9.0591 7.26477 9.05767 7.26334 9.05623C7.26191 9.0548 7.26047 9.05336 7.25903 9.05193C7.25759 9.05049 7.25615 9.04905 7.25471 9.04761C7.25327 9.04616 7.25183 9.04472 7.25038 9.04327C7.24894 9.04183 7.24749 9.04038 7.24604 9.03893C7.24459 9.03748 7.24314 9.03603 7.24169 9.03458C7.24023 9.03312 7.23878 9.03167 7.23732 9.03021C7.23586 9.02876 7.2344 9.0273 7.23294 9.02584C7.23148 9.02437 7.23002 9.02291 7.22855 9.02145C7.22709 9.01998 7.22562 9.01851 7.22415 9.01705C7.22268 9.01558 7.22121 9.01411 7.21974 9.01263C7.21827 9.01116 7.21679 9.00969 7.21532 9.00821C7.21384 9.00674 7.21236 9.00526 7.21088 9.00378C7.2094 9.0023 7.20792 9.00082 7.20644 8.99933C7.20496 8.99785 7.20347 8.99636 7.20198 8.99487C7.20049 8.99339 7.19901 8.9919 7.19751 8.99041C7.19602 8.98892 7.19453 8.98742 7.19303 8.98593C7.19154 8.98443 7.19004 8.98294 7.18854 8.98144C7.18705 8.97994 7.18555 8.97844 7.18404 8.97694C7.18254 8.97543 7.18104 8.97393 7.17953 8.97242C7.17803 8.97092 7.17652 8.96941 7.17501 8.9679C7.1735 8.96639 7.17199 8.96488 7.17047 8.96337C7.16896 8.96185 7.16745 8.96034 7.16593 8.95882C7.16441 8.9573 7.16289 8.95579 7.16137 8.95427C7.15985 8.95275 7.15833 8.95122 7.15681 8.9497C7.15528 8.94818 7.15376 8.94665 7.15223 8.94512C7.1507 8.94359 7.14917 8.94207 7.14764 8.94053C7.14611 8.939 7.14458 8.93747 7.14304 8.93594C7.14151 8.9344 7.13997 8.93287 7.13843 8.93133C7.1369 8.92979 7.13536 8.92825 7.13381 8.92671C7.13227 8.92517 7.13073 8.92362 7.12918 8.92208C7.12764 8.92053 7.12609 8.91898 7.12454 8.91744C7.12299 8.91589 7.12144 8.91434 7.11989 8.91278C7.11834 8.91123 7.11679 8.90968 7.11523 8.90812C7.11367 8.90657 7.11212 8.90501 7.11056 8.90345C7.109 8.90189 7.10744 8.90033 7.10588 8.89877C7.10431 8.89721 7.10275 8.89564 7.10118 8.89408C7.09962 8.89251 7.09805 8.89094 7.09648 8.88937C7.09491 8.88781 7.09334 8.88623 7.09177 8.88466C7.0902 8.88309 7.08862 8.88152 7.08705 8.87994C7.08547 8.87836 7.08389 8.87679 7.08231 8.87521C7.08073 8.87363 7.07915 8.87205 7.07757 8.87046C7.07599 8.86888 7.0744 8.8673 7.07282 8.86571C7.07123 8.86412 7.06964 8.86254 7.06805 8.86095C7.06647 8.85936 7.06487 8.85777 7.06328 8.85618C7.06169 8.85458 7.0601 8.85299 7.0585 8.85139C7.0569 8.8498 7.05531 8.8482 7.05371 8.8466C7.05211 8.845 7.05051 8.8434 7.04891 8.8418C7.0473 8.8402 7.0457 8.83859 7.04409 8.83699C7.04249 8.83538 7.04088 8.83377 7.03927 8.83217C7.03766 8.83056 7.03605 8.82895 7.03444 8.82733C7.03283 8.82572 7.03122 8.82411 7.0296 8.82249C7.02799 8.82088 7.02637 8.81926 7.02475 8.81764C7.02313 8.81603 7.02151 8.81441 7.01989 8.81278C7.01827 8.81116 7.01665 8.80954 7.01502 8.80792C7.0134 8.80629 7.01177 8.80466 7.01014 8.80304C7.00852 8.80141 7.00689 8.79978 7.00526 8.79815C7.00363 8.79652 7.00199 8.79489 7.00036 8.79325C6.99873 8.79162 6.99709 8.78998 6.99545 8.78835C6.99382 8.78671 6.99218 8.78507 6.99054 8.78343C6.9889 8.78179 6.98726 8.78015 6.98561 8.77851C6.98397 8.77686 6.98233 8.77522 6.98068 8.77357C6.97903 8.77193 6.97739 8.77028 6.97574 8.76863C6.97409 8.76698 6.97244 8.76533 6.97078 8.76368C6.96913 8.76203 6.96748 8.76037 6.96582 8.75872C6.96417 8.75706 6.96251 8.75541 6.96085 8.75375C6.9592 8.75209 6.95754 8.75043 6.95588 8.74877C6.95421 8.74711 6.95255 8.74545 6.95089 8.74378C6.94922 8.74212 6.94756 8.74045 6.94589 8.73878C6.94422 8.73712 6.94256 8.73545 6.94089 8.73378C6.93922 8.73211 6.93755 8.73044 6.93587 8.72877C6.9342 8.72709 6.93253 8.72542 6.93085 8.72374C6.92917 8.72207 6.9275 8.72039 6.92582 8.71871C6.92414 8.71703 6.92246 8.71535 6.92078 8.71367C6.9191 8.71199 6.91742 8.71031 6.91573 8.70862C6.91405 8.70694 6.91236 8.70525 6.91067 8.70357C6.90899 8.70188 6.9073 8.70019 6.90561 8.6985C6.90392 8.69681 6.90223 8.69512 6.90054 8.69343C6.89884 8.69174 6.89715 8.69004 6.89545 8.68835C6.89376 8.68665 6.89206 8.68495 6.89036 8.68326C6.88867 8.68156 6.88697 8.67986 6.88526 8.67816C6.88356 8.67646 6.88186 8.67476 6.88016 8.67305C6.87845 8.67135 6.87675 8.66964 6.87504 8.66794C6.87334 8.66623 6.87163 8.66452 6.86992 8.66281C6.86821 8.6611 6.8665 8.65939 6.86479 8.65768C6.86308 8.65597 6.86136 8.65426 6.85965 8.65254C6.85794 8.65083 6.85622 8.64911 6.8545 8.6474C6.85279 8.64568 6.85107 8.64396 6.84935 8.64224C6.84763 8.64052 6.84591 8.6388 6.84418 8.63708C6.84246 8.63535 6.84074 8.63363 6.83901 8.63191C6.83729 8.63018 6.83556 8.62846 6.83383 8.62673C6.83211 8.625 6.83038 8.62327 6.82865 8.62154C6.82692 8.61981 6.82519 8.61808 6.82345 8.61635C6.82172 8.61461 6.81999 8.61288 6.81825 8.61115C6.81652 8.60941 6.81478 8.60767 6.81304 8.60594C6.8113 8.6042 6.80957 8.60246 6.80783 8.60072C6.80609 8.59898 6.80434 8.59724 6.8026 8.59549C6.80086 8.59375 6.79911 8.59201 6.79737 8.59026C6.79562 8.58852 6.79388 8.58677 6.79213 8.58502C6.79038 8.58327 6.78863 8.58152 6.78688 8.57977C6.78513 8.57802 6.78338 8.57627 6.78163 8.57452C6.77987 8.57277 6.77812 8.57101 6.77636 8.56926C6.77461 8.5675 6.77285 8.56575 6.7711 8.56399C6.76934 8.56223 6.76758 8.56047 6.76582 8.55871C6.76406 8.55695 6.7623 8.55519 6.76054 8.55343C6.75877 8.55167 6.75701 8.5499 6.75525 8.54814C6.75348 8.54637 6.75171 8.54461 6.74995 8.54284C6.74818 8.54107 6.74641 8.5393 6.74464 8.53754C6.74287 8.53577 6.7411 8.534 6.73933 8.53222C6.73756 8.53045 6.73579 8.52868 6.73401 8.52691C6.73224 8.52513 6.73046 8.52336 6.72869 8.52158C6.72691 8.5198 6.72513 8.51802 6.72335 8.51625C6.72157 8.51447 6.71979 8.51269 6.71801 8.51091C6.71623 8.50913 6.71445 8.50734 6.71267 8.50556C6.71088 8.50378 6.7091 8.50199 6.70731 8.50021C6.70553 8.49842 6.70374 8.49663 6.70195 8.49485C6.70017 8.49306 6.69838 8.49127 6.69659 8.48948C6.6948 8.48769 6.69301 8.4859 6.69121 8.48411C6.68942 8.48232 6.68763 8.48052 6.68583 8.47873C6.68404 8.47693 6.68225 8.47514 6.68045 8.47334C6.67865 8.47155 6.67685 8.46975 6.67506 8.46795C6.67326 8.46615 6.67146 8.46435 6.66966 8.46255C6.66786 8.46075 6.66605 8.45895 6.66425 8.45714C6.66245 8.45534 6.66064 8.45354 6.65884 8.45173C6.65703 8.44993 6.65523 8.44812 6.65342 8.44631C6.65161 8.44451 6.64981 8.4427 6.648 8.44089C6.64619 8.43908 6.64438 8.43727 6.64257 8.43546C6.64076 8.43365 6.63894 8.43184 6.63713 8.43002C6.63532 8.42821 6.6335 8.4264 6.63169 8.42458C6.62987 8.42276 6.62806 8.42095 6.62624 8.41913C6.62442 8.41731 6.6226 8.4155 6.62078 8.41368C6.61896 8.41186 6.61714 8.41004 6.61532 8.40822C6.6135 8.40639 6.61168 8.40457 6.60985 8.40275C6.60803 8.40092 6.60621 8.3991 6.60438 8.39727C6.60256 8.39545 6.60073 8.39362 6.5989 8.3918C6.59708 8.38997 6.59525 8.38814 6.59342 8.38631C6.59159 8.38448 6.58976 8.38265 6.58793 8.38082C6.5861 8.37899 6.58427 8.37716 6.58243 8.37533C6.5806 8.37349 6.57877 8.37166 6.57693 8.36982C6.5751 8.36799 6.57326 8.36615 6.57142 8.36432C6.56959 8.36248 6.56775 8.36064 6.56591 8.3588C6.56407 8.35697 6.56223 8.35513 6.56039 8.35329C6.55855 8.35144 6.55671 8.3496 6.55487 8.34776C6.55303 8.34592 6.55118 8.34408 6.54934 8.34223C6.54749 8.34039 6.54565 8.33854 6.5438 8.3367C6.54196 8.33485 6.54011 8.333 6.53826 8.33116C6.53642 8.32931 6.53457 8.32746 6.53272 8.32561C6.53087 8.32376 6.52902 8.32191 6.52717 8.32006C6.52532 8.31821 6.52346 8.31636 6.52161 8.3145C6.51976 8.31265 6.5179 8.3108 6.51605 8.30894C6.5142 8.30709 6.51234 8.30523 6.51048 8.30338C6.50863 8.30152 6.50677 8.29966 6.50491 8.29781C6.50305 8.29595 6.5012 8.29409 6.49934 8.29223C6.49748 8.29037 6.49562 8.28851 6.49375 8.28665C6.49189 8.28479 6.49003 8.28292 6.48817 8.28106C6.4863 8.2792 6.48444 8.27733 6.48258 8.27547C6.48071 8.27361 6.47885 8.27174 6.47698 8.26987C6.47511 8.26801 6.47325 8.26614 6.47138 8.26427C6.46951 8.2624 6.46764 8.26054 6.46577 8.25867C6.4639 8.2568 6.46203 8.25493 6.46016 8.25306C6.45829 8.25118 6.45642 8.24931 6.45455 8.24744C6.45267 8.24557 6.4508 8.24369 6.44893 8.24182C6.44705 8.23995 6.44518 8.23807 6.4433 8.2362C6.44143 8.23432 6.43955 8.23244 6.43767 8.23057C6.4358 8.22869 6.43392 8.22681 6.43204 8.22493C6.43016 8.22305 6.42828 8.22118 6.4264 8.2193C6.42452 8.21742 6.42264 8.21553 6.42076 8.21365C6.41888 8.21177 6.417 8.20989 6.41511 8.20801C6.41323 8.20612 6.41135 8.20424 6.40946 8.20235C6.40758 8.20047 6.40569 8.19859 6.40381 8.1967C6.40192 8.19481 6.40003 8.19293 6.39815 8.19104C6.39626 8.18915 6.39437 8.18726 6.39248 8.18538C6.39059 8.18349 6.3887 8.1816 6.38681 8.17971C6.38492 8.17782 6.38303 8.17593 6.38114 8.17404C6.37925 8.17214 6.37736 8.17025 6.37547 8.16836C6.37357 8.16647 6.37168 8.16457 6.36979 8.16268C6.36789 8.16078 6.366 8.15889 6.3641 8.15699C6.36221 8.1551 6.36031 8.1532 6.35841 8.15131C6.35652 8.14941 6.35462 8.14751 6.35272 8.14561C6.35082 8.14372 6.34892 8.14182 6.34702 8.13992C6.34513 8.13802 6.34323 8.13612 6.34132 8.13422C6.33942 8.13232 6.33752 8.13042 6.33562 8.12851C6.33372 8.12661 6.33182 8.12471 6.32991 8.12281C6.32801 8.1209 6.32611 8.119 6.3242 8.1171C6.3223 8.11519 6.32039 8.11329 6.31849 8.11138C6.31658 8.10948 6.31468 8.10757 6.31277 8.10566C6.31086 8.10376 6.30896 8.10185 6.30705 8.09994C6.30514 8.09803 6.30323 8.09613 6.30132 8.09422C6.29942 8.09231 6.29751 8.0904 6.2956 8.08849C6.29368 8.08658 6.29177 8.08467 6.28986 8.08276C6.28795 8.08085 6.28604 8.07893 6.28413 8.07702C6.28222 8.07511 6.2803 8.0732 6.27839 8.07128C6.27648 8.06937 6.27456 8.06746 6.27265 8.06554C6.27073 8.06363 6.26882 8.06171 6.2669 8.0598C6.26499 8.05788 6.26307 8.05596 6.26115 8.05405C6.25924 8.05213 6.25732 8.05021 6.2554 8.0483C6.25349 8.04638 6.25157 8.04446 6.24965 8.04254C6.24773 8.04062 6.24581 8.0387 6.24389 8.03678C6.24197 8.03486 6.24005 8.03294 6.23813 8.03102C6.23621 8.0291 6.23429 8.02718 6.23237 8.02526C6.23044 8.02334 6.22852 8.02142 6.2266 8.01949C6.22468 8.01757 6.22275 8.01565 6.22083 8.01372C6.21891 8.0118 6.21698 8.00988 6.21506 8.00795C6.21313 8.00603 6.21121 8.0041 6.20928 8.00218C6.20736 8.00025 6.20543 7.99833 6.20351 7.9964C6.20158 7.99447 6.19965 7.99255 6.19773 7.99062C6.1958 7.98869 6.19387 7.98676 6.19194 7.98484C6.19002 7.98291 6.18809 7.98098 6.18616 7.97905C6.18423 7.97712 6.1823 7.97519 6.18037 7.97326C6.17844 7.97133 6.17651 7.9694 6.17458 7.96747C6.17265 7.96554 6.17072 7.96361 6.16879 7.96168C6.16685 7.95975 6.16492 7.95782 6.16299 7.95588C6.16106 7.95395 6.15913 7.95202 6.15719 7.95009C6.15526 7.94815 6.15333 7.94622 6.15139 7.94429C6.14946 7.94235 6.14753 7.94042 6.14559 7.93848C6.14366 7.93655 6.14172 7.93461 6.13979 7.93268C6.13785 7.93074 6.13592 7.92881 6.13398 7.92687C6.13204 7.92494 6.13011 7.923 6.12817 7.92106C6.12623 7.91913 6.1243 7.91719 6.12236 7.91525C6.12042 7.91332 6.11848 7.91138 6.11655 7.90944C6.11461 7.9075 6.11267 7.90556 6.11073 7.90362C6.10879 7.90169 6.10685 7.89975 6.10491 7.89781C6.10297 7.89587 6.10104 7.89393 6.0991 7.89199C6.09716 7.89005 6.09521 7.88811 6.09327 7.88617C6.09133 7.88423 6.08939 7.88229 6.08745 7.88034C6.08551 7.8784 6.08357 7.87646 6.08163 7.87452C6.07969 7.87258 6.07774 7.87064 6.0758 7.86869C6.07386 7.86675 6.07192 7.86481 6.06997 7.86287C6.06803 7.86092 6.06609 7.85898 6.06414 7.85704C6.0622 7.85509 6.06026 7.85315 6.05831 7.85121C6.05637 7.84926 6.05442 7.84732 6.05248 7.84537C6.05053 7.84343 6.04859 7.84148 6.04665 7.83954C6.0447 7.83759 6.04275 7.83565 6.04081 7.8337C6.03886 7.83176 6.03692 7.82981 6.03497 7.82787C6.03303 7.82592 6.03108 7.82397 6.02913 7.82203C6.02719 7.82008 6.02524 7.81813 6.02329 7.81619C6.02135 7.81424 6.0194 7.81229 6.01745 7.81035C6.0155 7.8084 6.01356 7.80645 6.01161 7.8045C6.00966 7.80256 6.00771 7.80061 6.00577 7.79866C6.00382 7.79671 6.00187 7.79476 5.99992 7.79281C5.99797 7.79087 5.99602 7.78892 5.99408 7.78697C5.99213 7.78502 5.99018 7.78307 5.98823 7.78112C5.98628 7.77917 5.98433 7.77722 5.98238 7.77527C5.98043 7.77332 5.97848 7.77137 5.97653 7.76942C5.97458 7.76747 5.97263 7.76552 5.97068 7.76357C5.96873 7.76162 5.96678 7.75967 5.96483 7.75772C5.96288 7.75577 5.96093 7.75382 5.95898 7.75187C5.95703 7.74992 5.95508 7.74797 5.95313 7.74602C5.95118 7.74407 5.94922 7.74212 5.94727 7.74017C5.94532 7.73821 5.94337 7.73626 5.94142 7.73431C5.93947 7.73236 5.93752 7.73041 5.93556 7.72846C5.93361 7.72651 5.93166 7.72455 5.92971 7.7226C5.92776 7.72065 5.92581 7.7187 5.92385 7.71675C5.9219 7.71479 5.91995 7.71284 5.918 7.71089C5.91604 7.70894 5.91409 7.70699 5.91214 7.70503C5.91019 7.70308 5.90823 7.70113 5.90628 7.69918C5.90433 7.69722 5.90238 7.69527 5.90042 7.69332C5.89847 7.69137 5.89652 7.68941 5.89457 7.68746C5.89261 7.68551 5.89066 7.68355 5.88871 7.6816C5.88676 7.67965 5.8848 7.6777 5.88285 7.67574C5.8809 7.67379 5.87894 7.67184 5.87699 7.66988C5.87504 7.66793 5.87308 7.66598 5.87113 7.66402C5.86918 7.66207 5.86723 7.66012 5.86527 7.65817C5.86332 7.65621 5.86137 7.65426 5.85941 7.65231C5.85746 7.65035 5.85551 7.6484 5.85355 7.64645L5.14645 8.35355ZM7.87629 10.3293L11.3763 6.32925L10.6237 5.67075L7.12371 9.67075L7.87629 10.3293ZM2 2.5L1.68377 1.55132L1 1.77924V2.5H2ZM14 2.5H15V1.77924L14.3162 1.55132L14 2.5ZM8 0.5L8.31623 -0.448683L8 -0.554093L7.68377 -0.448683L8 0.5ZM8 15.5L7.55279 16.3944L8 16.618L8.44721 16.3944L8 15.5ZM13 2.5V7.55573H15V2.5H13ZM3 7.55573V2.5H1V7.55573H3ZM2.31623 3.44868L8.31623 1.44868L7.68377 -0.448683L1.68377 1.55132L2.31623 3.44868ZM7.68377 1.44868L13.6838 3.44868L14.3162 1.55132L8.31623 -0.448683L7.68377 1.44868ZM9.1305 13.8167L7.55279 14.6056L8.44721 16.3944L10.0249 15.6056L9.1305 13.8167ZM8.44721 14.6056L6.8695 13.8167L5.97508 15.6056L7.55279 16.3944L8.44721 14.6056ZM1 7.55573C1 10.9647 2.92602 14.081 5.97508 15.6056L6.8695 13.8167C4.49802 12.631 3 10.2071 3 7.55573H1ZM13 7.55573C13 10.2071 11.502 12.631 9.1305 13.8167L10.0249 15.6056C13.074 14.081 15 10.9647 15 7.55573H13Z" fill="#40404B" mask="url(#path-1-inside-1_1_3906)"/>
</svg>
