<svg width="16" height="16" viewBox="0 0 16 16" fill="none" xmlns="http://www.w3.org/2000/svg">
<path fill-rule="evenodd" clip-rule="evenodd" d="M13 0C14.6569 0 16 1.34315 16 3V13C16 14.6569 14.6569 16 13 16H3C1.34315 16 0 14.6569 0 13V3C0 1.34315 1.34315 0 3 0H13ZM13 1H3C1.94564 1 1.08183 1.81588 1.00549 2.85074L1 3V13C1 14.0544 1.81588 14.9182 2.85074 14.9945L3 15H13C14.0544 15 14.9182 14.1841 14.9945 13.1493L15 13V3C15 1.94564 14.1841 1.08183 13.1493 1.00549L13 1ZM13.0413 8.50125L8 2.19961L2.95969 8.5H6V13.5H10V8.497L13.0413 8.50125ZM8 3.8L10.958 7.499L9 7.4964V12.5H7V7.5H5.04L8 3.8Z" fill="#40404B"/>
</svg>
