<svg width="16" height="16" viewBox="0 0 16 16" fill="none" xmlns="http://www.w3.org/2000/svg">
<path fill-rule="evenodd" clip-rule="evenodd" d="M15.1667 2.66666C15.1667 2.39052 14.9428 2.16666 14.6667 2.16666C14.3905 2.16666 14.1667 2.39052 14.1667 2.66666V4.14554C12.6189 2.68715 10.7091 1.27292 8.00001 1.27292C4.77137 1.27292 2.678 3.28156 0.97979 4.97977C0.784528 5.17503 0.784528 5.49162 0.97979 5.68688C1.17505 5.88214 1.49163 5.88214 1.6869 5.68688C3.40256 3.97122 5.22865 2.27292 8.00001 2.27292C10.3067 2.27292 11.9586 3.44948 13.4369 4.83332L12 4.83332C11.7239 4.83332 11.5 5.05718 11.5 5.33332C11.5 5.60947 11.7239 5.83332 12 5.83332L14.6667 5.83332L15.1667 5.83332L15.1667 5.33332V2.66666ZM3.7 9H2.3C1.58203 9 1 9.58203 1 10.3V13.7C1 14.418 1.58203 15 2.3 15H3.7C4.41797 15 5 14.418 5 13.7V10.3C5 9.58203 4.41797 9 3.7 9ZM2 10.3C2 10.1343 2.13431 10 2.3 10H3.7C3.86569 10 4 10.1343 4 10.3V13.7C4 13.8657 3.86569 14 3.7 14H2.3C2.13431 14 2 13.8657 2 13.7V10.3ZM7.3 9H8.7C9.41797 9 10 9.58203 10 10.3V13.7C10 14.418 9.41797 15 8.7 15H7.3C6.58203 15 6 14.418 6 13.7V10.3C6 9.58203 6.58203 9 7.3 9ZM7.3 10C7.13431 10 7 10.1343 7 10.3V13.7C7 13.8657 7.13431 14 7.3 14H8.7C8.86569 14 9 13.8657 9 13.7V10.3C9 10.1343 8.86569 10 8.7 10H7.3ZM13.7 9H12.3C11.582 9 11 9.58203 11 10.3V13.7C11 14.418 11.582 15 12.3 15H13.7C14.418 15 15 14.418 15 13.7V10.3C15 9.58203 14.418 9 13.7 9ZM12 10.3C12 10.1343 12.1343 10 12.3 10H13.7C13.8657 10 14 10.1343 14 10.3V13.7C14 13.8657 13.8657 14 13.7 14H12.3C12.1343 14 12 13.8657 12 13.7V10.3Z" fill="#40404B"/>
</svg>
