<svg width="16" height="16" viewBox="0 0 16 16" fill="none" xmlns="http://www.w3.org/2000/svg">
<g clip-path="url(#clip0_1_3904)">
<path fill-rule="evenodd" clip-rule="evenodd" d="M4 16L4.35329 15.6467C4.35344 15.6465 4.3536 15.6464 4.35375 15.6462L7.35355 12.6464C7.54882 12.4512 7.54882 12.1346 7.35355 11.9393C7.15829 11.7441 6.84171 11.7441 6.64645 11.9393L4.5 14.0858V4.79288C4.5 4.51674 4.27614 4.29288 4 4.29288C3.72386 4.29288 3.5 4.51674 3.5 4.79288V14.0858L1.35355 11.9393C1.15829 11.7441 0.841709 11.7441 0.646447 11.9393C0.451184 12.1346 0.451184 12.4512 0.646447 12.6464L3.64625 15.6462C3.64631 15.6463 3.64638 15.6464 3.64645 15.6464L4 16ZM5 0.79288C5 0.516738 5.22386 0.29288 5.5 0.29288L15.5 0.292879C15.7761 0.292879 16 0.516736 16 0.792879C16 1.06902 15.7761 1.29288 15.5 1.29288L5.5 1.29288C5.22386 1.29288 5 1.06902 5 0.79288ZM8 4.79288C8 4.51674 8.22386 4.29288 8.5 4.29288L15.5 4.29288C15.7761 4.29288 16 4.51674 16 4.79288C16 5.06902 15.7761 5.29288 15.5 5.29288L8.5 5.29288C8.22386 5.29288 8 5.06902 8 4.79288ZM11.5 8.29288C11.2239 8.29288 11 8.51674 11 8.79288C11 9.06902 11.2239 9.29288 11.5 9.29288L15.5 9.29288C15.7761 9.29288 16 9.06902 16 8.79288C16 8.51674 15.7761 8.29288 15.5 8.29288L11.5 8.29288ZM14 12.7929C14 12.5167 14.2239 12.2929 14.5 12.2929L15.5 12.2929C15.7761 12.2929 16 12.5167 16 12.7929C16 13.069 15.7761 13.2929 15.5 13.2929L14.5 13.2929C14.2239 13.2929 14 13.069 14 12.7929Z" fill="#40404B"/>
</g>
<defs>
<clipPath id="clip0_1_3904">
<rect width="16" height="16" fill="white"/>
</clipPath>
</defs>
</svg>
