<svg width="16" height="16" viewBox="0 0 16 16" fill="none" xmlns="http://www.w3.org/2000/svg">
<g clip-path="url(#clip0_1_3903)">
<path fill-rule="evenodd" clip-rule="evenodd" d="M4 0.292893L4.35329 0.646182C4.35344 0.646336 4.3536 0.646491 4.35375 0.646646L7.35355 3.64645C7.54882 3.84171 7.54882 4.15829 7.35355 4.35355C7.15829 4.54882 6.84171 4.54882 6.64645 4.35355L4.5 2.20711V11.5C4.5 11.7761 4.27614 12 4 12C3.72386 12 3.5 11.7761 3.5 11.5V2.20711L1.35355 4.35355C1.15829 4.54882 0.841709 4.54882 0.646447 4.35355C0.451184 4.15829 0.451184 3.84171 0.646447 3.64645L3.64625 0.646646C3.64631 0.646579 3.64638 0.646513 3.64645 0.646447L4 0.292893ZM5 15.5C5 15.7761 5.22386 16 5.5 16L15.5 16C15.7761 16 16 15.7761 16 15.5C16 15.2239 15.7761 15 15.5 15L5.5 15C5.22386 15 5 15.2239 5 15.5ZM8 11.5C8 11.7761 8.22386 12 8.5 12L15.5 12C15.7761 12 16 11.7761 16 11.5C16 11.2239 15.7761 11 15.5 11L8.5 11C8.22386 11 8 11.2239 8 11.5ZM11.5 8C11.2239 8 11 7.77614 11 7.5C11 7.22386 11.2239 7 11.5 7L15.5 7C15.7761 7 16 7.22386 16 7.5C16 7.77614 15.7761 8 15.5 8L11.5 8ZM14 3.5C14 3.77614 14.2239 4 14.5 4L15.5 4C15.7761 4 16 3.77614 16 3.5C16 3.22386 15.7761 3 15.5 3L14.5 3C14.2239 3 14 3.22386 14 3.5Z" fill="#40404B"/>
</g>
<defs>
<clipPath id="clip0_1_3903">
<rect width="16" height="16" fill="white"/>
</clipPath>
</defs>
</svg>
