<svg width="16" height="16" viewBox="0 0 16 16" fill="none" xmlns="http://www.w3.org/2000/svg">
<path fill-rule="evenodd" clip-rule="evenodd" d="M0.723145 5.09869C0.530252 5.43373 0.645483 5.8617 0.980522 6.05459L4.26911 7.94795L0.980522 9.84131L0.903834 9.89247C0.830838 9.94844 0.769342 10.0184 0.723145 10.0987C0.530252 10.4337 0.645483 10.8617 0.980522 11.0546L7.35138 14.7225L7.47443 14.7849C7.85082 14.9514 8.28727 14.9306 8.64865 14.7225L15.0195 11.0546L15.0962 11.0034C15.1692 10.9475 15.2307 10.8775 15.2769 10.7972C15.4698 10.4622 15.3545 10.0342 15.0195 9.84131L11.7309 7.94795L15.0195 6.05459C15.1265 5.993 15.2153 5.9042 15.2769 5.79722C15.4698 5.46218 15.3545 5.0342 15.0195 4.84131L8.64865 1.17338C8.24712 0.942207 7.7529 0.942207 7.35138 1.17338L0.980522 4.84131C0.873535 4.90291 0.784741 4.9917 0.723145 5.09869ZM10.7288 8.52493L8.64865 9.72252C8.24712 9.9537 7.7529 9.9537 7.35138 9.72252L5.27123 8.52491L1.93162 10.448L7.85033 13.8559C7.92446 13.8986 8.01227 13.9071 8.09188 13.8815L8.1497 13.8559L14.067 10.448L10.7288 8.52493ZM1.93162 5.44795L7.85033 2.04001L7.90815 2.0144C7.98775 1.9888 8.07557 1.99733 8.1497 2.04001L14.067 5.44795L8.1497 8.85589C8.05704 8.90924 7.94299 8.90924 7.85033 8.85589L1.93162 5.44795Z" fill="#40404B"/>
</svg>
