<svg width="16" height="16" viewBox="0 0 16 16" fill="none" xmlns="http://www.w3.org/2000/svg">
<path fill-rule="evenodd" clip-rule="evenodd" d="M11.5 0C10.1745 0 9.08996 1.03154 9.00532 2.33562L9 2.5V7.39645C9 7.46275 9.02634 7.52634 9.07322 7.57322C9.15458 7.65458 9.27807 7.66814 9.37347 7.6139L9.42678 7.57322L12 5H13.5C14.7703 5 15.8192 4.05263 15.9789 2.82591L15.9947 2.66438L16 2.5C16 1.17452 14.9685 0.0899613 13.6644 0.00531768L13.5 0H11.5ZM11.4995 1H13.4995C14.2792 1 14.9199 1.59489 14.9926 2.35554L14.9992 2.49481L14.9963 2.59961C14.9483 3.3383 14.3659 3.927 13.6376 3.9937L13.4995 4H11.5853L9.99948 5.586V2.5C9.99948 1.7203 10.5944 1.07955 11.355 1.00687L11.4995 1ZM14.9992 2.49481L15 2.46767L14.9995 2.5L14.9992 2.49481ZM3 6.5C3 5.11929 4.11929 4 5.5 4C6.88071 4 8 5.11929 8 6.5C8 7.88071 6.88071 9 5.5 9C4.11929 9 3 7.88071 3 6.5ZM7 6.5C7 5.67157 6.32843 5 5.5 5C4.67157 5 4 5.67157 4 6.5C4 7.32843 4.67157 8 5.5 8C6.32843 8 7 7.32843 7 6.5ZM0 15.5714C0 12.5099 2.44022 10 5.5 10C8.55978 10 11 12.5099 11 15.5714V16H0V15.5714ZM9.96271 14.9617C9.68393 12.701 7.87627 10.9592 5.69354 10.8615L5.50001 10.8571C3.2314 10.8571 1.32428 12.6345 1.0373 14.9617L1.01801 15.1429H9.98101L9.96271 14.9617Z" fill="#40404B"/>
</svg>
