<svg width="16" height="16" viewBox="0 0 16 16" fill="none" xmlns="http://www.w3.org/2000/svg">
<path fill-rule="evenodd" clip-rule="evenodd" d="M0.646447 1.64645C0.841709 1.45118 1.15829 1.45118 1.35355 1.64645L7.35355 7.64645L7.70711 8L7.35355 8.35355L1.35355 14.3536C1.15829 14.5488 0.841709 14.5488 0.646447 14.3536C0.451184 14.1583 0.451184 13.8417 0.646447 13.6464L6.29289 8L0.646447 2.35355C0.451184 2.15829 0.451184 1.84171 0.646447 1.64645ZM4.64645 1.64645C4.84171 1.45118 5.15829 1.45118 5.35355 1.64645L11.3536 7.64645L11.7071 8L11.3536 8.35355L5.35355 14.3536C5.15829 14.5488 4.84171 14.5488 4.64645 14.3536C4.45118 14.1583 4.45118 13.8417 4.64645 13.6464L10.2929 8L4.64645 2.35355C4.45118 2.15829 4.45118 1.84171 4.64645 1.64645ZM9.35355 1.64645C9.15829 1.45118 8.84171 1.45118 8.64645 1.64645C8.45118 1.84171 8.45118 2.15829 8.64645 2.35355L14.2929 8L8.64645 13.6464C8.45118 13.8417 8.45118 14.1583 8.64645 14.3536C8.84171 14.5488 9.15829 14.5488 9.35355 14.3536L15.3536 8.35355L15.7071 8L15.3536 7.64645L9.35355 1.64645Z" fill="#40404B"/>
</svg>
