<svg width="16" height="16" viewBox="0 0 16 16" fill="none" xmlns="http://www.w3.org/2000/svg">
<path fill-rule="evenodd" clip-rule="evenodd" d="M6 1.5H2.5C1.67157 1.5 1 2.17157 1 3V6C1 6.82843 1.67157 7.5 2.5 7.5H6C6.82843 7.5 7.5 6.82843 7.5 6V3C7.5 2.17157 6.82843 1.5 6 1.5ZM2 3C2 2.72386 2.22386 2.5 2.5 2.5H6C6.27614 2.5 6.5 2.72386 6.5 3V6C6.5 6.27614 6.27614 6.5 6 6.5H2.5C2.22386 6.5 2 6.27614 2 6V3ZM6 8.5H2.5C1.67157 8.5 1 9.17157 1 10V13C1 13.8284 1.67157 14.5 2.5 14.5H6C6.82843 14.5 7.5 13.8284 7.5 13V10C7.5 9.17157 6.82843 8.5 6 8.5ZM2 10C2 9.72386 2.22386 9.5 2.5 9.5H6C6.27614 9.5 6.5 9.72386 6.5 10V13C6.5 13.2761 6.27614 13.5 6 13.5H2.5C2.22386 13.5 2 13.2761 2 13V10ZM10 1.5H13.5C14.3284 1.5 15 2.17157 15 3V6C15 6.82843 14.3284 7.5 13.5 7.5H10C9.17157 7.5 8.5 6.82843 8.5 6V3C8.5 2.17157 9.17157 1.5 10 1.5ZM10 2.5C9.72386 2.5 9.5 2.72386 9.5 3V6C9.5 6.27614 9.72386 6.5 10 6.5H13.5C13.7761 6.5 14 6.27614 14 6V3C14 2.72386 13.7761 2.5 13.5 2.5H10ZM13.5 8.5H10C9.17157 8.5 8.5 9.17157 8.5 10V13C8.5 13.8284 9.17157 14.5 10 14.5H13.5C14.3284 14.5 15 13.8284 15 13V10C15 9.17157 14.3284 8.5 13.5 8.5ZM9.5 10C9.5 9.72386 9.72386 9.5 10 9.5H13.5C13.7761 9.5 14 9.72386 14 10V13C14 13.2761 13.7761 13.5 13.5 13.5H10C9.72386 13.5 9.5 13.2761 9.5 13V10Z" fill="#40404B"/>
</svg>
