<svg width="16" height="16" viewBox="0 0 16 16" fill="none" xmlns="http://www.w3.org/2000/svg">
<path fill-rule="evenodd" clip-rule="evenodd" d="M8 0C3.58172 0 0 3.58172 0 8C0 12.4183 3.58172 16 8 16C12.4183 16 16 12.4183 16 8C16 3.58172 12.4183 0 8 0ZM8 1C11.866 1 15 4.13401 15 8C15 11.866 11.866 15 8 15C4.13401 15 1 11.866 1 8C1 4.13401 4.13401 1 8 1ZM8.49194 2.40892C8.44961 2.17567 8.24546 1.99879 8 1.99879C7.72386 1.99879 7.5 2.22265 7.5 2.49879V9.20702L10.1463 11.8549L10.2156 11.9128C10.4104 12.0479 10.6798 12.0287 10.8534 11.8552L10.9113 11.7859C11.0464 11.5911 11.0272 11.3217 10.8537 11.1481L8.5 8.793V2.49879L8.49194 2.40892Z" fill="#40404B"/>
</svg>
