<svg width="16" height="16" viewBox="0 0 16 16" fill="none" xmlns="http://www.w3.org/2000/svg">
<path fill-rule="evenodd" clip-rule="evenodd" d="M15.1035 5.60358C15.3797 5.60358 15.6035 5.82743 15.6035 6.10358L15.6035 10.1036L15.5955 10.1935C15.5532 10.4267 15.349 10.6036 15.1035 10.6036C14.8274 10.6036 14.6035 10.3797 14.6035 10.1036L14.6035 8.60358L2.31056 8.60358L7.4571 13.75L7.51495 13.8193C7.64995 14.0141 7.63067 14.2836 7.4571 14.4571C7.26184 14.6524 6.94526 14.6524 6.74999 14.4571L0.39644 8.10358L6.74999 1.75002L6.81924 1.69217C7.01411 1.55717 7.28353 1.57646 7.4571 1.75002L7.51495 1.81927C7.64995 2.01414 7.63067 2.28356 7.4571 2.45713L2.31056 7.60358L14.6035 7.60358V6.10358L14.6116 6.0137C14.6539 5.78045 14.8581 5.60358 15.1035 5.60358Z" fill="#40404B"/>
</svg>
