<svg width="16" height="16" viewBox="0 0 16 16" fill="none" xmlns="http://www.w3.org/2000/svg">
<path fill-rule="evenodd" clip-rule="evenodd" d="M0.896423 10.3965C0.62028 10.3965 0.396423 10.1726 0.396423 9.89645L0.396423 5.89645L0.404479 5.80658C0.446815 5.57333 0.650963 5.39645 0.896423 5.39645C1.17257 5.39645 1.39642 5.62031 1.39642 5.89645L1.39642 7.39645L13.6894 7.39646L8.54287 2.25001L8.48501 2.18076C8.35002 1.98589 8.3693 1.71647 8.54287 1.5429C8.73813 1.34764 9.05471 1.34764 9.24998 1.5429L15.6035 7.89646L9.24998 14.25L9.18073 14.3079C8.98586 14.4429 8.71644 14.4236 8.54287 14.25L8.48501 14.1808C8.35002 13.9859 8.3693 13.7165 8.54287 13.5429L13.6894 8.39646L1.39642 8.39645L1.39642 9.89645L1.38837 9.98633C1.34603 10.2196 1.14188 10.3965 0.896423 10.3965Z" fill="#40404B"/>
</svg>
