<svg width="16" height="16" viewBox="0 0 16 16" fill="none" xmlns="http://www.w3.org/2000/svg">
<path fill-rule="evenodd" clip-rule="evenodd" d="M7.11713 8.87728C7.3021 9.02554 7.57222 9.02509 7.75747 8.86406L7.82001 8.79901C7.96827 8.61404 7.96783 8.34392 7.80679 8.15867L4.71371 4.73393H9.5L9.71689 4.73855C12.3777 4.85211 14.5 7.04518 14.5 9.73393C14.5 12.4954 12.2614 14.7339 9.5 14.7339H2.5L2.41012 14.742C2.17688 14.7843 2 14.9885 2 15.2339C2 15.5101 2.22386 15.7339 2.5 15.7339H9.5L9.72494 15.7298C12.9344 15.6115 15.5 12.9723 15.5 9.73393C15.5 6.42022 12.8137 3.73393 9.5 3.73393H5.0142L8.17601 0.877434L8.23857 0.812405C8.38687 0.62746 8.38649 0.357347 8.22549 0.172061C8.04437 -0.0363864 7.72857 -0.058539 7.52012 0.122581L2.93934 4.23393L7.05208 8.81473L7.11713 8.87728Z" fill="#40404B"/>
</svg>
