<svg width="16" height="16" viewBox="0 0 16 16" fill="none" xmlns="http://www.w3.org/2000/svg">
<path fill-rule="evenodd" clip-rule="evenodd" d="M11.4948 3.30796C11.3951 1.46428 9.86856 0 8 0C7.53009 0 7.08181 0.0926044 6.67242 0.260559C6.37211 0.375828 6.35708 0.76722 6.42004 0.910245C6.483 1.05327 6.64097 1.26446 7.05325 1.18549C7.34526 1.06592 7.66493 1 8 1C9.38071 1 10.5 2.11929 10.5 3.5V6H3C1.89543 6 1 6.89543 1 8V14C1 15.1046 1.89543 16 3 16H13C14.1046 16 15 15.1046 15 14V8C15 6.89543 14.1046 6 13 6H11.5V3.5L11.4948 3.30796ZM2 8C2 7.44772 2.44772 7 3 7H13C13.5523 7 14 7.44772 14 8V14C14 14.5523 13.5523 15 13 15H3C2.44772 15 2 14.5523 2 14V8ZM8 12C8.55228 12 9 11.5523 9 11C9 10.4477 8.55228 10 8 10C7.44772 10 7 10.4477 7 11C7 11.5523 7.44772 12 8 12Z" fill="#40404B"/>
</svg>
