<svg width="16" height="17" viewBox="0 0 16 17" fill="none" xmlns="http://www.w3.org/2000/svg">
<path fill-rule="evenodd" clip-rule="evenodd" d="M13.1464 7.35355C13.3417 7.54882 13.6583 7.54882 13.8536 7.35355C14.0488 7.15829 14.0488 6.84171 13.8536 6.64645L8.35355 1.14645L8 0.792892L7.64645 1.14645L7.64625 1.14664L2.14645 6.64645C1.95118 6.84171 1.95118 7.15829 2.14645 7.35355C2.34171 7.54881 2.65829 7.54881 2.85355 7.35355L7.5 2.70711V13H8.5V2.70711L13.1464 7.35355ZM15 14.5C15.2455 14.5 15.4496 14.6769 15.4919 14.9101L15.5 15C15.5 15.7797 14.9051 16.4204 14.1445 16.4931L14 16.5H2C1.2203 16.5 0.579551 15.9051 0.506867 15.1445L0.5 15C0.5 14.7239 0.723858 14.5 1 14.5C1.24546 14.5 1.44961 14.6769 1.49194 14.9101L1.5 15C1.5 15.2455 1.67688 15.4496 1.91012 15.4919L2 15.5H14C14.2455 15.5 14.4496 15.3231 14.4919 15.0899L14.5 15C14.5 14.7239 14.7239 14.5 15 14.5Z" fill="#40404B"/>
</svg>
