<svg width="16" height="16" viewBox="0 0 16 16" fill="none" xmlns="http://www.w3.org/2000/svg">
<path d="M8.00177 1C8.69034 1 9.30829 1.32618 9.7035 1.87102L9.79758 2.01172L15.7099 11.9102C16.0967 12.5391 16.0967 13.332 15.7099 13.9609C15.3784 14.5667 14.7644 14.9395 14.0851 14.9933L13.9141 15H2.06181C1.31587 15 0.652801 14.6172 0.266013 13.9609C-0.0655199 13.3804 -0.0910224 12.6601 0.211235 12.0581L0.29364 11.9102L6.20597 2.01172C6.59276 1.38281 7.25583 1 8.00177 1ZM8.00177 2C7.65488 2 7.34412 2.15438 7.13712 2.41984L7.06449 2.52451L1.14544 12.434C0.955379 12.7431 0.951476 13.1447 1.12751 13.4532C1.31216 13.7665 1.59827 13.9549 1.93378 13.9929L2.06181 14H13.9141C14.311 14 14.6568 13.8023 14.8581 13.4371C15.0236 13.1679 15.0443 12.8373 14.9157 12.5454L14.8514 12.4229L8.94578 2.53559C8.73655 2.19539 8.39203 2 8.00177 2ZM8 11C8.55229 11 9 11.4477 9 12C9 12.5523 8.55229 13 8 13C7.44772 13 7 12.5523 7 12C7 11.4477 7.44772 11 8 11ZM8 4C8.55229 4 9 4.44772 9 5V9C9 9.55229 8.55229 10 8 10C7.44772 10 7 9.55229 7 9V5C7 4.44772 7.44772 4 8 4Z" fill="#40404B"/>
</svg>
