<svg width="16" height="16" viewBox="0 0 16 16" fill="none" xmlns="http://www.w3.org/2000/svg">
<path fill-rule="evenodd" clip-rule="evenodd" d="M8 0C3.58172 0 0 3.58172 0 8C0 12.4183 3.58172 16 8 16L8.03287 15.9999L8.05 16C8.06815 16 8.08627 15.9998 8.10435 15.9993C12.4745 15.9435 16 12.3834 16 8C16 3.61656 12.4745 0.0565299 8.10435 0.000666578C8.08627 0.000222652 8.06815 0 8.05 0L8.03287 6.61089e-05L8 0ZM5.77915 1.35963C4.14789 1.90496 2.78418 3.03456 1.93648 4.5H4.43749C4.73708 3.23045 5.19842 2.14579 5.77915 1.35963ZM1 8C1 7.1192 1.16268 6.2764 1.45963 5.5H4.24141C4.11657 6.28806 4.05 7.12882 4.05 8C4.05 8.87118 4.11657 9.71194 4.24141 10.5H1.45963C1.16268 9.7236 1 8.8808 1 8ZM1.93648 11.5C2.78418 12.9654 4.14789 14.095 5.77916 14.6404C5.19843 13.8542 4.73708 12.7696 4.43749 11.5H1.93648ZM5.4703 11.5C6.0089 13.591 6.9977 14.9871 8.03561 14.9999L8.08391 14.9995C9.11469 14.9696 10.0945 13.5778 10.6297 11.5H5.4703ZM11.6625 11.5C11.3687 12.7448 10.9195 13.8119 10.3546 14.5941C11.9266 14.0327 13.2391 12.9252 14.0635 11.5H11.6625ZM14.5404 10.5H11.8586C11.9834 9.71194 12.05 8.87118 12.05 8C12.05 7.12882 11.9834 6.28806 11.8586 5.5H14.5404C14.8373 6.2764 15 7.1192 15 8C15 8.8808 14.8373 9.7236 14.5404 10.5ZM10.8428 10.5H5.25717C5.12425 9.72546 5.05 8.8832 5.05 8C5.05 7.1168 5.12425 6.27454 5.25717 5.5H10.8428C10.9757 6.27454 11.05 7.1168 11.05 8C11.05 8.8832 10.9757 9.72546 10.8428 10.5ZM11.6625 4.5H14.0635C13.2391 3.0748 11.9266 1.96725 10.3546 1.40587C10.9195 2.18808 11.3687 3.25516 11.6625 4.5ZM8.03561 1.00009C6.9977 1.01288 6.0089 2.40904 5.4703 4.5H10.6297C10.0945 2.42216 9.11469 1.03043 8.08391 1.00049L8.03561 1.00009Z" fill="#40404B"/>
</svg>
