<svg width="16" height="16" viewBox="0 0 16 16" fill="none" xmlns="http://www.w3.org/2000/svg">
<g clip-path="url(#clip0_1_3858)">
<path fill-rule="evenodd" clip-rule="evenodd" d="M4.19362 1.73223C4.66246 1.26339 5.29835 1 5.96139 1H10.0386C10.7017 1 11.3375 1.26339 11.8064 1.73223L14.2678 4.19362C14.7366 4.66246 15 5.29835 15 5.96139V10.8953C15 11.0292 14.9536 11.159 14.8686 11.2625C14.6516 11.527 14.2537 11.5466 14.0117 11.3046L12.1206 9.41352C12.3652 8.8236 12.5 8.17703 12.5 7.5C12.5 4.73858 10.2614 2.5 7.5 2.5C6.70266 2.5 5.94756 2.687 5.27748 3.02L4.65885 3.32744L5.14419 3.81904L7.23528 5.9371C7.40489 6.1089 7.5 6.3406 7.5 6.58203C7.5 7.08901 7.08901 7.5 6.58203 7.5C6.3406 7.5 6.1089 7.40489 5.9371 7.23528L3.81904 5.14419L3.32744 4.65885L3.02 5.27748C2.687 5.94756 2.5 6.70266 2.5 7.5C2.5 10.2614 4.73858 12.5 7.5 12.5C8.17703 12.5 8.8236 12.3652 9.41352 12.1206L11.3046 14.0117C11.5466 14.2537 11.527 14.6516 11.2625 14.8686C11.159 14.9536 11.0292 15 10.8953 15H5.96139C5.29835 15 4.66246 14.7366 4.19362 14.2678L1.73223 11.8064C1.26339 11.3375 1 10.7017 1 10.0386V5.96139C1 5.29835 1.26339 4.66246 1.73223 4.19362L4.19362 1.73223ZM9.14607 11.1468C9.1462 11.1467 9.14632 11.1466 9.14645 11.1464C9.34171 10.9512 9.65829 10.9512 9.85355 11.1464L12.0117 13.3046C12.6716 13.9645 12.6183 15.0497 11.8968 15.6417C11.6144 15.8734 11.2605 16 10.8953 16H5.96139C5.03313 16 4.14289 15.6313 3.48652 14.9749L1.02513 12.5135C0.368749 11.8571 0 10.9669 0 10.0386V5.96139C0 5.03313 0.368749 4.14289 1.02513 3.48652L3.48652 1.02513C4.14289 0.368749 5.03313 0 5.96139 0H10.0386C10.9669 0 11.8571 0.368749 12.5135 1.02513L14.9749 3.48652C15.6313 4.14289 16 5.03313 16 5.96139V10.8953C16 11.2605 15.8734 11.6144 15.6417 11.8968C15.0497 12.6183 13.9645 12.6716 13.3046 12.0117L11.1464 9.85355C10.9512 9.65829 10.9512 9.34171 11.1464 9.14645C11.1466 9.14632 11.1467 9.1462 11.1468 9.14607C11.3736 8.64458 11.5 8.08766 11.5 7.5C11.5 5.29086 9.70914 3.5 7.5 3.5C7.11398 3.5 6.74122 3.55455 6.38871 3.65626L7.9469 5.23453C8.30129 5.59349 8.5 6.07761 8.5 6.58203C8.5 7.64129 7.64129 8.5 6.58203 8.5C6.07761 8.5 5.59349 8.30129 5.23453 7.9469L3.65626 6.38871C3.55455 6.74122 3.5 7.11398 3.5 7.5C3.5 9.70914 5.29086 11.5 7.5 11.5C8.08766 11.5 8.64457 11.3736 9.14607 11.1468Z" fill="#40404B"/>
</g>
<defs>
<clipPath id="clip0_1_3858">
<rect width="16" height="16" fill="white"/>
</clipPath>
</defs>
</svg>
