<svg width="16" height="16" viewBox="0 0 16 16" fill="none" xmlns="http://www.w3.org/2000/svg">
<path fill-rule="evenodd" clip-rule="evenodd" d="M6.5 0C2.91015 0 0 2.91015 0 6.5C0 10.0899 2.91015 13 6.5 13C8.11495 13 9.59234 12.411 10.7291 11.4362L14.1464 14.8536L14.2157 14.9114C14.4106 15.0464 14.68 15.0271 14.8536 14.8536C15.0488 14.6583 15.0488 14.3417 14.8536 14.1464L11.4362 10.7291C12.411 9.59234 13 8.11495 13 6.5C13 2.91015 10.0899 0 6.5 0ZM6.5 1C9.53757 1 12 3.46243 12 6.5C12 9.53757 9.53757 12 6.5 12C3.46243 12 1 9.53757 1 6.5C1 3.46243 3.46243 1 6.5 1ZM6.5 3C6.22386 3 6 3.22386 6 3.5V6H3.5C3.22386 6 3 6.22386 3 6.5C3 6.77614 3.22386 7 3.5 7H6V9.5C6 9.77614 6.22386 10 6.5 10C6.77614 10 7 9.77614 7 9.5V7H9.5C9.77614 7 10 6.77614 10 6.5C10 6.22386 9.77614 6 9.5 6H7V3.5C7 3.22386 6.77614 3 6.5 3Z" fill="#40404B"/>
</svg>
