<svg width="92" height="24" viewBox="0 0 92 24" fill="none" xmlns="http://www.w3.org/2000/svg">
<g clip-path="url(#clip0_133_137)">
<path d="M27.128 1.2503e-08C28.447 -9.21912e-05 29.7151 0.509787 30.6669 1.42301C31.6187 2.33623 32.1805 3.58207 32.235 4.9V5.116V18.479C32.2351 19.7981 31.7252 21.0661 30.812 22.0179C29.8988 22.9697 28.6529 23.5315 27.335 23.586H27.119H13.761C12.4419 23.5861 11.1739 23.0762 10.2221 22.163C9.27033 21.2498 8.70845 20.0039 8.654 18.686V18.47V13.38H5.4C4.4276 13.391 3.48822 13.0276 2.77637 12.3651C2.06451 11.7026 1.63472 10.7917 1.576 9.821V9.654V5.239C1.01166 4.97101 0.555301 4.51899 0.281938 3.95724C0.00857532 3.39549 -0.0655196 2.75745 0.0718341 2.148C0.209188 1.53855 0.549815 0.993978 1.03772 0.603797C1.52562 0.213617 2.13176 0.00105477 2.7565 0.00105477C3.38123 0.00105477 3.98737 0.213617 4.47527 0.603797C4.96318 0.993978 5.30381 1.53855 5.44116 2.148C5.57851 2.75745 5.50442 3.39549 5.23106 3.95724C4.95769 4.51899 4.50133 4.97101 3.937 5.239V9.632C3.94882 9.98697 4.09351 10.3246 4.34241 10.5779C4.59132 10.8313 4.92629 10.9819 5.281 11H5.403H8.649V5.1C8.65067 3.78282 9.16079 2.51714 10.073 1.56695C10.9852 0.61675 12.229 0.0554076 13.545 1.2503e-08L13.761 1.2503e-08H27.128ZM27.128 2.359H13.761C13.0602 2.35897 12.3858 2.6263 11.8753 3.10648C11.3648 3.58666 11.0568 4.24349 11.014 4.943L11.009 5.111V18.479C11.009 19.1798 11.2763 19.8542 11.7565 20.3647C12.2367 20.8752 12.8935 21.1832 13.593 21.226L13.761 21.231H27.128C27.8288 21.231 28.5032 20.9637 29.0137 20.4835C29.5242 20.0033 29.8322 19.3465 29.875 18.647L29.88 18.479V5.111C29.88 4.38112 29.5901 3.68114 29.074 3.16504C28.5579 2.64894 27.8579 2.359 27.128 2.359V2.359ZM73.718 6.731C74.4237 6.69254 75.1295 6.80351 75.7894 7.05665C76.4492 7.3098 77.0481 7.69941 77.547 8.2C78.0131 8.69581 78.3767 9.27876 78.6169 9.91541C78.8572 10.5521 78.9693 11.2299 78.947 11.91C78.9467 12.1199 78.934 12.3296 78.909 12.538L78.877 12.765H70.555C70.5735 13.1619 70.6711 13.5511 70.8419 13.9098C71.0128 14.2685 71.2535 14.5895 71.55 14.854C72.2247 15.4111 73.083 15.6964 73.957 15.654C74.5188 15.7038 75.0832 15.5916 75.5833 15.3307C76.0834 15.0699 76.4983 14.6712 76.779 14.182L76.871 14L78.82 14.577C78.4191 15.4211 77.7883 16.1351 77 16.637C76.1645 17.1765 75.1944 17.4707 74.2 17.486L73.9 17.492L73.92 17.512C73.1953 17.5413 72.4721 17.4242 71.7937 17.1679C71.1152 16.9115 70.4953 16.5211 69.971 16.02C69.462 15.5101 69.064 14.9004 68.8021 14.2292C68.5401 13.558 68.4199 12.8399 68.449 12.12C68.4272 11.4138 68.5451 10.7102 68.796 10.0496C69.0469 9.38911 69.4258 8.78466 69.911 8.271C70.4015 7.76085 70.9941 7.35998 71.6501 7.09461C72.3061 6.82923 73.0108 6.70533 73.718 6.731ZM53.09 6.721C53.8099 6.69883 54.5269 6.82319 55.1973 7.08654C55.8677 7.3499 56.4776 7.74675 56.99 8.253C57.4985 8.75358 57.8985 9.35345 58.1651 10.0153C58.4318 10.6771 58.5594 11.3867 58.54 12.1C58.5695 13.4967 58.0437 14.8481 57.0781 15.8577C56.1124 16.8672 54.7857 17.4525 53.389 17.485L53.099 17.491H53.089C52.3702 17.5116 51.6547 17.3856 50.9861 17.1209C50.3176 16.8561 49.7099 16.4581 49.2 15.951C48.6908 15.45 48.2904 14.8496 48.0235 14.187C47.7567 13.5244 47.6292 12.814 47.649 12.1C47.6304 11.3882 47.7585 10.6803 48.0253 10.0201C48.2922 9.36003 48.692 8.7619 49.2 8.263C49.7098 7.75542 50.3176 7.35695 50.9864 7.09184C51.6551 6.82674 52.3709 6.70057 53.09 6.721V6.721ZM86.49 6.721C87.2099 6.69883 87.9269 6.82319 88.5973 7.08654C89.2677 7.3499 89.8776 7.74675 90.39 8.253C90.8978 8.75392 91.297 9.35394 91.563 10.0158C91.829 10.6776 91.9559 11.387 91.936 12.1C91.9655 13.4967 91.4397 14.8481 90.4741 15.8577C89.5084 16.8672 88.1817 17.4525 86.785 17.485L86.495 17.491H86.485C85.7669 17.511 85.0522 17.3848 84.3843 17.1201C83.7165 16.8553 83.1094 16.4576 82.6 15.951C82.0901 15.4504 81.6889 14.8501 81.4213 14.1875C81.1538 13.5249 81.0257 12.8143 81.045 12.1C81.0269 11.3879 81.1556 10.6798 81.4232 10.0197C81.6907 9.35953 82.0913 8.76156 82.6 8.263C83.1092 7.75604 83.7162 7.35792 84.3841 7.09284C85.0519 6.82776 85.7667 6.70125 86.485 6.721H86.49ZM20.707 6.291C21.9433 6.25024 23.1606 6.60359 24.183 7.3C25.0237 7.83501 25.6487 8.64948 25.948 9.6C25.9796 9.72518 25.986 9.85538 25.9669 9.98306C25.9478 10.1107 25.9035 10.2334 25.8366 10.3438C25.7697 10.4542 25.6816 10.5502 25.5772 10.6263C25.4729 10.7024 25.3546 10.757 25.229 10.787C24.9605 10.8797 24.667 10.8688 24.4061 10.7563C24.1453 10.6438 23.9359 10.4379 23.819 10.179C23.6222 9.61621 23.2367 9.13887 22.728 8.828C22.1947 8.45829 21.57 8.2424 20.9222 8.20398C20.2745 8.16555 19.6286 8.30607 19.0554 8.61014C18.4821 8.91422 18.0036 9.37013 17.6721 9.92799C17.3406 10.4858 17.169 11.1241 17.176 11.773C17.1693 12.2347 17.2537 12.6931 17.4244 13.1221C17.5952 13.5511 17.8489 13.9422 18.171 14.273C18.499 14.6183 18.8965 14.8901 19.3372 15.0704C19.778 15.2507 20.252 15.3355 20.728 15.319C21.4307 15.335 22.1226 15.1445 22.718 14.771C23.2285 14.4765 23.6159 14.0079 23.809 13.451C23.9294 13.225 24.1222 13.046 24.3564 12.9426C24.5907 12.8393 24.8529 12.8176 25.101 12.881C25.3496 12.9397 25.5696 13.084 25.7226 13.2885C25.8757 13.4931 25.9519 13.7449 25.938 14C25.6356 14.9337 25.0194 15.734 24.194 16.265C23.1788 16.9712 21.9642 17.3339 20.728 17.3C19.9674 17.3233 19.2098 17.1952 18.4991 16.9233C17.7884 16.6514 17.1388 16.241 16.588 15.716C16.0523 15.2137 15.6286 14.6041 15.3446 13.9269C15.0606 13.2497 14.9227 12.5201 14.94 11.786C14.9223 11.0543 15.0589 10.327 15.3409 9.65162C15.623 8.97621 16.0441 8.36779 16.577 7.866C17.1271 7.34346 17.7753 6.93521 18.4843 6.66486C19.1932 6.39452 19.9487 6.26744 20.707 6.291V6.291ZM37.635 2.355V8.5C37.9958 7.96357 38.4802 7.52157 39.0473 7.21114C39.6143 6.90071 40.2477 6.73091 40.894 6.716L41.156 6.71V6.69C41.7159 6.65455 42.2766 6.7438 42.7978 6.95132C43.319 7.15883 43.7877 7.47943 44.17 7.89C44.8621 8.74147 45.2333 9.80885 45.219 10.906L45.224 11.206V17.213H43.105V11.595C43.1525 10.8353 42.9265 10.0836 42.468 9.476C42.233 9.21435 41.9418 9.00946 41.6161 8.87677C41.2904 8.74408 40.9389 8.68706 40.588 8.71C40.1826 8.69334 39.7786 8.76883 39.4066 8.93078C39.0346 9.09273 38.7041 9.33692 38.44 9.645C37.9263 10.2758 37.644 11.0635 37.64 11.877L37.634 12.131V17.223H35.5V2.355H37.635ZM66.5 6.842L66.768 6.87V8.86C66.314 8.74906 65.8397 8.75083 65.3866 8.86517C64.9334 8.97951 64.515 9.20294 64.168 9.516C63.525 10.3021 63.2035 11.3025 63.268 12.316V12.601V17.226H61.131V6.98H63.27V8.6L63.358 8.431C63.6505 7.8984 64.0946 7.46472 64.634 7.185C65.2109 6.89592 65.8581 6.77696 66.5 6.842V6.842ZM53.09 8.661C52.6421 8.64666 52.1962 8.72698 51.7814 8.89671C51.3667 9.06644 50.9924 9.32176 50.683 9.646C50.3698 9.9761 50.1251 10.3649 49.9629 10.79C49.8007 11.2152 49.7243 11.6682 49.738 12.123C49.7261 12.5731 49.8035 13.021 49.9657 13.441C50.1279 13.861 50.3717 14.2447 50.683 14.57C50.9924 14.8942 51.3667 15.1496 51.7814 15.3193C52.1962 15.489 52.6421 15.5693 53.09 15.555C53.5393 15.5684 53.9864 15.4877 54.4026 15.318C54.8189 15.1484 55.195 14.8936 55.507 14.57C55.8216 14.2466 56.0682 13.8635 56.2322 13.4432C56.3963 13.0229 56.4744 12.574 56.462 12.123C56.4763 11.6673 56.3991 11.2133 56.2351 10.7879C56.0711 10.3624 55.8235 9.97418 55.507 9.646C55.195 9.3224 54.8189 9.06761 54.4026 8.89798C53.9864 8.72835 53.5393 8.64763 53.09 8.661V8.661ZM86.49 8.661C86.0421 8.64666 85.5962 8.72698 85.1814 8.89671C84.7667 9.06644 84.3924 9.32176 84.083 9.646C83.7698 9.9761 83.5251 10.3649 83.3629 10.79C83.2007 11.2152 83.1243 11.6682 83.138 12.123C83.1261 12.5731 83.2035 13.021 83.3657 13.441C83.5279 13.861 83.7717 14.2447 84.083 14.57C84.3924 14.8942 84.7667 15.1496 85.1814 15.3193C85.5962 15.489 86.0421 15.5693 86.49 15.555C86.9393 15.5684 87.3864 15.4877 87.8026 15.318C88.2189 15.1484 88.595 14.8936 88.907 14.57C89.2216 14.2466 89.4682 13.8635 89.6322 13.4432C89.7963 13.0229 89.8744 12.574 89.862 12.123C89.8755 11.6666 89.7973 11.2122 89.6321 10.7865C89.4668 10.3609 89.2179 9.97273 88.9 9.645C88.5882 9.32184 88.2123 9.06738 87.7964 8.89793C87.3806 8.72848 86.9339 8.64778 86.485 8.661H86.49ZM73.732 8.581C72.9252 8.55254 72.1395 8.84197 71.544 9.387C71.0398 9.84338 70.704 10.4564 70.591 11.127L70.56 11.356H76.86C76.8165 10.5961 76.4859 9.88119 75.935 9.356C75.3302 8.81693 74.537 8.53841 73.728 8.581H73.732Z" fill="white"/>
</g>
<defs>
<clipPath id="clip0_133_137">
<rect width="91.936" height="23.59" fill="white"/>
</clipPath>
</defs>
</svg>
