<svg width="16" height="16" viewBox="0 0 16 16" fill="none" xmlns="http://www.w3.org/2000/svg">
  <g clip-path="url(#clip0_121_70)">
    <rect x="2" y="2" width="12" height="12" fill="white" />
    <path d="M12 0C14.2091 0 16 1.79086 16 4V12C16 14.2091 14.2091 16 12 16H4C1.79086 16 0 14.2091 0 12V4C0 1.79086 1.79086 0 4 0H12ZM11.7123 4.28769C9.66206 2.23744 6.33794 2.23744 4.28769 4.28769C2.23744 6.33794 2.23744 9.66206 4.28769 11.7123C6.33794 13.7626 9.66206 13.7626 11.7123 11.7123C12.2005 11.2242 12.2005 10.4327 11.7123 9.94454C11.2242 9.45639 10.4327 9.45639 9.94454 9.94454L9.82254 10.0595C8.74254 11.017 7.08962 10.9787 6.05546 9.94454C4.98151 8.8706 4.98151 7.1294 6.05546 6.05546C7.1294 4.98151 8.8706 4.98151 9.94454 6.05546C10.4327 6.54361 11.2242 6.54361 11.7123 6.05546C12.2005 5.5673 12.2005 4.77584 11.7123 4.28769Z" fill="#5567D5" />
  </g>
  <defs>
    <clipPath id="clip0_121_70">
      <rect width="16" height="16" fill="white" />
    </clipPath>
  </defs>
</svg>
