<!--
 * Copyright (c) 2024, WSO2 LLC. (https://www.wso2.com).
 *
 * WSO2 LLC. licenses this file to you under the Apache License,
 * Version 2.0 (the "License"); you may not use this file except
 * in compliance with the License.
 * You may obtain a copy of the License at
 *
 *     http://www.apache.org/licenses/LICENSE-2.0
 *
 * Unless required by applicable law or agreed to in writing,
 * software distributed under the License is distributed on an
 * "AS IS" BASIS, WITHOUT WARRANTIES OR CONDITIONS OF ANY
 * KIND, either express or implied. See the License for the
 * specific language governing permissions and limitations
 * under the License.
-->

<svg width="16" height="16" viewBox="0 0 16 16" fill="none" xmlns="http://www.w3.org/2000/svg">
    <path d="M14.0539 12.4689C13.8145 13.0279 13.5311 13.5424 13.2028 14.0155C12.7553 14.6604 12.3889 15.1068 12.1066 15.3547C11.6688 15.7616 11.1998 15.97 10.6976 15.9818C10.337 15.9818 9.90224 15.8781 9.39611 15.6678C8.88832 15.4584 8.42166 15.3547 7.99497 15.3547C7.54746 15.3547 7.06752 15.4584 6.55416 15.6678C6.04001 15.8781 5.62582 15.9878 5.30915 15.9986C4.82754 16.0194 4.3475 15.8051 3.86834 15.3547C3.56251 15.0851 3.17998 14.6229 2.72173 13.9681C2.23006 13.2688 1.82583 12.458 1.50916 11.5336C1.17001 10.5351 1 9.5682 1 8.63213C1 7.55987 1.22922 6.63506 1.68836 5.86007C2.0492 5.23757 2.52924 4.74652 3.13005 4.38604C3.73086 4.02556 4.38004 3.84186 5.07914 3.83011C5.46167 3.83011 5.96331 3.94971 6.58669 4.18476C7.20832 4.42061 7.60746 4.54021 7.78245 4.54021C7.91328 4.54021 8.35669 4.40036 9.10836 4.12156C9.81919 3.863 10.4191 3.75594 10.9106 3.79811C12.2424 3.90675 13.2429 4.4374 13.9083 5.39342C12.7172 6.12288 12.128 7.14458 12.1398 8.45525C12.1505 9.47616 12.5169 10.3257 13.237 11.0003C13.5634 11.3133 13.9278 11.5553 14.3333 11.7272C14.2454 11.9849 14.1526 12.2318 14.0539 12.4689ZM10.9995 0.320091C10.9995 1.12027 10.7103 1.8674 10.1338 2.55894C9.43813 3.38104 8.59666 3.85608 7.68416 3.78112C7.67253 3.68512 7.66579 3.58409 7.66579 3.47792C7.66579 2.70975 7.99663 1.88765 8.58415 1.21547C8.87747 0.875136 9.25053 0.592152 9.70292 0.36641C10.1543 0.144037 10.5813 0.0210593 10.9829 0C10.9946 0.106972 10.9995 0.213951 10.9995 0.320081V0.320091Z" fill="black"/>
</svg>
