<!--
 * Copyright (c) 2024, WSO2 LLC. (https://www.wso2.com).
 *
 * WSO2 LLC. licenses this file to you under the Apache License,
 * Version 2.0 (the "License"); you may not use this file except
 * in compliance with the License.
 * You may obtain a copy of the License at
 *
 *     http://www.apache.org/licenses/LICENSE-2.0
 *
 * Unless required by applicable law or agreed to in writing,
 * software distributed under the License is distributed on an
 * "AS IS" BASIS, WITHOUT WARRANTIES OR CONDITIONS OF ANY
 * KIND, either express or implied. See the License for the
 * specific language governing permissions and limitations
 * under the License.
-->

<svg width="16" height="16" viewBox="0 0 16 16" fill="none" xmlns="http://www.w3.org/2000/svg">
  <path d="M5.2423 8.65521L8.47385 11.8868C8.60575 12.0187 8.66895 12.1725 8.66346 12.3484C8.65796 12.5243 8.58926 12.6782 8.45736 12.8101C8.32546 12.931 8.17158 12.9942 7.99571 12.9997C7.81985 13.0052 7.66596 12.942 7.53406 12.8101L3.18136 8.45736C3.11541 8.39141 3.0687 8.31997 3.04122 8.24303C3.01374 8.16608 3 8.08365 3 7.99571C3 7.90778 3.01374 7.82534 3.04122 7.7484C3.0687 7.67146 3.11541 7.60001 3.18136 7.53406L7.53406 3.18136C7.65497 3.06045 7.80611 3 7.98747 3C8.16883 3 8.32546 3.06045 8.45736 3.18136C8.58926 3.31326 8.65521 3.46989 8.65521 3.65126C8.65521 3.83262 8.58926 3.98925 8.45736 4.12115L5.2423 7.33621H12.6122C12.7991 7.33621 12.9557 7.39942 13.0821 7.52582C13.2085 7.65222 13.2717 7.80885 13.2717 7.99571C13.2717 8.18257 13.2085 8.3392 13.0821 8.46561C12.9557 8.59201 12.7991 8.65521 12.6122 8.65521H5.2423Z" fill="black"/>
</svg>
