<!--
 * Copyright (c) 2024, WSO2 LLC. (https://www.wso2.com).
 *
 * WSO2 LLC. licenses this file to you under the Apache License,
 * Version 2.0 (the "License"); you may not use this file except
 * in compliance with the License.
 * You may obtain a copy of the License at
 *
 *     http://www.apache.org/licenses/LICENSE-2.0
 *
 * Unless required by applicable law or agreed to in writing,
 * software distributed under the License is distributed on an
 * "AS IS" BASIS, WITHOUT WARRANTIES OR CONDITIONS OF ANY
 * KIND, either express or implied. See the License for the
 * specific language governing permissions and limitations
 * under the License.
-->

<svg width="16" height="16" viewBox="0 0 16 16" fill="none" xmlns="http://www.w3.org/2000/svg">
  <path
    d="M5.35265 2.6665C5.06027 2.6665 4.82324 2.89035 4.82324 3.1665C4.82324 3.44264 5.06027 3.6665 5.35265 3.6665H10.6468C10.9391 3.6665 11.1762 3.44264 11.1762 3.1665C11.1762 2.89035 10.9391 2.6665 10.6468 2.6665H5.35265Z"
    fill="black" />
  <path
    d="M5.35265 5.6665C5.06027 5.6665 4.82324 5.89035 4.82324 6.1665C4.82324 6.44264 5.06027 6.6665 5.35265 6.6665H10.6468C10.9391 6.6665 11.1762 6.44264 11.1762 6.1665C11.1762 5.89035 10.9391 5.6665 10.6468 5.6665H5.35265Z"
    fill="black" />
  <path fill-rule="evenodd" clip-rule="evenodd"
    d="M14 16V1.33333C14 0.596954 13.3679 0 12.5882 0H3.41176C2.63207 0 2 0.596953 2 1.33333V16H14ZM12.5882 1H3.41176C3.21684 1 3.05882 1.14924 3.05882 1.33333V15H4.82353V10C4.82353 9.26362 5.4556 8.66667 6.23529 8.66667H9.76471C10.5444 8.66667 11.1765 9.26362 11.1765 10V15H12.9412V1.33333C12.9412 1.14924 12.7832 1 12.5882 1ZM10.1176 15V10C10.1176 9.81591 9.95963 9.66667 9.76471 9.66667H6.23529C6.04037 9.66667 5.88235 9.81591 5.88235 10V15H10.1176Z"
    fill="black" />
</svg>
