<!--
 * Copyright (c) 2023, WSO2 LLC. (https://www.wso2.com).
 *
 * WSO2 LLC. licenses this file to you under the Apache License,
 * Version 2.0 (the "License"); you may not use this file except
 * in compliance with the License.
 * You may obtain a copy of the License at
 *
 *     http://www.apache.org/licenses/LICENSE-2.0
 *
 * Unless required by applicable law or agreed to in writing,
 * software distributed under the License is distributed on an
 * "AS IS" BASIS, WITHOUT WARRANTIES OR CONDITIONS OF ANY
 * KIND, either express or implied. See the License for the
 * specific language governing permissions and limitations
 * under the License.
-->

<svg width="16" height="16" viewBox="0 0 16 16" fill="none" xmlns="http://www.w3.org/2000/svg">
  <path d="M2.33333 1H7.66667C7.85076 1 8 1.14924 8 1.33333V10C8.24431 9.72319 8.60177 9 9 9V1.33333C9 0.596954 8.40305 0 7.66667 0H2.33333C1.59695 0 1 0.596953 1 1.33333V16H8.5C8.14191 15.795 7.55057 15.4286 7.5 15H2V1.33333C2 1.14924 2.14924 1 2.33333 1Z" fill="black"/>
  <path d="M7 3.16667H3V2.16667H7V3.16667Z" fill="black"/>
  <path d="M3 5.83333H7V4.83333H3V5.83333Z" fill="black"/>
  <path fill-rule="evenodd" clip-rule="evenodd" d="M11.0227 9.47727C11.0227 9.21368 11.2364 9 11.5 9C11.7636 9 11.9773 9.21368 11.9773 9.47727V9.67595C12.4124 9.74896 12.8143 9.92009 13.1593 10.1658L13.3 10.0251C13.4864 9.83873 13.7886 9.83873 13.975 10.0251C14.1614 10.2115 14.1614 10.5137 13.975 10.7001L13.8342 10.8408C14.0799 11.1858 14.251 11.5876 14.324 12.0227H14.5227C14.7863 12.0227 15 12.2364 15 12.5C15 12.7636 14.7863 12.9773 14.5227 12.9773H14.324C14.251 13.4124 14.0799 13.8142 13.8342 14.1593L13.9748 14.2999C14.1612 14.4863 14.1612 14.7885 13.9748 14.9749C13.7884 15.1613 13.4862 15.1613 13.2999 14.9749L13.1592 14.8342C12.8142 15.0799 12.4124 15.251 11.9773 15.324V15.5227C11.9773 15.7863 11.7637 16 11.5001 16C11.2365 16 11.0228 15.7863 11.0228 15.5227V15.324C10.5877 15.2511 10.1858 15.08 9.84078 14.8343L9.70017 14.9749C9.51378 15.1612 9.21159 15.1612 9.0252 14.9749C8.83882 14.7885 8.83882 14.4863 9.0252 14.2999L9.1658 14.1593C8.92007 13.8143 8.74894 13.4124 8.67594 12.9773H8.47727C8.21368 12.9773 8 12.7636 8 12.5C8 12.2364 8.21368 12.0227 8.47727 12.0227H8.67593C8.74893 11.5876 8.92004 11.1858 9.16574 10.8408L9.0251 10.7001C8.83871 10.5137 8.83871 10.2116 9.0251 10.0252C9.21148 9.83878 9.51368 9.83878 9.70006 10.0252L9.84069 10.1658C10.1857 9.92007 10.5876 9.74894 11.0227 9.67595V9.47727ZM13.3636 12.5C13.3636 13.5293 12.5292 14.3636 11.5 14.3636C10.4707 14.3636 9.63634 13.5293 9.63634 12.5C9.63634 11.4707 10.4707 10.6364 11.5 10.6364C12.5292 10.6364 13.3636 11.4707 13.3636 12.5ZM11.5 12.9773C11.7636 12.9773 11.9773 12.7636 11.9773 12.5C11.9773 12.2364 11.7636 12.0227 11.5 12.0227C11.2364 12.0227 11.0227 12.2364 11.0227 12.5C11.0227 12.7636 11.2364 12.9773 11.5 12.9773Z" fill="black"/>
</svg>
