<!--
 * Copyright (c) 2023, WSO2 LLC. (https://www.wso2.com). All Rights Reserved.
 *
 * WSO2 LLC. licenses this file to you under the Apache License,
 * Version 2.0 (the "License"); you may not use this file except
 * in compliance with the License.
 * You may obtain a copy of the License at
 *
 *     http://www.apache.org/licenses/LICENSE-2.0
 *
 * Unless required by applicable law or agreed to in writing,
 * software distributed under the License is distributed on an
 * "AS IS" BASIS, WITHOUT WARRANTIES OR CONDITIONS OF ANY
 * KIND, either express or implied. See the License for the
 * specific language governing permissions and limitations
 * under the License.
-->

<svg width="16" height="16" viewBox="0 0 16 16" fill="none" xmlns="http://www.w3.org/2000/svg">
    <g clip-path="url(#clip0_7_28)">
        <path fill-rule="evenodd" clip-rule="evenodd"
            d="M16 3.87097C16 3.18159 15.6707 2.58959 15.209 2.12174C14.7505 1.65723 14.1256 1.27441 13.4144 0.96962C11.9893 0.358858 10.0745 0 8 0C5.92554 0 4.01073 0.358858 2.58561 0.96962C1.87443 1.27441 1.24945 1.65723 0.791 2.12174C0.329278 2.58959 0 3.18159 0 3.87097V12.129C0 12.8184 0.329278 13.4104 0.791 13.8783C1.24945 14.3428 1.87443 14.7256 2.58561 15.0304C4.01073 15.6411 5.92554 16 8 16C10.0745 16 11.9893 15.6411 13.4144 15.0304C14.1256 14.7256 14.7505 14.3428 15.209 13.8783C15.6707 13.4104 16 12.8184 16 12.129V3.87097ZM1.89307 3.20939C1.6235 3.48253 1.54839 3.7052 1.54839 3.87097C1.54839 4.03674 1.6235 4.25941 1.89307 4.53255C2.16591 4.80902 2.59912 5.09351 3.19555 5.34912C4.38567 5.85917 6.08376 6.19355 8 6.19355C9.91627 6.19355 11.6143 5.85917 12.8045 5.34912C13.4009 5.09351 13.8341 4.80902 14.1069 4.53255C14.3765 4.25941 14.4516 4.03674 14.4516 3.87097C14.4516 3.7052 14.3765 3.48253 14.1069 3.20939C13.8341 2.93291 13.4009 2.64843 12.8045 2.39281C11.6143 1.88277 9.91627 1.54839 8 1.54839C6.08376 1.54839 4.38567 1.88277 3.19555 2.39281C2.59912 2.64843 2.16591 2.93291 1.89307 3.20939ZM14.4516 6.22721C14.1374 6.43077 13.7877 6.61229 13.4144 6.77233C11.9893 7.38307 10.0745 7.74193 8 7.74193C5.92554 7.74193 4.01073 7.38307 2.58561 6.77233C2.21224 6.61229 1.86262 6.43077 1.54839 6.22721V8C1.54839 8.1658 1.6235 8.38847 1.89307 8.6616C2.16591 8.93807 2.59912 9.22253 3.19555 9.47813C4.38567 9.9882 6.08376 10.3226 8 10.3226C9.91627 10.3226 11.6143 9.9882 12.8045 9.47813C13.4009 9.22253 13.8341 8.93807 14.1069 8.6616C14.3765 8.38847 14.4516 8.1658 14.4516 8V6.22721ZM14.4516 10.3563C14.1374 10.5598 13.7877 10.7413 13.4144 10.9013C11.9893 11.5121 10.0745 11.871 8 11.871C5.92554 11.871 4.01073 11.5121 2.58561 10.9013C2.21224 10.7413 1.86262 10.5598 1.54839 10.3563V12.129C1.54839 12.2948 1.6235 12.5175 1.89307 12.7906C2.16591 13.0671 2.59912 13.3516 3.19555 13.6072C4.38567 14.1172 6.08376 14.4516 8 14.4516C9.91627 14.4516 11.6143 14.1172 12.8045 13.6072C13.4009 13.3516 13.8341 13.0671 14.1069 12.7906C14.3765 12.5175 14.4516 12.2948 14.4516 12.129V10.3563Z"
        />
    </g>
    <defs>
        <clipPath id="clip0_7_28">
            <rect width="16" height="16" />
        </clipPath>
    </defs>
</svg>
