<!--
 * Copyright (c) 2024, WSO2 LLC. (https://www.wso2.com).
 *
 * WSO2 LLC. licenses this file to you under the Apache License,
 * Version 2.0 (the "License"); you may not use this file except
 * in compliance with the License.
 * You may obtain a copy of the License at
 *
 *     http://www.apache.org/licenses/LICENSE-2.0
 *
 * Unless required by applicable law or agreed to in writing,
 * software distributed under the License is distributed on an
 * "AS IS" BASIS, WITHOUT WARRANTIES OR CONDITIONS OF ANY
 * KIND, either express or implied. See the License for the
 * specific language governing permissions and limitations
 * under the License.
-->

<svg width="16" height="16" viewBox="0 0 16 16" fill="none" xmlns="http://www.w3.org/2000/svg">
  <path
    d="M8.14215 7.55926L8.23338 7.45031L14.6331 1.22901C14.7742 1.09122 14.9633 1.00982 15.163 1.00083C15.3628 0.991844 15.5588 1.05592 15.7124 1.18044C15.866 1.30496 15.966 1.48089 15.9928 1.67355C16.0196 1.86621 15.9712 2.06164 15.857 2.22131L15.7658 2.33019L9.93093 8.00091L15.7658 13.6718C15.8981 13.8006 15.9797 13.9704 15.9964 14.1518C16.0131 14.3331 15.9637 14.5145 15.857 14.6641L15.7658 14.7729C15.6333 14.9015 15.4585 14.9808 15.272 14.9969C15.0855 15.0131 14.899 14.9652 14.7451 14.8615L14.6331 14.7729L8.23338 8.5515C8.10108 8.42263 8.01953 8.25279 8.00282 8.07141C7.98622 7.89011 8.03546 7.70882 8.14215 7.55926ZM0.142493 7.55926L0.23369 7.45031L6.63343 1.22901C6.7745 1.09122 6.96357 1.00982 7.1634 1.00083C7.36316 0.991844 7.55916 1.05592 7.71275 1.18044C7.86634 1.30496 7.96635 1.48089 7.99314 1.67355C8.01985 1.86621 7.97145 2.06164 7.85741 2.22131L7.76618 2.33019L1.93126 8.00091L7.76618 13.6718C7.89849 13.8006 7.98004 13.9704 7.99673 14.1518C8.01335 14.3331 7.96409 14.5145 7.85741 14.6641L7.76618 14.7729C7.63362 14.9015 7.45883 14.9808 7.27234 14.9969C7.08577 15.0131 6.89937 14.9652 6.74543 14.8615L6.63343 14.7729L0.23369 8.5515C0.101455 8.42263 0.0198582 8.25279 0.00317894 8.07141C-0.0135004 7.89011 0.0358179 7.70882 0.142493 7.55926Z"
    fill="black" />
</svg>
