<!--
 * Copyright (c) 2024, WSO2 LLC. (https://www.wso2.com).
 *
 * WSO2 LLC. licenses this file to you under the Apache License,
 * Version 2.0 (the "License"); you may not use this file except
 * in compliance with the License.
 * You may obtain a copy of the License at
 *
 *     http://www.apache.org/licenses/LICENSE-2.0
 *
 * Unless required by applicable law or agreed to in writing,
 * software distributed under the License is distributed on an
 * "AS IS" BASIS, WITHOUT WARRANTIES OR CONDITIONS OF ANY
 * KIND, either express or implied. See the License for the
 * specific language governing permissions and limitations
 * under the License.
-->

<svg width="16" height="16" viewBox="0 0 16 16" fill="none" xmlns="http://www.w3.org/2000/svg">
  <path
    d="M7.85785 7.55926L7.76662 7.45031L1.36694 1.22901C1.22579 1.09122 1.03671 1.00982 0.836955 1.00083C0.6372 0.991844 0.4412 1.05592 0.287606 1.18044C0.134013 1.30496 0.0340089 1.48089 0.00721405 1.67355C-0.0195808 1.86621 0.0288371 2.06164 0.142952 2.22131L0.234185 2.33019L6.06907 8.00091L0.234185 13.6718C0.101878 13.8006 0.0203295 13.9704 0.00362619 14.1518C-0.0130651 14.3331 0.0362648 14.5145 0.142952 14.6641L0.234185 14.7729C0.366743 14.9015 0.541456 14.9808 0.728024 14.9969C0.914508 15.0131 1.10099 14.9652 1.25491 14.8615L1.36694 14.7729L7.76662 8.5515C7.89892 8.42263 7.98047 8.25279 7.99718 8.07141C8.01378 7.89011 7.96454 7.70882 7.85785 7.55926ZM15.8575 7.55926L15.7663 7.45031L9.36657 1.22901C9.2255 1.09122 9.03643 1.00982 8.8366 1.00083C8.63684 0.991844 8.44084 1.05592 8.28725 1.18044C8.13366 1.30496 8.03365 1.48089 8.00686 1.67355C7.98015 1.86621 8.02855 2.06164 8.14259 2.22131L8.23382 2.33019L14.0687 8.00091L8.23382 13.6718C8.10151 13.8006 8.01996 13.9704 8.00327 14.1518C7.98665 14.3331 8.03591 14.5145 8.14259 14.6641L8.23382 14.7729C8.36638 14.9015 8.54117 14.9808 8.72766 14.9969C8.91423 15.0131 9.10063 14.9652 9.25457 14.8615L9.36657 14.7729L15.7663 8.5515C15.8985 8.42263 15.9801 8.25279 15.9968 8.07141C16.0135 7.89011 15.9642 7.70882 15.8575 7.55926Z"
    fill="black" />
</svg>
