<!--
 * Copyright (c) 2023, WSO2 LLC. (https://www.wso2.com).
 *
 * WSO2 LLC. licenses this file to you under the Apache License,
 * Version 2.0 (the "License"); you may not use this file except
 * in compliance with the License.
 * You may obtain a copy of the License at
 *
 *     http://www.apache.org/licenses/LICENSE-2.0
 *
 * Unless required by applicable law or agreed to in writing,
 * software distributed under the License is distributed on an
 * "AS IS" BASIS, WITHOUT WARRANTIES OR CONDITIONS OF ANY
 * KIND, either express or implied. See the License for the
 * specific language governing permissions and limitations
 * under the License.
-->

<svg width="16" height="16" viewBox="0 0 16 16" fill="none" xmlns="http://www.w3.org/2000/svg">
  <path fill-rule="evenodd" clip-rule="evenodd"
    d="M8.00921 0.00927734C3.59166 0.00927734 0.00976562 3.59117 0.00976562 8.00872C0.00976562 12.4263 3.59166 16.0082 8.00921 16.0082C12.4268 16.0082 16.0086 12.4263 16.0086 8.00872C16.0086 3.59117 12.4268 0.00927734 8.00921 0.00927734ZM1.00977 8.00872C1.00977 4.14346 4.14395 1.00928 8.00921 1.00928C11.8745 1.00928 15.0086 4.14346 15.0086 8.00872C15.0086 11.874 11.8745 15.0082 8.00921 15.0082C4.14395 15.0082 1.00977 11.874 1.00977 8.00872ZM6.86841 6.36792C6.59226 6.36792 6.36841 6.59177 6.36841 6.86792C6.36841 7.14406 6.59226 7.36792 6.86841 7.36792H7.67266V11.2586H6.3786C6.10246 11.2586 5.8786 11.4825 5.8786 11.7586C5.8786 12.0348 6.10246 12.2586 6.3786 12.2586H9.96529C10.2414 12.2586 10.4653 12.0348 10.4653 11.7586C10.4653 11.4825 10.2414 11.2586 9.96529 11.2586H8.67266V6.86792C8.67266 6.59177 8.4488 6.36792 8.17266 6.36792H6.86841ZM7.42051 3.37788C7.59478 3.26143 7.79966 3.19928 8.00925 3.19928C8.29031 3.19928 8.55984 3.31093 8.75858 3.50966C8.95731 3.7084 9.06896 3.97794 9.06896 4.25899C9.06896 4.46858 9.00681 4.67346 8.89037 4.84773C8.77392 5.02199 8.60842 5.15782 8.41479 5.23803C8.22115 5.31823 8.00808 5.33922 7.80252 5.29833C7.59695 5.25744 7.40813 5.15651 7.25993 5.00831C7.11173 4.86011 7.0108 4.67129 6.96991 4.46572C6.92902 4.26016 6.95001 4.04709 7.03022 3.85346C7.11042 3.65982 7.24625 3.49432 7.42051 3.37788Z"
    fill="black" />
</svg>
