<!--
 * Copyright (c) 2024, WSO2 LLC. (https://www.wso2.com).
 *
 * WSO2 LLC. licenses this file to you under the Apache License,
 * Version 2.0 (the "License"); you may not use this file except
 * in compliance with the License.
 * You may obtain a copy of the License at
 *
 *     http://www.apache.org/licenses/LICENSE-2.0
 *
 * Unless required by applicable law or agreed to in writing,
 * software distributed under the License is distributed on an
 * "AS IS" BASIS, WITHOUT WARRANTIES OR CONDITIONS OF ANY
 * KIND, either express or implied. See the License for the
 * specific language governing permissions and limitations
 * under the License.
-->

<svg width="16" height="16" viewBox="0 0 16 16" fill="none" xmlns="http://www.w3.org/2000/svg">
  <path fill-rule="evenodd" clip-rule="evenodd"
    d="M11.9947 2.33562C11.91 1.03154 10.8255 0 9.5 0H2.5L2.33562 0.00531768C1.03154 0.0899613 0 1.17452 0 2.5V9.5L0.00531768 9.66438C0.0899613 10.9685 1.17452 12 2.5 12H4V13.5L4.00532 13.6644C4.08996 14.9685 5.17452 16 6.5 16H13.5L13.6644 15.9947C14.9685 15.91 16 14.8255 16 13.5V5.5L15.9947 5.33562C15.91 4.03154 14.8255 3 13.5 3H12V2.5L11.9947 2.33562ZM11 3V2.5C11 1.7203 10.4051 1.07955 9.64446 1.00687L9.5 1H2.5C1.7203 1 1.07955 1.59489 1.00687 2.35554L1 2.5V9.5C1 10.2797 1.59489 10.9204 2.35554 10.9931L2.5 11H4V10.5C4 10.2239 4.22386 10 4.5 10C4.74546 10 4.94961 10.1769 4.99194 10.4101L5 10.5V13.5C5 14.2797 5.59489 14.9204 6.35554 14.9931L6.5 15H13.5C14.2797 15 14.9204 14.4051 14.9931 13.6445L15 13.5V5.5C15 4.7203 14.4051 4.07955 13.6445 4.00687L13.5 4H9.5C9.22386 4 9 3.77614 9 3.5C9 3.25454 9.17688 3.05039 9.41012 3.00806L9.5 3H11ZM4.5 3.5C4.77614 3.5 5 3.72386 5 4C5 6.50123 6.83659 8.5735 9.23477 8.94181L8.14645 7.85355C7.97288 7.67999 7.9536 7.41056 8.08859 7.21569L8.14645 7.14645C8.32001 6.97288 8.58944 6.9536 8.78431 7.08859L8.85355 7.14645L11.2071 9.5L8.85355 11.8536C8.65829 12.0488 8.34171 12.0488 8.14645 11.8536C7.97288 11.68 7.9536 11.4106 8.08859 11.2157L8.14645 11.1464L9.32996 9.96301C6.33162 9.62985 4 7.08721 4 4C4 3.72386 4.22386 3.5 4.5 3.5Z"
    fill="black" />
</svg>
