<svg width="16" height="16" viewBox="0 0 16 16" fill="none" xmlns="http://www.w3.org/2000/svg">
<path fill-rule="evenodd" clip-rule="evenodd" d="M3 1C1.89543 1 1 1.89543 1 3V7C1 8.10457 1.89543 9 3 9H7C8.10457 9 9 8.10457 9 7V3C9 1.89543 8.10457 1 7 1H3ZM3 11.5H7C7.27614 11.5 7.5 11.7239 7.5 12V15C7.5 15.2761 7.27614 15.5 7 15.5H3C2.72386 15.5 2.5 15.2761 2.5 15V12C2.5 11.7239 2.72386 11.5 3 11.5ZM1 12C1 10.8954 1.89543 10 3 10H7C8.10457 10 9 10.8954 9 12V15C9 16.1046 8.10457 17 7 17H3C1.89543 17 1 16.1046 1 15V12ZM10 10C10 8.89543 10.8954 8 12 8H15C16.1046 8 17 8.89543 17 10V15C17 16.1046 16.1046 17 15 17H12C10.8954 17 10 16.1046 10 15V10ZM12 2.5H15C15.2761 2.5 15.5 2.72386 15.5 3V5C15.5 5.27614 15.2761 5.5 15 5.5H12C11.7239 5.5 11.5 5.27614 11.5 5V3C11.5 2.72386 11.7239 2.5 12 2.5ZM10 3C10 1.89543 10.8954 1 12 1H15C16.1046 1 17 1.89543 17 3V5C17 6.10457 16.1046 7 15 7H12C10.8954 7 10 6.10457 10 5V3Z" fill="#FF9D52"/>
</svg>
