<svg width="16" height="16" viewBox="0 0 16 16" fill="none" xmlns="http://www.w3.org/2000/svg">
  <g clip-path="url(#clip0_1480_525)">
    <mask id="mask0_1480_525" maskUnits="userSpaceOnUse" x="0" y="0"
      width="16" height="16">
      <path d="M16 0H0V16H16V0Z" fill="white" />
    </mask>
    <g mask="url(#mask0_1480_525)">
      <path fill-rule="evenodd" clip-rule="evenodd"
        d="M3.2002 3C3.2002 1.34315 4.54333 0 6.20019 0C7.85705 0 9.20021 1.34315 9.20021 3C9.20021 4.65685 7.85705 6 6.20019 6C4.54333 6 3.2002 4.65685 3.2002 3ZM8.00019 3C8.00019 2.00588 7.1943 1.2 6.20019 1.2C5.20608 1.2 4.40019 2.00588 4.40019 3C4.40019 3.99412 5.20608 4.8 6.20019 4.8C7.1943 4.8 8.00019 3.99412 8.00019 3Z"
        fill="white" />
      <path
        d="M6.2 4.79999C8.03234 4.79999 9.67902 5.59486 10.814 6.8586C11.1647 7.2104 10.3993 7.8839 9.1648 6.97344C8.33527 6.36161 7.30987 5.99999 6.2 5.99999C3.49994 5.99999 1.29975 8.14018 1.2033 10.8167L1.2 11V12.6C1.2 13.1178 1.5935 13.5436 2.09776 13.5948L2.2 13.6H4.88889L5.31111 14.8H2.2C1.02997 14.8 0.0732766 13.8867 0.00401503 12.734L0 12.6V11C0 7.57583 2.77583 4.79999 6.2 4.79999Z"
        fill="white" />
      <path fill-rule="evenodd" clip-rule="evenodd"
        d="M6.5999 6.79999H13.7999C15.015 6.79999 15.9999 7.78497 15.9999 9V13.8C15.9999 15.015 15.015 16 13.7999 16H6.5999C5.38488 16 4.3999 15.015 4.3999 13.8V9C4.3999 7.78497 5.38488 6.79999 6.5999 6.79999ZM13.7999 7.99999H6.5999C6.04762 7.99999 5.5999 8.4477 5.5999 9V13.8C5.5999 14.3523 6.04762 14.8 6.5999 14.8H13.7999C14.3522 14.8 14.7999 14.3523 14.7999 13.8V9C14.7999 8.4477 14.3522 7.99999 13.7999 7.99999ZM8.57567 9.37573C8.80998 9.14142 9.1899 9.14142 9.42421 9.37573C9.63719 9.58871 9.65657 9.92204 9.48226 10.157L9.42421 10.2243L8.24473 11.4032L9.42821 12.6103C9.63915 12.8253 9.65541 13.1588 9.47888 13.392L9.42021 13.4588C9.20519 13.6698 8.87165 13.686 8.63843 13.5095L8.57168 13.4508L6.5554 11.396L8.57567 9.37573ZM10.7311 9.37573C10.9654 9.14142 11.3453 9.14142 11.5796 9.37573L13.5999 11.396L11.5836 13.4508L11.5168 13.5095C11.2836 13.686 10.9501 13.6698 10.7351 13.4588L10.6764 13.392C10.4999 13.1588 10.5161 12.8253 10.7271 12.6103L11.9105 11.4032L10.7311 10.2243L10.673 10.157C10.4987 9.92204 10.5181 9.58871 10.7311 9.37573Z"
        fill="white" />
    </g>
  </g>
  <defs>
    <clipPath id="clip0_1480_525">
      <rect width="16" height="16" fill="white" />
    </clipPath>
  </defs>
</svg>
