<!--
 * Copyright (c) 2023, WSO2 LLC. (https://www.wso2.com). All Rights Reserved.
 *
 * WSO2 LLC. licenses this file to you under the Apache License,
 * Version 2.0 (the "License"); you may not use this file except
 * in compliance with the License.
 * You may obtain a copy of the License at
 *
 *     http://www.apache.org/licenses/LICENSE-2.0
 *
 * Unless required by applicable law or agreed to in writing,
 * software distributed under the License is distributed on an
 * "AS IS" BASIS, WITHOUT WARRANTIES OR CONDITIONS OF ANY
 * KIND, either express or implied. See the License for the
 * specific language governing permissions and limitations
 * under the License.
-->

<svg width="18" height="18" viewBox="0 0 18 18" fill="none" xmlns="http://www.w3.org/2000/svg">
  <g clip-path="url(#clip0_2461_18465)">
    <path fill-rule="evenodd" clip-rule="evenodd"
      d="M3.59998 3.375C3.59998 1.51104 5.11101 0 6.97498 0C8.83894 0 10.35 1.51104 10.35 3.375C10.35 5.23896 8.83894 6.75 6.97498 6.75C5.11101 6.75 3.59998 5.23896 3.59998 3.375ZM8.99998 3.375C8.99998 2.25662 8.09335 1.35 6.97498 1.35C5.8566 1.35 4.94998 2.25662 4.94998 3.375C4.94998 4.49338 5.8566 5.4 6.97498 5.4C8.09335 5.4 8.99998 4.49338 8.99998 3.375Z"
      fill="#40404B" />
    <path
      d="M6.975 5.39999C9.03638 5.39999 10.8889 6.29422 12.1658 7.71593C12.5603 8.1117 11.6992 8.86939 10.3104 7.84512C9.37718 7.15681 8.2236 6.74999 6.975 6.74999C3.93743 6.74999 1.46222 9.15771 1.35371 12.1688L1.35 12.375V14.175C1.35 14.7575 1.79269 15.2366 2.35998 15.2942L2.475 15.3H5.5L5.975 16.65H2.475C1.15872 16.65 0.0824362 15.6225 0.00451691 14.3258L0 14.175V12.375C0 8.52281 3.12281 5.39999 6.975 5.39999Z"
      fill="#40404B" />
    <path fill-rule="evenodd" clip-rule="evenodd"
      d="M7.42495 7.64999H15.525C16.8919 7.64999 18 8.75809 18 10.125V15.525C18 16.8919 16.8919 18 15.525 18H7.42495C6.05805 18 4.94995 16.8919 4.94995 15.525V10.125C4.94995 8.75809 6.05805 7.64999 7.42495 7.64999ZM15.525 8.99999H7.42495C6.80363 8.99999 6.29995 9.50367 6.29995 10.125V15.525C6.29995 16.1463 6.80363 16.65 7.42495 16.65H15.525C16.1463 16.65 16.65 16.1463 16.65 15.525V10.125C16.65 9.50367 16.1463 8.99999 15.525 8.99999ZM9.64769 10.5477C9.91129 10.2841 10.3387 10.2841 10.6023 10.5477C10.8419 10.7873 10.8637 11.1623 10.6676 11.4266L10.6023 11.5023L9.27538 12.8286L10.6068 14.1866C10.8441 14.4285 10.8624 14.8037 10.6638 15.066L10.5978 15.1411C10.3559 15.3785 9.98067 15.3967 9.71829 15.1982L9.6432 15.1321L7.37488 12.8205L9.64769 10.5477ZM12.0725 10.5477C12.3361 10.2841 12.7635 10.2841 13.0271 10.5477L15.2999 12.8205L13.0316 15.1321L12.9565 15.1982C12.6941 15.3967 12.3189 15.3785 12.0771 15.1411L12.011 15.066C11.8124 14.8037 11.8307 14.4285 12.068 14.1866L13.3994 12.8286L12.0725 11.5023L12.0072 11.4266C11.8111 11.1623 11.8329 10.7873 12.0725 10.5477Z"
      fill="#40404B" />
  </g>
  <defs>
    <clipPath id="clip0_2461_18465">
      <rect width="18" height="18" fill="white" />
    </clipPath>
  </defs>
</svg>
