<!--
 * Copyright (c) 2023, WSO2 LLC. (https://www.wso2.com). All Rights Reserved.
 *
 * WSO2 LLC. licenses this file to you under the Apache License,
 * Version 2.0 (the "License"); you may not use this file except
 * in compliance with the License.
 * You may obtain a copy of the License at
 *
 *     http://www.apache.org/licenses/LICENSE-2.0
 *
 * Unless required by applicable law or agreed to in writing,
 * software distributed under the License is distributed on an
 * "AS IS" BASIS, WITHOUT WARRANTIES OR CONDITIONS OF ANY
 * KIND, either express or implied. See the License for the
 * specific language governing permissions and limitations
 * under the License.
-->

<svg width="16" height="16" viewBox="0 0 16 16" fill="none" xmlns="http://www.w3.org/2000/svg">
  <path fill-rule="evenodd" clip-rule="evenodd" d="M15 11.5867C15 11.5864 15 11.5861 15 11.5858V5.5C15 5.49955 15 5.49909 15 5.49863C14.9993 4.67083 14.328 4 13.5 4H7C6.17158 4 5.5 4.67157 5.5 5.5V14.5C5.5 15.3285 6.17158 16 7 16H10.5858C10.9836 16 11.3652 15.8419 11.6465 15.5607L14.5607 12.6465C14.8417 12.3654 14.9998 11.9842 15 11.5867ZM1 1.5V11.5C1 12.3285 1.67158 13 2.5 13H4C4.27614 13 4.5 12.7761 4.5 12.5C4.5 12.2239 4.27614 12 4 12H2.5C2.22386 12 2 11.7762 2 11.5V1.5C2 1.22386 2.22386 1 2.5 1H10C10.2762 1 10.5 1.22385 10.5 1.5V2.5C10.5 2.77614 10.7239 3 11 3C11.2761 3 11.5 2.77614 11.5 2.5V1.5C11.5 0.671578 10.8284 0 10 0H2.5C1.67158 0 1 0.671571 1 1.5ZM6.5 5.5C6.5 5.22386 6.72386 5 7 5H13.5C13.7762 5 14 5.22385 14 5.5V11.5H11.2C10.8134 11.5 10.5 11.8134 10.5 12.2V15H7C6.72386 15 6.5 14.7762 6.5 14.5V5.5ZM11.5 12.5H13.2929L11.5 14.2929V12.5Z" fill="black"/>
</svg>
