<!--
 * Copyright (c) 2024, WSO2 LLC. (https://www.wso2.com).
 *
 * WSO2 LLC. licenses this file to you under the Apache License,
 * Version 2.0 (the "License"); you may not use this file except
 * in compliance with the License.
 * You may obtain a copy of the License at
 *
 *     http://www.apache.org/licenses/LICENSE-2.0
 *
 * Unless required by applicable law or agreed to in writing,
 * software distributed under the License is distributed on an
 * "AS IS" BASIS, WITHOUT WARRANTIES OR CONDITIONS OF ANY
 * KIND, either express or implied. See the License for the
 * specific language governing permissions and limitations
 * under the License.
-->

<svg width="16" height="16" viewBox="0 0 16 16" fill="none" xmlns="http://www.w3.org/2000/svg">
<path fill-rule="evenodd" clip-rule="evenodd" d="M8 0C8.25773 0 8.46667 0.209867 8.46667 0.46875V10.1183L12.3367 6.23104C12.5189 6.04799 12.8144 6.04799 12.9966 6.23104C13.1789 6.4141 13.1789 6.7109 12.9966 6.89396L8 11.9129L3.00335 6.89396C2.82111 6.7109 2.82111 6.4141 3.00335 6.23104C3.1856 6.04799 3.48107 6.04799 3.66332 6.23104L7.53333 10.1183V0.46875C7.53333 0.209867 7.74227 0 8 0ZM1.46667 12.6562C1.7244 12.6562 1.93333 12.8661 1.93333 13.125C1.93333 13.6428 2.3512 14.0625 2.86667 14.0625H13.1333C13.6488 14.0625 14.0667 13.6428 14.0667 13.125C14.0667 12.8661 14.2756 12.6562 14.5333 12.6562C14.7911 12.6562 15 12.8661 15 13.125C15 14.1605 14.1643 15 13.1333 15H2.86667C1.83574 15 1 14.1605 1 13.125C1 12.8661 1.20893 12.6562 1.46667 12.6562Z" fill="black"/>
</svg>
