<!--
 * Copyright (c) 2024, WSO2 LLC. (https://www.wso2.com).
 *
 * WSO2 LLC. licenses this file to you under the Apache License,
 * Version 2.0 (the "License"); you may not use this file except
 * in compliance with the License.
 * You may obtain a copy of the License at
 *
 *     http://www.apache.org/licenses/LICENSE-2.0
 *
 * Unless required by applicable law or agreed to in writing,
 * software distributed under the License is distributed on an
 * "AS IS" BASIS, WITHOUT WARRANTIES OR CONDITIONS OF ANY
 * KIND, either express or implied. See the License for the
 * specific language governing permissions and limitations
 * under the License.
-->

<svg width="16" height="16" viewBox="0 0 16 16" fill="none" xmlns="http://www.w3.org/2000/svg">
  <path
    d="M13 9C13.8284 9 14.5 8.32843 14.5 7.5C14.5 6.67157 13.8284 6 13 6C12.1716 6 11.5 6.67157 11.5 7.5C11.5 8.32843 12.1716 9 13 9Z"
    fill="black" />
  <path
    d="M8 9C8.82843 9 9.5 8.32843 9.5 7.5C9.5 6.67157 8.82843 6 8 6C7.17157 6 6.5 6.67157 6.5 7.5C6.5 8.32843 7.17157 9 8 9Z"
    fill="black" />
  <path
    d="M3 9C3.82843 9 4.5 8.32843 4.5 7.5C4.5 6.67157 3.82843 6 3 6C2.17157 6 1.5 6.67157 1.5 7.5C1.5 8.32843 2.17157 9 3 9Z"
    fill="black" />
</svg>
