<!--
 * Copyright (c) 2023, WSO2 LLC. (https://www.wso2.com). All Rights Reserved.
 *
 * WSO2 LLC. licenses this file to you under the Apache License,
 * Version 2.0 (the "License"); you may not use this file except
 * in compliance with the License.
 * You may obtain a copy of the License at
 *
 *     http://www.apache.org/licenses/LICENSE-2.0
 *
 * Unless required by applicable law or agreed to in writing,
 * software distributed under the License is distributed on an
 * "AS IS" BASIS, WITHOUT WARRANTIES OR CONDITIONS OF ANY
 * KIND, either express or implied. See the License for the
 * specific language governing permissions and limitations
 * under the License.
-->

<svg width="16" height="16" viewBox="0 0 16 16" fill="none" xmlns="http://www.w3.org/2000/svg">
    <g clip-path="url(#clip0_1_13)">
        <path
            d="M2.66667 2.66666H10C10.9205 2.66666 11.6667 3.41285 11.6667 4.33332V6.48726C11.821 6.38976 12.0039 6.33332 12.2 6.33332C12.3685 6.33332 12.5273 6.37502 12.6667 6.44866V4.33332C12.6667 2.86056 11.4727 1.66666 10 1.66666H2.66667C1.19391 1.66666 0 2.86056 0 4.33332V8.33332C0 9.80606 1.19391 11 2.66667 11H8.15393C8.0564 10.8457 8 10.6627 8 10.4667C8 10.2981 8.04167 10.1393 8.11533 9.99999H2.66667C1.74619 9.99999 1 9.25379 1 8.33332V4.33332C1 3.41285 1.74619 2.66666 2.66667 2.66666Z"
        />
        <path
            d="M4.36129 6.06399L2.38931 4.74935L2.94402 3.9173L4.91599 5.23194C5.94261 5.91636 7.29413 5.85771 8.2576 5.08693L9.68767 3.94289L10.3123 4.72376L8.88227 5.8678C7.5788 6.91059 5.75025 6.98999 4.36129 6.06399Z"
        />
        <path
            d="M12.8333 10.6667C12.8333 10.9428 12.6095 11.1667 12.3333 11.1667C12.0572 11.1667 11.8333 10.9428 11.8333 10.6667C11.8333 10.3905 12.0572 10.1667 12.3333 10.1667C12.6095 10.1667 12.8333 10.3905 12.8333 10.6667Z"
        />
        <path fill-rule="evenodd" clip-rule="evenodd"
            d="M12.3333 7C12.0572 7 11.8333 7.22387 11.8333 7.5V7.70813C11.3775 7.7846 10.9565 7.96387 10.5951 8.22127L10.4477 8.07393C10.2525 7.87867 9.93586 7.87867 9.74059 8.07393C9.54532 8.2692 9.54532 8.5858 9.74059 8.78107L9.88792 8.9284C9.63052 9.28987 9.45126 9.71087 9.37479 10.1667H9.16666C8.89052 10.1667 8.66666 10.3905 8.66666 10.6667C8.66666 10.9428 8.89052 11.1667 9.16666 11.1667H9.37479C9.45126 11.6225 9.63052 12.0435 9.88792 12.4049L9.74059 12.5523C9.54532 12.7475 9.54532 13.0641 9.74059 13.2594C9.93586 13.4547 10.2525 13.4547 10.4477 13.2594L10.5951 13.1121C10.9565 13.3695 11.3775 13.5487 11.8333 13.6252V13.8333C11.8333 14.1095 12.0572 14.3333 12.3333 14.3333C12.6095 14.3333 12.8333 14.1095 12.8333 13.8333V13.6252C13.2891 13.5487 13.7101 13.3695 14.0716 13.1121L14.2189 13.2594C14.4142 13.4547 14.7308 13.4547 14.9261 13.2594C15.1213 13.0641 15.1213 12.7475 14.9261 12.5523L14.7787 12.4049C15.0361 12.0435 15.2154 11.6225 15.2919 11.1667H15.5C15.7761 11.1667 16 10.9428 16 10.6667C16 10.3905 15.7761 10.1667 15.5 10.1667H15.2919C15.2154 9.71087 15.0361 9.28987 14.7787 8.9284L14.9261 8.78107C15.1213 8.5858 15.1213 8.2692 14.9261 8.07393C14.7308 7.87867 14.4142 7.87867 14.2189 8.07393L14.0716 8.22127C13.7101 7.96387 13.2891 7.7846 12.8333 7.70813V7.5C12.8333 7.22387 12.6095 7 12.3333 7ZM12.3333 12.6667C13.4379 12.6667 14.3333 11.7713 14.3333 10.6667C14.3333 9.56207 13.4379 8.66667 12.3333 8.66667C11.2287 8.66667 10.3333 9.56207 10.3333 10.6667C10.3333 11.7713 11.2287 12.6667 12.3333 12.6667Z"
        />
    </g>
    <defs>
        <clipPath id="clip0_1_13">
            <rect width="16" height="16" />
        </clipPath>
    </defs>
</svg>
