<!--
 * Copyright (c) 2023, WSO2 LLC. (https://www.wso2.com). All Rights Reserved.
 *
 * WSO2 LLC. licenses this file to you under the Apache License,
 * Version 2.0 (the "License"); you may not use this file except
 * in compliance with the License.
 * You may obtain a copy of the License at
 *
 *     http://www.apache.org/licenses/LICENSE-2.0
 *
 * Unless required by applicable law or agreed to in writing,
 * software distributed under the License is distributed on an
 * "AS IS" BASIS, WITHOUT WARRANTIES OR CONDITIONS OF ANY
 * KIND, either express or implied. See the License for the
 * specific language governing permissions and limitations
 * under the License.
-->

<svg width="16" height="16" viewBox="0 0 16 16" fill="none" xmlns="http://www.w3.org/2000/svg">
    <g clip-path="url(#clip0_7_30)">
        <path
            d="M13.3333 1.66666H2.66667C1.74619 1.66666 1 2.41285 1 3.33332V9.33332C1 10.2538 1.74619 11 2.66667 11H7.65507C7.628 11.1947 7.614 11.3934 7.614 11.5953C7.614 11.7317 7.6204 11.8667 7.63287 12H2.66667C1.19391 12 0 10.8061 0 9.33332V3.33332C0 1.86056 1.19391 0.666656 2.66667 0.666656H13.3333C14.8061 0.666656 16 1.86056 16 3.33332V8.98746C15.7205 8.61619 15.3829 8.28812 15 8.01539V3.33332C15 2.41285 14.2538 1.66666 13.3333 1.66666Z" />
        <path
            d="M6.49439 6.22024L3.10133 4.44293L3.56535 3.5571L6.95841 5.3344C7.85194 5.80244 8.92687 5.76015 9.78087 5.22335L12.4006 3.57669L12.9327 4.42333L10.3131 6.06999C9.15767 6.79621 7.70327 6.85348 6.49439 6.22024Z" />
        <path
            d="M12.8333 11.6667C12.8333 11.9428 12.6095 12.1667 12.3333 12.1667C12.0572 12.1667 11.8333 11.9428 11.8333 11.6667C11.8333 11.3905 12.0572 11.1667 12.3333 11.1667C12.6095 11.1667 12.8333 11.3905 12.8333 11.6667Z" />
        <path fill-rule="evenodd" clip-rule="evenodd"
            d="M12.3333 8C12.0572 8 11.8333 8.22387 11.8333 8.5V8.70813C11.3775 8.7846 10.9565 8.96387 10.5951 9.22127L10.4477 9.07393C10.2525 8.87867 9.93587 8.87867 9.74061 9.07393C9.54534 9.2692 9.54534 9.5858 9.74061 9.78107L9.88794 9.9284C9.63054 10.2899 9.45127 10.7109 9.3748 11.1667H9.16667C8.89054 11.1667 8.66667 11.3905 8.66667 11.6667C8.66667 11.9428 8.89054 12.1667 9.16667 12.1667H9.3748C9.45127 12.6225 9.63054 13.0435 9.88794 13.4049L9.74061 13.5523C9.54534 13.7475 9.54534 14.0641 9.74061 14.2594C9.93587 14.4547 10.2525 14.4547 10.4477 14.2594L10.5951 14.1121C10.9565 14.3695 11.3775 14.5487 11.8333 14.6252V14.8333C11.8333 15.1095 12.0572 15.3333 12.3333 15.3333C12.6095 15.3333 12.8333 15.1095 12.8333 14.8333V14.6252C13.2891 14.5487 13.7101 14.3695 14.0716 14.1121L14.2189 14.2594C14.4142 14.4547 14.7308 14.4547 14.9261 14.2594C15.1213 14.0641 15.1213 13.7475 14.9261 13.5523L14.7787 13.4049C15.0361 13.0435 15.2154 12.6225 15.2919 12.1667H15.5C15.7761 12.1667 16 11.9428 16 11.6667C16 11.3905 15.7761 11.1667 15.5 11.1667H15.2919C15.2154 10.7109 15.0361 10.2899 14.7787 9.9284L14.9261 9.78107C15.1213 9.5858 15.1213 9.2692 14.9261 9.07393C14.7308 8.87867 14.4142 8.87867 14.2189 9.07393L14.0716 9.22127C13.7101 8.96387 13.2891 8.7846 12.8333 8.70813V8.5C12.8333 8.22387 12.6095 8 12.3333 8ZM12.3333 13.6667C13.4379 13.6667 14.3333 12.7713 14.3333 11.6667C14.3333 10.5621 13.4379 9.66667 12.3333 9.66667C11.2287 9.66667 10.3333 10.5621 10.3333 11.6667C10.3333 12.7713 11.2287 13.6667 12.3333 13.6667Z" />
    </g>
    <defs>
        <clipPath id="clip0_7_30">
            <rect width="16" height="16" />
        </clipPath>
    </defs>
</svg>
