<!--
 * Copyright (c) 2023, WSO2 LLC. (https://www.wso2.com). All Rights Reserved.
 *
 * WSO2 LLC. licenses this file to you under the Apache License,
 * Version 2.0 (the "License"); you may not use this file except
 * in compliance with the License.
 * You may obtain a copy of the License at
 *
 *     http://www.apache.org/licenses/LICENSE-2.0
 *
 * Unless required by applicable law or agreed to in writing,
 * software distributed under the License is distributed on an
 * "AS IS" BASIS, WITHOUT WARRANTIES OR CONDITIONS OF ANY
 * KIND, either express or implied. See the License for the
 * specific language governing permissions and limitations
 * under the License.
-->

<svg width="16" height="16" viewBox="0 0 16 16" fill="none" xmlns="http://www.w3.org/2000/svg">
<path d="M3.10133 6.44292L6.49438 8.22023C7.70327 8.85346 9.15766 8.79623 10.3131 8.06998L12.9328 6.42332L12.4006 5.57668L9.78089 7.22334C8.9269 7.76014 7.85191 7.80243 6.95839 7.3344L3.56534 5.55708L3.10133 6.44292Z" fill="black"/>
<path fill-rule="evenodd" clip-rule="evenodd" d="M0 4.66667C0 3.19391 1.19391 2 2.66667 2H13.3333C14.8061 2 16 3.19391 16 4.66667V11.3333C16 12.8061 14.8061 14 13.3333 14H2.66667C1.19391 14 0 12.8061 0 11.3333V4.66667ZM2.66667 3H13.3333C14.2538 3 15 3.74619 15 4.66667V11.3333C15 12.2538 14.2538 13 13.3333 13H2.66667C1.74619 13 1 12.2538 1 11.3333V4.66667C1 3.74619 1.74619 3 2.66667 3Z" fill="black"/>
</svg>
