<!--
 * Copyright (c) 2023, WSO2 LLC. (https://www.wso2.com). All Rights Reserved.
 *
 * WSO2 LLC. licenses this file to you under the Apache License,
 * Version 2.0 (the "License"); you may not use this file except
 * in compliance with the License.
 * You may obtain a copy of the License at
 *
 *     http://www.apache.org/licenses/LICENSE-2.0
 *
 * Unless required by applicable law or agreed to in writing,
 * software distributed under the License is distributed on an
 * "AS IS" BASIS, WITHOUT WARRANTIES OR CONDITIONS OF ANY
 * KIND, either express or implied. See the License for the
 * specific language governing permissions and limitations
 * under the License.
-->

<svg width="16" height="16" viewBox="0 0 16 16" fill="none" xmlns="http://www.w3.org/2000/svg">
<path d="M13.3333 1.95455H2.66667C1.74619 1.95455 1 2.66682 1 3.54545V9.27273C1 10.1514 1.74619 10.8636 2.66667 10.8636H7.65505C7.62798 11.0495 7.61401 11.2392 7.61401 11.4318C7.61401 11.5621 7.6204 11.6909 7.6329 11.8182H2.66667C1.19391 11.8182 0 10.6785 0 9.27273V3.54545C0 2.13964 1.19391 1 2.66667 1H13.3333C14.8061 1 16 2.13964 16 3.54545V8.94255C15.7205 8.58822 15.3829 8.27501 15 8.01471V3.54545C15 2.66682 14.2538 1.95455 13.3333 1.95455Z" fill="black"/>
<path d="M6.49438 6.30113L3.10133 4.6046L3.56534 3.75904L6.95839 5.45556C7.85191 5.90232 8.9269 5.86195 9.78089 5.34955L12.4006 3.77774L12.9328 4.58589L10.3131 6.15771C9.15766 6.85095 7.70327 6.90557 6.49438 6.30113Z" fill="black"/>
<path d="M12.8333 11.5C12.8333 11.7636 12.6095 11.9773 12.3333 11.9773C12.0572 11.9773 11.8333 11.7636 11.8333 11.5C11.8333 11.2364 12.0572 11.0227 12.3333 11.0227C12.6095 11.0227 12.8333 11.2364 12.8333 11.5Z" fill="black"/>
<path fill-rule="evenodd" clip-rule="evenodd" d="M12.3333 8C12.0572 8 11.8333 8.21368 11.8333 8.47727V8.67596C11.3775 8.74895 10.9565 8.92007 10.5951 9.16577L10.4477 9.02513C10.2525 8.83874 9.93588 8.83874 9.74062 9.02513C9.54536 9.21151 9.54536 9.5137 9.74062 9.70009L9.88796 9.84074C9.63055 10.1858 9.45129 10.5876 9.37481 11.0227H9.16667C8.89052 11.0227 8.66667 11.2364 8.66667 11.5C8.66667 11.7636 8.89052 11.9773 9.16667 11.9773H9.37481C9.45129 12.4124 9.63055 12.8142 9.88796 13.1593L9.74061 13.2999C9.54535 13.4863 9.54535 13.7885 9.74061 13.9749C9.93588 14.1613 10.2525 14.1613 10.4477 13.9749L10.5951 13.8342C10.9565 14.0799 11.3775 14.251 11.8333 14.324V14.5227C11.8333 14.7863 12.0572 15 12.3333 15C12.6095 15 12.8333 14.7863 12.8333 14.5227V14.324C13.2892 14.251 13.7101 14.0799 14.0716 13.8342L14.219 13.9749C14.4142 14.1613 14.7308 14.1613 14.9261 13.9749C15.1213 13.7885 15.1213 13.4863 14.9261 13.2999L14.7787 13.1592C15.0361 12.8142 15.2154 12.4124 15.2919 11.9773H15.5C15.7761 11.9773 16 11.7636 16 11.5C16 11.2364 15.7761 11.0227 15.5 11.0227H15.2919C15.2154 10.5876 15.0361 10.1858 14.7787 9.84075L14.9261 9.70009C15.1213 9.5137 15.1213 9.21151 14.9261 9.02513C14.7308 8.83874 14.4142 8.83874 14.219 9.02513L14.0716 9.16578C13.7101 8.92007 13.2892 8.74895 12.8333 8.67596V8.47727C12.8333 8.21368 12.6095 8 12.3333 8ZM12.3333 13.4091C13.4379 13.4091 14.3333 12.5544 14.3333 11.5C14.3333 10.4456 13.4379 9.59091 12.3333 9.59091C11.2288 9.59091 10.3333 10.4456 10.3333 11.5C10.3333 12.5544 11.2288 13.4091 12.3333 13.4091Z" fill="black"/>
</svg>
