<!--
 * Copyright (c) 2023, WSO2 LLC. (https://www.wso2.com).
 *
 * WSO2 LLC. licenses this file to you under the Apache License,
 * Version 2.0 (the "License"); you may not use this file except
 * in compliance with the License.
 * You may obtain a copy of the License at
 *
 *     http://www.apache.org/licenses/LICENSE-2.0
 *
 * Unless required by applicable law or agreed to in writing,
 * software distributed under the License is distributed on an
 * "AS IS" BASIS, WITHOUT WARRANTIES OR CONDITIONS OF ANY
 * KIND, either express or implied. See the License for the
 * specific language governing permissions and limitations
 * under the License.
-->

<svg width="16" height="16" viewBox="0 0 16 16" fill="none" xmlns="http://www.w3.org/2000/svg">
  <path d="M10.0003 8.00019C10.0003 8.27633 10.2242 8.50019 10.5003 8.50019C10.7765 8.50019 11.0003 8.27633 11.0003 8.00019C11.0003 6.34333 9.65719 5.00019 8.00034 5.00019C6.34348 5.00019 5.00034 6.34333 5.00034 8.00019C5.00034 9.65704 6.34349 11.0002 8.00034 11.0002C8.27648 11.0002 8.50034 10.7763 8.50034 10.5002C8.50034 10.224 8.27648 10.0002 8.00034 10.0002C6.89577 10.0002 6.00034 9.10476 6.00034 8.00019C6.00034 6.89562 6.89577 6.00019 8.00034 6.00019C9.10491 6.00019 10.0003 6.89562 10.0003 8.00019Z" fill="black"/>
  <path fill-rule="evenodd" clip-rule="evenodd" d="M16 8C16 8 12.4183 13.5 8 13.5C3.58172 13.5 0 8 0 8C0 8 3.58172 2.5 8 2.5C12.4183 2.5 16 8 16 8ZM1.41523 7.75815C1.34757 7.84433 1.2854 7.92526 1.22895 8C1.2854 8.07475 1.34757 8.15567 1.41523 8.24185C1.79878 8.73038 2.35207 9.37932 3.03181 10.0249C4.42946 11.3524 6.18747 12.5 8 12.5C9.81253 12.5 11.5705 11.3524 12.9682 10.0249C13.6479 9.37932 14.2012 8.73038 14.5848 8.24185C14.6524 8.15567 14.7146 8.07475 14.7711 8C14.7146 7.92526 14.6524 7.84433 14.5848 7.75815C14.2012 7.26962 13.6479 6.62068 12.9682 5.97508C11.5705 4.64763 9.81253 3.5 8 3.5C6.18747 3.5 4.42946 4.64763 3.03181 5.97508C2.35207 6.62068 1.79878 7.26962 1.41523 7.75815Z" fill="black"/>
  <path d="M13.8536 2.85355C14.0489 2.65829 14.0489 2.34171 13.8536 2.14645C13.6584 1.95118 13.3418 1.95118 13.1465 2.14645L2.14652 13.1464C1.95126 13.3417 1.95126 13.6583 2.14652 13.8536C2.34178 14.0488 2.65837 14.0488 2.85363 13.8536L13.8536 2.85355Z" fill="black"/>
</svg>
