<!--
 * Copyright (c) 2023, WSO2 LLC. (https://www.wso2.com). All Rights Reserved.
 *
 * WSO2 LLC. licenses this file to you under the Apache License,
 * Version 2.0 (the "License"); you may not use this file except
 * in compliance with the License.
 * You may obtain a copy of the License at
 *
 *     http://www.apache.org/licenses/LICENSE-2.0
 *
 * Unless required by applicable law or agreed to in writing,
 * software distributed under the License is distributed on an
 * "AS IS" BASIS, WITHOUT WARRANTIES OR CONDITIONS OF ANY
 * KIND, either express or implied. See the License for the
 * specific language governing permissions and limitations
 * under the License.
-->

<svg width="16" height="16" viewBox="0 0 16 16" fill="none" xmlns="http://www.w3.org/2000/svg">
  <path d="M2.5 13.5L13.5 2.5" stroke="black" stroke-linecap="round"/>
  <path d="M1.02195 8.55061C0.84797 8.32901 0.708774 8.14057 0.608079 8C0.708774 7.85943 0.84797 7.67099 1.02195 7.44939C1.41614 6.94731 1.98568 6.27909 2.68748 5.61254C4.11016 4.26131 5.98916 3 8 3C10.0108 3 11.8898 4.26131 13.3125 5.61254C14.0143 6.27909 14.5839 6.94731 14.978 7.44939C15.152 7.67099 15.2912 7.85943 15.3919 8C15.2912 8.14057 15.152 8.32901 14.978 8.55061C14.5839 9.05269 14.0143 9.72091 13.3125 10.3875C11.8898 11.7387 10.0108 13 8 13C5.98916 13 4.11016 11.7387 2.68748 10.3875C1.98568 9.72091 1.41614 9.05269 1.02195 8.55061Z" stroke="black"/>
  <path d="M8 10.5C7.34959 10.5 6.75719 10.2516 6.31248 9.84455C5.81314 9.38747 5.5 8.7303 5.5 8C5.5 6.61929 6.61929 5.5 8 5.5C8.65799 5.5 9.25661 5.7542 9.70301 6.16975" stroke="black" stroke-linecap="round"/>
</svg>
