<!--
 * Copyright (c) 2023, WSO2 LLC. (https://www.wso2.com). All Rights Reserved.
 *
 * WSO2 LLC. licenses this file to you under the Apache License,
 * Version 2.0 (the "License"); you may not use this file except
 * in compliance with the License.
 * You may obtain a copy of the License at
 *
 *     http://www.apache.org/licenses/LICENSE-2.0
 *
 * Unless required by applicable law or agreed to in writing,
 * software distributed under the License is distributed on an
 * "AS IS" BASIS, WITHOUT WARRANTIES OR CONDITIONS OF ANY
 * KIND, either express or implied. See the License for the
 * specific language governing permissions and limitations
 * under the License.
-->

<svg width="16" height="16" viewBox="0 0 16 16" fill="none" xmlns="http://www.w3.org/2000/svg">
<path fill-rule="evenodd" clip-rule="evenodd" d="M5.53473 1.77731C5.64051 1.85052 5.78614 1.79694 5.82061 1.67213C6.43651 -0.557379 9.56349 -0.557373 10.1794 1.67213C10.2139 1.79694 10.3595 1.85052 10.4653 1.77731C12.3548 0.469596 14.7502 2.50139 13.8043 4.60947C13.7513 4.72748 13.8288 4.86315 13.9564 4.8758C16.2354 5.10177 16.7784 8.21466 14.7133 9.21492C14.5977 9.27092 14.5708 9.42519 14.6605 9.51778C16.2626 11.1717 14.6991 13.9091 12.4811 13.3335C12.3569 13.3013 12.2382 13.402 12.248 13.5312C12.4236 15.8392 9.48522 16.9203 8.15211 15.0382C8.07749 14.9328 7.92251 14.9328 7.84788 15.0382C6.51478 16.9203 3.57638 15.8392 3.75198 13.5312C3.76181 13.402 3.64309 13.3013 3.51893 13.3335C1.3009 13.9091 -0.262596 11.1717 1.33954 9.51778C1.42923 9.42519 1.40232 9.27092 1.28671 9.21492C-0.778407 8.21466 -0.235411 5.10177 2.04361 4.8758C2.17119 4.86315 2.24867 4.72748 2.19572 4.60947C1.24981 2.50139 3.64521 0.469594 5.53473 1.77731ZM9.17979 1.95429C8.84638 0.747368 7.15362 0.747367 6.82021 1.95429C6.59447 2.77146 5.64098 3.12227 4.94842 2.64296C3.92555 1.93504 2.62882 3.03493 3.14088 4.17612C3.48758 4.94879 2.98024 5.83707 2.14492 5.91989C0.911194 6.04221 0.617249 7.72734 1.73518 8.26883C2.4921 8.63545 2.6683 9.64556 2.08108 10.2518C1.21377 11.1471 2.06015 12.629 3.26086 12.3174C4.07383 12.1064 4.85113 12.7657 4.78676 13.6117C4.6917 14.8611 6.28238 15.4463 7.00404 14.4274C7.49266 13.7376 8.50734 13.7376 8.99596 14.4274C9.71762 15.4463 11.3083 14.8611 11.2132 13.6117C11.1489 12.7657 11.9262 12.1064 12.7391 12.3174C13.9398 12.629 14.7862 11.1471 13.9189 10.2518C13.3317 9.64556 13.5079 8.63545 14.2648 8.26883C15.3828 7.72734 15.0888 6.04221 13.8551 5.91989C13.0198 5.83707 12.5124 4.94879 12.8591 4.17612C13.3712 3.03493 12.0745 1.93504 11.0516 2.64296C10.359 3.12227 9.40553 2.77146 9.17979 1.95429ZM8 11.3709C9.7303 11.3709 11.1514 9.95 11.1514 8.17448C11.1514 6.39896 9.7303 4.97809 8 4.97809C6.2697 4.97809 4.84865 6.39896 4.84865 8.17448C4.84865 9.95 6.2697 11.3709 8 11.3709ZM8 12.3709C10.2927 12.3709 12.1514 10.4921 12.1514 8.17448C12.1514 5.85688 10.2927 3.97809 8 3.97809C5.70727 3.97809 3.84865 5.85688 3.84865 8.17448C3.84865 10.4921 5.70727 12.3709 8 12.3709ZM8.03784 8.17449C8.03784 8.18466 8.03598 8.1916 8.03378 8.19685C8.03132 8.20275 8.0276 8.20834 8.02295 8.21304C8.01831 8.21773 8.01392 8.22035 8.01085 8.22167C8.00848 8.22268 8.00551 8.22359 8 8.22359C7.9945 8.22359 7.99153 8.22268 7.98916 8.22167C7.98609 8.22035 7.98169 8.21773 7.97705 8.21304C7.97241 8.20834 7.96869 8.20275 7.96622 8.19685C7.96403 8.1916 7.96217 8.18466 7.96217 8.17449C7.96217 8.16433 7.96403 8.15739 7.96622 8.15213C7.96869 8.14624 7.97241 8.14065 7.97705 8.13595C7.98169 8.13126 7.98609 8.12864 7.98916 8.12732C7.99153 8.12631 7.9945 8.1254 8 8.1254C8.00551 8.1254 8.00848 8.12631 8.01085 8.12732C8.01392 8.12864 8.01831 8.13126 8.02295 8.13595C8.0276 8.14065 8.03132 8.14624 8.03378 8.15213C8.03598 8.15739 8.03784 8.16433 8.03784 8.17449ZM9.03784 8.17449C9.03784 8.75389 8.57319 9.22359 8 9.22359C7.42682 9.22359 6.96217 8.75389 6.96217 8.17449C6.96217 7.59509 7.42682 7.1254 8 7.1254C8.57319 7.1254 9.03784 7.59509 9.03784 8.17449Z" fill="black"/>
</svg>
