<!--
 * Copyright (c) 2024, WSO2 LLC. (https://www.wso2.com).
 *
 * WSO2 LLC. licenses this file to you under the Apache License,
 * Version 2.0 (the "License"); you may not use this file except
 * in compliance with the License.
 * You may obtain a copy of the License at
 *
 *     http://www.apache.org/licenses/LICENSE-2.0
 *
 * Unless required by applicable law or agreed to in writing,
 * software distributed under the License is distributed on an
 * "AS IS" BASIS, WITHOUT WARRANTIES OR CONDITIONS OF ANY
 * KIND, either express or implied. See the License for the
 * specific language governing permissions and limitations
 * under the License.
-->

<svg width="16" height="16" viewBox="0 0 16 16" fill="none" xmlns="http://www.w3.org/2000/svg">
  <path
    d="M10.3875 1.16672C9.99112 1.05039 9.584 0.97453 9.17235 0.940303C8.26155 0.833182 7.3386 0.904968 6.45531 1.15163L6.40248 1.16672C4.8189 1.60156 3.42202 2.5446 2.42669 3.85079C1.43136 5.15698 0.892698 6.75398 0.893556 8.39618C0.894413 10.0384 1.43474 11.6348 2.43144 12.94C3.42813 14.2451 4.82599 15.1867 6.41003 15.6199C6.98991 15.7832 7.58878 15.8695 8.1912 15.8765C8.25839 15.8887 8.32671 15.8938 8.39498 15.8916C9.06598 15.8929 9.73395 15.8015 10.3799 15.6199C11.9626 15.1852 13.3588 14.243 14.3543 12.9381C15.3497 11.6331 15.8893 10.0375 15.8901 8.39618C15.891 6.75489 15.3531 5.1587 14.359 3.85269C13.365 2.54668 11.9697 1.60306 10.3875 1.16672ZM10.1837 1.89127C11.1609 2.16177 12.0646 2.64896 12.8276 3.31664C13.5907 3.98431 14.1935 4.81533 14.5913 5.74796H11.3762C10.9924 4.26622 10.2863 2.88747 9.3082 1.71013C9.604 1.74946 9.89658 1.81 10.1837 1.89127ZM8.39498 1.82334C9.42609 2.94021 10.1786 4.28497 10.5913 5.74796H6.18361C6.59448 4.28143 7.35306 2.93567 8.39498 1.82485V1.82334ZM10.7799 6.50269C11.0214 7.75153 11.0214 9.03507 10.7799 10.2839H6.01002C5.88228 9.66315 5.81904 9.03084 5.82133 8.39707C5.81942 7.76083 5.88265 7.12606 6.01002 6.50269H10.7799ZM6.55342 1.90636L6.60626 1.89127C6.89404 1.81459 7.18648 1.75661 7.48175 1.71768C6.49837 2.89032 5.78927 4.26777 5.40623 5.74947H2.20238C2.59861 4.82719 3.19433 4.00419 3.94667 3.33968C4.69901 2.67517 5.58927 2.18566 6.55342 1.90636ZM1.64766 8.39707C1.64778 7.75537 1.74186 7.11714 1.92691 6.50269H5.24019C5.12528 7.12762 5.06718 7.76167 5.0666 8.39707C5.06683 9.03 5.12494 9.66157 5.24019 10.2839H1.92691C1.74132 9.67217 1.64722 9.03635 1.64766 8.39707ZM6.60626 14.8953C5.62806 14.627 4.72333 14.1406 3.95997 13.4727C3.1966 12.8047 2.59442 11.9726 2.19861 11.0386H5.39868C5.7857 12.5237 6.50001 13.9033 7.4893 15.0765C7.19089 15.0379 6.89574 14.9774 6.60626 14.8953ZM6.18361 11.0386H10.5913C10.1836 12.5059 9.43047 13.8542 8.39498 14.9708C7.35952 13.8518 6.60197 12.5047 6.18361 11.0386ZM10.1837 14.8953C9.89267 14.9709 9.59793 15.0314 9.30066 15.0765C10.281 13.8995 10.9897 12.5208 11.3762 11.0386H14.5913C14.1944 11.9718 13.5919 12.8034 12.8287 13.4712C12.0655 14.1389 11.1613 14.6258 10.1837 14.8953ZM11.5422 10.2839C11.7762 9.03436 11.7762 7.75224 11.5422 6.50269H14.8555C15.0442 7.11632 15.1384 7.7551 15.1347 8.39707C15.1366 9.0359 15.0451 9.67156 14.863 10.2839H11.5422Z"
    fill="black" />
</svg>
