<svg width="16" height="16" viewBox="0 0 16 16" fill="none" xmlns="http://www.w3.org/2000/svg">
<path d="M5.72617 13.3337C5.31506 13.3337 4.96622 13.186 4.67967 12.8907C4.39322 12.5953 4.25 12.2481 4.25 11.849C4.25 11.4277 4.39444 11.0781 4.68333 10.8003C4.97211 10.5225 5.32211 10.3837 5.73333 10.3837C6.14444 10.3837 6.48889 10.5225 6.76667 10.8003C7.04444 11.0782 7.18333 11.4294 7.18333 11.854C7.18333 12.2563 7.04328 12.6035 6.76317 12.8957C6.48306 13.1877 6.13739 13.3337 5.72617 13.3337ZM10.2785 13.3337C9.87061 13.3337 9.525 13.186 9.24167 12.8907C8.95833 12.5953 8.81667 12.2481 8.81667 11.849C8.81667 11.4277 8.959 11.0781 9.24367 10.8003C9.52833 10.5225 9.87328 10.3837 10.2785 10.3837C10.6884 10.3837 11.0361 10.5225 11.3217 10.8003C11.6072 11.0782 11.75 11.4294 11.75 11.854C11.75 12.2563 11.6067 12.6035 11.3202 12.8957C11.0336 13.1877 10.6864 13.3337 10.2785 13.3337ZM5.72617 9.46699C5.31506 9.46699 4.96622 9.32466 4.67967 9.03999C4.39322 8.75533 4.25 8.4076 4.25 7.99683C4.25 7.57694 4.39444 7.2281 4.68333 6.95033C4.97211 6.67255 5.32211 6.53366 5.73333 6.53366C6.14444 6.53366 6.48889 6.67371 6.76667 6.95383C7.04444 7.23394 7.18333 7.58116 7.18333 7.99549C7.18333 8.40983 7.04328 8.75866 6.76317 9.04199C6.48306 9.32533 6.13739 9.46699 5.72617 9.46699ZM10.2785 9.46699C9.87061 9.46699 9.525 9.32466 9.24167 9.03999C8.95833 8.75533 8.81667 8.4076 8.81667 7.99683C8.81667 7.57694 8.959 7.2281 9.24367 6.95033C9.52833 6.67255 9.87328 6.53366 10.2785 6.53366C10.6884 6.53366 11.0361 6.67371 11.3217 6.95383C11.6072 7.23394 11.75 7.58116 11.75 7.99549C11.75 8.40983 11.6067 8.75866 11.3202 9.04199C11.0336 9.32533 10.6864 9.46699 10.2785 9.46699ZM5.72617 5.61699C5.31506 5.61699 4.96622 5.47466 4.67967 5.18999C4.39322 4.90533 4.25 4.5576 4.25 4.14683C4.25 3.73138 4.39444 3.38088 4.68333 3.09533C4.97211 2.80977 5.32211 2.66699 5.73333 2.66699C6.14444 2.66699 6.48889 2.81027 6.76667 3.09683C7.04444 3.38338 7.18333 3.73338 7.18333 4.14683C7.18333 4.56027 7.04328 4.90866 6.76317 5.19199C6.48306 5.47533 6.13739 5.61699 5.72617 5.61699ZM10.2785 5.61699C9.87061 5.61699 9.525 5.47466 9.24167 5.18999C8.95833 4.90533 8.81667 4.5576 8.81667 4.14683C8.81667 3.73138 8.959 3.38088 9.24367 3.09533C9.52833 2.80977 9.87328 2.66699 10.2785 2.66699C10.6884 2.66699 11.0361 2.81027 11.3217 3.09683C11.6072 3.38338 11.75 3.73338 11.75 4.14683C11.75 4.56027 11.6067 4.90866 11.3202 5.19199C11.0336 5.47533 10.6864 5.61699 10.2785 5.61699Z" fill="black"/>
</svg>
