<!--
 * Copyright (c) 2025, WSO2 LLC. (https://www.wso2.com).
 *
 * WSO2 LLC. licenses this file to you under the Apache License,
 * Version 2.0 (the "License"); you may not use this file except
 * in compliance with the License.
 * You may obtain a copy of the License at
 *
 *     http://www.apache.org/licenses/LICENSE-2.0
 *
 * Unless required by applicable law or agreed to in writing,
 * software distributed under the License is distributed on an
 * "AS IS" BASIS, WITHOUT WARRANTIES OR CONDITIONS OF ANY
 * KIND, either express or implied. See the License for the
 * specific language governing permissions and limitations
 * under the License.
-->

<svg width="16" height="16" viewBox="0 0 16 16" fill="none" xmlns="http://www.w3.org/2000/svg">
  <g clip-path="url(#clip0_3144_31)">
    <path
      d="M5.71805 1.14286V1.14172L6.28949 1.14286H5.71805ZM5.71805 13.7143C6.34777 13.7143 6.86091 14.2274 6.86091 14.8571C6.86091 15.4869 6.34777 16 5.71805 16C5.0872 16 4.5752 15.4869 4.5752 14.8571C4.5752 14.2274 5.0872 13.7143 5.71805 13.7143ZM10.2895 13.7143C10.9192 13.7143 11.4323 14.2274 11.4323 14.8571C11.4323 15.4869 10.9192 16 10.2895 16C9.65863 16 9.14663 15.4869 9.14663 14.8571C9.14663 14.2274 9.65863 13.7143 10.2895 13.7143ZM5.71805 9.14286C6.34776 9.14286 6.8609 9.656 6.8609 10.2857C6.8609 10.9154 6.34776 11.4286 5.71805 11.4286C5.0872 11.4286 4.5752 10.9154 4.5752 10.2857C4.5752 9.656 5.0872 9.14286 5.71805 9.14286ZM10.2895 9.14286C10.9192 9.14286 11.4323 9.656 11.4323 10.2857C11.4323 10.9154 10.9192 11.4286 10.2895 11.4286C9.65862 11.4286 9.14662 10.9154 9.14662 10.2857C9.14662 9.656 9.65862 9.14286 10.2895 9.14286ZM5.71805 4.57142C6.34776 4.57142 6.8609 5.08457 6.8609 5.71428C6.8609 6.34399 6.34776 6.85713 5.71805 6.85713C5.0872 6.85713 4.5752 6.34399 4.5752 5.71428C4.5752 5.08457 5.0872 4.57142 5.71805 4.57142ZM10.2895 4.57142C10.9192 4.57142 11.4323 5.08457 11.4323 5.71428C11.4323 6.34399 10.9192 6.85713 10.2895 6.85713C9.65862 6.85713 9.14662 6.34399 9.14662 5.71428C9.14662 5.08457 9.65862 4.57142 10.2895 4.57142ZM5.71805 0C6.34776 0 6.8609 0.513142 6.8609 1.14286C6.8609 1.77258 6.34776 2.28572 5.71805 2.28572C5.0872 2.28572 4.5752 1.77258 4.5752 1.14286C4.5752 0.513142 5.0872 0 5.71805 0ZM10.2889 0C10.9186 0 11.4318 0.513142 11.4318 1.14286C11.4318 1.77258 10.9186 2.28572 10.2889 2.28572C9.6592 2.28572 9.14605 1.77258 9.14605 1.14286C9.14605 0.513142 9.6592 0 10.2889 0Z"
      fill="#A0A0A0" />
  </g>
  <defs>
    <clipPath id="clip0_3144_31">
      <rect width="16" height="16" fill="white" />
    </clipPath>
  </defs>
</svg>
