<!--
 * Copyright (c) 2023, WSO2 LLC. (https://www.wso2.com). All Rights Reserved.
 *
 * WSO2 LLC. licenses this file to you under the Apache License,
 * Version 2.0 (the "License"); you may not use this file except
 * in compliance with the License.
 * You may obtain a copy of the License at
 *
 *     http://www.apache.org/licenses/LICENSE-2.0
 *
 * Unless required by applicable law or agreed to in writing,
 * software distributed under the License is distributed on an
 * "AS IS" BASIS, WITHOUT WARRANTIES OR CONDITIONS OF ANY
 * KIND, either express or implied. See the License for the
 * specific language governing permissions and limitations
 * under the License.
-->

<svg width="16" height="16" viewBox="0 0 16 16" fill="none" xmlns="http://www.w3.org/2000/svg">
  <g clip-path="url(#clip0_1480_543)">
    <mask id="mask0_1480_543" maskUnits="userSpaceOnUse" x="0" y="0" width="16" height="16">
      <path d="M16 0H0V16H16V0Z" fill="white"/>
    </mask>
    <g mask="url(#mask0_1480_543)">
      <path fill-rule="evenodd" clip-rule="evenodd" d="M8.00006 0.0821533L15.7088 4.44572C16.0131 4.65304 16.0916 5.06777 15.8844 5.37205C15.6958 5.64865 15.336 5.73876 15.0435 5.59709L14.958 5.5476L14.4444 5.26349L14.4445 13.5555C14.4445 14.8555 13.4297 15.9186 12.149 15.9955L12.0001 16H4.00006C2.70004 16 1.63704 14.9851 1.56008 13.7044L1.55562 13.5555L1.55556 5.2626L1.04212 5.5476C0.765507 5.73607 0.397611 5.68824 0.177243 5.44939L0.115797 5.37205C-0.0726764 5.09544 -0.024856 4.72753 0.214001 4.50717L0.291344 4.44572L8.00006 0.0821533ZM10.5378 6.53184C9.23609 5.23009 7.1255 5.23009 5.82375 6.53184C4.52201 7.83359 4.52201 9.94416 5.82375 11.2459C7.1255 12.5476 9.23609 12.5476 10.5378 11.2459C10.7981 10.9855 10.7981 10.5635 10.5378 10.3031C10.2774 10.0427 9.85538 10.0427 9.59502 10.3031C8.81394 11.0842 7.54761 11.0842 6.76656 10.3031C5.98551 9.52203 5.98551 8.2557 6.76656 7.47465C7.54761 6.6936 8.81394 6.6936 9.59502 7.47465C9.85538 7.735 10.2774 7.735 10.5378 7.47465C10.7981 7.2143 10.7981 6.79219 10.5378 6.53184Z" fill="#465867"/>
    </g>
  </g>
  <defs>
    <clipPath id="clip0_1480_543">
      <rect width="16" height="16" fill="white"/>
    </clipPath>
  </defs>
</svg>
  