<svg width="16" height="16" viewBox="0 0 16 16" fill="none" xmlns="http://www.w3.org/2000/svg">
<path fill-rule="evenodd" clip-rule="evenodd" d="M2.31933 4.62284L3.29508 4.34901C3.56095 4.27439 3.83697 4.42944 3.91158 4.69531C3.9862 4.96118 3.83115 5.2372 3.56528 5.31181L1.52287 5.885L1.04146 6.0201L0.906363 5.53869L0.333179 3.49628C0.258565 3.23041 0.413609 2.95439 0.67948 2.87978C0.945351 2.80516 1.22137 2.96021 1.29598 3.22608L1.51793 4.01693C3.48703 0.865274 7.53794 -0.408348 11.0046 1.18389C11.8994 1.5949 12.6757 2.16058 13.3155 2.83501C13.5055 3.03536 13.4972 3.35183 13.2968 3.54187C13.0965 3.73191 12.78 3.72355 12.59 3.52321C12.0365 2.93971 11.3643 2.44954 10.5872 2.09262C7.55546 0.700133 4.0081 1.83677 2.31933 4.62284ZM3.1585 12.4755C2.96846 12.2752 2.65199 12.2668 2.45164 12.4569C2.25129 12.6469 2.24294 12.9634 2.43298 13.1637C3.07271 13.8382 3.84902 14.4039 4.74386 14.8149C8.4472 16.5158 12.8173 14.9462 14.6039 11.3103L15.0671 12.1126C15.2052 12.3518 15.511 12.4337 15.7501 12.2957C15.9893 12.1576 16.0712 11.8518 15.9331 11.6126L14.8725 9.77553L14.6225 9.34251L14.1895 9.59251L12.3524 10.6532C12.1132 10.7912 12.0313 11.097 12.1693 11.3362C12.3074 11.5753 12.6132 11.6573 12.8524 11.5192L13.5913 11.0925C11.9768 14.0836 8.29381 15.3449 5.16124 13.9061C4.38415 13.5492 3.71198 13.059 3.1585 12.4755ZM9.12513 8.18735C10.2815 8.18735 11.2189 7.24995 11.2189 6.0936C11.2189 4.93725 10.2815 3.99985 9.12513 3.99985C7.96878 3.99985 7.03138 4.93725 7.03138 6.0936C7.03138 7.24995 7.96878 8.18735 9.12513 8.18735ZM9.12513 9.18735C10.8338 9.18735 12.2189 7.80223 12.2189 6.0936C12.2189 4.38497 10.8338 2.99985 9.12513 2.99985C7.4165 2.99985 6.03138 4.38497 6.03138 6.0936C6.03138 6.396 6.07476 6.68827 6.15565 6.96451C6.12738 6.98304 6.10056 7.00472 6.07572 7.02957L3.17586 9.92942C3.06334 10.0419 3.00013 10.1946 3.00013 10.3537V11.6186C3.00013 11.95 3.26876 12.2186 3.60013 12.2186H5.42746C5.58659 12.2186 5.7392 12.1554 5.85172 12.0429L6.35564 11.5389C6.46816 11.4264 6.53138 11.2738 6.53138 11.1147V10.8123H7.11496C7.27409 10.8123 7.4267 10.7491 7.53922 10.6365L8.91618 9.25957C8.93977 9.23598 8.9605 9.21063 8.97839 9.18393C9.02702 9.1862 9.07594 9.18735 9.12513 9.18735ZM4.00013 10.5194L6.61586 7.90364C6.9302 8.33865 7.35488 8.68867 7.84887 8.91267L6.94927 9.81226H6.13138C5.80001 9.81226 5.53138 10.0809 5.53138 10.4123V10.949L5.26177 11.2186H4.00013V10.5194Z" fill="black"/>
</svg>
