<svg width="16" height="16" viewBox="0 0 16 16" fill="none" xmlns="http://www.w3.org/2000/svg">
  <path fill-rule="evenodd" clip-rule="evenodd" d="M8.00022 0.222229C9.78182 0.222229 11.2369 1.61988 11.3289 3.37853L11.3336 3.55556V5.55556H12.4447C13.7447 5.55556 14.8077 6.57041 14.8847 7.8511L14.8891 8.00001V13.3333C14.8891 14.6834 13.7947 15.7778 12.4447 15.7778H3.55577C2.20575 15.7778 1.11133 14.6834 1.11133 13.3333V8.00001C1.11133 6.64998 2.20575 5.55556 3.55577 5.55556H4.66688V3.55556C4.66688 1.71461 6.15927 0.222229 8.00022 0.222229ZM12.4447 6.8889H3.55577C2.94212 6.8889 2.44466 7.38635 2.44466 8.00001V13.3333C2.44466 13.947 2.94212 14.4445 3.55577 14.4445H12.4447C13.0584 14.4445 13.5558 13.947 13.5558 13.3333V8.00001C13.5558 7.38635 13.0584 6.8889 12.4447 6.8889ZM8.00022 7.77778C8.33773 7.77778 8.61665 8.02858 8.66079 8.35399L8.66688 8.44445L8.66711 9.22498C9.44377 9.49965 10.0002 10.2404 10.0002 11.1111C10.0002 12.2157 9.10475 13.1111 8.00022 13.1111C6.89565 13.1111 6.00022 12.2157 6.00022 11.1111C6.00022 10.2401 6.55708 9.49903 7.33423 9.22472L7.33355 8.44445C7.33355 8.07626 7.63203 7.77778 8.00022 7.77778ZM8.00022 10.4445C7.63203 10.4445 7.33355 10.7429 7.33355 11.1111C7.33355 11.4793 7.63203 11.7778 8.00022 11.7778C8.3684 11.7778 8.66688 11.4793 8.66688 11.1111C8.66688 10.7429 8.3684 10.4445 8.00022 10.4445ZM8.00022 1.55556C6.94167 1.55556 6.0752 2.37793 6.00483 3.41863L6.00022 3.55556V5.55556H10.0002V3.55556C10.0002 2.45099 9.10475 1.55556 8.00022 1.55556Z" fill="white"/>
  </svg>
  