<!--
 * Copyright (c) 2023, WSO2 LLC. (https://www.wso2.com). All Rights Reserved.
 *
 * WSO2 LLC. licenses this file to you under the Apache License,
 * Version 2.0 (the "License"); you may not use this file except
 * in compliance with the License.
 * You may obtain a copy of the License at
 *
 *     http://www.apache.org/licenses/LICENSE-2.0
 *
 * Unless required by applicable law or agreed to in writing,
 * software distributed under the License is distributed on an
 * "AS IS" BASIS, WITHOUT WARRANTIES OR CONDITIONS OF ANY
 * KIND, either express or implied. See the License for the
 * specific language governing permissions and limitations
 * under the License.
-->

<svg width="16" height="17" viewBox="0 0 16 17" fill="none" xmlns="http://www.w3.org/2000/svg">
<path fill-rule="evenodd" clip-rule="evenodd" d="M3 0.5C2.17157 0.5 1.5 1.17157 1.5 2V5.5C1.5 5.77614 1.72386 6 2 6C2.27614 6 2.5 5.77614 2.5 5.5V2C2.5 1.72386 2.72386 1.5 3 1.5H13C13.2761 1.5 13.5 1.72386 13.5 2V5.5C13.5 5.77614 13.7239 6 14 6C14.2761 6 14.5 5.77614 14.5 5.5V2C14.5 1.17157 13.8284 0.5 13 0.5H3ZM2.5 14.5C2.5 14.2239 2.27614 14 2 14C1.72386 14 1.5 14.2239 1.5 14.5V15C1.5 15.8284 2.17157 16.5 3 16.5H13C13.8284 16.5 14.5 15.8284 14.5 15V14.5C14.5 14.2239 14.2761 14 14 14C13.7239 14 13.5 14.2239 13.5 14.5V15C13.5 15.2761 13.2761 15.5 13 15.5H3C2.72386 15.5 2.5 15.2761 2.5 15V14.5ZM7.15743 12.3042C6.80917 12.3042 6.48645 12.2419 6.18927 12.1172C5.89209 11.9926 5.63206 11.8194 5.40917 11.5978C5.19093 11.3716 5.02145 11.1061 4.90072 10.8014C4.77999 10.4967 4.71962 10.1643 4.71962 9.8042C4.71962 9.44409 4.77999 9.11168 4.90072 8.80697C5.02145 8.50226 5.19093 8.2391 5.40917 8.0175C5.63206 7.79127 5.89209 7.61583 6.18927 7.49118C6.48645 7.36653 6.80917 7.3042 7.15743 7.3042C7.51033 7.3042 7.83538 7.36653 8.13256 7.49118C8.42974 7.61583 8.68745 7.79127 8.90569 8.0175C9.12393 8.24372 9.29342 8.50919 9.41415 8.81389C9.53488 9.11399 9.59524 9.44409 9.59524 9.8042C9.59524 10.1597 9.53488 10.4898 9.41415 10.7945C9.29342 11.0992 9.12393 11.3647 8.90569 11.5909C8.68745 11.8171 8.42974 11.9926 8.13256 12.1172C7.83538 12.2419 7.51033 12.3042 7.15743 12.3042ZM7.15743 11.4455C7.38032 11.4455 7.58231 11.4062 7.7634 11.3277C7.94914 11.2446 8.10934 11.1292 8.244 10.9815C8.37866 10.8291 8.48314 10.6537 8.55743 10.4552C8.63637 10.2566 8.67584 10.0397 8.67584 9.8042C8.67584 9.56874 8.63637 9.35175 8.55743 9.15323C8.48314 8.95471 8.37866 8.78158 8.244 8.63384C8.10934 8.48148 7.94914 8.36606 7.7634 8.28758C7.58231 8.20448 7.38032 8.16293 7.15743 8.16293C6.93919 8.16293 6.7372 8.20448 6.55146 8.28758C6.36572 8.36606 6.20552 8.47918 6.07086 8.62691C5.9362 8.77465 5.83173 8.94778 5.75743 9.14631C5.68314 9.34483 5.64599 9.56413 5.64599 9.8042C5.64599 10.0397 5.68314 10.259 5.75743 10.4621C5.83173 10.6606 5.9362 10.8337 6.07086 10.9815C6.20552 11.1292 6.36572 11.2446 6.55146 11.3277C6.7372 11.4062 6.93919 11.4455 7.15743 11.4455ZM1 12.2349V7.3873H1.90547V11.4039H4.15522V12.2349H1ZM11.7751 12.1172C12.0862 12.2419 12.4252 12.3042 12.792 12.3042C13.1032 12.3042 13.391 12.2534 13.6557 12.1518C13.925 12.0457 14.1595 11.8979 14.3592 11.7086C14.5635 11.5193 14.7214 11.2954 14.8328 11.0369C14.9443 10.7737 15 10.4829 15 10.1643C15 10.1228 14.9977 10.0743 14.993 10.0189C14.993 9.95886 14.9907 9.89884 14.9861 9.83883C14.9814 9.77419 14.9745 9.71648 14.9652 9.6657H12.7572V10.469H14.0736V10.4759C14.0736 10.6144 14.0411 10.7437 13.9761 10.8638C13.9158 10.9838 13.8275 11.09 13.7114 11.1823C13.5954 11.27 13.463 11.3393 13.3144 11.3901C13.1658 11.4409 13.0056 11.4662 12.8338 11.4662C12.6063 11.4662 12.3904 11.4247 12.1861 11.3416C11.9864 11.2539 11.81 11.1338 11.6567 10.9815C11.5035 10.8291 11.3828 10.6514 11.2945 10.4482C11.2109 10.2451 11.1692 10.0304 11.1692 9.8042C11.1692 9.56874 11.2109 9.35175 11.2945 9.15323C11.3781 8.95471 11.4919 8.78158 11.6358 8.63384C11.7844 8.4861 11.9562 8.37068 12.1512 8.28758C12.3509 8.20448 12.5668 8.16293 12.799 8.16293C12.9569 8.16293 13.1101 8.18601 13.2587 8.23218C13.4073 8.27835 13.5489 8.34298 13.6836 8.42608C13.8229 8.50919 13.9575 8.61306 14.0876 8.73772L14.6587 8.14215C14.5333 7.98518 14.3755 7.84437 14.1851 7.71971C13.9947 7.59506 13.7811 7.49811 13.5443 7.42885C13.3075 7.3596 13.0614 7.32497 12.806 7.32497C12.4438 7.32497 12.1048 7.3873 11.7891 7.51196C11.4779 7.63661 11.2063 7.81205 10.9741 8.03827C10.742 8.25988 10.5609 8.52304 10.4308 8.82775C10.3055 9.12784 10.2428 9.45332 10.2428 9.8042C10.2428 10.1597 10.3055 10.4898 10.4308 10.7945C10.5562 11.0946 10.7327 11.3578 10.9602 11.584C11.1924 11.8102 11.464 11.9879 11.7751 12.1172Z" fill="black"/>
</svg>
