<svg width="16" height="16" viewBox="0 0 16 16" fill="none" xmlns="http://www.w3.org/2000/svg">
<path fill-rule="evenodd" clip-rule="evenodd" d="M3.29508 4.34901L2.31933 4.62284C4.0081 1.83677 7.55546 0.700134 10.5872 2.09263C11.3643 2.44955 12.0365 2.93971 12.59 3.52321C12.78 3.72355 13.0965 3.73191 13.2968 3.54187C13.4972 3.35183 13.5055 3.03536 13.3155 2.83501C12.6757 2.16058 11.8994 1.5949 11.0046 1.18389C7.53794 -0.408348 3.48703 0.865274 1.51793 4.01693L1.29598 3.22608C1.22137 2.96021 0.945351 2.80516 0.67948 2.87978C0.413609 2.95439 0.258565 3.23041 0.333179 3.49628L0.906363 5.53869L1.04146 6.0201L1.52287 5.885L3.56528 5.31181C3.83115 5.2372 3.9862 4.96118 3.91158 4.69531C3.83697 4.42944 3.56095 4.27439 3.29508 4.34901ZM2.45164 12.4569C2.65199 12.2668 2.96846 12.2752 3.1585 12.4755C3.71198 13.059 4.38415 13.5492 5.16124 13.9061C8.29381 15.3449 11.9768 14.0836 13.5913 11.0925L12.8524 11.5192C12.6132 11.6573 12.3074 11.5753 12.1693 11.3362C12.0313 11.097 12.1132 10.7912 12.3524 10.6532L14.1895 9.59251L14.6225 9.34251L14.8725 9.77553L15.9331 11.6126C16.0712 11.8518 15.9893 12.1576 15.7501 12.2957C15.511 12.4337 15.2052 12.3518 15.0671 12.1126L14.6039 11.3103C12.8173 14.9462 8.4472 16.5158 4.74386 14.8149C3.84902 14.4039 3.07271 13.8382 2.43298 13.1637C2.24294 12.9634 2.25129 12.6469 2.45164 12.4569ZM5.31263 4.9686C5.31263 3.91581 6.16608 3.06235 7.21888 3.06235C8.27167 3.06235 9.12513 3.91581 9.12513 4.9686V5.87485H9.46057C10.4357 5.87485 11.2262 6.66535 11.2262 7.64048V8.19276C11.2262 8.4689 11.0023 8.69276 10.7262 8.69276C10.4501 8.69276 10.2262 8.4689 10.2262 8.19276V7.64048C10.2262 7.21763 9.88341 6.87485 9.46057 6.87485H5.84388C5.01545 6.87485 4.34388 7.54642 4.34388 8.37485V9.74985C4.34388 10.2504 4.74962 10.6561 5.25013 10.6561C5.52627 10.6561 5.75013 10.88 5.75013 11.1561C5.75013 11.4322 5.52627 11.6561 5.25013 11.6561C4.19733 11.6561 3.34388 10.8026 3.34388 9.74985V8.37485C3.34388 7.17644 4.18711 6.17497 5.31263 5.93141V4.9686ZM8.12513 4.9686V5.87485H6.31263V4.9686C6.31263 4.46809 6.71837 4.06235 7.21888 4.06235C7.71939 4.06235 8.12513 4.46809 8.12513 4.9686ZM10.5223 9.37685C10.5477 9.12418 10.9213 9.12418 10.9467 9.37685L11.0199 10.1062L11.6971 9.80407C11.9318 9.69939 12.1186 10.0184 11.9093 10.1664L11.3053 10.5936L11.9093 11.0208C12.1186 11.1688 11.9318 11.4878 11.6971 11.3831L11.0199 11.081L10.9467 11.8103C10.9213 12.063 10.5477 12.063 10.5223 11.8103L10.4491 11.081L9.77186 11.3831C9.53724 11.4878 9.35044 11.1688 9.55969 11.0208L10.1637 10.5936L9.55969 10.1664C9.35045 10.0184 9.53724 9.69939 9.77186 9.80407L10.4491 10.1062L10.5223 9.37685ZM7.85292 9.37685C7.82755 9.12418 7.45396 9.12418 7.42859 9.37685L7.35536 10.1062L6.67811 9.80407C6.44349 9.69939 6.2567 10.0184 6.46594 10.1664L7.06997 10.5936L6.46594 11.0208C6.25669 11.1688 6.44349 11.4878 6.67811 11.3831L7.35536 11.081L7.42859 11.8103C7.45396 12.063 7.82755 12.063 7.85292 11.8103L7.92614 11.081L8.6034 11.3831C8.83802 11.4878 9.02481 11.1688 8.81556 11.0208L8.21153 10.5936L8.81556 10.1664C9.02481 10.0184 8.83802 9.69939 8.6034 9.80407L7.92614 10.1062L7.85292 9.37685Z" fill="black"/>
</svg>
