<!--
 * Copyright (c) 2023, WSO2 LLC. (https://www.wso2.com).
 *
 * WSO2 LLC. licenses this file to you under the Apache License,
 * Version 2.0 (the "License"); you may not use this file except
 * in compliance with the License.
 * You may obtain a copy of the License at
 *
 *     http://www.apache.org/licenses/LICENSE-2.0
 *
 * Unless required by applicable law or agreed to in writing,
 * software distributed under the License is distributed on an
 * "AS IS" BASIS, WITHOUT WARRANTIES OR CONDITIONS OF ANY
 * KIND, either express or implied. See the License for the
 * specific language governing permissions and limitations
 * under the License.
-->

<svg width="16" height="16" viewBox="0 0 16 16" fill="none" xmlns="http://www.w3.org/2000/svg">
  <path d="M1.62348 6.75929C2.16142 4.12123 4.29987 2.03438 6.93525 1.58629H6.94792L6.98478 1.58076C7.26572 1.53864 7.53884 1.50978 7.79862 1.50214C8.05725 1.49454 8.31023 1.50769 8.575 1.53356L8.57654 1.53371C12.205 1.87689 14.9921 5.20819 14.4267 9.02005L14.4213 9.05654V9.06887C13.9766 11.6886 11.9123 13.861 9.29867 14.3679H9.27682L9.22581 14.3787C8.4978 14.5322 7.8148 14.5298 7.13361 14.4285C7.12004 14.4255 7.10792 14.4233 7.09765 14.4218C7.07747 14.4188 7.05835 14.4173 7.04086 14.4168C6.22234 14.2693 5.84826 13.162 6.47481 12.5358C7.33143 11.6795 7.33143 10.385 6.47481 9.52875C5.61831 8.67262 4.3236 8.67262 3.4671 9.52875C2.84003 10.1555 1.73222 9.7807 1.58472 8.96318C1.58414 8.94569 1.58263 8.92657 1.57968 8.9064C1.57819 8.89624 1.57605 8.88427 1.57303 8.87091C1.47119 8.1816 1.46552 7.49559 1.62243 6.76428L1.62246 6.76428L1.62348 6.75929ZM8.56836 1.59555L8.56691 1.59542C8.30607 1.57235 8.04389 1.56801 7.7835 1.57698C7.52241 1.58598 7.25983 1.60855 6.98765 1.64936L6.98765 1.64932L6.9813 1.65035C4.36595 2.07693 2.23673 4.16743 1.70218 6.77514C1.5422 7.52352 1.5402 8.21614 1.64601 8.91112C1.69805 9.30789 1.95544 9.63037 2.31565 9.75615C2.6874 9.88595 3.09837 9.78365 3.40154 9.48062C4.2643 8.61823 5.66081 8.61823 6.52358 9.48062C7.38623 10.3429 7.38623 11.7384 6.52358 12.6007C6.2204 12.9037 6.11791 13.3147 6.24787 13.6866C6.37378 14.0468 6.69646 14.304 7.09313 14.356C7.77265 14.4593 8.4499 14.4597 9.17919 14.3104H9.1898L9.23462 14.3022C11.846 13.8222 13.9312 11.6296 14.3568 9.02289L14.3568 9.0229L14.3579 9.01569C14.9215 5.21504 12.1775 1.92537 8.56836 1.59555ZM6.35263 4.24214C6.35263 3.92467 6.60929 3.66781 6.92744 3.66781C7.24559 3.66781 7.50225 3.92467 7.50225 4.24214C7.50225 4.55961 7.24559 4.81647 6.92744 4.81647C6.60929 4.81647 6.35263 4.55961 6.35263 4.24214ZM10.1145 5.31647C10.1145 4.999 10.3711 4.74214 10.6893 4.74214C11.0074 4.74214 11.2641 4.999 11.2641 5.31647C11.2641 5.63394 11.0074 5.8908 10.6893 5.8908C10.3711 5.8908 10.1145 5.63394 10.1145 5.31647ZM3.66562 6.3908C3.66562 6.07333 3.92227 5.81647 4.24042 5.81647C4.55857 5.81647 4.81523 6.07333 4.81523 6.3908C4.81523 6.70827 4.55857 6.96513 4.24042 6.96513C3.92227 6.96513 3.66562 6.70827 3.66562 6.3908ZM11.1893 9.07663C11.1893 8.75916 11.4459 8.5023 11.7641 8.5023C12.0822 8.5023 12.3389 8.75916 12.3389 9.07663C12.3389 9.3941 12.0822 9.65096 11.7641 9.65096C11.4459 9.65096 11.1893 9.3941 11.1893 9.07663ZM9.03965 11.7625C9.03965 11.445 9.29631 11.1881 9.61446 11.1881C9.9326 11.1881 10.1893 11.445 10.1893 11.7625C10.1893 12.0799 9.9326 12.3368 9.61446 12.3368C9.29631 12.3368 9.03965 12.0799 9.03965 11.7625Z" fill="black" stroke="black"/>
</svg>
