<!--
 * Copyright (c) 2024, WSO2 LLC. (https://www.wso2.com).
 *
 * WSO2 LLC. licenses this file to you under the Apache License,
 * Version 2.0 (the "License"); you may not use this file except
 * in compliance with the License.
 * You may obtain a copy of the License at
 *
 *     http://www.apache.org/licenses/LICENSE-2.0
 *
 * Unless required by applicable law or agreed to in writing,
 * software distributed under the License is distributed on an
 * "AS IS" BASIS, WITHOUT WARRANTIES OR CONDITIONS OF ANY
 * KIND, either express or implied. See the License for the
 * specific language governing permissions and limitations
 * under the License.
-->

<svg width="16" height="16" viewBox="0 0 16 16" fill="none" xmlns="http://www.w3.org/2000/svg">
  <path fill-rule="evenodd" clip-rule="evenodd"
    d="M14.253 1.14645C14.0577 0.951184 13.7411 0.951185 13.5459 1.14645L13.1065 1.58579L14.3994 2.87868L14.8388 2.43934C15.034 2.24408 15.034 1.9275 14.8388 1.73223L14.253 1.14645ZM12.8388 0.439339L12.0459 1.23223L6.54586 6.73223L6.39941 6.87868V7.08579V9.08579V9.58579H6.89941H8.89941H9.10652L9.25297 9.43934L14.7527 3.93957L14.753 3.93934L14.7532 3.93911L15.5459 3.14645C16.1316 2.56066 16.1316 1.61091 15.5459 1.02513L14.9601 0.43934C14.3743 -0.146446 13.4245 -0.146448 12.8388 0.439339ZM8.69231 8.58579L13.6923 3.58579L12.3994 2.29289L7.39941 7.29289V8.58579H8.69231ZM1 11.5C1 13.433 2.567 15 4.5 15H11.5C13.433 15 15 13.433 15 11.5V8C15 7.72386 14.7761 7.5 14.5 7.5C14.2239 7.5 14 7.72386 14 8V11.5C14 12.8807 12.8807 14 11.5 14H4.5C3.11929 14 2 12.8807 2 11.5L2 4.5C2 3.11929 3.11929 2 4.5 2L8 2C8.27614 2 8.5 1.77614 8.5 1.5C8.5 1.22386 8.27614 1 8 1L4.5 1C2.567 1 1 2.567 1 4.5V11.5Z"
    fill="black" />
</svg>
