<!--
 * Copyright (c) 2024, WSO2 LLC. (https://www.wso2.com).
 *
 * WSO2 LLC. licenses this file to you under the Apache License,
 * Version 2.0 (the "License"); you may not use this file except
 * in compliance with the License.
 * You may obtain a copy of the License at
 *
 *     http://www.apache.org/licenses/LICENSE-2.0
 *
 * Unless required by applicable law or agreed to in writing,
 * software distributed under the License is distributed on an
 * "AS IS" BASIS, WITHOUT WARRANTIES OR CONDITIONS OF ANY
 * KIND, either express or implied. See the License for the
 * specific language governing permissions and limitations
 * under the License.
-->

<svg width="16" height="16" viewBox="0 0 16 16" fill="none" xmlns="http://www.w3.org/2000/svg">
  <path d="M7.28571 8.71429H3.71429C3.5119 8.71429 3.34226 8.64583 3.20536 8.50893C3.06845 8.37202 3 8.20238 3 8C3 7.79762 3.06845 7.62798 3.20536 7.49107C3.34226 7.35417 3.5119 7.28571 3.71429 7.28571H7.28571V3.71429C7.28571 3.5119 7.35417 3.34226 7.49107 3.20536C7.62798 3.06845 7.79762 3 8 3C8.20238 3 8.37202 3.06845 8.50893 3.20536C8.64583 3.34226 8.71429 3.5119 8.71429 3.71429V7.28571H12.2857C12.4881 7.28571 12.6577 7.35417 12.7946 7.49107C12.9315 7.62798 13 7.79762 13 8C13 8.20238 12.9315 8.37202 12.7946 8.50893C12.6577 8.64583 12.4881 8.71429 12.2857 8.71429H8.71429V12.2857C8.71429 12.4881 8.64583 12.6577 8.50893 12.7946C8.37202 12.9315 8.20238 13 8 13C7.79762 13 7.62798 12.9315 7.49107 12.7946C7.35417 12.6577 7.28571 12.4881 7.28571 12.2857V8.71429Z" fill="black"/>
</svg>
