<!--
 * Copyright (c) 2023, WSO2 LLC. (https://www.wso2.com).
 *
 * WSO2 LLC. licenses this file to you under the Apache License,
 * Version 2.0 (the "License"); you may not use this file except
 * in compliance with the License.
 * You may obtain a copy of the License at
 *
 *     http://www.apache.org/licenses/LICENSE-2.0
 *
 * Unless required by applicable law or agreed to in writing,
 * software distributed under the License is distributed on an
 * "AS IS" BASIS, WITHOUT WARRANTIES OR CONDITIONS OF ANY
 * KIND, either express or implied. See the License for the
 * specific language governing permissions and limitations
 * under the License.
-->

<svg width="16" height="16" viewBox="0 0 16 16" fill="none" xmlns="http://www.w3.org/2000/svg">
    <path fill-rule="evenodd" clip-rule="evenodd" d="M8.5 3.5C8.5 3.22386 8.27614 3 8 3C7.72386 3 7.5 3.22386 7.5 3.5V7.5H3.5C3.22386 7.5 3 7.72386 3 8C3 8.27614 3.22386 8.5 3.5 8.5H7.5V12.5C7.5 12.7761 7.72386 13 8 13C8.27614 13 8.5 12.7761 8.5 12.5V8.5H12.5C12.7761 8.5 13 8.27614 13 8C13 7.72386 12.7761 7.5 12.5 7.5H8.5V3.5Z" fill="black"/>
</svg>
