<!--
 * Copyright (c) 2023, WSO2 LLC. (https://www.wso2.com). All Rights Reserved.
 *
 * WSO2 LLC. licenses this file to you under the Apache License,
 * Version 2.0 (the "License"); you may not use this file except
 * in compliance with the License.
 * You may obtain a copy of the License at
 *
 *     http://www.apache.org/licenses/LICENSE-2.0
 *
 * Unless required by applicable law or agreed to in writing,
 * software distributed under the License is distributed on an
 * "AS IS" BASIS, WITHOUT WARRANTIES OR CONDITIONS OF ANY
 * KIND, either express or implied. See the License for the
 * specific language governing permissions and limitations
 * under the License.
-->

<svg width="16" height="16" viewBox="0 0 16 16" fill="none" xmlns="http://www.w3.org/2000/svg">
  <g clip-path="url(#clip0_1480_541)">
    <path d="M7.9999 1.89655e-05C8.34773 1.89655e-05 8.63511 0.258464 8.68059 0.593779L8.68688 0.686999L8.68715 1.6053C9.36225 1.67707 10.0061 1.85337 10.6023 2.11769L11.0614 1.32327C11.2511 0.994686 11.6713 0.88211 11.9999 1.07181C12.3011 1.24571 12.4208 1.61324 12.2925 1.92638L12.2514 2.01025L11.7919 2.80638C12.3277 3.19861 12.8005 3.67182 13.1923 4.20801L13.9897 3.74856C14.3183 3.55886 14.7384 3.67143 14.9281 4.00001C15.102 4.30121 15.0219 4.67935 14.7543 4.8864L14.6766 4.93844L13.8802 5.39859C14.1437 5.99456 14.3194 6.63811 14.3907 7.3128L15.3129 7.31303C15.6923 7.31303 15.9999 7.6206 15.9999 8.00001C15.9999 8.34779 15.7415 8.63523 15.4062 8.68071L15.3129 8.68698L14.3898 8.68634C14.3177 9.36078 14.1413 10.0041 13.877 10.5997L14.6766 11.0616C15.0052 11.2513 15.1178 11.6714 14.9281 12C14.7542 12.3012 14.3867 12.4209 14.0735 12.2926L13.9897 12.2514L13.1878 11.7892C12.7961 12.3241 12.3236 12.7961 11.7883 13.1873L12.2514 13.9898C12.4411 14.3184 12.3285 14.7385 11.9999 14.9282C11.6987 15.1021 11.3205 15.022 11.1135 14.7543L11.0614 14.6768L10.5986 13.875C10.0035 14.1385 9.36083 14.3142 8.68715 14.3858L8.68688 15.313C8.68688 15.6924 8.37929 16 7.9999 16C7.65215 16 7.36469 15.7415 7.31921 15.4062L7.31292 15.313L7.31354 14.3859C6.6395 14.3144 5.99657 14.1386 5.40116 13.875L4.93834 14.6768C4.74864 15.0054 4.32849 15.1179 3.99991 14.9282C3.69871 14.7543 3.57901 14.3867 3.70728 14.0736L3.74845 13.9898L4.21146 13.1873C3.67593 12.7959 3.20323 12.3236 2.81135 11.7884L2.01014 12.2514C1.68155 12.4411 1.26141 12.3285 1.0717 12C0.897802 11.6988 0.977908 11.3207 1.24556 11.1136L1.32315 11.0616L2.12281 10.5997C1.8585 10.0041 1.68208 9.36078 1.61 8.68634L0.686885 8.68698C0.307477 8.68698 -9.5526e-05 8.37941 -9.5526e-05 8.00001C-9.5526e-05 7.65222 0.258351 7.36478 0.593669 7.31929L0.686885 7.31303L1.60915 7.3128C1.6804 6.63811 1.85605 5.99456 2.11964 5.39859L1.32315 4.93844C0.994573 4.74874 0.881997 4.32859 1.0717 4.00001C1.22821 3.72894 1.54156 3.60487 1.83094 3.67627L1.92627 3.70738L2.01014 3.74856L2.80686 4.20889C3.19876 3.67234 3.67181 3.19882 4.20795 2.80638L3.74845 2.01025C3.55875 1.68167 3.67133 1.26152 3.99991 1.07181C4.30111 0.897918 4.67925 0.978022 4.8863 1.24567L4.93834 1.32327L5.39664 2.11809C5.99338 1.85342 6.63782 1.67695 7.31354 1.60521L7.31292 0.686999C7.31292 0.30759 7.62051 1.89655e-05 7.9999 1.89655e-05ZM7.9999 2.89863C5.18494 2.89863 2.90295 5.18061 2.90295 7.99557C2.90295 10.8105 5.18494 13.0925 7.9999 13.0925C10.8148 13.0925 13.0969 10.8105 13.0969 7.99557C13.0969 5.18061 10.8148 2.89863 7.9999 2.89863ZM7.9999 5.55791C9.34621 5.55791 10.4376 6.64929 10.4376 7.99557C10.4376 9.3419 9.34621 10.4333 7.9999 10.4333C6.65359 10.4333 5.56223 9.3419 5.56223 7.99557C5.56223 6.64929 6.65359 5.55791 7.9999 5.55791ZM7.9999 6.88754C7.388 6.88754 6.89187 7.38362 6.89187 7.99557C6.89187 8.60753 7.388 9.10363 7.9999 9.10363C8.61189 9.10363 9.10793 8.60753 9.10793 7.99557C9.10793 7.38362 8.61189 6.88754 7.9999 6.88754Z" fill="#CBCEDB"/>
  </g>
  <defs>
    <clipPath id="clip0_1480_541">
      <rect width="16" height="16" fill="white"/>
    </clipPath>
  </defs>
</svg>
  