<svg width="16" height="16" viewBox="0 0 16 16" fill="none" xmlns="http://www.w3.org/2000/svg">
<path fill-rule="evenodd" clip-rule="evenodd" d="M3.29508 4.34901L2.31933 4.62284C4.0081 1.83677 7.55546 0.700134 10.5872 2.09263C11.3643 2.44955 12.0365 2.93971 12.59 3.52321C12.78 3.72355 13.0965 3.73191 13.2968 3.54187C13.4972 3.35183 13.5055 3.03536 13.3155 2.83501C12.6757 2.16058 11.8994 1.5949 11.0046 1.18389C7.53794 -0.408348 3.48703 0.865274 1.51793 4.01693L1.29598 3.22608C1.22137 2.96021 0.945351 2.80516 0.67948 2.87978C0.413609 2.95439 0.258565 3.23041 0.333179 3.49628L0.906363 5.53869L1.04146 6.0201L1.52287 5.885L3.56528 5.31181C3.83115 5.2372 3.9862 4.96118 3.91158 4.69531C3.83697 4.42944 3.56095 4.27439 3.29508 4.34901ZM2.45164 12.4569C2.65199 12.2668 2.96846 12.2752 3.1585 12.4755C3.71198 13.059 4.38415 13.5492 5.16124 13.9061C8.29381 15.3449 11.9768 14.0836 13.5913 11.0925L12.8524 11.5192C12.6132 11.6573 12.3074 11.5753 12.1693 11.3362C12.0313 11.097 12.1132 10.7912 12.3524 10.6532L14.1895 9.59251L14.6225 9.34251L14.8725 9.77553L15.9331 11.6126C16.0712 11.8518 15.9893 12.1576 15.7501 12.2957C15.511 12.4337 15.2052 12.3518 15.0671 12.1126L14.6039 11.3103C12.8173 14.9462 8.4472 16.5158 4.74386 14.8149C3.84902 14.4039 3.07271 13.8382 2.43298 13.1637C2.24294 12.9634 2.25129 12.6469 2.45164 12.4569ZM11.4112 5.06289C10.5274 4.39 9.48207 4.03656 8.42853 4.00256C9.26443 4.08707 9.91684 4.79288 9.91684 5.65107C9.91684 6.06949 9.76175 6.45169 9.50592 6.74332C10.301 7.02529 10.9789 7.58091 11.3269 8.36916C11.4537 7.95128 11.5205 7.51182 11.5205 7.06308V5.2836C11.5205 5.197 11.4801 5.11536 11.4112 5.06289ZM5.10948 5.06289C5.99282 4.39029 7.03768 4.03686 8.09077 4.00261C7.25507 4.08731 6.60288 4.79303 6.60288 5.65107C6.60288 6.06963 6.75808 6.45194 7.01406 6.7436C6.21935 7.02564 5.54162 7.58107 5.19371 8.36903C5.06696 7.95118 5.00013 7.51178 5.00013 7.06308V5.28361C5.00013 5.197 5.04058 5.11536 5.10948 5.06289ZM7.16658 10.9107C6.98907 10.8031 6.82067 10.6842 6.66209 10.5554L9.85868 10.5553C9.70005 10.6842 9.53161 10.8031 9.35405 10.9107L8.5196 11.4168C8.36025 11.5135 8.16038 11.5135 8.00103 11.4168L7.16658 10.9107ZM4.50367 4.26728C6.72303 2.57737 9.79761 2.57737 12.017 4.26728C12.3343 4.50888 12.5205 4.8848 12.5205 5.2836V7.06308C12.5205 8.9857 11.5165 10.7688 9.87262 11.7658L9.03816 12.2719C8.56012 12.5618 7.96051 12.5618 7.48247 12.2719L6.64801 11.7658C5.00409 10.7688 4.00013 8.98571 4.00013 7.06308V5.28361C4.00013 4.8848 4.18638 4.50888 4.50367 4.26728ZM7.60288 5.65107C7.60288 5.28823 7.89702 4.99408 8.25986 4.99408C8.6227 4.99408 8.91684 5.28823 8.91684 5.65107C8.91684 6.01391 8.6227 6.30805 8.25986 6.30805C7.89702 6.30805 7.60288 6.01391 7.60288 5.65107ZM10.5508 9.25172C10.5767 9.41801 10.4378 9.55525 10.2695 9.55526L6.25118 9.55539C6.0828 9.5554 5.94382 9.41809 5.96973 9.25172C6.13013 8.22153 7.09469 7.53069 8.26043 7.53069C9.42616 7.53069 10.3904 8.22153 10.5508 9.25172Z" fill="black"/>
</svg>
