<svg width="16" height="16" viewBox="0 0 16 16" fill="none" xmlns="http://www.w3.org/2000/svg">
<path fill-rule="evenodd" clip-rule="evenodd" d="M1 1H3V3H1V1ZM0 1C0 0.447715 0.447715 0 1 0H3C3.55228 0 4 0.447715 4 1V1.5L10.7929 1.5L10.6464 1.35355C10.4512 1.15829 10.4512 0.841709 10.6464 0.646447C10.8417 0.451184 11.1583 0.451184 11.3536 0.646447L12 1.29289V1C12 0.447715 12.4477 0 13 0H15C15.5523 0 16 0.447715 16 1V3C16 3.55228 15.5523 4 15 4H14.4998C14.4984 4.87931 14.4893 5.59304 14.4266 6.15678C14.3529 6.8201 14.1962 7.38589 13.7911 7.79105C13.3859 8.19622 12.8201 8.35293 12.1568 8.42663C11.874 8.45805 11.5536 8.47601 11.1934 8.48628L11.3536 8.64645C11.5488 8.84171 11.5488 9.15829 11.3536 9.35355C11.1583 9.54882 10.8417 9.54882 10.6464 9.35355L10 8.70711V9C10 9.55228 9.55228 10 9 10H7C6.44772 10 6 9.55228 6 9V8.50029C5.11945 8.50177 4.46057 8.51093 3.95365 8.56725C3.35135 8.63418 3.07339 8.75872 2.91605 8.91605C2.75872 9.07339 2.63418 9.35135 2.56725 9.95365C2.54074 10.1923 2.52467 10.4647 2.51494 10.7779L2.64645 10.6464C2.84171 10.4512 3.15829 10.4512 3.35355 10.6464C3.54882 10.8417 3.54882 11.1583 3.35355 11.3536L2.70711 12H3C3.55228 12 4 12.4477 4 13V13.5L10.7929 13.5L10.6464 13.3536C10.4512 13.1583 10.4512 12.8417 10.6464 12.6464C10.8417 12.4512 11.1583 12.4512 11.3536 12.6464L12 13.7512V13.3242L11.3536 12.6464L12 13.2929V13C12 12.4477 12.4477 12 13 12H15C15.5523 12 16 12.4477 16 13V15C16 15.5523 15.5523 16 15 16H13C12.4477 16 12 15.5523 12 15V14.7071L11.3536 15.3536C11.1583 15.5488 10.8417 15.5488 10.6464 15.3536C10.4512 15.1583 10.4512 14.8417 10.6464 14.6464L10.7929 14.5L4 14.5V15C4 15.5523 3.55228 16 3 16H1C0.447715 16 0 15.5523 0 15V13C0 12.4477 0.447715 12 1 12H1.29289L0.646447 11.3536C0.451184 11.1583 0.451184 10.8417 0.646447 10.6464C0.841709 10.4512 1.15829 10.4512 1.35355 10.6464L1.51372 10.8066C1.52399 10.4464 1.54195 10.126 1.57337 9.84322C1.64707 9.1799 1.80378 8.61411 2.20895 8.20895C2.61411 7.80378 3.1799 7.64707 3.84322 7.57337C4.40696 7.51073 5.12069 7.50156 6 7.50023V7C6 6.44772 6.44772 6 7 6H9C9.55228 6 10 6.44772 10 7V7.29289L10.6464 6.64645C10.8417 6.45118 11.1583 6.45118 11.3536 6.64645C11.5488 6.84171 11.5488 7.15829 11.3536 7.35355L11.2221 7.48506C11.5353 7.47533 11.8077 7.45926 12.0463 7.43275C12.6486 7.36582 12.9266 7.24128 13.0839 7.08395C13.2413 6.92661 13.3658 6.64865 13.4327 6.04635C13.4891 5.53943 13.4982 4.88055 13.4997 4H13C12.4477 4 12 3.55228 12 3V2.70711L11.3536 3.35355C11.1583 3.54882 10.8417 3.54882 10.6464 3.35355C10.4512 3.15829 10.4512 2.84171 10.6464 2.64645L10.7929 2.5L4 2.5V3C4 3.55228 3.55228 4 3 4H1C0.447715 4 0 3.55228 0 3V1ZM15 1H13V3H15V1ZM7 7H9V9H7V7ZM15 13H13V15H15V13ZM1 13H3V15H1V13Z" fill="black"/>
</svg>
