<!--
 * Copyright (c) 2024, WSO2 LLC. (https://www.wso2.com).
 *
 * WSO2 LLC. licenses this file to you under the Apache License,
 * Version 2.0 (the "License"); you may not use this file except
 * in compliance with the License.
 * You may obtain a copy of the License at
 *
 *     http://www.apache.org/licenses/LICENSE-2.0
 *
 * Unless required by applicable law or agreed to in writing,
 * software distributed under the License is distributed on an
 * "AS IS" BASIS, WITHOUT WARRANTIES OR CONDITIONS OF ANY
 * KIND, either express or implied. See the License for the
 * specific language governing permissions and limitations
 * under the License.
-->

<svg width="16" height="16" viewBox="0 0 16 16" fill="none" xmlns="http://www.w3.org/2000/svg">
<path fill-rule="evenodd" clip-rule="evenodd" d="M10.1304 1.47826C10.1304 1.21413 10.3445 1 10.6086 1H14.5217C14.7857 1 14.9999 1.21411 14.9999 1.47826V3.43478C14.9999 3.69893 14.7857 3.91304 14.5217 3.91304H12.5652H10.6086H10.5317H10.4137L10.3082 3.96577L10.2393 4.0002L10.2392 4.00026L10.1304 4.05467V1.47826ZM10.6086 0C9.79226 0 9.13037 0.661831 9.13037 1.47826V4.73913V4.86368V5.49863C8.33455 4.71955 7.24507 4.23926 6.04341 4.23926C3.77318 4.23926 1.90334 5.95353 1.65772 8.15821C0.729787 8.23284 0 9.00952 0 9.95669C0 10.8946 0.715508 11.6652 1.63037 11.7527V12.6268C1.63037 13.9495 2.70266 15.0219 4.02543 15.0219H4.97788C5.18289 15.5922 5.72849 16 6.36937 16C7.18579 16 7.84764 15.3381 7.84764 14.5217C7.84764 13.7053 7.18576 13.0435 6.36937 13.0435C5.72838 13.0435 5.18267 13.4515 4.97775 14.0219H4.02543C3.25498 14.0219 2.63037 13.3973 2.63037 12.6268V8.6523C2.63037 6.76733 4.15844 5.23926 6.04341 5.23926C7.92838 5.23926 9.45646 6.76733 9.45646 8.6523V11.4648H9.63037V11.761H10.2825C11.279 11.761 12.0869 10.9533 12.0869 9.95669C12.0869 9.00949 11.3571 8.23282 10.4291 8.15821C10.3199 7.17767 9.88934 6.29413 9.24521 5.61527L9.85397 5.31089L10.6497 4.91304H12.5652H14.5217C15.3381 4.91304 15.9999 4.25119 15.9999 3.43478V1.47826C15.9999 0.661851 15.3381 0 14.5217 0H10.6086ZM11.5868 2.78255C11.7669 2.78255 11.9129 2.63655 11.9129 2.45646C11.9129 2.27637 11.7669 2.13037 11.5868 2.13037C11.4068 2.13037 11.2607 2.27637 11.2607 2.45646C11.2607 2.63655 11.4068 2.78255 11.5868 2.78255ZM12.8912 2.78255C13.0712 2.78255 13.2173 2.63655 13.2173 2.45646C13.2173 2.27637 13.0712 2.13037 12.8912 2.13037C12.7111 2.13037 12.5651 2.27637 12.5651 2.45646C12.5651 2.63655 12.7111 2.78255 12.8912 2.78255ZM11.0869 9.95669C11.0869 10.3412 10.8171 10.6627 10.4565 10.7421V9.1712C10.8171 9.25069 11.0869 9.57219 11.0869 9.95669ZM1.63037 10.7421V9.1712C1.26978 9.25071 1 9.57219 1 9.95669C1 10.3412 1.26976 10.6626 1.63037 10.7421ZM5.89111 14.5217C5.89111 14.2577 6.10522 14.0435 6.36937 14.0435C6.63352 14.0435 6.84764 14.2577 6.84764 14.5217C6.84764 14.7859 6.63349 15 6.36937 15C6.10525 15 5.89111 14.7859 5.89111 14.5217Z" fill="black"/>
</svg>
