<!--
 * Copyright (c) 2023, WSO2 LLC. (https://www.wso2.com).
 *
 * WSO2 LLC. licenses this file to you under the Apache License,
 * Version 2.0 (the "License"); you may not use this file except
 * in compliance with the License.
 * You may obtain a copy of the License at
 *
 *     http://www.apache.org/licenses/LICENSE-2.0
 *
 * Unless required by applicable law or agreed to in writing,
 * software distributed under the License is distributed on an
 * "AS IS" BASIS, WITHOUT WARRANTIES OR CONDITIONS OF ANY
 * KIND, either express or implied. See the License for the
 * specific language governing permissions and limitations
 * under the License.
-->

<svg width="16" height="16" viewBox="0 0 16 16" fill="none" xmlns="http://www.w3.org/2000/svg">
<path fill-rule="evenodd" clip-rule="evenodd" d="M1.42721 9.62225C2.14598 8.07203 3.69671 7 5.5 7C6.77347 7 7.92098 7.53463 8.73849 8.39474C8.82456 8.4853 8.90698 8.57947 8.9855 8.67701C8.99442 8.68809 9.00371 8.69879 9.01332 8.7091C9.02412 8.7207 9.03535 8.73179 9.04694 8.74237C9.22364 8.9036 9.48716 8.94552 9.69402 8.81624C9.92983 8.66886 10.0019 8.35582 9.83187 8.13578C9.80961 8.10698 9.78707 8.0784 9.76427 8.05006L9.75632 8.0402C9.65777 7.91827 9.5542 7.80064 9.44591 7.68763C8.44992 6.64822 7.05497 6 5.5 6C2.67457 6 0.377432 8.14018 0.0421262 10.8786C0.0371856 10.9189 0.0326709 10.9594 0.0285867 11C0.00968053 11.188 0 11.3786 0 11.5714V12H6.5C6.22386 12 6 11.7761 6 11.5C6 11.2239 6.22386 11 6.5 11H1.03469C1.07714 10.6531 1.15774 10.3182 1.27212 10C1.31838 9.87127 1.37018 9.74525 1.42721 9.62225ZM5.5 1C4.67157 1 4 1.67157 4 2.5C4 3.32843 4.67157 4 5.5 4C6.32843 4 7 3.32843 7 2.5C7 1.67157 6.32843 1 5.5 1ZM5.5 0C6.88071 0 8 1.11929 8 2.5C8 3.88071 6.88071 5 5.5 5C4.11929 5 3 3.88071 3 2.5C3 1.11929 4.11929 0 5.5 0ZM12.5 9C12.2364 9 12.0228 9.21368 12.0228 9.47727V9.67595C11.5876 9.74894 11.1858 9.92007 10.8407 10.1658L10.7001 10.0252C10.5137 9.83878 10.2115 9.83878 10.0251 10.0252C9.83875 10.2115 9.83875 10.5137 10.0251 10.7001L10.1658 10.8408C9.92008 11.1858 9.74897 11.5876 9.67597 12.0227H9.47731C9.21372 12.0227 9.00004 12.2364 9.00004 12.5C9.00004 12.7636 9.21372 12.9773 9.47731 12.9773H9.67598C9.74898 13.4124 9.92011 13.8143 10.1658 14.1593L10.0252 14.2999C9.83886 14.4863 9.83886 14.7885 10.0252 14.9749C10.2116 15.1612 10.5138 15.1612 10.7002 14.9749L10.8408 14.8343C11.1859 15.08 11.5877 15.2511 12.0228 15.324V15.5227C12.0228 15.7863 12.2365 16 12.5001 16C12.7637 16 12.9774 15.7863 12.9774 15.5227V15.324C13.4124 15.251 13.8142 15.0799 14.1592 14.8342L14.2999 14.9749C14.4863 15.1613 14.7885 15.1613 14.9749 14.9749C15.1613 14.7885 15.1613 14.4863 14.9749 14.2999L14.8342 14.1593C15.0799 13.8142 15.2511 13.4124 15.3241 12.9773H15.5227C15.7863 12.9773 16 12.7636 16 12.5C16 12.2364 15.7863 12.0227 15.5227 12.0227H15.3241C15.2511 11.5876 15.08 11.1858 14.8343 10.8408L14.975 10.7001C15.1614 10.5137 15.1614 10.2115 14.975 10.0251C14.7886 9.83873 14.4864 9.83873 14.3 10.0251L14.1593 10.1658C13.8143 9.92009 13.4124 9.74896 12.9773 9.67595V9.47727C12.9773 9.21368 12.7636 9 12.5 9ZM12.5 14.3636C13.5293 14.3636 14.3637 13.5293 14.3637 12.5C14.3637 11.4707 13.5293 10.6364 12.5 10.6364C11.4708 10.6364 10.6364 11.4707 10.6364 12.5C10.6364 13.5293 11.4708 14.3636 12.5 14.3636ZM12.9773 12.5C12.9773 12.7636 12.7636 12.9773 12.5 12.9773C12.2364 12.9773 12.0228 12.7636 12.0228 12.5C12.0228 12.2364 12.2364 12.0227 12.5 12.0227C12.7636 12.0227 12.9773 12.2364 12.9773 12.5Z" fill="black"/>
</svg>
