<svg width="17" height="16" viewBox="0 0 17 16" fill="none" xmlns="http://www.w3.org/2000/svg">
<path fill-rule="evenodd" clip-rule="evenodd" d="M3.19476 4.47845L2.22703 4.77944C3.83732 1.94728 7.35155 0.711998 10.421 2.01926C11.2078 2.35434 11.8934 2.82553 12.4629 3.39335C12.6585 3.58831 12.9751 3.58782 13.17 3.39226C13.365 3.19669 13.3645 2.88011 13.169 2.68515C12.5106 2.02885 11.7188 1.48508 10.8129 1.09923C7.30308 -0.395561 3.28932 0.990716 1.40902 4.19614L1.16507 3.4118C1.08306 3.14812 0.802822 3.00084 0.539139 3.08285C0.275456 3.16487 0.128182 3.44511 0.210193 3.70879L0.840203 5.7344L0.988698 6.21184L1.46614 6.06334L3.49175 5.43333C3.75543 5.35132 3.9027 5.07108 3.82069 4.8074C3.73868 4.54371 3.45844 4.39644 3.19476 4.47845ZM2.57812 12.6067C2.77308 12.4112 3.08966 12.4107 3.28522 12.6056C3.85479 13.1734 4.54039 13.6446 5.32714 13.9797C8.49868 15.3305 12.145 13.9667 13.6754 10.9318L12.9486 11.3789C12.7134 11.5236 12.4054 11.4502 12.2607 11.215C12.116 10.9798 12.1894 10.6719 12.4246 10.5272L14.2314 9.41561L14.6572 9.15361L14.9192 9.57947L16.0308 11.3862C16.1755 11.6214 16.1021 11.9294 15.8669 12.0741C15.6317 12.2188 15.3238 12.1454 15.1791 11.9102L14.6936 11.1212C13.0093 14.8055 8.68472 16.4966 4.93531 14.8998C4.02933 14.5139 3.23753 13.9701 2.57921 13.3138C2.38364 13.1189 2.38316 12.8023 2.57812 12.6067ZM7.70223 5.98883C8.2514 5.98883 8.69659 5.54364 8.69659 4.99447C8.69659 4.44531 8.2514 4.00012 7.70223 4.00012C7.15306 4.00012 6.70787 4.44531 6.70787 4.99447C6.70787 5.54364 7.15306 5.98883 7.70223 5.98883ZM7.70223 6.98883C8.80369 6.98883 9.69659 6.09593 9.69659 4.99447C9.69659 3.89302 8.80369 3.00012 7.70223 3.00012C6.60078 3.00012 5.70787 3.89302 5.70787 4.99447C5.70787 6.09593 6.60078 6.98883 7.70223 6.98883ZM4.71455 10.4096L10.6881 10.4095C10.2319 9.56297 9.16802 8.91955 7.70165 8.91955C6.23506 8.91955 5.1708 9.56314 4.71455 10.4096ZM11.4129 11.4094C11.7031 11.4094 11.9429 11.1726 11.8955 10.8862C11.6018 9.1104 9.83623 7.91955 7.70165 7.91955C5.56708 7.91955 3.80086 9.1104 3.50715 10.8862C3.45977 11.1727 3.69967 11.4097 3.99007 11.4097L11.4129 11.4094Z" fill="black"/>
</svg>
