<!--
 * Copyright (c) 2023, WSO2 LLC. (https://www.wso2.com).
 *
 * WSO2 LLC. licenses this file to you under the Apache License,
 * Version 2.0 (the "License"); you may not use this file except
 * in compliance with the License.
 * You may obtain a copy of the License at
 *
 *     http://www.apache.org/licenses/LICENSE-2.0
 *
 * Unless required by applicable law or agreed to in writing,
 * software distributed under the License is distributed on an
 * "AS IS" BASIS, WITHOUT WARRANTIES OR CONDITIONS OF ANY
 * KIND, either express or implied. See the License for the
 * specific language governing permissions and limitations
 * under the License.
-->

<svg width="16" height="16" viewBox="0 0 16 16" fill="none" xmlns="http://www.w3.org/2000/svg">
<path fill-rule="evenodd" clip-rule="evenodd" d="M8 7C9.65685 7 11 5.65686 11 4C11 2.34315 9.65685 1 8 1C6.34315 1 5 2.34315 5 4C5 5.65686 6.34315 7 8 7ZM8 6C9.10457 6 10 5.10457 10 4C10 2.89543 9.10457 2 8 2C6.89543 2 6 2.89543 6 4C6 5.10457 6.89543 6 8 6Z" fill="black"/>
<path fill-rule="evenodd" clip-rule="evenodd" d="M13.9392 14C13.9793 14.3264 14 14.6601 14 14.9995L2 15C2.00002 14.6607 2.02074 14.3264 2.06076 14C2.47667 10.6077 4.97731 8 8 8C11.0227 8 13.5233 10.6077 13.9392 14ZM3.06785 14C3.4732 11.0588 5.63727 9 8 9C10.3627 9 12.5268 11.0588 12.9321 14H3.06785Z" fill="black"/>
<path fill-rule="evenodd" clip-rule="evenodd" d="M1.4 4.47368C1.4 5.28758 2.0268 5.94737 2.8 5.94737C3.5732 5.94737 4.2 5.28758 4.2 4.47368C4.2 3.65979 3.5732 3 2.8 3C2.0268 3 1.4 3.65979 1.4 4.47368ZM2.1 4.47368C2.1 4.88063 2.4134 5.21053 2.8 5.21053C3.1866 5.21053 3.5 4.88063 3.5 4.47368C3.5 4.06674 3.1866 3.73684 2.8 3.73684C2.4134 3.73684 2.1 4.06674 2.1 4.47368Z" fill="black"/>
<path d="M4.28435 7.8083C3.89759 7.33372 3.37104 7.05263 2.8002 7.05263C1.77807 7.05263 0.868705 7.97868 0.720943 9.26316H2.8002C2.9935 9.26316 3.1502 9.42811 3.1502 9.63158C3.1502 9.83505 2.9935 10 2.8002 10H0V9.63158C0 7.84804 1.21128 6.31579 2.8002 6.31579C3.6002 6.31579 4.31302 6.71179 4.81565 7.32854C4.9415 7.48298 4.9246 7.71557 4.77789 7.84805C4.63117 7.98053 4.41021 7.96273 4.28435 7.8083Z" fill="black"/>
<path fill-rule="evenodd" clip-rule="evenodd" d="M14.6 4.47368C14.6 5.28758 13.9732 5.94737 13.2 5.94737C12.4268 5.94737 11.8 5.28758 11.8 4.47368C11.8 3.65979 12.4268 3 13.2 3C13.9732 3 14.6 3.65979 14.6 4.47368ZM13.9 4.47368C13.9 4.88063 13.5866 5.21053 13.2 5.21053C12.8134 5.21053 12.5 4.88063 12.5 4.47368C12.5 4.06674 12.8134 3.73684 13.2 3.73684C13.5866 3.73684 13.9 4.06674 13.9 4.47368Z" fill="black"/>
<path d="M11.7156 7.8083C12.1024 7.33372 12.629 7.05263 13.1998 7.05263C14.2219 7.05263 15.1313 7.97868 15.2791 9.26316H13.1998C13.0065 9.26316 12.8498 9.42811 12.8498 9.63158C12.8498 9.83505 13.0065 10 13.1998 10H16V9.63158C16 7.84804 14.7887 6.31579 13.1998 6.31579C12.3998 6.31579 11.687 6.71179 11.1844 7.32854C11.0585 7.48298 11.0754 7.71557 11.2221 7.84805C11.3688 7.98053 11.5898 7.96273 11.7156 7.8083Z" fill="black"/>
</svg>
