<!--
 * Copyright (c) 2023, WSO2 LLC. (https://www.wso2.com).
 *
 * WSO2 LLC. licenses this file to you under the Apache License,
 * Version 2.0 (the "License"); you may not use this file except
 * in compliance with the License.
 * You may obtain a copy of the License at
 *
 *     http://www.apache.org/licenses/LICENSE-2.0
 *
 * Unless required by applicable law or agreed to in writing,
 * software distributed under the License is distributed on an
 * "AS IS" BASIS, WITHOUT WARRANTIES OR CONDITIONS OF ANY
 * KIND, either express or implied. See the License for the
 * specific language governing permissions and limitations
 * under the License.
-->

<svg width="16" height="16" viewBox="0 0 16 16" fill="none" xmlns="http://www.w3.org/2000/svg">
<path fill-rule="evenodd" clip-rule="evenodd" d="M8 8C9.65685 8 11 6.65686 11 5C11 3.34315 9.65685 2 8 2C6.34315 2 5 3.34315 5 5C5 6.65686 6.34315 8 8 8ZM8 7C9.10457 7 10 6.10457 10 5C10 3.89543 9.10457 3 8 3C6.89543 3 6 3.89543 6 5C6 6.10457 6.89543 7 8 7Z" fill="black"/>
<path fill-rule="evenodd" clip-rule="evenodd" d="M13.9392 15C13.9793 15.3264 14 15.6601 14 15.9995L2 16C2.00002 15.6607 2.02074 15.3264 2.06076 15C2.47667 11.6077 4.97731 9 8 9C11.0227 9 13.5233 11.6077 13.9392 15ZM3.06785 15C3.4732 12.0588 5.63727 10 8 10C10.3627 10 12.5268 12.0588 12.9321 15H3.06785Z" fill="black"/>
<path fill-rule="evenodd" clip-rule="evenodd" d="M1.4 4.26316C1.4 4.96078 2.0268 5.52632 2.8 5.52632C3.5732 5.52632 4.2 4.96078 4.2 4.26316C4.2 3.56554 3.5732 3 2.8 3C2.0268 3 1.4 3.56554 1.4 4.26316ZM2.1 4.26316C2.1 4.61197 2.4134 4.89474 2.8 4.89474C3.1866 4.89474 3.5 4.61197 3.5 4.26316C3.5 3.91435 3.1866 3.63158 2.8 3.63158C2.4134 3.63158 2.1 3.91435 2.1 4.26316Z" fill="black"/>
<path d="M4.28435 7.1214C3.89759 6.71462 3.37104 6.47368 2.8002 6.47368C1.77807 6.47368 0.868705 7.26744 0.720943 8.36842H2.8002C2.9935 8.36842 3.1502 8.5098 3.1502 8.68421C3.1502 8.85862 2.9935 9 2.8002 9H1.19209e-07V8.68421C1.19209e-07 7.15546 1.21128 5.84211 2.8002 5.84211C3.6002 5.84211 4.31302 6.18154 4.81565 6.71018C4.9415 6.84255 4.9246 7.04192 4.77789 7.15547C4.63117 7.26903 4.41021 7.25377 4.28435 7.1214Z" fill="black"/>
<path fill-rule="evenodd" clip-rule="evenodd" d="M14.6 4.26316C14.6 4.96078 13.9732 5.52632 13.2 5.52632C12.4268 5.52632 11.8 4.96078 11.8 4.26316C11.8 3.56554 12.4268 3 13.2 3C13.9732 3 14.6 3.56554 14.6 4.26316ZM13.9 4.26316C13.9 4.61197 13.5866 4.89474 13.2 4.89474C12.8134 4.89474 12.5 4.61197 12.5 4.26316C12.5 3.91435 12.8134 3.63158 13.2 3.63158C13.5866 3.63158 13.9 3.91435 13.9 4.26316Z" fill="black"/>
<path d="M11.7156 7.1214C12.1024 6.71462 12.629 6.47368 13.1998 6.47368C14.2219 6.47368 15.1313 7.26744 15.2791 8.36842H13.1998C13.0065 8.36842 12.8498 8.5098 12.8498 8.68421C12.8498 8.85862 13.0065 9 13.1998 9H16V8.68421C16 7.15546 14.7887 5.84211 13.1998 5.84211C12.3998 5.84211 11.687 6.18154 11.1844 6.71018C11.0585 6.84255 11.0754 7.04192 11.2221 7.15547C11.3688 7.26903 11.5898 7.25377 11.7156 7.1214Z" fill="black"/>
</svg>
