<svg width="16" height="16" viewBox="0 0 16 16" fill="none" xmlns="http://www.w3.org/2000/svg">
<g clip-path="url(#clip0_26_46)">
<path d="M3.8969 16C2.81383 16 1.89362 15.5941 1.13626 14.7822C0.378752 13.9704 0 12.9897 0 11.84C0 10.9245 0.246274 10.1066 0.738823 9.38629C1.23137 8.66613 1.86923 8.16945 2.65241 7.89623V9.17623C2.19608 9.42476 1.82531 9.78522 1.54011 10.2576C1.2549 10.7301 1.1123 11.2576 1.1123 11.84C1.1123 12.6606 1.38381 13.3609 1.92684 13.941C2.46973 14.5213 3.12513 14.8114 3.89305 14.8114C4.66096 14.8114 5.31636 14.5213 5.85925 13.941C6.40228 13.3609 6.6738 12.6606 6.6738 11.84V11.2457H11.4306C11.4998 11.125 11.5963 11.0315 11.7202 10.9653C11.8443 10.8991 11.9732 10.8661 12.107 10.8661C12.3592 10.8661 12.5742 10.961 12.7519 11.1509C12.9296 11.3407 13.0184 11.5704 13.0184 11.84C13.0184 12.1096 12.9296 12.3393 12.7519 12.5291C12.5742 12.719 12.3592 12.8139 12.107 12.8139C11.9676 12.8139 11.8374 12.7823 11.7161 12.7191C11.5949 12.6558 11.4998 12.5609 11.4306 12.4343H7.75487C7.60242 13.4904 7.159 14.3487 6.4246 15.0091C5.69034 15.6697 4.84777 16 3.8969 16ZM12.1029 16C11.4342 16 10.8191 15.837 10.2575 15.5111C9.69597 15.1853 9.23415 14.7341 8.87209 14.1575H10.3611C10.5915 14.3484 10.8588 14.5051 11.1628 14.6277C11.467 14.7502 11.7817 14.8114 12.107 14.8114C12.8749 14.8114 13.5303 14.5213 14.0732 13.941C14.6162 13.3609 14.8877 12.6606 14.8877 11.84C14.8877 11.0194 14.6162 10.3191 14.0732 9.73897C13.5303 9.1587 12.8749 8.86857 12.107 8.86857C11.7668 8.86857 11.4504 8.93509 11.1576 9.06811C10.8647 9.20114 10.5998 9.38255 10.3628 9.61234L8.24513 5.04251C8.07401 5.00396 7.92399 4.90057 7.79508 4.73234C7.66631 4.56411 7.60193 4.37333 7.60193 4.16C7.60193 3.89044 7.69077 3.66072 7.86845 3.47086C8.04613 3.28099 8.26111 3.18606 8.51337 3.18606C8.76563 3.18606 8.98061 3.28099 9.15829 3.47086C9.33597 3.66072 9.42481 3.89044 9.42481 4.16C9.42481 4.208 9.41305 4.26423 9.38952 4.32869C9.36599 4.3933 9.34595 4.44084 9.32941 4.47131L10.9305 7.86629C11.118 7.82057 11.3089 7.77813 11.5033 7.73897C11.6977 7.69966 11.8989 7.68 12.107 7.68C13.1829 7.68 14.1007 8.0864 14.8603 8.8992C15.6201 9.712 16 10.694 16 11.8453C16 12.9963 15.6198 13.9765 14.8593 14.7858C14.0988 15.5953 13.18 16 12.1029 16ZM3.89305 12.8139C3.64078 12.8139 3.42581 12.719 3.24813 12.5291C3.07045 12.3393 2.9816 12.1096 2.9816 11.84C2.9816 11.6034 3.04984 11.3977 3.18631 11.2231C3.32292 11.0483 3.50752 10.9522 3.74011 10.9346L5.92684 7.2704C5.50702 6.88457 5.18431 6.42271 4.95872 5.8848C4.73312 5.34674 4.62032 4.77181 4.62032 4.16C4.62032 3.01029 5.00064 2.02956 5.76128 1.21783C6.52193 0.405944 7.44093 0 8.51829 0C9.59551 0 10.5128 0.405944 11.2702 1.21783C12.0277 2.02956 12.4064 3.01029 12.4064 4.16H11.2941C11.2941 3.33943 11.0226 2.63909 10.4796 2.05897C9.93668 1.47871 9.28128 1.18857 8.51337 1.18857C7.74545 1.18857 7.09005 1.47871 6.54717 2.05897C6.00414 2.63909 5.73262 3.33699 5.73262 4.15269C5.73262 4.79802 5.90431 5.36968 6.2477 5.86766C6.59094 6.36549 7.03515 6.72876 7.58032 6.95749L4.73882 11.643C4.75522 11.6489 4.77027 11.6636 4.78396 11.6871C4.79765 11.7106 4.80449 11.731 4.80449 11.7486C4.80449 12.0334 4.72278 12.2821 4.55936 12.4949C4.39594 12.7076 4.17383 12.8139 3.89305 12.8139Z" fill="black"/>
</g>
<defs>
<clipPath id="clip0_26_46">
<rect width="16" height="16" fill="white"/>
</clipPath>
</defs>
</svg>
