<?xml version="1.0" encoding="iso-8859-1"?>
<!-- Generator: Adobe Illustrator 19.0.0, SVG Export Plug-In . SVG Version: 6.00 Build 0)  -->
<svg version="1.1" id="Layer_1" xmlns="http://www.w3.org/2000/svg" xmlns:xlink="http://www.w3.org/1999/xlink" x="0px" y="0px"
	 viewBox="0 0 495.2 495.2" style="enable-background:new 0 0 495.2 495.2;" xml:space="preserve">
<rect style="fill:#0A5B7F;" width="264" height="264"/>
<polyline style="fill:#074568;" points="264,0 264,264 0,264 "/>
<path style="fill:#2E9BCC;" d="M384,344c0,22.4-18.4,40-40,40H162.4c-22.4,0-42.4-18.4-42.4-40V162.4c0-22.4,20-42.4,42.4-42.4H344
	c22.4,0,40,20,40,42.4V344z"/>
<path style="fill:#2690C6;" d="M264,264V120H162.4c-22.4,0-42.4,20-42.4,42.4V264H264z"/>
<polyline style="fill:#1474AF;" points="120,264 264,264 264,120 "/>
<circle style="fill:#EF3388;" cx="364.8" cy="364.8" r="130.4"/>
<path style="fill:#CE6ED6;" d="M364.8,234.4c-72,0-130.4,58.4-130.4,131.2c0,6.4,0.8,11.2,1.6,19.2h108c22.4,0,40-18.4,40-40V236
	C376,235.2,371.2,234.4,364.8,234.4z"/>
<path style="fill:#B751BC;" d="M234.4,364.8c0,6.4,0.8,11.2,1.6,19.2h108c22.4,0,40-18.4,40-40V236c-8-0.8-12.8-1.6-19.2-1.6"/>
<g>
</g>
<g>
</g>
<g>
</g>
<g>
</g>
<g>
</g>
<g>
</g>
<g>
</g>
<g>
</g>
<g>
</g>
<g>
</g>
<g>
</g>
<g>
</g>
<g>
</g>
<g>
</g>
<g>
</g>
</svg>
