<?xml version="1.0" encoding="UTF-8"?>
<svg id="Logo_Black-Copy" data-name="Logo/Black-Copy" xmlns="http://www.w3.org/2000/svg" width="91.936" height="23.59" viewBox="0 0 91.936 23.59">
  <g id="Combined-Shape">
    <path id="path-1" d="M27.128,0a5.111,5.111,0,0,1,5.107,4.9l0,.216V18.479a5.111,5.111,0,0,1-4.9,5.107l-.216,0H13.761a5.111,5.111,0,0,1-5.107-4.9l0-.216v-5.09H5.4A3.788,3.788,0,0,1,1.576,9.821l0-.167V5.239a2.752,2.752,0,1,1,2.361,0V9.632A1.417,1.417,0,0,0,5.281,11l.122,0H8.649v-5.9A5.111,5.111,0,0,1,13.545,0l.216,0Zm0,2.359H13.761a2.752,2.752,0,0,0-2.747,2.584l-.005.168V18.479a2.752,2.752,0,0,0,2.584,2.747l.168.005H27.128a2.752,2.752,0,0,0,2.747-2.584l.005-.168V5.111A2.752,2.752,0,0,0,27.128,2.359Zm46.59,4.372A5.02,5.02,0,0,1,77.547,8.2a5.169,5.169,0,0,1,1.4,3.71,5.326,5.326,0,0,1-.038.628l-.032.227H70.555a2.986,2.986,0,0,0,.995,2.089,3.513,3.513,0,0,0,2.407.8,2.953,2.953,0,0,0,2.822-1.472L76.871,14l1.949.577A4.97,4.97,0,0,1,77,16.637a5.312,5.312,0,0,1-2.8.849l-.3.006.02.02a5.4,5.4,0,0,1-3.949-1.492,5.222,5.222,0,0,1-1.522-3.9,5.364,5.364,0,0,1,1.462-3.849A5.028,5.028,0,0,1,73.718,6.731ZM53.09,6.721a5.316,5.316,0,0,1,3.9,1.532A5.2,5.2,0,0,1,58.54,12.1a5.275,5.275,0,0,1-5.151,5.385l-.29.006h-.01A5.3,5.3,0,0,1,49.2,15.951,5.2,5.2,0,0,1,47.649,12.1,5.188,5.188,0,0,1,49.2,8.263,5.3,5.3,0,0,1,53.09,6.721Zm33.4,0a5.316,5.316,0,0,1,3.9,1.532A5.2,5.2,0,0,1,91.936,12.1a5.275,5.275,0,0,1-5.151,5.385l-.29.006h-.01A5.3,5.3,0,0,1,82.6,15.951,5.2,5.2,0,0,1,81.045,12.1,5.188,5.188,0,0,1,82.6,8.263,5.3,5.3,0,0,1,86.485,6.721ZM20.707,6.291A5.833,5.833,0,0,1,24.183,7.3a4.233,4.233,0,0,1,1.765,2.3.975.975,0,0,1-.719,1.187,1.139,1.139,0,0,1-1.41-.608,2.582,2.582,0,0,0-1.091-1.351,3.537,3.537,0,0,0-5.552,2.945,3.51,3.51,0,0,0,.995,2.5,3.366,3.366,0,0,0,2.557,1.046,3.591,3.591,0,0,0,1.99-.548,2.451,2.451,0,0,0,1.091-1.32,1.143,1.143,0,0,1,1.292-.57A1.089,1.089,0,0,1,25.938,14a4.25,4.25,0,0,1-1.744,2.265A5.791,5.791,0,0,1,20.728,17.3a5.746,5.746,0,0,1-4.14-1.584,5.219,5.219,0,0,1-1.648-3.93,5.211,5.211,0,0,1,1.637-3.92A5.738,5.738,0,0,1,20.707,6.291ZM37.635,2.355V8.5a4.04,4.04,0,0,1,3.259-1.784l.262-.006v-.02a3.791,3.791,0,0,1,3.014,1.2,4.685,4.685,0,0,1,1.049,3.016l.005.3v6.007H43.105V11.595a3.188,3.188,0,0,0-.637-2.119,2.323,2.323,0,0,0-1.88-.766,2.684,2.684,0,0,0-2.148.935,3.562,3.562,0,0,0-.8,2.232l-.006.254v5.092H35.5V2.355ZM66.5,6.842l.268.028V8.86a2.866,2.866,0,0,0-2.6.656,4.019,4.019,0,0,0-.9,2.8l0,.285v4.625H61.131V6.98H63.27V8.6l.088-.169a3.066,3.066,0,0,1,1.276-1.246A3.4,3.4,0,0,1,66.5,6.842ZM53.09,8.661a3.186,3.186,0,0,0-2.407.985,3.448,3.448,0,0,0-.945,2.477,3.409,3.409,0,0,0,.945,2.447,3.186,3.186,0,0,0,2.407.985,3.224,3.224,0,0,0,2.417-.985,3.376,3.376,0,0,0,.955-2.447,3.414,3.414,0,0,0-.955-2.477A3.224,3.224,0,0,0,53.09,8.661Zm33.4,0a3.186,3.186,0,0,0-2.407.985,3.448,3.448,0,0,0-.945,2.477,3.409,3.409,0,0,0,.945,2.447,3.186,3.186,0,0,0,2.407.985,3.224,3.224,0,0,0,2.417-.985,3.376,3.376,0,0,0,.955-2.447A3.414,3.414,0,0,0,88.9,9.645,3.224,3.224,0,0,0,86.485,8.661Zm-12.758-.08a3.08,3.08,0,0,0-2.188.806,3.025,3.025,0,0,0-.953,1.74l-.031.229h6.3a3,3,0,0,0-.925-2A3.074,3.074,0,0,0,73.728,8.581Z" fill="#222228"/>
  </g>
</svg>
