<svg width="188" height="74" viewBox="0 0 188 74" fill="none" xmlns="http://www.w3.org/2000/svg">
<path d="M69.814 4.29101L54.101 44.397L38.303 1.505L21.56 44.301L7.27901 4.29101H0.781006L21.305 60.48L38.145 17.683L53.926 60.527L76.31 4.29101H69.814Z" fill="#FF7300"/>
<path d="M101.424 32.839C98.803 30.697 85.075 23.565 83.309 22.332C81.549 21.103 80.665 19.312 80.665 16.961C80.665 14.607 81.562 12.696 83.351 11.228C85.14 9.75099 87.318 9.02199 89.883 9.02199C91.537 9.02199 92.95 9.33999 94.129 9.98599C95.304 10.629 96.427 11.673 97.493 13.116L98.058 13.992C98.215 14.105 98.434 14.372 98.701 14.793L103.43 11.751C101.88 9.02399 99.944 6.95399 97.616 5.53499C95.295 4.12099 92.794 3.41199 90.127 3.41199C85.583 3.41199 81.865 4.69099 78.979 7.25799C76.097 9.82299 74.656 13.116 74.656 17.126C74.656 20.916 75.959 23.844 78.578 25.899C81.2 27.955 94.263 34.736 96.293 36.126C98.325 37.513 99.336 39.57 99.336 42.297C99.336 45.397 98.315 47.971 96.254 50.025C94.195 52.088 91.588 53.113 88.441 53.113C85.664 53.113 83.366 52.259 81.551 50.546C79.733 48.834 78.447 46.385 77.7 43.177L71.927 44.943C72.43 47.107 73.165 49.035 74.115 50.714C75.092 52.428 76.3 53.882 77.741 55.076C80.598 57.458 84.219 58.649 88.604 58.649C93.252 58.649 97.202 57.054 100.466 53.877C103.722 50.697 105.352 46.81 105.352 42.211C105.352 38.1 104.044 34.972 101.424 32.839Z" fill="#FF7300"/>
<path d="M168.726 29.161C170.073 28.778 171.503 28.585 173.032 28.585C177.104 28.585 180.402 29.903 182.915 32.536C185.437 35.159 186.702 38.259 186.702 41.83C186.702 44.34 186.098 46.692 184.889 48.89C183.689 51.086 181.349 54.07 177.872 57.817L166.853 69.709H187.296V73.986H157.222L174.144 55.713C177.572 52.032 179.807 49.308 180.843 47.532C181.88 45.761 182.395 43.887 182.395 41.926C182.395 39.435 181.468 37.289 179.605 35.496C177.751 33.704 175.476 32.802 172.783 32.802C171.243 32.802 169.847 33.082 168.586 33.639C168.699 32.565 168.74 29.561 168.726 29.161Z" fill="white"/>
<path d="M136.385 55.632C149.836 55.632 160.741 44.6111 160.741 31.016C160.741 17.421 149.836 6.40002 136.385 6.40002C122.934 6.40002 112.029 17.421 112.029 31.016C112.029 44.6111 122.934 55.632 136.385 55.632Z" fill="#FF7300"/>
<path d="M136.385 0.781006C119.64 0.781006 106.066 14.318 106.066 31.016C106.066 47.714 119.64 61.251 136.385 61.251C153.129 61.251 166.704 47.714 166.704 31.016C166.704 14.318 153.129 0.781006 136.385 0.781006ZM136.385 55.632C122.934 55.632 112.029 44.611 112.029 31.016C112.029 17.421 122.933 6.40001 136.385 6.40001C149.837 6.40001 160.741 17.421 160.741 31.016C160.741 44.611 149.836 55.632 136.385 55.632Z" fill="white"/>
<path d="M160.66 29.098L151.834 29.119L147.434 37.037L136.454 10.27L126.576 32.258L112.059 32.227C112.117 33.438 112.264 34.626 112.49 35.785L128.875 35.82L136.305 19.28L146.95 45.23L153.929 32.672L160.681 32.656C160.716 32.114 160.741 31.568 160.741 31.017C160.741 30.37 160.708 29.732 160.66 29.098Z" fill="black"/>
</svg>
