<svg width="188" height="74" viewBox="0 0 188 74" fill="none" xmlns="http://www.w3.org/2000/svg">
<path d="M69.814 4.21605L54.101 44.3221L38.303 1.43005L21.56 44.2261L7.27901 4.21605H0.781006L21.305 60.4051L38.145 17.6081L53.926 60.4521L76.31 4.21605H69.814Z" fill="#FF7300"/>
<path d="M101.424 32.764C98.803 30.622 85.075 23.49 83.309 22.257C81.549 21.028 80.665 19.237 80.665 16.886C80.665 14.532 81.562 12.621 83.351 11.153C85.14 9.67603 87.318 8.94703 89.883 8.94703C91.537 8.94703 92.95 9.26503 94.129 9.91103C95.304 10.554 96.427 11.598 97.493 13.041L98.058 13.917C98.215 14.03 98.434 14.297 98.701 14.718L103.43 11.676C101.88 8.94903 99.944 6.87903 97.616 5.46003C95.295 4.04603 92.794 3.33704 90.127 3.33704C85.583 3.33704 81.865 4.61603 78.979 7.18303C76.097 9.74803 74.656 13.041 74.656 17.051C74.656 20.841 75.959 23.769 78.578 25.824C81.2 27.88 94.263 34.661 96.293 36.051C98.325 37.438 99.336 39.495 99.336 42.222C99.336 45.322 98.315 47.896 96.254 49.95C94.195 52.013 91.588 53.038 88.441 53.038C85.664 53.038 83.366 52.184 81.551 50.471C79.733 48.759 78.447 46.31 77.7 43.102L71.927 44.868C72.43 47.032 73.165 48.96 74.115 50.639C75.092 52.353 76.3 53.807 77.741 55.001C80.598 57.383 84.219 58.574 88.604 58.574C93.252 58.574 97.202 56.979 100.466 53.802C103.722 50.622 105.352 46.735 105.352 42.136C105.352 38.025 104.044 34.897 101.424 32.764Z" fill="#FF7300"/>
<path d="M168.726 29.086C170.073 28.703 171.503 28.51 173.032 28.51C177.104 28.51 180.402 29.828 182.915 32.461C185.437 35.084 186.702 38.184 186.702 41.755C186.702 44.265 186.098 46.617 184.889 48.815C183.689 51.011 181.349 53.995 177.872 57.742L166.853 69.634H187.296V73.911H157.222L174.144 55.638C177.572 51.957 179.807 49.233 180.843 47.457C181.88 45.686 182.395 43.812 182.395 41.851C182.395 39.36 181.468 37.214 179.605 35.421C177.751 33.629 175.476 32.727 172.783 32.727C171.243 32.727 169.847 33.007 168.586 33.564C168.699 32.49 168.74 29.486 168.726 29.086Z" fill="black"/>
<path d="M136.385 55.5571C149.836 55.5571 160.741 44.5361 160.741 30.9411C160.741 17.346 149.836 6.32507 136.385 6.32507C122.934 6.32507 112.029 17.346 112.029 30.9411C112.029 44.5361 122.934 55.5571 136.385 55.5571Z" fill="#FF7300"/>
<path d="M136.385 0.706055C119.64 0.706055 106.066 14.2431 106.066 30.9411C106.066 47.6391 119.64 61.1761 136.385 61.1761C153.129 61.1761 166.704 47.6391 166.704 30.9411C166.704 14.2431 153.129 0.706055 136.385 0.706055ZM136.385 55.5571C122.934 55.5571 112.029 44.5361 112.029 30.9411C112.029 17.3461 122.934 6.32506 136.385 6.32506C149.836 6.32506 160.741 17.3461 160.741 30.9411C160.741 44.5361 149.836 55.5571 136.385 55.5571Z" fill="black"/>
<path d="M160.66 29.0231L151.834 29.0441L147.434 36.9621L136.454 10.1951L126.576 32.1831L112.059 32.1521C112.117 33.3631 112.264 34.5511 112.49 35.7101L128.875 35.7451L136.305 19.2051L146.95 45.1541L153.929 32.5961L160.681 32.5801C160.716 32.0381 160.741 31.4921 160.741 30.9411C160.741 30.2951 160.708 29.6571 160.66 29.0231Z" fill="white"/>
</svg>
