<svg width="61" height="62" viewBox="0 0 61 62" fill="none" xmlns="http://www.w3.org/2000/svg">
<path d="M30.385 55.557C43.8364 55.557 54.741 44.536 54.741 30.941C54.741 17.346 43.8364 6.325 30.385 6.325C16.9335 6.325 6.02901 17.346 6.02901 30.941C6.02901 44.536 16.9335 55.557 30.385 55.557Z" fill="#FF7300"/>
<path d="M30.385 0.705994C13.64 0.705994 0.0659943 14.243 0.0659943 30.941C0.0659943 47.639 13.64 61.176 30.385 61.176C47.129 61.176 60.704 47.639 60.704 30.941C60.704 14.243 47.129 0.705994 30.385 0.705994ZM30.385 55.557C16.934 55.557 6.02901 44.536 6.02901 30.941C6.02901 17.346 16.934 6.325 30.385 6.325C43.836 6.325 54.741 17.346 54.741 30.941C54.741 44.536 43.836 55.557 30.385 55.557Z" fill="black"/>
<path d="M54.66 29.023L45.834 29.044L41.434 36.962L30.454 10.195L20.576 32.183L6.05901 32.152C6.11701 33.363 6.26401 34.551 6.49001 35.71L22.875 35.745L30.305 19.205L40.95 45.154L47.929 32.596L54.681 32.58C54.716 32.038 54.741 31.492 54.741 30.941C54.741 30.295 54.708 29.657 54.66 29.023Z" fill="white"/>
</svg>
