<svg width="18" height="18" viewBox="0 0 18 18" fill="none" xmlns="http://www.w3.org/2000/svg">
<g clip-path="url(#clip0_858_14864)">
<path fill-rule="evenodd" clip-rule="evenodd" d="M9.00007 0.0924377L17.6724 5.00145C18.0147 5.23469 18.1031 5.70126 17.8699 6.04357C17.6578 6.35475 17.253 6.45612 16.9239 6.29674L16.8278 6.24106L16.25 5.92144L16.2501 15.25C16.2501 16.7125 15.1084 17.9084 13.6676 17.995L13.5001 18H4.50007C3.03754 18 1.84167 16.8583 1.75509 15.4175L1.75007 15.25L1.75 5.92044L1.17238 6.24106C0.861196 6.45309 0.447312 6.39929 0.199398 6.13058L0.130272 6.04357C-0.0817609 5.73238 -0.0279629 5.31849 0.240751 5.07058L0.327762 5.00145L9.00007 0.0924377ZM11.855 7.34834C10.3906 5.88387 8.01619 5.88387 6.55172 7.34834C5.08726 8.8128 5.08726 11.1872 6.55172 12.6516C8.01619 14.1161 10.3906 14.1161 11.855 12.6516C12.1479 12.3587 12.1479 11.8839 11.855 11.591C11.5621 11.2981 11.0873 11.2981 10.7944 11.591C9.91568 12.4697 8.49106 12.4697 7.61238 11.591C6.7337 10.7123 6.7337 9.28768 7.61238 8.409C8.49106 7.53032 9.91568 7.53032 10.7944 8.409C11.0873 8.70189 11.5621 8.70189 11.855 8.409C12.1479 8.1161 12.1479 7.64123 11.855 7.34834Z" fill="#465867"/>
</g>
<defs>
<clipPath id="clip0_858_14864">
<rect width="18" height="18" fill="white"/>
</clipPath>
</defs>
</svg>
