<svg width="18" height="18" viewBox="0 0 18 18" fill="none" xmlns="http://www.w3.org/2000/svg">
<g clip-path="url(#clip0_858_14390)">
<path d="M8.99995 0.0924377L17.6723 5.00145C18.0146 5.23469 18.103 5.70126 17.8698 6.04357C17.6577 6.35475 17.2528 6.45612 16.9238 6.29674L16.8276 6.24106L16.2499 5.92144L16.25 15.25C16.25 16.7125 15.1082 17.9084 13.6675 17.995L13.5 18H4.49995C3.03742 18 1.84155 16.8583 1.75497 15.4175L1.74995 15.25L1.74988 5.92044L1.17226 6.24106C0.861074 6.45309 0.44719 6.39929 0.199276 6.13058L0.13015 6.04357C-0.081883 5.73238 -0.028085 5.31849 0.240629 5.07058L0.32764 5.00145L8.99995 0.0924377ZM8.99995 1.90699L3.24988 5.09044L3.24995 15.25C3.24995 15.8972 3.74183 16.4295 4.37215 16.4935L4.49995 16.5H13.5C14.1472 16.5 14.6795 16.0081 14.7435 15.3778L14.75 15.25L14.7499 5.09044L8.99995 1.90699ZM11.8549 7.34834C12.1478 7.64123 12.1478 8.1161 11.8549 8.409C11.562 8.70189 11.0871 8.70189 10.7942 8.409C9.91556 7.53032 8.49094 7.53032 7.61226 8.409C6.73358 9.28768 6.73358 10.7123 7.61226 11.591C8.49094 12.4697 9.91556 12.4697 10.7942 11.591C11.0871 11.2981 11.562 11.2981 11.8549 11.591C12.1478 11.8839 12.1478 12.3587 11.8549 12.6516C10.3904 14.1161 8.01607 14.1161 6.5516 12.6516C5.08714 11.1872 5.08714 8.8128 6.5516 7.34834C8.01607 5.88387 10.3904 5.88387 11.8549 7.34834Z" fill="#465867"/>
</g>
<defs>
<clipPath id="clip0_858_14390">
<rect width="18" height="18" fill="white"/>
</clipPath>
</defs>
</svg>
