<svg width="18" height="18" viewBox="0 0 18 18" fill="none" xmlns="http://www.w3.org/2000/svg">
<path d="M9 0.25C11.0043 0.25 12.6413 1.82236 12.7448 3.80084L12.75 4V6.25H14C15.4625 6.25 16.6584 7.3917 16.745 8.83248L16.75 9V15C16.75 16.5188 15.5188 17.75 14 17.75H4C2.48122 17.75 1.25 16.5188 1.25 15V9C1.25 7.48122 2.48122 6.25 4 6.25H5.25V4C5.25 1.92893 6.92893 0.25 9 0.25ZM14 7.75H4C3.30964 7.75 2.75 8.30964 2.75 9V15C2.75 15.6904 3.30964 16.25 4 16.25H14C14.6904 16.25 15.25 15.6904 15.25 15V9C15.25 8.30964 14.6904 7.75 14 7.75ZM9 8.75C9.3797 8.75 9.69349 9.03215 9.74315 9.39823L9.75 9.5L9.75025 10.3781C10.624 10.6871 11.25 11.5204 11.25 12.5C11.25 13.7426 10.2426 14.75 9 14.75C7.75736 14.75 6.75 13.7426 6.75 12.5C6.75 11.5201 7.37647 10.6864 8.25077 10.3778L8.25 9.5C8.25 9.08579 8.58579 8.75 9 8.75ZM9 11.75C8.58579 11.75 8.25 12.0858 8.25 12.5C8.25 12.9142 8.58579 13.25 9 13.25C9.41421 13.25 9.75 12.9142 9.75 12.5C9.75 12.0858 9.41421 11.75 9 11.75ZM9 1.75C7.80914 1.75 6.83436 2.67516 6.75519 3.84595L6.75 4V6.25H11.25V4C11.25 2.75736 10.2426 1.75 9 1.75Z" fill="white"/>
</svg>
