<svg width="48" height="48" viewBox="0 0 48 48" fill="none" xmlns="http://www.w3.org/2000/svg">
<path d="M47 31.96C47.5272 31.96 47.9591 32.3679 47.9973 32.8854L48 32.96V44.0055C48 45.8727 46.5223 47.3954 44.674 47.458L44.5556 47.46H27.4444C25.5809 47.46 24.0644 45.9762 24.002 44.1242L24 44.0055V32.96C24 32.4077 24.4477 31.96 25 31.96C25.5272 31.96 25.9591 32.3679 25.9973 32.8854L26 32.96V44.0055C26 44.781 26.6022 45.4134 27.3597 45.4575L27.4444 45.46H44.5556C45.3239 45.46 45.9536 44.8553 45.9975 44.091L46 44.0055V32.96C46 32.4077 46.4477 31.96 47 31.96Z" fill="#FF7300" fill-opacity="0.29"/>
<path d="M43.8364 26.96H28.1592C27.5335 26.96 26.9367 27.2238 26.5156 27.6867C25.6896 28.5944 25.7559 29.9999 26.6637 30.8259L33.6734 37.2041C34.9866 38.399 36.993 38.3999 38.3074 37.2062L45.3305 30.8272C45.7942 30.406 46.0587 29.8087 46.0587 29.1822C46.0587 27.9549 45.0637 26.96 43.8364 26.96ZM28.1592 28.96H43.8364C43.9592 28.96 44.0587 29.0595 44.0587 29.1822C44.0587 29.2449 44.0322 29.3046 43.9858 29.3467L36.9627 35.7257C36.4115 36.2263 35.5701 36.2259 35.0194 35.7248L28.0097 29.3466C27.9189 29.264 27.9123 29.1234 27.9949 29.0327C28.037 28.9864 28.0967 28.96 28.1592 28.96Z" fill="#FF7300"/>
<path fill-rule="evenodd" clip-rule="evenodd" d="M10.5348 2.5C15.6612 2.5 19.8169 6.60144 19.8169 11.6608C19.8169 12.2101 19.7679 12.7482 19.674 13.2709L22.0752 13.2706C22.502 13.2706 22.8481 13.6166 22.8481 14.0435C22.8481 14.4704 22.502 14.8164 22.0752 14.8164H14.1685C13.7417 14.8164 13.3956 15.1625 13.3956 15.5894C13.3956 16.0163 13.7417 16.3623 14.1685 16.3623H14.4622C14.8891 16.3623 15.2351 16.7084 15.2351 17.1353C15.2351 17.5622 14.8891 17.9082 14.4622 17.9082H13.5455C13.1186 17.9082 12.7726 18.2543 12.7726 18.6812C12.7726 19.1081 13.1186 19.4541 13.5455 19.4541H18.7143C19.1411 19.4541 19.4872 19.8002 19.4872 20.2271C19.4872 20.6539 19.1411 21 18.7143 21H5.14308C4.71619 21 4.37013 20.6539 4.37013 20.2271C4.37013 19.8002 4.71619 19.4541 5.14308 19.4541H8.27199C8.69887 19.4541 9.04493 19.1081 9.04493 18.6812C9.04493 18.2543 8.69887 17.9082 8.27199 17.9082H3.4213C2.99442 17.9082 2.64836 17.5622 2.64836 17.1353C2.64836 16.7084 2.99442 16.3623 3.4213 16.3623L3.77667 16.3619C3.7597 16.3582 3.74239 16.3543 3.72477 16.3505C4.09076 16.2912 4.37013 15.9729 4.37013 15.5894C4.37013 15.1625 4.02407 14.8164 3.59719 14.8164H0.772944C0.346059 14.8164 0 14.4704 0 14.0435C0 13.6166 0.346059 13.2706 0.772944 13.2706L1.39573 13.271C1.30181 12.7482 1.25281 12.2102 1.25281 11.6608C1.25281 6.60144 5.40852 2.5 10.5348 2.5ZM18.7143 16.3623C19.1411 16.3623 19.4872 16.7084 19.4872 17.1353C19.4872 17.5622 19.1411 17.9082 18.7143 17.9082H17.0903C16.6634 17.9082 16.3173 17.5622 16.3173 17.1353C16.3173 16.7084 16.6634 16.3623 17.0903 16.3623H18.7143ZM23.2271 16.3623C23.6539 16.3623 24 16.7084 24 17.1353C24 17.5622 23.6539 17.9082 23.2271 17.9082H21.6031C21.1762 17.9082 20.8301 17.5622 20.8301 17.1353C20.8301 16.7084 21.1762 16.3623 21.6031 16.3623H23.2271Z" fill="#EB6D4A"/>
</svg>
