<svg width="124" height="18" viewBox="0 0 124 18" fill="none" xmlns="http://www.w3.org/2000/svg">
<g clip-path="url(#clip0_604_6467)">
<path d="M121.711 0L122.446 1.27944L121.631 2.70019H123.261L124 3.97963H119.417L121.711 0Z" fill="#FF7300"/>
<path d="M115.981 3.97963L116.72 2.69637L118.35 2.70019L117.535 1.27944L118.27 0L120.564 3.97963H115.981Z" fill="#FF7300"/>
<path d="M120.808 6.96205L119.992 5.54512L119.173 6.96205H117.699L119.992 2.98242L122.282 6.96205H120.808Z" fill="black"/>
<path d="M16.8037 17.9931V15.0064H24.2932C24.4568 15.0064 24.6188 14.9741 24.77 14.9114C24.9211 14.8486 25.0584 14.7566 25.1741 14.6407C25.2898 14.5247 25.3815 14.387 25.4441 14.2355C25.5067 14.084 25.539 13.9216 25.539 13.7576C25.539 13.5935 25.5067 13.4311 25.4441 13.2796C25.3815 13.1281 25.2898 12.9904 25.1741 12.8745C25.0584 12.7585 24.9211 12.6665 24.77 12.6037C24.6188 12.541 24.4568 12.5087 24.2932 12.5087H21.0171C19.8996 12.5087 18.8279 12.0636 18.0378 11.2715C17.2476 10.4793 16.8037 9.4049 16.8037 8.28461C16.8037 7.16432 17.2476 6.08991 18.0378 5.29774C18.8279 4.50558 19.8996 4.06055 21.0171 4.06055H28.5066V7.03573H21.0171C20.6853 7.0462 20.37 7.18327 20.1357 7.41893C19.9013 7.65459 19.7655 7.97106 19.7561 8.3037C19.7556 8.46785 19.7875 8.63048 19.8499 8.78223C19.9123 8.93398 20.0041 9.07186 20.1198 9.18793C20.2356 9.304 20.3731 9.39597 20.5245 9.45855C20.6759 9.52113 20.8381 9.5531 21.0018 9.55259H24.278C25.3955 9.55259 26.4671 9.99762 27.2573 10.7898C28.0474 11.582 28.4913 12.6564 28.4913 13.7767C28.4913 14.8969 28.0474 15.9713 27.2573 16.7635C26.4671 17.5557 25.3955 18.0007 24.278 18.0007L16.8037 17.9931Z" fill="black"/>
<path d="M36.541 17.9933C35.6156 18.015 34.6951 17.8511 33.8338 17.511C32.9725 17.171 32.1877 16.6618 31.5255 16.0133C30.8633 15.3648 30.3371 14.5901 29.9779 13.7348C29.6187 12.8795 29.4336 11.9608 29.4336 11.0328C29.4336 10.1047 29.6187 9.18604 29.9779 8.33073C30.3371 7.47542 30.8633 6.70075 31.5255 6.05225C32.1877 5.40375 32.9725 4.89452 33.8338 4.55449C34.6951 4.21446 35.6156 4.05049 36.541 4.07222H42.3924V7.0474H36.541C35.508 7.07946 34.528 7.5134 33.8086 8.2573C33.0892 9.0012 32.6869 9.99664 32.6869 11.0328C32.6869 12.0689 33.0892 13.0643 33.8086 13.8082C34.528 14.5521 35.508 14.9861 36.541 15.0181H39.4286V12.5203H37.2458V9.54517H42.3962V17.9933H36.541Z" fill="black"/>
<path d="M70.7085 17.9914L64.0113 11.3383V17.9914H61.0437V4.07032H68.5332C69.3665 4.06934 70.1813 4.31632 70.8745 4.77998C71.5677 5.24364 72.108 5.90311 72.427 6.67487C72.746 7.44663 72.8294 8.29594 72.6665 9.11524C72.5037 9.93454 72.102 10.687 71.5123 11.2772C71.1667 11.6292 70.765 11.9209 70.3237 12.1403L69.4399 12.5719L74.857 17.9914H70.7085ZM68.5332 9.54326C68.8542 9.52553 69.1562 9.38522 69.3771 9.15116C69.5981 8.9171 69.7212 8.60709 69.7212 8.28483C69.7212 7.96257 69.5981 7.65256 69.3771 7.4185C69.1562 7.18444 68.8542 7.04413 68.5332 7.0264H64.0113V9.52417L68.5332 9.54326Z" fill="black"/>
<path d="M75.958 17.9933V4.07222H81.8094C82.7349 4.05049 83.6553 4.21446 84.5166 4.55449C85.3779 4.89452 86.1627 5.40375 86.8249 6.05225C87.4871 6.70075 88.0133 7.47542 88.3725 8.33073C88.7318 9.18604 88.9168 10.1047 88.9168 11.0328C88.9168 11.9608 88.7318 12.8795 88.3725 13.7348C88.0133 14.5901 87.4871 15.3648 86.8249 16.0133C86.1627 16.6618 85.3779 17.171 84.5166 17.511C83.6553 17.8511 82.7349 18.015 81.8094 17.9933H75.958ZM81.8094 15.0067C82.8424 14.9746 83.8224 14.5407 84.5418 13.7968C85.2612 13.0529 85.6635 12.0574 85.6635 11.0213C85.6635 9.98518 85.2612 8.98974 84.5418 8.24584C83.8224 7.50194 82.8424 7.06801 81.8094 7.03594H78.9256V15.0067H81.8094Z" fill="black"/>
<path d="M109.348 17.9916C107.744 17.991 106.189 17.4327 104.949 16.4117C103.709 15.3908 102.86 13.9704 102.547 12.3925C102.234 10.8146 102.477 9.17676 103.233 7.758C103.99 6.33924 105.214 5.2273 106.696 4.61157C108.179 3.99585 109.828 3.91443 111.364 4.38118C112.9 4.84792 114.226 5.83397 115.118 7.17137C116.01 8.50876 116.412 10.1148 116.255 11.7159C116.099 13.3169 115.393 14.814 114.259 15.9522C113.625 16.613 112.861 17.1353 112.016 17.4863C111.171 17.8373 110.263 18.0093 109.348 17.9916ZM109.348 7.04575C108.427 7.04411 107.534 7.36291 106.821 7.94778C106.108 8.53266 105.619 9.3474 105.438 10.2531C105.257 11.1588 105.395 12.0994 105.829 12.9144C106.262 13.7295 106.964 14.3686 107.815 14.7228C108.666 15.077 109.613 15.1244 110.495 14.8568C111.377 14.5892 112.138 14.0232 112.651 13.2554C113.163 12.4876 113.393 11.5654 113.303 10.6462C113.213 9.72694 112.808 8.86751 112.156 8.21443C111.791 7.8392 111.355 7.54213 110.872 7.34124C110.389 7.14035 109.871 7.03982 109.348 7.04575Z" fill="black"/>
<path d="M0 17.9914H3.31809L8.01904 9.8297L12.7162 17.9914H16.0305L8.01904 4.07031L0 17.9914Z" fill="black"/>
<path d="M43.6799 17.9914H46.998L51.6952 9.8297L56.3923 17.9914H59.7104L51.6952 4.07031L43.6799 17.9914Z" fill="black"/>
<path d="M90.0342 17.9495V4.07812H101.634V7.02657H92.9942V9.57781H99.4742V12.4537H92.9942V14.9973H101.634V17.9495H90.0342Z" fill="black"/>
</g>
<defs>
<clipPath id="clip0_604_6467">
<rect width="124" height="18" fill="white"/>
</clipPath>
</defs>
</svg>
