<svg width="139" height="59" viewBox="0 0 139 59" fill="none" xmlns="http://www.w3.org/2000/svg">
  <g filter="url(#filter0_d_105_136)">
  <path d="M40.8323 21.8915C41.5211 21.6956 42.2531 21.597 43.0348 21.597C45.1178 21.597 46.8045 22.2712 48.0899 23.6177C49.3798 24.9597 50.0272 26.5447 50.0272 28.3713C50.0272 29.6554 49.7181 30.8582 49.0999 31.9826C48.4861 33.1059 47.2892 34.6323 45.5108 36.5486L39.8751 42.6309H50.3319V44.8188H34.9484L43.604 35.4719C45.3576 33.5886 46.5005 32.1957 47.0309 31.2875C47.5614 30.3818 47.8247 29.4233 47.8247 28.4203C47.8247 27.1463 47.3509 26.0486 46.3975 25.1314C45.4491 24.2149 44.2852 23.7538 42.9082 23.7538C42.1208 23.7538 41.4066 23.8969 40.7617 24.1818C40.8183 23.6323 40.8386 22.0963 40.8323 21.8915Z" fill="white"/>
  <path d="M24.2894 7.375C15.7247 7.375 8.78125 14.2994 8.78125 22.8405C8.78125 31.3816 15.7247 38.306 24.2894 38.306C32.854 38.306 39.7975 31.3816 39.7975 22.8405C39.7975 14.2994 32.854 7.375 24.2894 7.375ZM24.2894 35.4318C17.4089 35.4318 11.8316 29.7948 11.8316 22.8405C11.8316 15.8862 17.4095 10.2492 24.2894 10.2492C31.1698 10.2492 36.7471 15.8862 36.7471 22.8405C36.7471 29.7948 31.1698 35.4318 24.2894 35.4318Z" fill="white"/>
  <path d="M36.7064 21.8591L32.1919 21.8699L29.941 25.9201L24.325 12.2291L19.2724 23.4759L11.8469 23.46C11.8768 24.0795 11.9518 24.6869 12.0669 25.2797L20.4478 25.2975L24.2486 16.8377L29.6936 30.1109L33.2636 23.6871L36.7172 23.6788C36.735 23.4015 36.7477 23.1223 36.7477 22.8405C36.7471 22.5098 36.7312 22.1835 36.7064 21.8591Z" fill="#47EBD8"/>
  </g>
  <g filter="url(#filter1_d_105_136)">
  <path d="M86.365 14.9H90.2C91.162 14.9 92.0157 15.0907 92.761 15.472C93.5063 15.8533 94.0827 16.3907 94.49 17.084C94.906 17.7687 95.114 18.5573 95.114 19.45C95.114 20.3427 94.906 21.1357 94.49 21.829C94.0827 22.5137 93.5063 23.0467 92.761 23.428C92.0157 23.8093 91.162 24 90.2 24H86.365V14.9ZM90.122 22.869C90.8587 22.869 91.5043 22.726 92.059 22.44C92.6223 22.154 93.0557 21.7553 93.359 21.244C93.6623 20.724 93.814 20.126 93.814 19.45C93.814 18.774 93.6623 18.1803 93.359 17.669C93.0557 17.149 92.6223 16.746 92.059 16.46C91.5043 16.174 90.8587 16.031 90.122 16.031H87.665V22.869H90.122ZM100.03 22.986C100.854 22.986 101.517 22.7087 102.019 22.154L102.695 22.96C102.392 23.324 102.006 23.6013 101.538 23.792C101.079 23.9827 100.563 24.078 99.9912 24.078C99.2632 24.078 98.6176 23.9307 98.0542 23.636C97.4909 23.3327 97.0532 22.9123 96.7412 22.375C96.4379 21.8377 96.2862 21.231 96.2862 20.555C96.2862 19.8877 96.4336 19.2853 96.7282 18.748C97.0316 18.2107 97.4432 17.7947 97.9632 17.5C98.4919 17.1967 99.0856 17.045 99.7442 17.045C100.368 17.045 100.936 17.188 101.447 17.474C101.959 17.7513 102.366 18.1457 102.669 18.657C102.973 19.1683 103.129 19.7577 103.137 20.425L97.6642 21.491C97.8376 21.9677 98.1279 22.336 98.5352 22.596C98.9512 22.856 99.4496 22.986 100.03 22.986ZM99.7442 18.098C99.3109 18.098 98.9209 18.1977 98.5742 18.397C98.2362 18.5963 97.9719 18.878 97.7812 19.242C97.5906 19.5973 97.4952 20.0133 97.4952 20.49V20.62L101.902 19.788C101.79 19.2853 101.538 18.878 101.148 18.566C100.758 18.254 100.29 18.098 99.7442 18.098ZM106.859 24.078C106.296 24.078 105.754 24.0043 105.234 23.857C104.714 23.701 104.307 23.506 104.012 23.272L104.532 22.284C104.836 22.5007 105.204 22.674 105.637 22.804C106.071 22.934 106.508 22.999 106.95 22.999C108.042 22.999 108.588 22.687 108.588 22.063C108.588 21.855 108.515 21.6903 108.367 21.569C108.22 21.4477 108.034 21.361 107.808 21.309C107.592 21.2483 107.28 21.1833 106.872 21.114C106.318 21.0273 105.863 20.9277 105.507 20.815C105.161 20.7023 104.862 20.5117 104.61 20.243C104.359 19.9743 104.233 19.5973 104.233 19.112C104.233 18.488 104.493 17.9897 105.013 17.617C105.533 17.2357 106.231 17.045 107.106 17.045C107.566 17.045 108.025 17.1013 108.484 17.214C108.944 17.3267 109.321 17.4783 109.615 17.669L109.082 18.657C108.519 18.293 107.856 18.111 107.093 18.111C106.565 18.111 106.162 18.1977 105.884 18.371C105.607 18.5443 105.468 18.774 105.468 19.06C105.468 19.2853 105.546 19.463 105.702 19.593C105.858 19.723 106.049 19.8183 106.274 19.879C106.508 19.9397 106.833 20.009 107.249 20.087C107.804 20.1823 108.25 20.2863 108.588 20.399C108.935 20.503 109.23 20.685 109.472 20.945C109.715 21.205 109.836 21.569 109.836 22.037C109.836 22.661 109.568 23.1593 109.03 23.532C108.502 23.896 107.778 24.078 106.859 24.078ZM111.396 17.11H112.644V24H111.396V17.11ZM112.02 15.784C111.777 15.784 111.574 15.706 111.409 15.55C111.253 15.394 111.175 15.2033 111.175 14.978C111.175 14.7527 111.253 14.562 111.409 14.406C111.574 14.2413 111.777 14.159 112.02 14.159C112.263 14.159 112.462 14.237 112.618 14.393C112.783 14.5403 112.865 14.7267 112.865 14.952C112.865 15.186 112.783 15.3853 112.618 15.55C112.462 15.706 112.263 15.784 112.02 15.784ZM121.618 17.11V23.064C121.618 24.2687 121.319 25.157 120.721 25.729C120.123 26.3097 119.23 26.6 118.043 26.6C117.393 26.6 116.773 26.509 116.184 26.327C115.594 26.1537 115.118 25.9023 114.754 25.573L115.352 24.611C115.672 24.8883 116.067 25.105 116.535 25.261C117.011 25.4257 117.501 25.508 118.004 25.508C118.81 25.508 119.403 25.3173 119.785 24.936C120.175 24.5547 120.37 23.974 120.37 23.194V22.648C120.075 23.0033 119.711 23.272 119.278 23.454C118.853 23.6273 118.389 23.714 117.887 23.714C117.228 23.714 116.63 23.5753 116.093 23.298C115.564 23.012 115.148 22.6177 114.845 22.115C114.541 21.6037 114.39 21.023 114.39 20.373C114.39 19.723 114.541 19.1467 114.845 18.644C115.148 18.1327 115.564 17.7383 116.093 17.461C116.63 17.1837 117.228 17.045 117.887 17.045C118.407 17.045 118.888 17.1403 119.33 17.331C119.78 17.5217 120.149 17.8033 120.435 18.176V17.11H121.618ZM118.03 22.622C118.48 22.622 118.883 22.5267 119.239 22.336C119.603 22.1453 119.884 21.881 120.084 21.543C120.292 21.1963 120.396 20.8063 120.396 20.373C120.396 19.7057 120.175 19.1683 119.733 18.761C119.291 18.345 118.723 18.137 118.03 18.137C117.328 18.137 116.756 18.345 116.314 18.761C115.872 19.1683 115.651 19.7057 115.651 20.373C115.651 20.8063 115.75 21.1963 115.95 21.543C116.158 21.881 116.439 22.1453 116.795 22.336C117.159 22.5267 117.57 22.622 118.03 22.622ZM127.681 17.045C128.557 17.045 129.25 17.3007 129.761 17.812C130.281 18.3147 130.541 19.0557 130.541 20.035V24H129.293V20.178C129.293 19.5107 129.133 19.008 128.812 18.67C128.492 18.332 128.032 18.163 127.434 18.163C126.758 18.163 126.225 18.3623 125.835 18.761C125.445 19.151 125.25 19.7143 125.25 20.451V24H124.002V17.11H125.198V18.15C125.45 17.7947 125.788 17.5217 126.212 17.331C126.646 17.1403 127.135 17.045 127.681 17.045ZM89.017 40.104C88.3323 40.104 87.6693 40 87.028 39.792C86.3953 39.5753 85.897 39.298 85.533 38.96L86.014 37.946C86.3607 38.258 86.8027 38.5137 87.34 38.713C87.886 38.9037 88.445 38.999 89.017 38.999C89.771 38.999 90.3343 38.8733 90.707 38.622C91.0797 38.362 91.266 38.0197 91.266 37.595C91.266 37.283 91.162 37.0317 90.954 36.841C90.7547 36.6417 90.5033 36.49 90.2 36.386C89.9053 36.282 89.485 36.165 88.939 36.035C88.2543 35.8703 87.6997 35.7057 87.275 35.541C86.859 35.3763 86.4993 35.125 86.196 34.787C85.9013 34.4403 85.754 33.9767 85.754 33.396C85.754 32.9107 85.8797 32.473 86.131 32.083C86.391 31.693 86.781 31.381 87.301 31.147C87.821 30.913 88.4667 30.796 89.238 30.796C89.7753 30.796 90.304 30.8653 90.824 31.004C91.344 31.1427 91.7903 31.342 92.163 31.602L91.734 32.642C91.3527 32.3993 90.9453 32.2173 90.512 32.096C90.0787 31.966 89.654 31.901 89.238 31.901C88.5013 31.901 87.9467 32.0353 87.574 32.304C87.21 32.5727 87.028 32.9193 87.028 33.344C87.028 33.656 87.132 33.9117 87.34 34.111C87.548 34.3017 87.8037 34.4533 88.107 34.566C88.419 34.67 88.8393 34.7827 89.368 34.904C90.0527 35.0687 90.603 35.2333 91.019 35.398C91.435 35.5627 91.7903 35.814 92.085 36.152C92.3883 36.49 92.54 36.945 92.54 37.517C92.54 37.9937 92.41 38.4313 92.15 38.83C91.89 39.22 91.4957 39.532 90.967 39.766C90.4383 39.9913 89.7883 40.104 89.017 40.104ZM100.679 33.11V39.064C100.679 40.2687 100.398 41.157 99.8342 41.729C99.2709 42.3097 98.4259 42.6 97.2992 42.6C96.6839 42.6 96.0946 42.509 95.5312 42.327C94.9766 42.1537 94.5216 41.9023 94.1662 41.573L94.7772 40.611C95.0806 40.8883 95.4446 41.105 95.8692 41.261C96.3026 41.417 96.7576 41.495 97.2342 41.495C97.9882 41.495 98.5429 41.3043 98.8982 40.923C99.2536 40.5503 99.4312 39.974 99.4312 39.194V38.687C99.1799 39.0163 98.8549 39.272 98.4562 39.454C98.0576 39.6273 97.6242 39.714 97.1562 39.714C96.2376 39.714 95.5139 39.4627 94.9852 38.96C94.4566 38.4573 94.1922 37.712 94.1922 36.724V33.11H95.4402V36.581C95.4402 37.2397 95.6006 37.7423 95.9212 38.089C96.2419 38.427 96.7012 38.596 97.2992 38.596C97.9579 38.596 98.4779 38.3967 98.8592 37.998C99.2406 37.5993 99.4312 37.036 99.4312 36.308V33.11H100.679ZM105.031 40.078C104.468 40.078 103.926 40.0043 103.406 39.857C102.886 39.701 102.479 39.506 102.184 39.272L102.704 38.284C103.007 38.5007 103.376 38.674 103.809 38.804C104.242 38.934 104.68 38.999 105.122 38.999C106.214 38.999 106.76 38.687 106.76 38.063C106.76 37.855 106.686 37.6903 106.539 37.569C106.392 37.4477 106.205 37.361 105.98 37.309C105.763 37.2483 105.451 37.1833 105.044 37.114C104.489 37.0273 104.034 36.9277 103.679 36.815C103.332 36.7023 103.033 36.5117 102.782 36.243C102.531 35.9743 102.405 35.5973 102.405 35.112C102.405 34.488 102.665 33.9897 103.185 33.617C103.705 33.2357 104.403 33.045 105.278 33.045C105.737 33.045 106.197 33.1013 106.656 33.214C107.115 33.3267 107.492 33.4783 107.787 33.669L107.254 34.657C106.691 34.293 106.028 34.111 105.265 34.111C104.736 34.111 104.333 34.1977 104.056 34.371C103.779 34.5443 103.64 34.774 103.64 35.06C103.64 35.2853 103.718 35.463 103.874 35.593C104.03 35.723 104.221 35.8183 104.446 35.879C104.68 35.9397 105.005 36.009 105.421 36.087C105.976 36.1823 106.422 36.2863 106.76 36.399C107.107 36.503 107.401 36.685 107.644 36.945C107.887 37.205 108.008 37.569 108.008 38.037C108.008 38.661 107.739 39.1593 107.202 39.532C106.673 39.896 105.95 40.078 105.031 40.078ZM113.195 39.597C113.013 39.753 112.787 39.8743 112.519 39.961C112.25 40.039 111.973 40.078 111.687 40.078C110.993 40.078 110.456 39.8917 110.075 39.519C109.693 39.1463 109.503 38.6133 109.503 37.92V31.602H110.751V33.11H112.727V34.137H110.751V37.868C110.751 38.2407 110.842 38.5267 111.024 38.726C111.214 38.9253 111.483 39.025 111.83 39.025C112.211 39.025 112.536 38.9167 112.805 38.7L113.195 39.597ZM117.575 38.986C118.398 38.986 119.061 38.7087 119.564 38.154L120.24 38.96C119.937 39.324 119.551 39.6013 119.083 39.792C118.624 39.9827 118.108 40.078 117.536 40.078C116.808 40.078 116.162 39.9307 115.599 39.636C115.036 39.3327 114.598 38.9123 114.286 38.375C113.983 37.8377 113.831 37.231 113.831 36.555C113.831 35.8877 113.978 35.2853 114.273 34.748C114.576 34.2107 114.988 33.7947 115.508 33.5C116.037 33.1967 116.63 33.045 117.289 33.045C117.913 33.045 118.481 33.188 118.992 33.474C119.503 33.7513 119.911 34.1457 120.214 34.657C120.517 35.1683 120.673 35.7577 120.682 36.425L115.209 37.491C115.382 37.9677 115.673 38.336 116.08 38.596C116.496 38.856 116.994 38.986 117.575 38.986ZM117.289 34.098C116.856 34.098 116.466 34.1977 116.119 34.397C115.781 34.5963 115.517 34.878 115.326 35.242C115.135 35.5973 115.04 36.0133 115.04 36.49V36.62L119.447 35.788C119.334 35.2853 119.083 34.878 118.693 34.566C118.303 34.254 117.835 34.098 117.289 34.098ZM131.047 33.045C131.914 33.045 132.598 33.2963 133.101 33.799C133.612 34.3017 133.868 35.047 133.868 36.035V40H132.62V36.178C132.62 35.5107 132.464 35.008 132.152 34.67C131.849 34.332 131.411 34.163 130.839 34.163C130.206 34.163 129.704 34.3623 129.331 34.761C128.958 35.151 128.772 35.7143 128.772 36.451V40H127.524V36.178C127.524 35.5107 127.368 35.008 127.056 34.67C126.753 34.332 126.315 34.163 125.743 34.163C125.11 34.163 124.608 34.3623 124.235 34.761C123.862 35.151 123.676 35.7143 123.676 36.451V40H122.428V33.11H123.624V34.137C123.875 33.7817 124.205 33.513 124.612 33.331C125.019 33.1403 125.483 33.045 126.003 33.045C126.54 33.045 127.017 33.1533 127.433 33.37C127.849 33.5867 128.17 33.903 128.395 34.319C128.655 33.9203 129.015 33.6083 129.474 33.383C129.942 33.1577 130.466 33.045 131.047 33.045Z" fill="white"/>
  </g>
  <g filter="url(#filter2_d_105_136)">
  <rect x="69" y="6" width="2" height="41" fill="white"/>
  </g>
  <defs>
  <filter id="filter0_d_105_136" x="0" y="0" width="59" height="59" filterUnits="userSpaceOnUse" color-interpolation-filters="sRGB">
  <feFlood flood-opacity="0" result="BackgroundImageFix"/>
  <feColorMatrix in="SourceAlpha" type="matrix" values="0 0 0 0 0 0 0 0 0 0 0 0 0 0 0 0 0 0 127 0" result="hardAlpha"/>
  <feOffset dy="3"/>
  <feGaussianBlur stdDeviation="2"/>
  <feComposite in2="hardAlpha" operator="out"/>
  <feColorMatrix type="matrix" values="0 0 0 0 0.0833333 0 0 0 0 0.0833333 0 0 0 0 0.0833333 0 0 0 0.2 0"/>
  <feBlend mode="normal" in2="BackgroundImageFix" result="effect1_dropShadow_105_136"/>
  <feBlend mode="normal" in="SourceGraphic" in2="effect1_dropShadow_105_136" result="shape"/>
  </filter>
  <filter id="filter1_d_105_136" x="81.533" y="13.1591" width="56.3351" height="36.4409" filterUnits="userSpaceOnUse" color-interpolation-filters="sRGB">
  <feFlood flood-opacity="0" result="BackgroundImageFix"/>
  <feColorMatrix in="SourceAlpha" type="matrix" values="0 0 0 0 0 0 0 0 0 0 0 0 0 0 0 0 0 0 127 0" result="hardAlpha"/>
  <feOffset dy="3"/>
  <feGaussianBlur stdDeviation="2"/>
  <feComposite in2="hardAlpha" operator="out"/>
  <feColorMatrix type="matrix" values="0 0 0 0 0.0833333 0 0 0 0 0.0833333 0 0 0 0 0.0833333 0 0 0 0.2 0"/>
  <feBlend mode="normal" in2="BackgroundImageFix" result="effect1_dropShadow_105_136"/>
  <feBlend mode="normal" in="SourceGraphic" in2="effect1_dropShadow_105_136" result="shape"/>
  </filter>
  <filter id="filter2_d_105_136" x="65" y="5" width="10" height="49" filterUnits="userSpaceOnUse" color-interpolation-filters="sRGB">
  <feFlood flood-opacity="0" result="BackgroundImageFix"/>
  <feColorMatrix in="SourceAlpha" type="matrix" values="0 0 0 0 0 0 0 0 0 0 0 0 0 0 0 0 0 0 127 0" result="hardAlpha"/>
  <feOffset dy="3"/>
  <feGaussianBlur stdDeviation="2"/>
  <feComposite in2="hardAlpha" operator="out"/>
  <feColorMatrix type="matrix" values="0 0 0 0 0.0833333 0 0 0 0 0.0833333 0 0 0 0 0.0833333 0 0 0 0.2 0"/>
  <feBlend mode="normal" in2="BackgroundImageFix" result="effect1_dropShadow_105_136"/>
  <feBlend mode="normal" in="SourceGraphic" in2="effect1_dropShadow_105_136" result="shape"/>
  </filter>
  </defs>
  </svg>
