<svg width="135" height="51" viewBox="0 0 135 51" fill="none" xmlns="http://www.w3.org/2000/svg">
  <path d="M36.8323 20.8915C37.5211 20.6956 38.2531 20.597 39.0348 20.597C41.1178 20.597 42.8045 21.2712 44.0899 22.6177C45.3798 23.9597 46.0272 25.5447 46.0272 27.3713C46.0272 28.6554 45.7181 29.8582 45.0999 30.9826C44.4861 32.1059 43.2892 33.6323 41.5108 35.5486L35.8751 41.6309H46.3319V43.8188H30.9484L39.604 34.4719C41.3576 32.5886 42.5005 31.1957 43.0309 30.2875C43.5614 29.3818 43.8247 28.4233 43.8247 27.4203C43.8247 26.1463 43.3509 25.0486 42.3975 24.1314C41.4491 23.2149 40.2852 22.7538 38.9082 22.7538C38.1208 22.7538 37.4066 22.8969 36.7617 23.1818C36.8183 22.6323 36.8386 21.0963 36.8323 20.8915Z" fill="#22242D"/>
  <path d="M20.2894 6.375C11.7247 6.375 4.78125 13.2994 4.78125 21.8405C4.78125 30.3816 11.7247 37.306 20.2894 37.306C28.854 37.306 35.7975 30.3816 35.7975 21.8405C35.7975 13.2994 28.854 6.375 20.2894 6.375ZM20.2894 34.4318C13.4089 34.4318 7.83161 28.7948 7.83161 21.8405C7.83161 14.8862 13.4095 9.24918 20.2894 9.24918C27.1698 9.24918 32.7471 14.8862 32.7471 21.8405C32.7471 28.7948 27.1698 34.4318 20.2894 34.4318Z" fill="#22242D"/>
  <path d="M32.7064 20.8591L28.1919 20.8699L25.941 24.9201L20.325 11.2291L15.2724 22.4759L7.84686 22.46C7.87676 23.0795 7.95181 23.6869 8.06693 24.2797L16.4478 24.2975L20.2486 15.8377L25.6936 29.1109L29.2636 22.6871L32.7172 22.6788C32.735 22.4015 32.7477 22.1223 32.7477 21.8405C32.7471 21.5098 32.7312 21.1835 32.7064 20.8591Z" fill="#47EBD8"/>
  <path d="M82.365 13.9H86.2C87.162 13.9 88.0157 14.0907 88.761 14.472C89.5063 14.8533 90.0827 15.3907 90.49 16.084C90.906 16.7687 91.114 17.5573 91.114 18.45C91.114 19.3427 90.906 20.1357 90.49 20.829C90.0827 21.5137 89.5063 22.0467 88.761 22.428C88.0157 22.8093 87.162 23 86.2 23H82.365V13.9ZM86.122 21.869C86.8587 21.869 87.5043 21.726 88.059 21.44C88.6223 21.154 89.0557 20.7553 89.359 20.244C89.6623 19.724 89.814 19.126 89.814 18.45C89.814 17.774 89.6623 17.1803 89.359 16.669C89.0557 16.149 88.6223 15.746 88.059 15.46C87.5043 15.174 86.8587 15.031 86.122 15.031H83.665V21.869H86.122ZM96.0302 21.986C96.8536 21.986 97.5166 21.7087 98.0192 21.154L98.6952 21.96C98.3919 22.324 98.0062 22.6013 97.5382 22.792C97.0789 22.9827 96.5632 23.078 95.9912 23.078C95.2632 23.078 94.6176 22.9307 94.0542 22.636C93.4909 22.3327 93.0532 21.9123 92.7412 21.375C92.4379 20.8377 92.2862 20.231 92.2862 19.555C92.2862 18.8877 92.4336 18.2853 92.7282 17.748C93.0316 17.2107 93.4432 16.7947 93.9632 16.5C94.4919 16.1967 95.0856 16.045 95.7442 16.045C96.3682 16.045 96.9359 16.188 97.4472 16.474C97.9586 16.7513 98.3659 17.1457 98.6692 17.657C98.9726 18.1683 99.1286 18.7577 99.1372 19.425L93.6642 20.491C93.8376 20.9677 94.1279 21.336 94.5352 21.596C94.9512 21.856 95.4496 21.986 96.0302 21.986ZM95.7442 17.098C95.3109 17.098 94.9209 17.1977 94.5742 17.397C94.2362 17.5963 93.9719 17.878 93.7812 18.242C93.5906 18.5973 93.4952 19.0133 93.4952 19.49V19.62L97.9022 18.788C97.7896 18.2853 97.5382 17.878 97.1482 17.566C96.7582 17.254 96.2902 17.098 95.7442 17.098ZM102.859 23.078C102.296 23.078 101.754 23.0043 101.234 22.857C100.714 22.701 100.307 22.506 100.012 22.272L100.532 21.284C100.836 21.5007 101.204 21.674 101.637 21.804C102.071 21.934 102.508 21.999 102.95 21.999C104.042 21.999 104.588 21.687 104.588 21.063C104.588 20.855 104.515 20.6903 104.367 20.569C104.22 20.4477 104.034 20.361 103.808 20.309C103.592 20.2483 103.28 20.1833 102.872 20.114C102.318 20.0273 101.863 19.9277 101.507 19.815C101.161 19.7023 100.862 19.5117 100.61 19.243C100.359 18.9743 100.233 18.5973 100.233 18.112C100.233 17.488 100.493 16.9897 101.013 16.617C101.533 16.2357 102.231 16.045 103.106 16.045C103.566 16.045 104.025 16.1013 104.484 16.214C104.944 16.3267 105.321 16.4783 105.615 16.669L105.082 17.657C104.519 17.293 103.856 17.111 103.093 17.111C102.565 17.111 102.162 17.1977 101.884 17.371C101.607 17.5443 101.468 17.774 101.468 18.06C101.468 18.2853 101.546 18.463 101.702 18.593C101.858 18.723 102.049 18.8183 102.274 18.879C102.508 18.9397 102.833 19.009 103.249 19.087C103.804 19.1823 104.25 19.2863 104.588 19.399C104.935 19.503 105.23 19.685 105.472 19.945C105.715 20.205 105.836 20.569 105.836 21.037C105.836 21.661 105.568 22.1593 105.03 22.532C104.502 22.896 103.778 23.078 102.859 23.078ZM107.396 16.11H108.644V23H107.396V16.11ZM108.02 14.784C107.777 14.784 107.574 14.706 107.409 14.55C107.253 14.394 107.175 14.2033 107.175 13.978C107.175 13.7527 107.253 13.562 107.409 13.406C107.574 13.2413 107.777 13.159 108.02 13.159C108.263 13.159 108.462 13.237 108.618 13.393C108.783 13.5403 108.865 13.7267 108.865 13.952C108.865 14.186 108.783 14.3853 108.618 14.55C108.462 14.706 108.263 14.784 108.02 14.784ZM117.618 16.11V22.064C117.618 23.2687 117.319 24.157 116.721 24.729C116.123 25.3097 115.23 25.6 114.043 25.6C113.393 25.6 112.773 25.509 112.184 25.327C111.594 25.1537 111.118 24.9023 110.754 24.573L111.352 23.611C111.672 23.8883 112.067 24.105 112.535 24.261C113.011 24.4257 113.501 24.508 114.004 24.508C114.81 24.508 115.403 24.3173 115.785 23.936C116.175 23.5547 116.37 22.974 116.37 22.194V21.648C116.075 22.0033 115.711 22.272 115.278 22.454C114.853 22.6273 114.389 22.714 113.887 22.714C113.228 22.714 112.63 22.5753 112.093 22.298C111.564 22.012 111.148 21.6177 110.845 21.115C110.541 20.6037 110.39 20.023 110.39 19.373C110.39 18.723 110.541 18.1467 110.845 17.644C111.148 17.1327 111.564 16.7383 112.093 16.461C112.63 16.1837 113.228 16.045 113.887 16.045C114.407 16.045 114.888 16.1403 115.33 16.331C115.78 16.5217 116.149 16.8033 116.435 17.176V16.11H117.618ZM114.03 21.622C114.48 21.622 114.883 21.5267 115.239 21.336C115.603 21.1453 115.884 20.881 116.084 20.543C116.292 20.1963 116.396 19.8063 116.396 19.373C116.396 18.7057 116.175 18.1683 115.733 17.761C115.291 17.345 114.723 17.137 114.03 17.137C113.328 17.137 112.756 17.345 112.314 17.761C111.872 18.1683 111.651 18.7057 111.651 19.373C111.651 19.8063 111.75 20.1963 111.95 20.543C112.158 20.881 112.439 21.1453 112.795 21.336C113.159 21.5267 113.57 21.622 114.03 21.622ZM123.681 16.045C124.557 16.045 125.25 16.3007 125.761 16.812C126.281 17.3147 126.541 18.0557 126.541 19.035V23H125.293V19.178C125.293 18.5107 125.133 18.008 124.812 17.67C124.492 17.332 124.032 17.163 123.434 17.163C122.758 17.163 122.225 17.3623 121.835 17.761C121.445 18.151 121.25 18.7143 121.25 19.451V23H120.002V16.11H121.198V17.15C121.45 16.7947 121.788 16.5217 122.212 16.331C122.646 16.1403 123.135 16.045 123.681 16.045ZM85.017 39.104C84.3323 39.104 83.6693 39 83.028 38.792C82.3953 38.5753 81.897 38.298 81.533 37.96L82.014 36.946C82.3607 37.258 82.8027 37.5137 83.34 37.713C83.886 37.9037 84.445 37.999 85.017 37.999C85.771 37.999 86.3343 37.8733 86.707 37.622C87.0797 37.362 87.266 37.0197 87.266 36.595C87.266 36.283 87.162 36.0317 86.954 35.841C86.7547 35.6417 86.5033 35.49 86.2 35.386C85.9053 35.282 85.485 35.165 84.939 35.035C84.2543 34.8703 83.6997 34.7057 83.275 34.541C82.859 34.3763 82.4993 34.125 82.196 33.787C81.9013 33.4403 81.754 32.9767 81.754 32.396C81.754 31.9107 81.8797 31.473 82.131 31.083C82.391 30.693 82.781 30.381 83.301 30.147C83.821 29.913 84.4667 29.796 85.238 29.796C85.7753 29.796 86.304 29.8653 86.824 30.004C87.344 30.1427 87.7903 30.342 88.163 30.602L87.734 31.642C87.3527 31.3993 86.9453 31.2173 86.512 31.096C86.0787 30.966 85.654 30.901 85.238 30.901C84.5013 30.901 83.9467 31.0353 83.574 31.304C83.21 31.5727 83.028 31.9193 83.028 32.344C83.028 32.656 83.132 32.9117 83.34 33.111C83.548 33.3017 83.8037 33.4533 84.107 33.566C84.419 33.67 84.8393 33.7827 85.368 33.904C86.0527 34.0687 86.603 34.2333 87.019 34.398C87.435 34.5627 87.7903 34.814 88.085 35.152C88.3883 35.49 88.54 35.945 88.54 36.517C88.54 36.9937 88.41 37.4313 88.15 37.83C87.89 38.22 87.4957 38.532 86.967 38.766C86.4383 38.9913 85.7883 39.104 85.017 39.104ZM96.6792 32.11V38.064C96.6792 39.2687 96.3976 40.157 95.8342 40.729C95.2709 41.3097 94.4259 41.6 93.2992 41.6C92.6839 41.6 92.0946 41.509 91.5312 41.327C90.9766 41.1537 90.5216 40.9023 90.1662 40.573L90.7772 39.611C91.0806 39.8883 91.4446 40.105 91.8692 40.261C92.3026 40.417 92.7576 40.495 93.2342 40.495C93.9882 40.495 94.5429 40.3043 94.8982 39.923C95.2536 39.5503 95.4312 38.974 95.4312 38.194V37.687C95.1799 38.0163 94.8549 38.272 94.4562 38.454C94.0576 38.6273 93.6242 38.714 93.1562 38.714C92.2376 38.714 91.5139 38.4627 90.9852 37.96C90.4566 37.4573 90.1922 36.712 90.1922 35.724V32.11H91.4402V35.581C91.4402 36.2397 91.6006 36.7423 91.9212 37.089C92.2419 37.427 92.7012 37.596 93.2992 37.596C93.9579 37.596 94.4779 37.3967 94.8592 36.998C95.2406 36.5993 95.4312 36.036 95.4312 35.308V32.11H96.6792ZM101.031 39.078C100.468 39.078 99.9261 39.0043 99.4061 38.857C98.8861 38.701 98.4787 38.506 98.1841 38.272L98.7041 37.284C99.0074 37.5007 99.3757 37.674 99.8091 37.804C100.242 37.934 100.68 37.999 101.122 37.999C102.214 37.999 102.76 37.687 102.76 37.063C102.76 36.855 102.686 36.6903 102.539 36.569C102.392 36.4477 102.205 36.361 101.98 36.309C101.763 36.2483 101.451 36.1833 101.044 36.114C100.489 36.0273 100.034 35.9277 99.6791 35.815C99.3324 35.7023 99.0334 35.5117 98.7821 35.243C98.5307 34.9743 98.4051 34.5973 98.4051 34.112C98.4051 33.488 98.6651 32.9897 99.1851 32.617C99.7051 32.2357 100.403 32.045 101.278 32.045C101.737 32.045 102.197 32.1013 102.656 32.214C103.115 32.3267 103.492 32.4783 103.787 32.669L103.254 33.657C102.691 33.293 102.028 33.111 101.265 33.111C100.736 33.111 100.333 33.1977 100.056 33.371C99.7787 33.5443 99.6401 33.774 99.6401 34.06C99.6401 34.2853 99.7181 34.463 99.8741 34.593C100.03 34.723 100.221 34.8183 100.446 34.879C100.68 34.9397 101.005 35.009 101.421 35.087C101.976 35.1823 102.422 35.2863 102.76 35.399C103.107 35.503 103.401 35.685 103.644 35.945C103.887 36.205 104.008 36.569 104.008 37.037C104.008 37.661 103.739 38.1593 103.202 38.532C102.673 38.896 101.95 39.078 101.031 39.078ZM109.195 38.597C109.013 38.753 108.787 38.8743 108.519 38.961C108.25 39.039 107.973 39.078 107.687 39.078C106.993 39.078 106.456 38.8917 106.075 38.519C105.693 38.1463 105.503 37.6133 105.503 36.92V30.602H106.751V32.11H108.727V33.137H106.751V36.868C106.751 37.2407 106.842 37.5267 107.024 37.726C107.214 37.9253 107.483 38.025 107.83 38.025C108.211 38.025 108.536 37.9167 108.805 37.7L109.195 38.597ZM113.575 37.986C114.398 37.986 115.061 37.7087 115.564 37.154L116.24 37.96C115.937 38.324 115.551 38.6013 115.083 38.792C114.624 38.9827 114.108 39.078 113.536 39.078C112.808 39.078 112.162 38.9307 111.599 38.636C111.036 38.3327 110.598 37.9123 110.286 37.375C109.983 36.8377 109.831 36.231 109.831 35.555C109.831 34.8877 109.978 34.2853 110.273 33.748C110.576 33.2107 110.988 32.7947 111.508 32.5C112.037 32.1967 112.63 32.045 113.289 32.045C113.913 32.045 114.481 32.188 114.992 32.474C115.503 32.7513 115.911 33.1457 116.214 33.657C116.517 34.1683 116.673 34.7577 116.682 35.425L111.209 36.491C111.382 36.9677 111.673 37.336 112.08 37.596C112.496 37.856 112.994 37.986 113.575 37.986ZM113.289 33.098C112.856 33.098 112.466 33.1977 112.119 33.397C111.781 33.5963 111.517 33.878 111.326 34.242C111.135 34.5973 111.04 35.0133 111.04 35.49V35.62L115.447 34.788C115.334 34.2853 115.083 33.878 114.693 33.566C114.303 33.254 113.835 33.098 113.289 33.098ZM127.047 32.045C127.914 32.045 128.598 32.2963 129.101 32.799C129.612 33.3017 129.868 34.047 129.868 35.035V39H128.62V35.178C128.62 34.5107 128.464 34.008 128.152 33.67C127.849 33.332 127.411 33.163 126.839 33.163C126.206 33.163 125.704 33.3623 125.331 33.761C124.958 34.151 124.772 34.7143 124.772 35.451V39H123.524V35.178C123.524 34.5107 123.368 34.008 123.056 33.67C122.753 33.332 122.315 33.163 121.743 33.163C121.11 33.163 120.608 33.3623 120.235 33.761C119.862 34.151 119.676 34.7143 119.676 35.451V39H118.428V32.11H119.624V33.137C119.875 32.7817 120.205 32.513 120.612 32.331C121.019 32.1403 121.483 32.045 122.003 32.045C122.54 32.045 123.017 32.1533 123.433 32.37C123.849 32.5867 124.17 32.903 124.395 33.319C124.655 32.9203 125.015 32.6083 125.474 32.383C125.942 32.1577 126.466 32.045 127.047 32.045Z" fill="#22242D"/>
  <rect x="65" y="5" width="2" height="41" fill="#22242D"/>
  </svg>
