<svg width="48" height="48" viewBox="0 0 48 48" fill="none" xmlns="http://www.w3.org/2000/svg">
<path d="M47.5237 24.5512C47.5237 22.9197 47.3914 21.2794 47.1092 19.6744H24.4717V28.9164H37.4351C36.8972 31.8971 35.1687 34.5339 32.6378 36.2094V42.2061H40.3717C44.9133 38.0261 47.5237 31.853 47.5237 24.5512Z" fill="#4285F4"/>
<path d="M24.4717 48.0001C30.9446 48.0001 36.4033 45.8748 40.3805 42.2062L32.6466 36.2095C30.4948 37.6734 27.7169 38.5024 24.4805 38.5024C18.2192 38.5024 12.9104 34.2782 11.0056 28.599H3.02466V34.7809C7.09888 42.8852 15.3972 48.0001 24.4717 48.0001Z" fill="#34A853"/>
<path d="M10.9968 28.599C9.99143 25.6183 9.99143 22.3906 10.9968 19.4099V13.228H3.02468C-0.379322 20.0096 -0.379322 27.9993 3.02468 34.7808L10.9968 28.599Z" fill="#FBBC04"/>
<path d="M24.4717 9.49773C27.8933 9.44482 31.2003 10.7323 33.6783 13.0958L40.5304 6.24365C36.1917 2.16942 30.4331 -0.0705189 24.4717 3.04179e-05C15.3972 3.04179e-05 7.09888 5.11486 3.02466 13.228L10.9967 19.4099C12.8927 13.7219 18.2104 9.49773 24.4717 9.49773Z" fill="#EA4335"/>
</svg>
