<svg width="224" height="57" viewBox="0 0 224 57" fill="none" xmlns="http://www.w3.org/2000/svg">
<path d="M36.8323 21.8915C37.5211 21.6956 38.2531 21.597 39.0348 21.597C41.1178 21.597 42.8045 22.2712 44.0899 23.6177C45.3798 24.9597 46.0272 26.5447 46.0272 28.3713C46.0272 29.6554 45.7181 30.8582 45.0999 31.9826C44.4861 33.1059 43.2892 34.6323 41.5108 36.5486L35.8751 42.6309H46.3319V44.8188H30.9484L39.604 35.4719C41.3576 33.5886 42.5005 32.1957 43.0309 31.2875C43.5614 30.3818 43.8247 29.4233 43.8247 28.4203C43.8247 27.1463 43.3509 26.0486 42.3975 25.1314C41.4491 24.2149 40.2852 23.7538 38.9082 23.7538C38.1208 23.7538 37.4066 23.8969 36.7617 24.1818C36.8183 23.6323 36.8386 22.0963 36.8323 21.8915Z" fill="white"/>
<path d="M20.2894 7.375C11.7247 7.375 4.78125 14.2994 4.78125 22.8405C4.78125 31.3816 11.7247 38.306 20.2894 38.306C28.854 38.306 35.7975 31.3816 35.7975 22.8405C35.7975 14.2994 28.854 7.375 20.2894 7.375ZM20.2894 35.4318C13.4089 35.4318 7.83161 29.7948 7.83161 22.8405C7.83161 15.8862 13.4095 10.2492 20.2894 10.2492C27.1698 10.2492 32.7471 15.8862 32.7471 22.8405C32.7471 29.7948 27.1698 35.4318 20.2894 35.4318Z" fill="white"/>
<path d="M32.7064 21.8591L28.1919 21.8699L25.941 25.9201L20.325 12.2291L15.2724 23.4759L7.84686 23.46C7.87676 24.0795 7.95181 24.6869 8.06693 25.2797L16.4478 25.2975L20.2486 16.8377L25.6936 30.1109L29.2636 23.6871L32.7172 23.6788C32.735 23.4015 32.7477 23.1223 32.7477 22.8405C32.7471 22.5098 32.7312 22.1835 32.7064 21.8591Z" fill="#FF7300"/>
<path d="M67.632 38.252C63.88 38.252 60.926 37.174 58.77 35.018C56.614 32.862 55.536 29.67 55.536 25.442V8.6H58.644V25.316C58.644 28.788 59.428 31.35 60.996 33.002C62.564 34.654 64.776 35.48 67.632 35.48C70.516 35.48 72.742 34.654 74.31 33.002C75.878 31.35 76.662 28.788 76.662 25.316V8.6H79.686V25.442C79.686 29.67 78.608 32.862 76.452 35.018C74.324 37.174 71.384 38.252 67.632 38.252ZM89.0517 38V8.6H92.1597V38H89.0517Z" fill="white"/>
<path d="M136.63 26.9248C138.549 26.9248 140.106 25.3687 140.106 23.4492C140.106 21.5297 138.549 19.9736 136.63 19.9736C134.71 19.9736 133.154 21.5297 133.154 23.4492C133.154 25.3687 134.71 26.9248 136.63 26.9248Z" fill="#00D8FF"/>
<path fill-rule="evenodd" clip-rule="evenodd" d="M136.63 16.3826C141.297 16.3826 145.631 17.0522 148.9 18.1774C152.838 19.5332 155.26 21.5883 155.26 23.4491C155.26 25.3883 152.693 27.5715 148.464 28.9727C145.267 30.032 141.06 30.585 136.63 30.585C132.089 30.585 127.788 30.0659 124.555 28.961C120.464 27.5628 118 25.3513 118 23.4491C118 21.6034 120.312 19.5642 124.195 18.2105C127.475 17.0666 131.917 16.3826 136.629 16.3826H136.63Z" stroke="#00D8FF" stroke-width="1.66272"/>
<path fill-rule="evenodd" clip-rule="evenodd" d="M130.478 19.9362C132.81 15.8939 135.555 12.4731 138.163 10.2038C141.305 7.46957 144.295 6.39878 145.907 7.32831C147.587 8.29705 148.196 11.6108 147.297 15.9742C146.618 19.2732 144.994 23.194 142.782 27.0313C140.513 30.9655 137.915 34.4318 135.342 36.68C132.088 39.5252 128.941 40.5549 127.293 39.6045C125.694 38.6831 125.083 35.6611 125.85 31.6212C126.498 28.2078 128.124 24.0181 130.478 19.9362L130.478 19.9362Z" stroke="#00D8FF" stroke-width="1.66272"/>
<path fill-rule="evenodd" clip-rule="evenodd" d="M130.484 27.0416C128.146 23.0038 126.555 18.9159 125.89 15.5234C125.091 11.4359 125.656 8.3107 127.266 7.37847C128.945 6.40689 132.12 7.53393 135.451 10.4919C137.97 12.7283 140.556 16.0923 142.776 19.926C145.051 23.8564 146.757 27.8384 147.42 31.1897C148.259 35.4305 147.58 38.6708 145.934 39.6238C144.336 40.5486 141.413 39.5695 138.296 36.8872C135.663 34.6211 132.845 31.1195 130.484 27.0415V27.0416Z" stroke="#00D8FF" stroke-width="1.66272"/>
<path fill-rule="evenodd" clip-rule="evenodd" d="M175.21 32.329L170.95 25.893C173.103 25.703 175.043 24.143 175.043 21.293C175.043 18.393 172.985 16.537 170.098 16.537H163.758V32.317H165.722V26.047H168.869L172.891 32.317L175.21 32.329ZM169.863 24.332H165.723V18.299H169.863C171.733 18.299 173.01 19.529 173.01 21.304C173.01 23.079 171.732 24.334 169.863 24.334V24.332ZM182.521 32.612C184.391 32.612 185.928 31.997 187.064 30.862L186.212 29.702C185.312 30.625 183.988 31.145 182.687 31.145C180.227 31.145 178.712 29.347 178.57 27.195H187.82V26.745C187.82 23.315 185.785 20.617 182.33 20.617C179.065 20.617 176.7 23.291 176.7 26.603C176.7 30.176 179.137 32.603 182.52 32.603L182.521 32.612ZM186.071 25.892H178.571C178.666 24.142 179.871 22.082 182.309 22.082C184.912 22.082 186.047 24.188 186.071 25.892ZM199.605 32.328V24.473C199.605 21.705 197.595 20.616 195.181 20.616C193.311 20.616 191.845 21.231 190.615 22.509L191.443 23.739C192.46 22.651 193.573 22.154 194.945 22.154C196.601 22.154 197.832 23.029 197.832 24.567V26.625C196.909 25.56 195.608 25.063 194.046 25.063C192.106 25.063 190.046 26.27 190.046 28.825C190.046 31.309 192.104 32.611 194.046 32.611C195.584 32.611 196.886 32.067 197.832 31.026V32.326L199.605 32.328ZM194.685 31.334C193.029 31.334 191.869 30.294 191.869 28.85C191.869 27.383 193.029 26.342 194.685 26.342C195.939 26.342 197.145 26.815 197.832 27.762V29.915C197.146 30.861 195.939 31.335 194.685 31.335V31.334ZM208.185 32.612C210.267 32.612 211.497 31.76 212.373 30.625L211.19 29.537C210.433 30.554 209.463 31.027 208.29 31.027C205.853 31.027 204.34 29.134 204.34 26.603C204.34 24.072 205.854 22.203 208.29 22.203C209.473 22.203 210.443 22.653 211.19 23.693L212.373 22.605C211.498 21.469 210.267 20.618 208.185 20.618C204.778 20.618 202.483 23.221 202.483 26.604C202.483 30.011 204.778 32.604 208.185 32.604V32.612ZM217.745 32.612C218.785 32.612 219.425 32.304 219.875 31.879L219.355 30.554C219.118 30.814 218.655 31.027 218.148 31.027C217.368 31.027 216.988 30.412 216.988 29.56V22.462H219.308V20.901H216.988V17.778H215.213V20.901H213.32V22.463H215.213V29.94C215.213 31.644 216.065 32.614 217.745 32.614V32.612Z" fill="#00D8FF"/>
<g filter="url(#filter0_d_220_80)">
<rect x="107" y="1" width="1" height="49" fill="white"/>
</g>
<defs>
<filter id="filter0_d_220_80" x="103" y="0" width="9" height="57" filterUnits="userSpaceOnUse" color-interpolation-filters="sRGB">
<feFlood flood-opacity="0" result="BackgroundImageFix"/>
<feColorMatrix in="SourceAlpha" type="matrix" values="0 0 0 0 0 0 0 0 0 0 0 0 0 0 0 0 0 0 127 0" result="hardAlpha"/>
<feOffset dy="3"/>
<feGaussianBlur stdDeviation="2"/>
<feComposite in2="hardAlpha" operator="out"/>
<feColorMatrix type="matrix" values="0 0 0 0 0.0833333 0 0 0 0 0.0833333 0 0 0 0 0.0833333 0 0 0 0.2 0"/>
<feBlend mode="normal" in2="BackgroundImageFix" result="effect1_dropShadow_220_80"/>
<feBlend mode="normal" in="SourceGraphic" in2="effect1_dropShadow_220_80" result="shape"/>
</filter>
</defs>
</svg>
