<svg width="360" height="91" viewBox="0 0 360 91" fill="none" xmlns="http://www.w3.org/2000/svg">
  <g clip-path="url(#clip0_226_133)">
  <path d="M44.9369 65.4635L38.0476 65.4786L34.6126 71.141L26.0422 52L18.3318 67.7238L7 67.7016C7.04562 68.5677 7.16015 69.4169 7.33583 70.2456L20.1254 70.2705L25.9258 58.4432L34.2351 77L39.6831 68.019L44.9534 68.0075C44.9806 67.6198 45 67.2294 45 66.8355C44.999 66.3731 44.9748 65.9169 44.9369 65.4635Z" fill="#FF7300"/>
  <path d="M25.88 88.384C22.5093 88.384 19.3733 87.8293 16.472 86.72C13.6133 85.568 11.1173 83.968 8.984 81.92C6.89333 79.8293 5.25067 77.4187 4.056 74.688C2.904 71.9147 2.328 68.8853 2.328 65.6C2.328 62.3147 2.904 59.3067 4.056 56.576C5.25067 53.8027 6.89333 51.392 8.984 49.344C11.1173 47.2533 13.6133 45.6533 16.472 44.544C19.3307 43.392 22.4667 42.816 25.88 42.816C29.2507 42.816 32.3653 43.392 35.224 44.544C38.0827 45.6533 40.5573 47.232 42.648 49.28C44.7813 51.328 46.424 53.7387 47.576 56.512C48.7707 59.2853 49.368 62.3147 49.368 65.6C49.368 68.8853 48.7707 71.9147 47.576 74.688C46.424 77.4613 44.7813 79.872 42.648 81.92C40.5573 83.968 38.0827 85.568 35.224 86.72C32.3653 87.8293 29.2507 88.384 25.88 88.384ZM25.88 84.16C28.568 84.16 31.0427 83.712 33.304 82.816C35.608 81.8773 37.592 80.576 39.256 78.912C40.9627 77.2053 42.2853 75.2427 43.224 73.024C44.1627 70.7627 44.632 68.288 44.632 65.6C44.632 62.912 44.1627 60.4587 43.224 58.24C42.2853 55.9787 40.9627 54.016 39.256 52.352C37.592 50.6453 35.608 49.344 33.304 48.448C31.0427 47.5093 28.568 47.04 25.88 47.04C23.192 47.04 20.696 47.5093 18.392 48.448C16.088 49.344 14.0827 50.6453 12.376 52.352C10.712 54.016 9.38933 55.9787 8.408 58.24C7.46933 60.4587 7 62.912 7 65.6C7 68.2453 7.46933 70.6987 8.408 72.96C9.38933 75.2213 10.712 77.2053 12.376 78.912C14.0827 80.576 16.088 81.8773 18.392 82.816C20.696 83.712 23.192 84.16 25.88 84.16ZM52.1505 88L70.5185 63.168V66.816L53.2385 43.2H58.6785L73.2065 62.912L71.0945 62.976L85.6225 43.2H90.7425L73.6545 66.496V63.168L91.9585 88H86.4545L70.9665 66.944H72.9505L57.5905 88H52.1505ZM109.109 88V71.36L110.197 74.304L91.189 43.2H96.245L112.949 70.528H110.261L126.965 43.2H131.701L112.693 74.304L113.781 71.36V88H109.109ZM156.757 88.384C153.343 88.384 150.186 87.8293 147.285 86.72C144.426 85.568 141.93 83.968 139.797 81.92C137.706 79.872 136.063 77.4613 134.869 74.688C133.717 71.9147 133.141 68.8853 133.141 65.6C133.141 62.3147 133.717 59.2853 134.869 56.512C136.063 53.7387 137.727 51.328 139.861 49.28C141.994 47.232 144.49 45.6533 147.349 44.544C150.25 43.392 153.407 42.816 156.821 42.816C160.234 42.816 163.349 43.3493 166.165 44.416C169.023 45.4827 171.455 47.104 173.461 49.28L170.517 52.288C168.639 50.4107 166.57 49.0667 164.309 48.256C162.047 47.4453 159.615 47.04 157.013 47.04C154.239 47.04 151.679 47.5093 149.333 48.448C147.029 49.344 145.002 50.6453 143.253 52.352C141.546 54.016 140.202 55.9787 139.22 58.24C138.282 60.4587 137.812 62.912 137.812 65.6C137.812 68.2453 138.282 70.6987 139.22 72.96C140.202 75.2213 141.546 77.2053 143.253 78.912C145.002 80.576 147.029 81.8773 149.333 82.816C151.679 83.712 154.218 84.16 156.949 84.16C159.509 84.16 161.919 83.776 164.181 83.008C166.485 82.24 168.597 80.9387 170.517 79.104L173.205 82.688C171.071 84.5653 168.575 85.9947 165.717 86.976C162.858 87.9147 159.871 88.384 156.757 88.384ZM168.661 82.112V65.6H173.205V82.688L168.661 82.112ZM190.833 63.232H214.513V67.264H190.833V63.232ZM191.345 83.904H218.289V88H186.609V43.2H217.329V47.296H191.345V83.904ZM229.421 88V43.2H233.325L264.237 82.112H262.189V43.2H266.861V88H262.957L232.109 49.088H234.157V88H229.421ZM316.282 88.384C310.564 88.384 306.063 86.7413 302.778 83.456C299.492 80.1707 297.85 75.3067 297.85 68.864V43.2H302.586V68.672C302.586 73.9627 303.78 77.8667 306.17 80.384C308.559 82.9013 311.93 84.16 316.282 84.16C320.676 84.16 324.068 82.9013 326.458 80.384C328.847 77.8667 330.042 73.9627 330.042 68.672V43.2H334.65V68.864C334.65 75.3067 333.007 80.1707 329.722 83.456C326.479 86.7413 321.999 88.384 316.282 88.384ZM348.921 88V43.2H353.657V88H348.921Z" fill="white"/>
  <path d="M343.241 18.2308C344.708 18.2308 345.898 17.0413 345.898 15.574C345.898 14.1067 344.708 12.9172 343.241 12.9172C341.774 12.9172 340.584 14.1067 340.584 15.574C340.584 17.0413 341.774 18.2308 343.241 18.2308Z" fill="#00D8FF"/>
  <path fill-rule="evenodd" clip-rule="evenodd" d="M343.241 10.1721C346.808 10.1721 350.122 10.684 352.621 11.5441C355.631 12.5805 357.482 14.1514 357.482 15.5739C357.482 17.0562 355.52 18.7251 352.287 19.7962C349.843 20.6059 346.627 21.0287 343.241 21.0287C339.769 21.0287 336.482 20.6319 334.01 19.7873C330.883 18.7185 329 17.028 329 15.5739C329 14.163 330.767 12.6042 333.735 11.5694C336.243 10.695 339.639 10.1721 343.241 10.1721H343.241Z" stroke="#00D8FF" stroke-width="1.66272"/>
  <path fill-rule="evenodd" clip-rule="evenodd" d="M338.539 12.8887C340.321 9.79863 342.42 7.18374 344.413 5.44902C346.815 3.35895 349.1 2.54042 350.332 3.25097C351.616 3.99149 352.082 6.52456 351.395 9.86001C350.876 12.3818 349.635 15.3789 347.943 18.3122C346.209 21.3196 344.223 23.9693 342.257 25.6879C339.769 27.8628 337.363 28.6499 336.104 27.9234C334.882 27.2191 334.414 24.909 335 21.8208C335.496 19.2116 336.739 16.0089 338.538 12.8886L338.539 12.8887Z" stroke="#00D8FF" stroke-width="1.66272"/>
  <path fill-rule="evenodd" clip-rule="evenodd" d="M338.543 18.3201C336.756 15.2336 335.539 12.1087 335.031 9.51543C334.42 6.39087 334.852 4.0019 336.083 3.28928C337.366 2.54659 339.793 3.40812 342.34 5.66925C344.265 7.37876 346.242 9.95028 347.939 12.8808C349.678 15.8853 350.982 18.9292 351.489 21.4909C352.131 24.7327 351.611 27.2096 350.353 27.9381C349.132 28.645 346.897 27.8966 344.515 25.8463C342.502 24.114 340.348 21.4373 338.543 18.32V18.3201Z" stroke="#00D8FF" stroke-width="1.66272"/>
  </g>
  <defs>
  <clipPath id="clip0_226_133">
  <rect width="360" height="91" fill="white"/>
  </clipPath>
  </defs>
  </svg>
