<!--
 * Copyright (c) 2021, WSO2 LLC. (https://www.wso2.com).
 *
 * WSO2 LLC. licenses this file to you under the Apache License,
 * Version 2.0 (the "License"); you may not use this file except
 * in compliance with the License.
 * You may obtain a copy of the License at
 *
 *     http://www.apache.org/licenses/LICENSE-2.0
 *
 * Unless required by applicable law or agreed to in writing,
 * software distributed under the License is distributed on an
 * "AS IS" BASIS, WITHOUT WARRANTIES OR CONDITIONS OF ANY
 * KIND, either express or implied. See the License for the
 * specific language governing permissions and limitations
 * under the License.
-->

<svg id="asgardeo-trifacta" xmlns="http://www.w3.org/2000/svg" width="32.022" height="27.756"
     viewBox="0 0 32.022 27.756">
    <g id="Group_603">
        <path id="Path_1937" d="M154.345,75.7l2.961,5.11-3.281,5.661h6.532l2.932,5.081H145.2Z"
              transform="translate(-131.467 -75.7)" fill="#ff7300"/>
        <path id="Path_1938"
              d="M97.9,91.552l2.932-5.081h6.532l-3.252-5.661,2.932-5.11,9.174,15.852Z"
              transform="translate(-97.9 -75.7)" fill="#ff7300"/>
        <path id="Path_1939" fill="#000"
              d="M133.926,132.552l-3.252-5.661-3.281,5.661H121.5l9.174-15.852,9.145,15.852Z"
              transform="translate(-114.648 -104.796)"/>
    </g>
    <g id="Group_604" transform="translate(26.014 26.304)">
        <path id="Path_1940" d="M188.632,166.545h-.465v1.277h-.2v-1.277H187.5V166.4h1.1v.145Z"
              transform="translate(-187.5 -166.371)"/>
        <path id="Path_1941"
              d="M193.132,166.3l.465,1.19.465-1.19h.261v1.452h-.2V167.2l.029-.61-.465,1.161h-.145l-.465-1.161.029.61v.552h-.2V166.3Z"
              transform="translate(-191.332 -166.3)"/>
    </g>
</svg>
