<svg width="326" height="48" viewBox="0 0 326 48" fill="none" xmlns="http://www.w3.org/2000/svg">
<g clip-path="url(#clip0_130_113)">
<path d="M319.48 0L321.42 3.35L319.27 7.06H323.56L325.49 10.41H313.47L319.48 0Z" fill="#FF7300"/>
<path d="M304.45 10.41L306.38 7.06H310.67L308.53 3.35L310.46 0L316.48 10.41H304.45Z" fill="#FF7300"/>
<path d="M317.11 18.2301L314.97 14.5101L312.83 18.2301H308.96L314.97 7.81006L320.98 18.2301H317.11Z" fill="black"/>
<path d="M44.11 47.1V39.31H63.77C64.1977 39.3155 64.6221 39.2342 65.0174 39.0709C65.4128 38.9076 65.7709 38.6657 66.07 38.36C66.5292 37.9038 66.8428 37.3216 66.9709 36.6871C67.099 36.0526 67.0359 35.3943 66.7896 34.7957C66.5433 34.1971 66.1249 33.6851 65.5873 33.3244C65.0498 32.9638 64.4173 32.7708 63.77 32.77H55.17C53.7139 32.7961 52.268 32.5219 50.9225 31.9644C49.5771 31.407 48.361 30.5782 47.35 29.53C46.3007 28.5197 45.4714 27.3037 44.9139 25.9581C44.3563 24.6125 44.0827 23.1662 44.11 21.71C44.0828 20.2552 44.3566 18.8105 44.9142 17.4665C45.4717 16.1226 46.301 14.9083 47.35 13.9C48.359 12.8484 49.5745 12.0169 50.9203 11.4576C52.266 10.8983 53.7129 10.6233 55.17 10.65H74.83V18.44H55.17C54.7402 18.4386 54.3144 18.5223 53.9171 18.6862C53.5197 18.85 53.1587 19.0909 52.8548 19.3948C52.5509 19.6987 52.3101 20.0597 52.1462 20.457C51.9823 20.8544 51.8987 21.2802 51.9 21.71C51.896 22.1405 51.9778 22.5675 52.1407 22.9661C52.3037 23.3646 52.5444 23.7267 52.8488 24.0311C53.1533 24.3356 53.5153 24.5763 53.9139 24.7392C54.3124 24.9021 54.7394 24.984 55.17 24.98H63.77C66.7 24.9905 69.5071 26.1591 71.5789 28.231C73.6508 30.3029 74.8194 33.1099 74.83 36.04C74.8247 38.9716 73.6578 41.7817 71.5847 43.8547C69.5117 45.9277 66.7017 47.0947 63.77 47.1H44.11Z" fill="black"/>
<path d="M95.92 47.1C93.5201 47.1482 91.1361 46.6995 88.9179 45.7823C86.6996 44.8651 84.695 43.499 83.03 41.77C81.3031 40.107 79.9376 38.1058 79.0188 35.8915C78.1 33.6771 77.6477 31.297 77.69 28.9C77.6449 26.4996 78.0959 24.1157 79.0148 21.8977C79.9337 19.6797 81.3006 17.6753 83.03 16.01C84.6945 14.2796 86.6988 12.9121 88.917 11.9931C91.1352 11.0742 93.5194 10.6237 95.92 10.67H111.28V18.46H95.92C93.1572 18.4706 90.5109 19.5748 88.5601 21.5313C86.6093 23.4877 85.5126 26.1371 85.51 28.9C85.5153 31.6593 86.6137 34.304 88.5648 36.2551C90.516 38.2062 93.1607 39.3047 95.92 39.31H103.51V32.77H97.75V24.98H111.28V47.1H95.92Z" fill="black"/>
<path d="M185.6 47.1L168.03 29.68V47.1H160.23V10.65H179.89C181.347 10.6228 182.794 10.8975 184.14 11.4568C185.486 12.0161 186.701 12.848 187.71 13.9C188.76 14.9079 189.591 16.1218 190.15 17.4657C190.71 18.8097 190.985 20.2546 190.96 21.71C190.985 23.167 190.71 24.6135 190.151 25.959C189.591 27.3046 188.761 28.5203 187.71 29.53C186.801 30.4499 185.747 31.2135 184.59 31.79L182.28 32.9L196.51 47.1H185.6ZM179.89 24.98C180.32 24.9814 180.746 24.8977 181.143 24.7338C181.54 24.5699 181.901 24.3291 182.205 24.0252C182.509 23.7213 182.75 23.3603 182.914 22.963C183.078 22.5656 183.161 22.1398 183.16 21.71C183.161 21.2802 183.078 20.8544 182.914 20.4571C182.75 20.0598 182.509 19.6988 182.205 19.3949C181.901 19.0909 181.54 18.8501 181.143 18.6863C180.746 18.5224 180.32 18.4387 179.89 18.44H168.03V24.98H179.89Z" fill="black"/>
<path d="M199.38 47.1V10.65H214.74C217.141 10.6037 219.525 11.0542 221.743 11.9731C223.961 12.892 225.965 14.2596 227.63 15.99C229.362 17.6576 230.73 19.6652 231.649 21.8869C232.568 24.1085 233.018 26.4962 232.97 28.9C233.015 31.3004 232.564 33.6842 231.645 35.9022C230.726 38.1203 229.359 40.1247 227.63 41.79C225.965 43.519 223.96 44.885 221.742 45.8023C219.524 46.7195 217.14 47.1681 214.74 47.12L199.38 47.1ZM214.74 39.31C217.504 39.3126 220.157 38.2177 222.115 36.2657C224.072 34.3137 225.175 31.6644 225.18 28.9C225.177 26.1319 224.077 23.478 222.119 21.5207C220.162 19.5634 217.508 18.4626 214.74 18.46H207.18V39.31H214.74Z" fill="black"/>
<path d="M287.03 47.0999C284.632 47.1479 282.249 46.6992 280.033 45.7819C277.816 44.8646 275.813 43.4987 274.15 41.7699C272.421 40.1084 271.054 38.1075 270.135 35.8928C269.217 33.678 268.765 31.2973 268.81 28.8999C268.762 26.4992 269.212 24.1146 270.131 21.8962C271.05 19.6779 272.419 17.6737 274.15 16.0099C275.842 14.3176 277.851 12.9751 280.062 12.0592C282.272 11.1433 284.642 10.6719 287.035 10.6719C289.428 10.6719 291.798 11.1433 294.008 12.0592C296.219 12.9751 298.228 14.3176 299.92 16.0099C301.649 17.6752 303.016 19.6796 303.935 21.8976C304.854 24.1157 305.305 26.4995 305.26 28.8999C305.305 31.3003 304.854 33.6842 303.935 35.9022C303.016 38.1202 301.649 40.1246 299.92 41.7899C298.253 43.5153 296.248 44.8776 294.03 45.7914C291.812 46.7052 289.428 47.1507 287.03 47.0999ZM287.03 18.4399C284.26 18.4452 281.606 19.5499 279.65 21.5112C277.694 23.4726 276.597 26.1301 276.6 28.8999C276.601 30.6173 277.025 32.3079 277.836 33.8219C278.647 35.3359 279.818 36.6266 281.247 37.5796C282.676 38.5325 284.317 39.1183 286.027 39.285C287.736 39.4517 289.46 39.1941 291.046 38.5352C292.632 37.8763 294.031 36.8363 295.118 35.5074C296.206 34.1785 296.949 32.6018 297.282 30.917C297.615 29.2321 297.527 27.4913 297.026 25.8486C296.525 24.2059 295.626 22.7123 294.41 21.4999C293.452 20.5153 292.304 19.7361 291.035 19.21C289.766 18.6839 288.403 18.4219 287.03 18.4399V18.4399Z" fill="black"/>
<path d="M0 47.0999H8.71L21.04 25.7299L33.37 47.0999H42.08L21.04 10.6499L0 47.0999Z" fill="black"/>
<path d="M114.66 47.0999H123.36L135.7 25.7299L148.03 47.0999H156.74L135.7 10.6499L114.66 47.0999Z" fill="black"/>
<path d="M236.34 46.9899V10.6699H266.79V18.3999H244.11V25.0799H261.12V32.6099H244.11V39.2699H266.79V46.9899H236.34Z" fill="black"/>
</g>
<defs>
<clipPath id="clip0_130_113">
<rect width="325.49" height="47.11" fill="white"/>
</clipPath>
</defs>
</svg>
