<svg xmlns="http://www.w3.org/2000/svg" version="1.1" xmlns:xlink="http://www.w3.org/1999/xlink" xmlns:svgjs="http://svgjs.com/svgjs" width="200" height="200"><svg width="200" height="200" viewBox="0 0 200 200" fill="none" xmlns="http://www.w3.org/2000/svg">
<circle cx="100" cy="100" r="100" fill="black"></circle>
<path d="M99.8105 4.87793C47.3822 4.87793 4.87805 47.2653 4.87805 99.5496C4.87805 151.834 47.3822 194.221 99.8105 194.221C152.239 194.221 194.743 151.834 194.743 99.5496C194.743 47.2653 152.239 4.87793 99.8105 4.87793ZM99.8105 176.627C57.6919 176.627 23.5507 142.12 23.5507 99.5496C23.5507 56.9793 57.6957 22.4722 99.8105 22.4722C141.929 22.4722 176.07 56.9793 176.07 99.5496C176.07 142.12 141.929 176.627 99.8105 176.627Z" fill="white"></path>
<path d="M175.821 93.5428L148.186 93.609L134.407 118.402L100.028 34.593L69.0994 103.44L23.6441 103.342C23.8271 107.135 24.2865 110.853 24.9912 114.481L76.2944 114.59L99.5613 62.8045L132.893 144.056L154.746 104.732L175.887 104.682C175.996 102.984 176.074 101.275 176.074 99.5503C176.07 97.5258 175.973 95.5285 175.821 93.5428Z" fill="#FF7300"></path>
</svg><style>@media (prefers-color-scheme: light) { :root { filter: none; } }
</style></svg>