<svg width="255" height="64" viewBox="0 0 255 64" fill="none" xmlns="http://www.w3.org/2000/svg">
<g clip-path="url(#clip0_105_65)">
<path d="M45.9353 25.0791L38.8646 25.096L35.3393 31.438L26.5433 10L18.63 27.6107L7 27.5858C7.04682 28.5558 7.16436 29.5069 7.34467 30.4351L20.4708 30.463L26.4238 17.2164L34.9518 38L40.5431 27.9413L45.9522 27.9284C45.9801 27.4942 46 27.0569 46 26.6158C45.999 26.0979 45.9741 25.587 45.9353 25.0791Z" fill="#47EBD8"/>
<path d="M26.88 48.384C22.4427 48.384 18.4107 47.4027 14.784 45.44C11.2 43.4347 8.384 40.704 6.336 37.248C4.33067 33.792 3.328 29.9093 3.328 25.6C3.328 21.2907 4.33067 17.408 6.336 13.952C8.384 10.496 11.2 7.78666 14.784 5.824C18.4107 3.81866 22.4427 2.816 26.88 2.816C31.3173 2.816 35.3067 3.79733 38.848 5.76C42.432 7.72267 45.248 10.4533 47.296 13.952C49.344 17.408 50.368 21.2907 50.368 25.6C50.368 29.9093 49.344 33.8133 47.296 37.312C45.248 40.768 42.432 43.4773 38.848 45.44C35.3067 47.4027 31.3173 48.384 26.88 48.384ZM26.88 44.16C30.4213 44.16 33.6213 43.3707 36.48 41.792C39.3387 40.1707 41.5787 37.952 43.2 35.136C44.8213 32.2773 45.632 29.0987 45.632 25.6C45.632 22.1013 44.8213 18.944 43.2 16.128C41.5787 13.2693 39.3387 11.0507 36.48 9.472C33.6213 7.85066 30.4213 7.04 26.88 7.04C23.3387 7.04 20.1173 7.85066 17.216 9.472C14.3573 11.0507 12.096 13.2693 10.432 16.128C8.81067 18.944 8 22.1013 8 25.6C8 29.0987 8.81067 32.2773 10.432 35.136C12.096 37.952 14.3573 40.1707 17.216 41.792C20.1173 43.3707 23.3387 44.16 26.88 44.16ZM80.7135 48L70.0255 33.92L59.2735 48H54.1535L67.4655 30.72L54.7935 14.336H59.9135L70.0255 27.52L80.1375 14.336H85.1295L72.4575 30.72L85.8975 48H80.7135ZM123.172 14.336V43.904C123.172 49.6213 121.871 53.8453 119.268 56.576C116.665 59.3493 112.74 60.736 107.492 60.736C104.548 60.736 101.753 60.2667 99.108 59.328C96.5053 58.432 94.3933 57.1733 92.772 55.552L95.076 52.096C96.5267 53.5467 98.3187 54.6773 100.452 55.488C102.585 56.2987 104.868 56.704 107.3 56.704C111.183 56.704 114.041 55.7013 115.876 53.696C117.711 51.7333 118.628 48.6613 118.628 44.48V40.576C117.433 42.5387 115.791 44.0533 113.7 45.12C111.652 46.1867 109.327 46.72 106.724 46.72C102.329 46.72 98.852 45.504 96.292 43.072C93.7747 40.5973 92.516 36.992 92.516 32.256V14.336H97.06V31.808C97.06 35.3493 97.9347 38.0373 99.684 39.872C101.433 41.7067 103.929 42.624 107.172 42.624C110.713 42.624 113.508 41.5573 115.556 39.424C117.604 37.248 118.628 34.24 118.628 30.4V14.336H123.172ZM167.067 14.336V43.904C167.067 49.6213 165.659 53.8453 162.843 56.576C160.069 59.3493 155.867 60.736 150.235 60.736C147.12 60.736 144.155 60.2667 141.339 59.328C138.565 58.432 136.304 57.1733 134.555 55.552L136.859 52.096C138.48 53.5467 140.443 54.6773 142.747 55.488C145.093 56.2987 147.547 56.704 150.107 56.704C154.373 56.704 157.509 55.7013 159.515 53.696C161.52 51.7333 162.523 48.6613 162.523 44.48V40.192C161.115 42.3253 159.259 43.9467 156.955 45.056C154.693 46.1653 152.176 46.72 149.403 46.72C146.245 46.72 143.365 46.0373 140.763 44.672C138.203 43.264 136.176 41.3227 134.683 38.848C133.232 36.3307 132.507 33.4933 132.507 30.336C132.507 27.1787 133.232 24.3627 134.683 21.888C136.176 19.4133 138.203 17.4933 140.763 16.128C143.323 14.7627 146.203 14.08 149.403 14.08C152.261 14.08 154.843 14.656 157.147 15.808C159.451 16.96 161.307 18.624 162.715 20.8V14.336H167.067ZM149.851 42.688C152.283 42.688 154.48 42.176 156.443 41.152C158.405 40.0853 159.92 38.6133 160.987 36.736C162.096 34.8587 162.651 32.7253 162.651 30.336C162.651 27.9467 162.096 25.8347 160.987 24C159.92 22.1227 158.405 20.672 156.443 19.648C154.523 18.5813 152.325 18.048 149.851 18.048C147.419 18.048 145.221 18.56 143.259 19.584C141.339 20.608 139.824 22.0587 138.715 23.936C137.648 25.8133 137.115 27.9467 137.115 30.336C137.115 32.7253 137.648 34.8587 138.715 36.736C139.824 38.6133 141.339 40.0853 143.259 41.152C145.221 42.176 147.419 42.688 149.851 42.688ZM194.174 44.288C196.264 44.288 198.184 43.9253 199.934 43.2C201.726 42.432 203.24 41.3227 204.478 39.872L207.038 42.816C205.544 44.608 203.688 45.9733 201.47 46.912C199.251 47.8507 196.798 48.32 194.11 48.32C190.654 48.32 187.582 47.5947 184.894 46.144C182.206 44.6507 180.115 42.6027 178.622 40C177.128 37.3973 176.382 34.4533 176.382 31.168C176.382 27.8827 177.086 24.9387 178.494 22.336C179.944 19.7333 181.928 17.7067 184.446 16.256C186.963 14.8053 189.822 14.08 193.022 14.08C196.008 14.08 198.696 14.7627 201.086 16.128C203.518 17.4933 205.438 19.392 206.846 21.824C208.296 24.256 209.064 27.0293 209.15 30.144L181.502 35.52C182.355 38.2507 183.891 40.4053 186.11 41.984C188.371 43.52 191.059 44.288 194.174 44.288ZM193.022 17.984C190.675 17.984 188.563 18.5387 186.686 19.648C184.851 20.7147 183.4 22.2293 182.334 24.192C181.31 26.112 180.798 28.3307 180.798 30.848C180.798 31.488 180.819 31.9573 180.862 32.256L204.606 27.648C204.094 24.832 202.792 22.528 200.702 20.736C198.611 18.9013 196.051 17.984 193.022 17.984ZM235.551 14.08C239.775 14.08 243.124 15.3173 245.599 17.792C248.116 20.224 249.375 23.7867 249.375 28.48V48H244.831V28.928C244.831 25.4293 243.956 22.7627 242.207 20.928C240.457 19.0933 237.961 18.176 234.719 18.176C231.092 18.176 228.212 19.264 226.079 21.44C223.988 23.5733 222.943 26.5387 222.943 30.336V48H218.399V14.336H222.751V20.544C223.988 18.496 225.695 16.9173 227.871 15.808C230.089 14.656 232.649 14.08 235.551 14.08Z" fill="#22242D"/>
</g>
<defs>
<clipPath id="clip0_105_65">
<rect width="255" height="64" fill="white"/>
</clipPath>
</defs>
</svg>
