<svg width="51" height="20" viewBox="0 0 51 20" fill="none" xmlns="http://www.w3.org/2000/svg">
<path d="M18.8238 0.959035L14.5394 11.9164L10.2316 0.197723L5.6661 11.8902L1.77195 0.959035H0L5.59659 16.3106L10.1885 4.61781L14.4919 16.3232L20.5954 0.959035H18.8238Z" fill="white"/>
<path d="M27.4435 8.75866C26.7288 8.17333 22.9855 6.22504 22.504 5.88803C22.0243 5.55205 21.7832 5.06285 21.7832 4.42078C21.7832 3.77769 22.0277 3.25554 22.5156 2.85468C23.0035 2.45109 23.5972 2.25201 24.2967 2.25201C24.7476 2.25201 25.1328 2.33898 25.4546 2.5153C25.775 2.69093 26.0812 2.97629 26.3717 3.37037L26.5257 3.60953C26.5684 3.64045 26.6281 3.71349 26.701 3.82831L27.9904 2.99702C27.5676 2.25201 27.04 1.68638 26.405 1.29876C25.7719 0.912158 25.0901 0.718857 24.3628 0.718857C23.1238 0.718857 22.11 1.06843 21.3231 1.76961C20.5371 2.47045 20.1441 3.37003 20.1441 4.46563C20.1441 5.50109 20.4995 6.30113 21.2136 6.86235C21.9286 7.42425 25.4905 9.27674 26.0439 9.65654C26.5979 10.0353 26.8736 10.5972 26.8736 11.3426C26.8736 12.1895 26.5952 12.8927 26.033 13.4539C25.4715 14.0175 24.7605 14.2975 23.9027 14.2975C23.1452 14.2975 22.519 14.0641 22.0239 13.5963C21.5282 13.1285 21.1776 12.4596 20.9738 11.5831L19.3999 12.0658C19.5369 12.6569 19.7376 13.1839 19.9967 13.6428C20.2632 14.1109 20.5924 14.5084 20.9854 14.8346C21.7645 15.4855 22.7519 15.8106 23.9474 15.8106C25.2149 15.8106 26.2921 15.3747 27.1818 14.5067C28.0694 13.6381 28.5143 12.5761 28.5143 11.3195C28.5146 10.196 28.1579 9.34128 27.4435 8.75866Z" fill="white"/>
<path d="M45.7954 7.75379C46.1626 7.64915 46.5528 7.5965 46.9695 7.5965C48.08 7.5965 48.9792 7.9566 49.6644 8.67579C50.352 9.3926 50.6972 10.2392 50.6972 11.2149C50.6972 11.9007 50.5324 12.5432 50.2029 13.1438C49.8757 13.7437 49.2375 14.5591 48.2895 15.5826L45.2851 18.8314H50.8596V20H42.6587L47.273 15.0075C48.2078 14.0016 48.8171 13.2576 49.0999 12.7725C49.3827 12.2887 49.523 11.7768 49.523 11.241C49.523 10.5606 49.2704 9.9742 48.7622 9.48432C48.2566 8.99478 47.6361 8.74849 46.9021 8.74849C46.4823 8.74849 46.1015 8.82492 45.7577 8.97712C45.7879 8.6836 45.7988 7.86318 45.7954 7.75379Z" fill="white"/>
<path d="M36.9766 0C32.4108 0 28.7092 3.69853 28.7092 8.26063C28.7092 12.8227 32.4108 16.5213 36.9766 16.5213C41.5425 16.5213 45.244 12.8227 45.244 8.26063C45.244 3.69853 41.5425 0 36.9766 0ZM36.9766 14.9861C33.3086 14.9861 30.3354 11.9751 30.3354 8.26063C30.3354 4.54613 33.309 1.53519 36.9766 1.53519C40.6446 1.53519 43.6179 4.54613 43.6179 8.26063C43.6179 11.9751 40.6446 14.9861 36.9766 14.9861Z" fill="white"/>
<path d="M43.596 7.73644L41.1893 7.74222L39.9893 9.90555L36.9954 2.59274L34.3018 8.60001L30.3433 8.59152C30.3592 8.9224 30.3992 9.24684 30.4606 9.56346L34.9284 9.57297L36.9547 5.05435L39.8574 12.144L41.7606 8.7128L43.6017 8.70838C43.6112 8.56026 43.618 8.41112 43.618 8.26063C43.6176 8.08397 43.6092 7.9097 43.596 7.73644Z" fill="white"/>
</svg>
